%TF.GenerationSoftware,KiCad,Pcbnew,10.0.3*%
%TF.CreationDate,2026-07-01T17:20:40-07:00*%
%TF.ProjectId,Wheel V3,57686565-6c20-4563-932e-6b696361645f,rev?*%
%TF.SameCoordinates,Original*%
%TF.FileFunction,Copper,L2,Bot*%
%TF.FilePolarity,Positive*%
%FSLAX46Y46*%
G04 Gerber Fmt 4.6, Leading zero omitted, Abs format (unit mm)*
G04 Created by KiCad (PCBNEW 10.0.3) date 2026-07-01 17:20:40*
%MOMM*%
%LPD*%
G01*
G04 APERTURE LIST*
G04 Aperture macros list*
%AMRoundRect*
0 Rectangle with rounded corners*
0 $1 Rounding radius*
0 $2 $3 $4 $5 $6 $7 $8 $9 X,Y pos of 4 corners*
0 Add a 4 corners polygon primitive as box body*
4,1,4,$2,$3,$4,$5,$6,$7,$8,$9,$2,$3,0*
0 Add four circle primitives for the rounded corners*
1,1,$1+$1,$2,$3*
1,1,$1+$1,$4,$5*
1,1,$1+$1,$6,$7*
1,1,$1+$1,$8,$9*
0 Add four rect primitives between the rounded corners*
20,1,$1+$1,$2,$3,$4,$5,0*
20,1,$1+$1,$4,$5,$6,$7,0*
20,1,$1+$1,$6,$7,$8,$9,0*
20,1,$1+$1,$8,$9,$2,$3,0*%
G04 Aperture macros list end*
%TA.AperFunction,ComponentPad*%
%ADD10RoundRect,0.250000X0.600000X0.725000X-0.600000X0.725000X-0.600000X-0.725000X0.600000X-0.725000X0*%
%TD*%
%TA.AperFunction,ComponentPad*%
%ADD11O,1.700000X1.950000*%
%TD*%
%TA.AperFunction,ComponentPad*%
%ADD12RoundRect,0.250000X-0.600000X-0.725000X0.600000X-0.725000X0.600000X0.725000X-0.600000X0.725000X0*%
%TD*%
%TA.AperFunction,ComponentPad*%
%ADD13RoundRect,0.250000X-0.725000X0.600000X-0.725000X-0.600000X0.725000X-0.600000X0.725000X0.600000X0*%
%TD*%
%TA.AperFunction,ComponentPad*%
%ADD14O,1.950000X1.700000*%
%TD*%
%TA.AperFunction,ComponentPad*%
%ADD15RoundRect,0.250000X0.725000X-0.600000X0.725000X0.600000X-0.725000X0.600000X-0.725000X-0.600000X0*%
%TD*%
%TA.AperFunction,ComponentPad*%
%ADD16O,2.100000X1.000000*%
%TD*%
%TA.AperFunction,ComponentPad*%
%ADD17O,1.600000X1.000000*%
%TD*%
%TA.AperFunction,ComponentPad*%
%ADD18RoundRect,0.250000X-0.750000X0.600000X-0.750000X-0.600000X0.750000X-0.600000X0.750000X0.600000X0*%
%TD*%
%TA.AperFunction,ComponentPad*%
%ADD19O,2.000000X1.700000*%
%TD*%
%TA.AperFunction,ComponentPad*%
%ADD20RoundRect,0.250000X-0.600000X-0.750000X0.600000X-0.750000X0.600000X0.750000X-0.600000X0.750000X0*%
%TD*%
%TA.AperFunction,ComponentPad*%
%ADD21O,1.700000X2.000000*%
%TD*%
%TA.AperFunction,ViaPad*%
%ADD22C,0.600000*%
%TD*%
%TA.AperFunction,Conductor*%
%ADD23C,0.200000*%
%TD*%
G04 APERTURE END LIST*
D10*
%TO.P,J13,1,Pin_1_1*%
%TO.N,M_PWR*%
X111520000Y-74930000D03*
D11*
%TO.P,J13,2,Pin_2_2*%
%TO.N,M_ENC_Z*%
X109020000Y-74930000D03*
%TO.P,J13,3,Pin_3_3*%
%TO.N,M_ENC_B*%
X106520000Y-74930000D03*
%TO.P,J13,4,Pin_4_4*%
%TO.N,M_ENC_A*%
X104020000Y-74930000D03*
%TO.P,J13,5,Pin_5_5*%
%TO.N,GND*%
X101520000Y-74930000D03*
%TO.P,J13,6,Pin_6_6*%
%TO.N,M_SCK*%
X99020000Y-74930000D03*
%TO.P,J13,7,Pin_7_7*%
%TO.N,M_MISO*%
X96520000Y-74930000D03*
%TO.P,J13,8,Pin_8_8*%
%TO.N,M_MOSI*%
X94020000Y-74930000D03*
%TO.P,J13,9,Pin_9_9*%
%TO.N,M_CSN*%
X91520000Y-74930000D03*
%TD*%
D12*
%TO.P,J10,1,Pin_1_1*%
%TO.N,+3V3*%
X175888000Y-32766000D03*
D11*
%TO.P,J10,2,Pin_2_2*%
%TO.N,SWDIO*%
X178388000Y-32766000D03*
%TO.P,J10,3,Pin_3_3*%
%TO.N,SWCLK*%
X180888000Y-32766000D03*
%TO.P,J10,4,Pin_4_4*%
%TO.N,GND*%
X183388000Y-32766000D03*
%TO.P,J10,5,Pin_5_5*%
%TO.N,NRST*%
X185888000Y-32766000D03*
%TD*%
D12*
%TO.P,J6,1,Pin_1_1*%
%TO.N,+3V3*%
X153870000Y-25400000D03*
D11*
%TO.P,J6,2,Pin_2_2*%
%TO.N,GND*%
X156370000Y-25400000D03*
%TO.P,J6,3,Pin_3_3*%
%TO.N,I2C_SCL*%
X158870000Y-25400000D03*
%TO.P,J6,4,Pin_4_4*%
%TO.N,I2C_SDA*%
X161370000Y-25400000D03*
%TO.P,J6,5,Pin_5_5*%
%TO.N,I2C_GPIO_1*%
X163870000Y-25400000D03*
%TO.P,J6,6,Pin_6_6*%
%TO.N,I2C_GPIO_2*%
X166370000Y-25400000D03*
%TO.P,J6,7,Pin_7_7*%
%TO.N,I2C_GPIO_3*%
X168870000Y-25400000D03*
%TD*%
D13*
%TO.P,J12,1,Pin_1_1*%
%TO.N,+3V3*%
X209550000Y-38380000D03*
D14*
%TO.P,J12,2,Pin_2_2*%
%TO.N,ENC_Z*%
X209550000Y-40880000D03*
%TO.P,J12,3,Pin_3_3*%
%TO.N,ENC_B*%
X209550000Y-43380000D03*
%TO.P,J12,4,Pin_4_4*%
%TO.N,ENC_A*%
X209550000Y-45880000D03*
%TO.P,J12,5,Pin_5_5*%
%TO.N,GND*%
X209550000Y-48380000D03*
%TO.P,J12,6,Pin_6_6*%
%TO.N,SPI2_SCK*%
X209550000Y-50880000D03*
%TO.P,J12,7,Pin_7_7*%
%TO.N,SPI2_MISO*%
X209550000Y-53380000D03*
%TO.P,J12,8,Pin_8_8*%
%TO.N,SPI2_MOSI*%
X209550000Y-55880000D03*
%TO.P,J12,9,Pin_9_9*%
%TO.N,SPI2_CS*%
X209550000Y-58380000D03*
%TD*%
D15*
%TO.P,J8,1,Pin_1_1*%
%TO.N,+5V*%
X198120000Y-40052000D03*
D14*
%TO.P,J8,2,Pin_2_2*%
%TO.N,GND*%
X198120000Y-37552000D03*
%TO.P,J8,3,Pin_3_3*%
%TO.N,UART_TX*%
X198120000Y-35052000D03*
%TO.P,J8,4,Pin_4_4*%
%TO.N,UART_RX*%
X198120000Y-32552000D03*
%TD*%
D16*
%TO.P,J2,SH,SHIELD_SH*%
%TO.N,Net-(J2-SHIELD)*%
X222984500Y-32565000D03*
D17*
X227164500Y-32565000D03*
D16*
X222984500Y-23925000D03*
D17*
X227164500Y-23925000D03*
%TD*%
D18*
%TO.P,J9,1,Pin_1_1*%
%TO.N,GND*%
X130810000Y-50840000D03*
D19*
%TO.P,J9,2,Pin_2_2*%
%TO.N,Net-(J9-Pin_2)*%
X130810000Y-53340000D03*
%TD*%
D12*
%TO.P,J11,1,Pin_1_1*%
%TO.N,+3V3*%
X163950000Y-71120000D03*
D11*
%TO.P,J11,2,Pin_2_2*%
%TO.N,GND*%
X166450000Y-71120000D03*
%TO.P,J11,3,Pin_3_3*%
%TO.N,SPI1_SCK*%
X168950000Y-71120000D03*
%TO.P,J11,4,Pin_4_4*%
%TO.N,SPI1_MISO*%
X171450000Y-71120000D03*
%TO.P,J11,5,Pin_5_5*%
%TO.N,SPI1_CS*%
X173950000Y-71120000D03*
%TD*%
D13*
%TO.P,J3,1,Pin_1_1*%
%TO.N,Net-(J3-Pin_1)*%
X150114000Y-62484000D03*
D14*
%TO.P,J3,2,Pin_2_2*%
%TO.N,Net-(J3-Pin_2)*%
X150114000Y-64984000D03*
%TO.P,J3,3,Pin_3_3*%
%TO.N,Net-(J3-Pin_3)*%
X150114000Y-67484000D03*
%TO.P,J3,4,Pin_4_4*%
%TO.N,Net-(J3-Pin_4)*%
X150114000Y-69984000D03*
%TO.P,J3,5,Pin_5_5*%
%TO.N,Net-(J3-Pin_5)*%
X150114000Y-72484000D03*
%TO.P,J3,6,Pin_6_6*%
%TO.N,Net-(J3-Pin_6)*%
X150114000Y-74984000D03*
%TO.P,J3,7,Pin_7_7*%
%TO.N,Net-(J3-Pin_7)*%
X150114000Y-77484000D03*
%TD*%
D10*
%TO.P,J4,1,Pin_1_1*%
%TO.N,GND*%
X202692000Y-48514000D03*
D11*
%TO.P,J4,2,Pin_2_2*%
%TO.N,PWM1*%
X200192000Y-48514000D03*
%TO.P,J4,3,Pin_3_3*%
%TO.N,PWM2*%
X197692000Y-48514000D03*
%TO.P,J4,4,Pin_4_4*%
%TO.N,PWM3*%
X195192000Y-48514000D03*
%TO.P,J4,5,Pin_5_5*%
%TO.N,PWM4*%
X192692000Y-48514000D03*
%TD*%
D18*
%TO.P,J7,1,Pin_1_1*%
%TO.N,E_STOP*%
X130810000Y-41950000D03*
D19*
%TO.P,J7,2,Pin_2_2*%
%TO.N,GND*%
X130810000Y-44450000D03*
%TD*%
D10*
%TO.P,J5,1,Pin_1_1*%
%TO.N,+5V*%
X182720000Y-26670000D03*
D11*
%TO.P,J5,2,Pin_2_2*%
%TO.N,GND*%
X180220000Y-26670000D03*
%TO.P,J5,3,Pin_3_3*%
%TO.N,CAN_RX*%
X177720000Y-26670000D03*
%TO.P,J5,4,Pin_4_4*%
%TO.N,CAN_TX*%
X175220000Y-26670000D03*
%TD*%
D20*
%TO.P,J1,1,Pin_1_1*%
%TO.N,PE10*%
X181650000Y-71120000D03*
D21*
%TO.P,J1,2,Pin_2_2*%
%TO.N,GND*%
X184150000Y-71120000D03*
%TD*%
D22*
%TO.N,GND*%
X147558000Y-46356000D03*
X149108000Y-47244000D03*
%TO.N,+5V*%
X189738000Y-33020000D03*
X189738000Y-35814000D03*
%TO.N,Net-(D1-A)*%
X213333500Y-24384000D03*
X212598000Y-26162000D03*
%TO.N,+3V3*%
X152908000Y-53340000D03*
X176022000Y-37084000D03*
X153162000Y-55880000D03*
X157734000Y-50890000D03*
X183642000Y-42672000D03*
X142748000Y-56134000D03*
X180340000Y-37592000D03*
X181356000Y-40640000D03*
%TO.N,SWDIO*%
X176830000Y-38613374D03*
X175514000Y-42164000D03*
%TO.N,NRST*%
X172898528Y-44358000D03*
X155194000Y-46990000D03*
X181102000Y-38354000D03*
X148082000Y-41148000D03*
%TO.N,I2C_SCL*%
X158425735Y-30804265D03*
X163830000Y-35814000D03*
X162306000Y-35814000D03*
%TO.N,I2C_SDA*%
X166116000Y-37338000D03*
X164084000Y-30734000D03*
%TO.N,SPI2_MOSI*%
X179054388Y-51390000D03*
%TO.N,UART_TX*%
X180562758Y-44601693D03*
%TO.N,UART_RX*%
X180724137Y-43818137D03*
%TO.N,USB_D+_IN*%
X223774000Y-27395000D03*
X224028000Y-28702000D03*
%TO.N,Net-(R5-Pad1)*%
X213106000Y-28702000D03*
X208280000Y-31242000D03*
%TO.N,Net-(J9-Pin_2)*%
X157734000Y-50090000D03*
X159258000Y-48890000D03*
%TO.N,Net-(J3-Pin_4)*%
X151638000Y-68834000D03*
X163576000Y-56642000D03*
%TO.N,Net-(J3-Pin_6)*%
X176530000Y-44958000D03*
X161798000Y-55626000D03*
%TO.N,Net-(J3-Pin_7)*%
X161036000Y-55880000D03*
X175514000Y-40894000D03*
%TO.N,USB_D-*%
X179324000Y-42672000D03*
X202946000Y-31496000D03*
%TD*%
%TO.N,GND*%
D23*
X149108000Y-47244000D02*
X148446000Y-47244000D01*
X148446000Y-47244000D02*
X147558000Y-46356000D01*
%TO.N,+5V*%
X189738000Y-33020000D02*
X189738000Y-35814000D01*
%TO.N,Net-(D1-A)*%
X212598000Y-25119500D02*
X213333500Y-24384000D01*
X212598000Y-26162000D02*
X212598000Y-25119500D01*
%TO.N,+3V3*%
X183642000Y-42672000D02*
X181610000Y-40640000D01*
X181610000Y-40640000D02*
X181356000Y-40640000D01*
X176022000Y-37084000D02*
X176276000Y-37338000D01*
X153162000Y-55880000D02*
X153162000Y-53594000D01*
X153162000Y-53594000D02*
X152908000Y-53340000D01*
X157734000Y-50890000D02*
X147992000Y-50890000D01*
X176276000Y-37338000D02*
X180086000Y-37338000D01*
X180086000Y-37338000D02*
X180340000Y-37592000D01*
X147992000Y-50890000D02*
X142748000Y-56134000D01*
%TO.N,SWDIO*%
X176830000Y-38613374D02*
X176830000Y-40594000D01*
X176830000Y-40594000D02*
X175514000Y-41910000D01*
X175514000Y-41910000D02*
X175514000Y-42164000D01*
%TO.N,NRST*%
X175098000Y-44358000D02*
X172898528Y-44358000D01*
X181102000Y-38354000D02*
X175098000Y-44358000D01*
X148336000Y-40386000D02*
X148590000Y-40386000D01*
X148082000Y-41148000D02*
X148082000Y-40640000D01*
X148590000Y-40386000D02*
X155194000Y-46990000D01*
X148082000Y-40640000D02*
X148336000Y-40386000D01*
%TO.N,I2C_SCL*%
X162306000Y-35814000D02*
X163830000Y-35814000D01*
X158870000Y-30360000D02*
X158425735Y-30804265D01*
X158870000Y-25400000D02*
X158870000Y-30360000D01*
%TO.N,I2C_SDA*%
X166116000Y-32766000D02*
X166116000Y-37338000D01*
X164084000Y-30734000D02*
X166116000Y-32766000D01*
%TO.N,SPI2_MOSI*%
X179832000Y-51308000D02*
X184404000Y-55880000D01*
X179054388Y-51390000D02*
X179136388Y-51308000D01*
X179136388Y-51308000D02*
X179832000Y-51308000D01*
X184404000Y-55880000D02*
X209550000Y-55880000D01*
%TO.N,UART_TX*%
X180562758Y-44601693D02*
X188570307Y-44601693D01*
X188570307Y-44601693D02*
X198120000Y-35052000D01*
%TO.N,UART_RX*%
X194778000Y-32552000D02*
X198120000Y-32552000D01*
X183511863Y-43818137D02*
X194778000Y-32552000D01*
X180724137Y-43818137D02*
X183511863Y-43818137D01*
%TO.N,USB_D+_IN*%
X224065000Y-27686000D02*
X223774000Y-27395000D01*
X224536000Y-28702000D02*
X224790000Y-28448000D01*
X224790000Y-27940000D02*
X224536000Y-27686000D01*
X224536000Y-27686000D02*
X224065000Y-27686000D01*
X224028000Y-28702000D02*
X224536000Y-28702000D01*
X224790000Y-28448000D02*
X224790000Y-27940000D01*
%TO.N,Net-(R5-Pad1)*%
X210820000Y-28702000D02*
X213106000Y-28702000D01*
X208280000Y-31242000D02*
X210820000Y-28702000D01*
%TO.N,Net-(J9-Pin_2)*%
X158058000Y-50090000D02*
X159258000Y-48890000D01*
X157734000Y-50090000D02*
X158058000Y-50090000D01*
%TO.N,Net-(J3-Pin_4)*%
X153924000Y-68834000D02*
X163576000Y-59182000D01*
X163576000Y-59182000D02*
X163576000Y-56642000D01*
X151638000Y-68834000D02*
X153924000Y-68834000D01*
%TO.N,Net-(J3-Pin_6)*%
X172466000Y-44958000D02*
X176530000Y-44958000D01*
X161798000Y-55626000D02*
X172466000Y-44958000D01*
%TO.N,Net-(J3-Pin_7)*%
X161036000Y-55372000D02*
X175514000Y-40894000D01*
X161036000Y-55880000D02*
X161036000Y-55372000D01*
%TO.N,USB_D-*%
X189745471Y-31402000D02*
X202852000Y-31402000D01*
X179324000Y-42672000D02*
X179324000Y-41823471D01*
X202852000Y-31402000D02*
X202946000Y-31496000D01*
X179324000Y-41823471D02*
X189745471Y-31402000D01*
%TD*%
M02*
