%TF.GenerationSoftware,KiCad,Pcbnew,10.0.3*%
%TF.CreationDate,2026-06-02T20:56:28-07:00*%
%TF.ProjectId,Wheel,57686565-6c2e-46b6-9963-61645f706362,rev?*%
%TF.SameCoordinates,Original*%
%TF.FileFunction,Copper,L2,Bot*%
%TF.FilePolarity,Positive*%
%FSLAX46Y46*%
G04 Gerber Fmt 4.6, Leading zero omitted, Abs format (unit mm)*
G04 Created by KiCad (PCBNEW 10.0.3) date 2026-06-02 20:56:28*
%MOMM*%
%LPD*%
G01*
G04 APERTURE LIST*
%TA.AperFunction,ComponentPad*%
%ADD10R,1.700000X1.700000*%
%TD*%
%TA.AperFunction,ComponentPad*%
%ADD11C,1.700000*%
%TD*%
%TA.AperFunction,ComponentPad*%
%ADD12O,1.000000X2.100000*%
%TD*%
%TA.AperFunction,ComponentPad*%
%ADD13O,1.000000X1.600000*%
%TD*%
%TA.AperFunction,ComponentPad*%
%ADD14R,2.030000X1.730000*%
%TD*%
%TA.AperFunction,ComponentPad*%
%ADD15O,2.030000X1.730000*%
%TD*%
%TA.AperFunction,ViaPad*%
%ADD16C,0.600000*%
%TD*%
%TA.AperFunction,Conductor*%
%ADD17C,0.200000*%
%TD*%
G04 APERTURE END LIST*
D10*
%TO.P,J3,1,Pin_1_1*%
%TO.N,GND*%
X131150000Y-42930000D03*
D11*
%TO.P,J3,2,Pin_2_2*%
%TO.N,U*%
X128610000Y-42930000D03*
%TO.P,J3,3,Pin_3_3*%
%TO.N,V*%
X126070000Y-42930000D03*
%TO.P,J3,4,Pin_4_4*%
%TO.N,W*%
X123530000Y-42930000D03*
%TO.P,J3,5,Pin_5_5*%
%TO.N,CAL*%
X120990000Y-42930000D03*
%TD*%
D12*
%TO.P,J1,SH,SHIELD_SH*%
%TO.N,GND*%
X99440000Y-31410000D03*
D13*
X99440000Y-27230000D03*
D12*
X90800000Y-31410000D03*
D13*
X90800000Y-27230000D03*
%TD*%
D10*
%TO.P,J4,1,Pin_1_1*%
%TO.N,GND*%
X134770000Y-45350000D03*
D11*
%TO.P,J4,2,Pin_2_2*%
%TO.N,VDDA(1)*%
X134770000Y-42810000D03*
%TO.P,J4,3,Pin_3_3*%
%TO.N,Net-(J4-Pin_3)*%
X134770000Y-40270000D03*
%TO.P,J4,4,Pin_4_4*%
%TO.N,Net-(J4-Pin_4)*%
X134770000Y-37730000D03*
%TO.P,J4,5,Pin_5_5*%
%TO.N,Net-(J4-Pin_5)*%
X134770000Y-35190000D03*
%TO.P,J4,6,Pin_6_6*%
%TO.N,Net-(J4-Pin_6)*%
X134770000Y-32650000D03*
%TD*%
D14*
%TO.P,J7,1,Pin_1_1*%
%TO.N,VDDA(1)*%
X119110000Y-65300000D03*
D15*
%TO.P,J7,2,Pin_2_2*%
%TO.N,TX_OUT*%
X119110000Y-62760000D03*
%TO.P,J7,3,Pin_3_3*%
%TO.N,RX_IN*%
X119110000Y-60220000D03*
%TO.P,J7,4,Pin_4_4*%
%TO.N,GND*%
X119110000Y-57680000D03*
%TD*%
D14*
%TO.P,J6,1,Pin_1_1*%
%TO.N,VDDA(1)*%
X112440000Y-53640000D03*
D15*
%TO.P,J6,2,Pin_2_2*%
%TO.N,GND*%
X112440000Y-56180000D03*
%TO.P,J6,3,Pin_3_3*%
%TO.N,Net-(J6-Pin_3)*%
X112440000Y-58720000D03*
%TO.P,J6,4,Pin_4_4*%
%TO.N,Net-(J6-Pin_4)*%
X112440000Y-61260000D03*
%TD*%
D10*
%TO.P,J5,1,Pin_1_1*%
%TO.N,GND*%
X113320000Y-64870000D03*
D11*
%TO.P,J5,2,Pin_2_2*%
%TO.N,VDDA(1)*%
X113320000Y-67410000D03*
%TO.P,J5,3,Pin_3_3*%
%TO.N,Net-(J5-Pin_3)*%
X113320000Y-69950000D03*
%TO.P,J5,4,Pin_4_4*%
%TO.N,Net-(J5-Pin_4)*%
X113320000Y-72490000D03*
%TO.P,J5,5,Pin_5_5*%
%TO.N,Net-(J5-Pin_5)*%
X113320000Y-75030000D03*
%TO.P,J5,6,Pin_6_6*%
%TO.N,Net-(J5-Pin_6)*%
X113320000Y-77570000D03*
%TD*%
D10*
%TO.P,J2,1,Pin_1_1*%
%TO.N,GND*%
X117190000Y-42930000D03*
D11*
%TO.P,J2,2,Pin_2_2*%
%TO.N,A*%
X117190000Y-40390000D03*
%TO.P,J2,3,Pin_3_3*%
%TO.N,B*%
X117190000Y-37850000D03*
%TO.P,J2,4,Pin_4_4*%
%TO.N,Z*%
X117190000Y-35310000D03*
%TO.P,J2,5,Pin_5_5*%
%TO.N,PWM*%
X117190000Y-32770000D03*
%TD*%
D16*
%TO.N,Net-(U1-NRST)*%
X87140000Y-63100000D03*
X84070000Y-64350000D03*
%TO.N,VDDA(1)*%
X105770000Y-69650000D03*
X103630000Y-70860000D03*
X131610000Y-38200000D03*
X126740000Y-31590000D03*
%TO.N,USB_DP*%
X94510000Y-33790000D03*
X102780000Y-57980000D03*
%TO.N,USB_DM*%
X95770000Y-34610000D03*
X101920000Y-58870000D03*
%TO.N,Net-(J6-Pin_4)*%
X108480000Y-59375000D03*
X102950000Y-55080000D03*
%TO.N,SCK*%
X109110000Y-73180000D03*
X106170000Y-68830000D03*
%TO.N,MISO*%
X107263670Y-72217640D03*
X102410000Y-68190000D03*
%TO.N,MOSI*%
X106136985Y-67036985D03*
X111629265Y-72489265D03*
X108040518Y-66830510D03*
%TD*%
%TO.N,Net-(U1-NRST)*%
D17*
X85320000Y-63100000D02*
X87140000Y-63100000D01*
X84070000Y-64350000D02*
X85320000Y-63100000D01*
%TO.N,VDDA(1)*%
X131610000Y-36460000D02*
X126740000Y-31590000D01*
X105770000Y-69650000D02*
X104560000Y-70860000D01*
X104560000Y-70860000D02*
X103630000Y-70860000D01*
X131610000Y-38200000D02*
X131610000Y-36460000D01*
%TO.N,USB_DP*%
X102320000Y-40311471D02*
X95798529Y-33790000D01*
X102320000Y-57520000D02*
X102320000Y-40311471D01*
X95798529Y-33790000D02*
X94510000Y-33790000D01*
X102780000Y-57980000D02*
X102320000Y-57520000D01*
%TO.N,USB_DM*%
X101920000Y-40760000D02*
X95770000Y-34610000D01*
X101920000Y-58870000D02*
X101920000Y-40760000D01*
%TO.N,Net-(J6-Pin_4)*%
X107245000Y-59375000D02*
X102950000Y-55080000D01*
X108480000Y-59375000D02*
X107245000Y-59375000D01*
%TO.N,SCK*%
X109110000Y-71770000D02*
X106170000Y-68830000D01*
X109110000Y-73180000D02*
X109110000Y-71770000D01*
%TO.N,MISO*%
X102410000Y-71530000D02*
X102410000Y-68190000D01*
X103097640Y-72217640D02*
X102410000Y-71530000D01*
X107263670Y-72217640D02*
X103097640Y-72217640D01*
%TO.N,MOSI*%
X106343460Y-66830510D02*
X106136985Y-67036985D01*
X108040518Y-66830510D02*
X106343460Y-66830510D01*
X111629265Y-70419257D02*
X108040518Y-66830510D01*
X111629265Y-72489265D02*
X111629265Y-70419257D01*
%TD*%
M02*
