%TF.GenerationSoftware,KiCad,Pcbnew,10.0.3*%
%TF.CreationDate,2026-06-02T20:56:28-07:00*%
%TF.ProjectId,Wheel,57686565-6c2e-46b6-9963-61645f706362,rev?*%
%TF.SameCoordinates,Original*%
%TF.FileFunction,Copper,L1,Top*%
%TF.FilePolarity,Positive*%
%FSLAX46Y46*%
G04 Gerber Fmt 4.6, Leading zero omitted, Abs format (unit mm)*
G04 Created by KiCad (PCBNEW 10.0.3) date 2026-06-02 20:56:28*
%MOMM*%
%LPD*%
G01*
G04 APERTURE LIST*
G04 Aperture macros list*
%AMRoundRect*
0 Rectangle with rounded corners*
0 $1 Rounding radius*
0 $2 $3 $4 $5 $6 $7 $8 $9 X,Y pos of 4 corners*
0 Add a 4 corners polygon primitive as box body*
4,1,4,$2,$3,$4,$5,$6,$7,$8,$9,$2,$3,0*
0 Add four circle primitives for the rounded corners*
1,1,$1+$1,$2,$3*
1,1,$1+$1,$4,$5*
1,1,$1+$1,$6,$7*
1,1,$1+$1,$8,$9*
0 Add four rect primitives between the rounded corners*
20,1,$1+$1,$2,$3,$4,$5,0*
20,1,$1+$1,$4,$5,$6,$7,0*
20,1,$1+$1,$6,$7,$8,$9,0*
20,1,$1+$1,$8,$9,$2,$3,0*%
G04 Aperture macros list end*
%TA.AperFunction,SMDPad,CuDef*%
%ADD10RoundRect,0.225000X-0.225000X-0.250000X0.225000X-0.250000X0.225000X0.250000X-0.225000X0.250000X0*%
%TD*%
%TA.AperFunction,SMDPad,CuDef*%
%ADD11RoundRect,0.250000X-0.250000X-0.475000X0.250000X-0.475000X0.250000X0.475000X-0.250000X0.475000X0*%
%TD*%
%TA.AperFunction,ComponentPad*%
%ADD12R,1.700000X1.700000*%
%TD*%
%TA.AperFunction,ComponentPad*%
%ADD13C,1.700000*%
%TD*%
%TA.AperFunction,SMDPad,CuDef*%
%ADD14RoundRect,0.250000X0.950000X-0.750000X0.950000X0.750000X-0.950000X0.750000X-0.950000X-0.750000X0*%
%TD*%
%TA.AperFunction,SMDPad,CuDef*%
%ADD15RoundRect,0.375000X-0.625000X-0.375000X0.625000X-0.375000X0.625000X0.375000X-0.625000X0.375000X0*%
%TD*%
%TA.AperFunction,SMDPad,CuDef*%
%ADD16RoundRect,0.500000X-0.500000X-1.400000X0.500000X-1.400000X0.500000X1.400000X-0.500000X1.400000X0*%
%TD*%
%TA.AperFunction,SMDPad,CuDef*%
%ADD17RoundRect,0.150000X-0.150000X0.587500X-0.150000X-0.587500X0.150000X-0.587500X0.150000X0.587500X0*%
%TD*%
%TA.AperFunction,SMDPad,CuDef*%
%ADD18RoundRect,0.100000X0.637500X0.100000X-0.637500X0.100000X-0.637500X-0.100000X0.637500X-0.100000X0*%
%TD*%
%TA.AperFunction,SMDPad,CuDef*%
%ADD19RoundRect,0.150000X0.150000X0.575000X-0.150000X0.575000X-0.150000X-0.575000X0.150000X-0.575000X0*%
%TD*%
%TA.AperFunction,SMDPad,CuDef*%
%ADD20RoundRect,0.075000X0.075000X0.650000X-0.075000X0.650000X-0.075000X-0.650000X0.075000X-0.650000X0*%
%TD*%
%TA.AperFunction,ComponentPad*%
%ADD21O,1.000000X2.100000*%
%TD*%
%TA.AperFunction,ComponentPad*%
%ADD22O,1.000000X1.600000*%
%TD*%
%TA.AperFunction,SMDPad,CuDef*%
%ADD23RoundRect,0.225000X0.250000X-0.225000X0.250000X0.225000X-0.250000X0.225000X-0.250000X-0.225000X0*%
%TD*%
%TA.AperFunction,SMDPad,CuDef*%
%ADD24RoundRect,0.225000X-0.250000X0.225000X-0.250000X-0.225000X0.250000X-0.225000X0.250000X0.225000X0*%
%TD*%
%TA.AperFunction,SMDPad,CuDef*%
%ADD25RoundRect,0.225000X0.225000X0.250000X-0.225000X0.250000X-0.225000X-0.250000X0.225000X-0.250000X0*%
%TD*%
%TA.AperFunction,SMDPad,CuDef*%
%ADD26RoundRect,0.200000X-0.200000X-0.275000X0.200000X-0.275000X0.200000X0.275000X-0.200000X0.275000X0*%
%TD*%
%TA.AperFunction,SMDPad,CuDef*%
%ADD27RoundRect,0.125000X0.125000X0.225000X-0.125000X0.225000X-0.125000X-0.225000X0.125000X-0.225000X0*%
%TD*%
%TA.AperFunction,SMDPad,CuDef*%
%ADD28RoundRect,0.200000X-0.275000X0.200000X-0.275000X-0.200000X0.275000X-0.200000X0.275000X0.200000X0*%
%TD*%
%TA.AperFunction,SMDPad,CuDef*%
%ADD29RoundRect,0.140000X-0.140000X-0.170000X0.140000X-0.170000X0.140000X0.170000X-0.140000X0.170000X0*%
%TD*%
%TA.AperFunction,SMDPad,CuDef*%
%ADD30R,2.180000X1.600000*%
%TD*%
%TA.AperFunction,SMDPad,CuDef*%
%ADD31RoundRect,0.250000X0.250000X0.475000X-0.250000X0.475000X-0.250000X-0.475000X0.250000X-0.475000X0*%
%TD*%
%TA.AperFunction,SMDPad,CuDef*%
%ADD32RoundRect,0.218750X0.218750X0.256250X-0.218750X0.256250X-0.218750X-0.256250X0.218750X-0.256250X0*%
%TD*%
%TA.AperFunction,ComponentPad*%
%ADD33R,2.030000X1.730000*%
%TD*%
%TA.AperFunction,ComponentPad*%
%ADD34O,2.030000X1.730000*%
%TD*%
%TA.AperFunction,SMDPad,CuDef*%
%ADD35R,5.100000X5.100000*%
%TD*%
%TA.AperFunction,SMDPad,CuDef*%
%ADD36C,17.800000*%
%TD*%
%TA.AperFunction,SMDPad,CuDef*%
%ADD37RoundRect,0.075000X-0.725000X-0.075000X0.725000X-0.075000X0.725000X0.075000X-0.725000X0.075000X0*%
%TD*%
%TA.AperFunction,SMDPad,CuDef*%
%ADD38RoundRect,0.075000X-0.075000X-0.725000X0.075000X-0.725000X0.075000X0.725000X-0.075000X0.725000X0*%
%TD*%
%TA.AperFunction,SMDPad,CuDef*%
%ADD39RoundRect,0.162500X0.162500X-0.650000X0.162500X0.650000X-0.162500X0.650000X-0.162500X-0.650000X0*%
%TD*%
%TA.AperFunction,ViaPad*%
%ADD40C,0.600000*%
%TD*%
%TA.AperFunction,Conductor*%
%ADD41C,0.200000*%
%TD*%
G04 APERTURE END LIST*
D10*
%TO.P,C1,1*%
%TO.N,GND*%
X85485000Y-63980000D03*
%TO.P,C1,2*%
%TO.N,Net-(U1-NRST)*%
X87035000Y-63980000D03*
%TD*%
D11*
%TO.P,C14,1*%
%TO.N,VDDA(1)*%
X103550000Y-48000000D03*
%TO.P,C14,2*%
%TO.N,GND*%
X105450000Y-48000000D03*
%TD*%
D12*
%TO.P,J3,1,Pin_1_1*%
%TO.N,GND*%
X131150000Y-42930000D03*
D13*
%TO.P,J3,2,Pin_2_2*%
%TO.N,U*%
X128610000Y-42930000D03*
%TO.P,J3,3,Pin_3_3*%
%TO.N,V*%
X126070000Y-42930000D03*
%TO.P,J3,4,Pin_4_4*%
%TO.N,W*%
X123530000Y-42930000D03*
%TO.P,J3,5,Pin_5_5*%
%TO.N,CAL*%
X120990000Y-42930000D03*
%TD*%
D14*
%TO.P,Y1,1,1_1*%
%TO.N,OSC_OUT*%
X79560000Y-64327500D03*
%TO.P,Y1,2,2_2*%
%TO.N,OSC_IN*%
X79560000Y-60627500D03*
%TD*%
D15*
%TO.P,U2,1,GND_1*%
%TO.N,GND*%
X94350000Y-44700000D03*
%TO.P,U2,2,VO_2*%
%TO.N,VDDA(1)*%
X94350000Y-47000000D03*
D16*
X100650000Y-47000000D03*
D15*
%TO.P,U2,3,VI_3*%
%TO.N,+5V*%
X94350000Y-49300000D03*
%TD*%
D17*
%TO.P,D3,1*%
%TO.N,VDDA(1)*%
X86950000Y-55302500D03*
%TO.P,D3,2*%
%TO.N,Net-(BT1-+)*%
X85050000Y-55302500D03*
%TO.P,D3,3*%
%TO.N,VBAT*%
X86000000Y-57177500D03*
%TD*%
D18*
%TO.P,U3,1,U_1*%
%TO.N,U*%
X131010000Y-37080000D03*
%TO.P,U3,2,V_2*%
%TO.N,V*%
X131010000Y-36430000D03*
%TO.P,U3,3,W_3*%
%TO.N,W*%
X131010000Y-35780000D03*
%TO.P,U3,4,CAL_EN_4*%
%TO.N,CAL*%
X131010000Y-35130000D03*
%TO.P,U3,5,MISO_5*%
%TO.N,Net-(J4-Pin_3)*%
X131010000Y-34480000D03*
%TO.P,U3,6,MOSI_6*%
%TO.N,Net-(J4-Pin_4)*%
X131010000Y-33830000D03*
%TO.P,U3,7,SCK_7*%
%TO.N,Net-(J4-Pin_5)*%
X131010000Y-33180000D03*
%TO.P,U3,8,CSN_8*%
%TO.N,Net-(J4-Pin_6)*%
X131010000Y-32530000D03*
%TO.P,U3,9,VDD_9*%
%TO.N,VDDA(1)*%
X125285000Y-32530000D03*
%TO.P,U3,10,PWM_OUT_10*%
%TO.N,PWM*%
X125285000Y-33180000D03*
%TO.P,U3,11,TEST_11*%
%TO.N,GND*%
X125285000Y-33830000D03*
%TO.P,U3,12,GND_12*%
X125285000Y-34480000D03*
%TO.P,U3,13,TEST_EN_13*%
X125285000Y-35130000D03*
%TO.P,U3,14,Z_14*%
%TO.N,Z*%
X125285000Y-35780000D03*
%TO.P,U3,15,B_15*%
%TO.N,B*%
X125285000Y-36430000D03*
%TO.P,U3,16,A_16*%
%TO.N,A*%
X125285000Y-37080000D03*
%TD*%
D19*
%TO.P,J1,A1,GND_A1*%
%TO.N,GND*%
X98370000Y-32325000D03*
%TO.P,J1,A4,VBUS_A4*%
%TO.N,+5V*%
X97570000Y-32325000D03*
D20*
%TO.P,J1,A5,CC1_A5*%
%TO.N,Net-(J1-CC1)*%
X96370000Y-32325000D03*
%TO.P,J1,A6,D+_A6*%
%TO.N,USB_DP*%
X95370000Y-32325000D03*
%TO.P,J1,A7,D-_A7*%
%TO.N,USB_DM*%
X94870000Y-32325000D03*
%TO.P,J1,A8*%
%TO.N,N/C*%
X93870000Y-32325000D03*
D19*
%TO.P,J1,A9,VBUS_A9*%
%TO.N,+5V*%
X92670000Y-32325000D03*
%TO.P,J1,A12,GND_A12*%
%TO.N,GND*%
X91870000Y-32325000D03*
%TO.P,J1,B1,GND_B1*%
X91870000Y-32325000D03*
%TO.P,J1,B4,VBUS_B4*%
%TO.N,+5V*%
X92670000Y-32325000D03*
D20*
%TO.P,J1,B5,CC2_B5*%
%TO.N,Net-(J1-CC2)*%
X93370000Y-32325000D03*
%TO.P,J1,B6,D+_B6*%
%TO.N,USB_DP*%
X94370000Y-32325000D03*
%TO.P,J1,B7,D-_B7*%
%TO.N,USB_DM*%
X95870000Y-32325000D03*
%TO.P,J1,B8*%
%TO.N,N/C*%
X96870000Y-32325000D03*
D19*
%TO.P,J1,B9,VBUS_B9*%
%TO.N,+5V*%
X97570000Y-32325000D03*
%TO.P,J1,B12,GND_B12*%
%TO.N,GND*%
X98370000Y-32325000D03*
D21*
%TO.P,J1,SH,SHIELD_SH*%
X99440000Y-31410000D03*
D22*
X99440000Y-27230000D03*
D21*
X90800000Y-31410000D03*
D22*
X90800000Y-27230000D03*
%TD*%
D23*
%TO.P,C10,1*%
%TO.N,GND*%
X101000000Y-73500000D03*
%TO.P,C10,2*%
%TO.N,Net-(U1-VCAP_1)*%
X101000000Y-71950000D03*
%TD*%
D10*
%TO.P,C21,1*%
%TO.N,GND*%
X82425000Y-63010000D03*
%TO.P,C21,2*%
%TO.N,OSC_OUT*%
X83975000Y-63010000D03*
%TD*%
D24*
%TO.P,C5,1*%
%TO.N,VDDA(1)*%
X91500000Y-71950000D03*
%TO.P,C5,2*%
%TO.N,GND*%
X91500000Y-73500000D03*
%TD*%
D12*
%TO.P,J4,1,Pin_1_1*%
%TO.N,GND*%
X134770000Y-45350000D03*
D13*
%TO.P,J4,2,Pin_2_2*%
%TO.N,VDDA(1)*%
X134770000Y-42810000D03*
%TO.P,J4,3,Pin_3_3*%
%TO.N,Net-(J4-Pin_3)*%
X134770000Y-40270000D03*
%TO.P,J4,4,Pin_4_4*%
%TO.N,Net-(J4-Pin_4)*%
X134770000Y-37730000D03*
%TO.P,J4,5,Pin_5_5*%
%TO.N,Net-(J4-Pin_5)*%
X134770000Y-35190000D03*
%TO.P,J4,6,Pin_6_6*%
%TO.N,Net-(J4-Pin_6)*%
X134770000Y-32650000D03*
%TD*%
D25*
%TO.P,C13,1*%
%TO.N,+5V*%
X92115000Y-49300000D03*
%TO.P,C13,2*%
%TO.N,GND*%
X90565000Y-49300000D03*
%TD*%
%TO.P,C4,1*%
%TO.N,VDDA(1)*%
X87050000Y-65500000D03*
%TO.P,C4,2*%
%TO.N,GND*%
X85500000Y-65500000D03*
%TD*%
D26*
%TO.P,R5,1*%
%TO.N,VDDA(1)*%
X104315000Y-53440000D03*
%TO.P,R5,2*%
%TO.N,Net-(D2-A)*%
X105965000Y-53440000D03*
%TD*%
D27*
%TO.P,D1,1,A1_1*%
%TO.N,VDDA(1)*%
X123210000Y-32180000D03*
%TO.P,D1,2,A2_2*%
%TO.N,GND*%
X122410000Y-32180000D03*
%TD*%
D28*
%TO.P,R1,1*%
%TO.N,GND*%
X93490000Y-51460000D03*
%TO.P,R1,2*%
%TO.N,Net-(U1-BOOT0)*%
X93490000Y-53110000D03*
%TD*%
D29*
%TO.P,C16,1*%
%TO.N,GND*%
X122400000Y-31030000D03*
%TO.P,C16,2*%
%TO.N,VDDA(1)*%
X123360000Y-31030000D03*
%TD*%
D30*
%TO.P,SW1,1,1_1*%
%TO.N,GND*%
X71930000Y-67690000D03*
%TO.P,SW1,2,2_2*%
%TO.N,Net-(U1-NRST)*%
X81110000Y-67690000D03*
%TD*%
D31*
%TO.P,C9,1*%
%TO.N,VDDA(1)*%
X85710000Y-67400000D03*
%TO.P,C9,2*%
%TO.N,GND*%
X83810000Y-67400000D03*
%TD*%
D24*
%TO.P,C19,1*%
%TO.N,GND*%
X107700000Y-60780000D03*
%TO.P,C19,2*%
%TO.N,Net-(U4-VCC)*%
X107700000Y-62330000D03*
%TD*%
D25*
%TO.P,C11,1*%
%TO.N,GND*%
X107775000Y-58000000D03*
%TO.P,C11,2*%
%TO.N,Net-(U1-VCAP_2)*%
X106225000Y-58000000D03*
%TD*%
D32*
%TO.P,D2,1,K_1*%
%TO.N,GND*%
X105897500Y-51860000D03*
%TO.P,D2,2,A_2*%
%TO.N,Net-(D2-A)*%
X104322500Y-51860000D03*
%TD*%
D33*
%TO.P,J7,1,Pin_1_1*%
%TO.N,VDDA(1)*%
X119110000Y-65300000D03*
D34*
%TO.P,J7,2,Pin_2_2*%
%TO.N,TX_OUT*%
X119110000Y-62760000D03*
%TO.P,J7,3,Pin_3_3*%
%TO.N,RX_IN*%
X119110000Y-60220000D03*
%TO.P,J7,4,Pin_4_4*%
%TO.N,GND*%
X119110000Y-57680000D03*
%TD*%
D29*
%TO.P,C15,1*%
%TO.N,GND*%
X122320000Y-33280000D03*
%TO.P,C15,2*%
%TO.N,VDDA(1)*%
X123280000Y-33280000D03*
%TD*%
D25*
%TO.P,C3,1*%
%TO.N,VDDA(1)*%
X87065000Y-60520000D03*
%TO.P,C3,2*%
%TO.N,GND*%
X85515000Y-60520000D03*
%TD*%
D24*
%TO.P,C6,1*%
%TO.N,VDDA(1)*%
X102500000Y-71950000D03*
%TO.P,C6,2*%
%TO.N,GND*%
X102500000Y-73500000D03*
%TD*%
D31*
%TO.P,C12,1*%
%TO.N,+5V*%
X92330000Y-47420000D03*
%TO.P,C12,2*%
%TO.N,GND*%
X90430000Y-47420000D03*
%TD*%
D33*
%TO.P,J6,1,Pin_1_1*%
%TO.N,VDDA(1)*%
X112440000Y-53640000D03*
D34*
%TO.P,J6,2,Pin_2_2*%
%TO.N,GND*%
X112440000Y-56180000D03*
%TO.P,J6,3,Pin_3_3*%
%TO.N,Net-(J6-Pin_3)*%
X112440000Y-58720000D03*
%TO.P,J6,4,Pin_4_4*%
%TO.N,Net-(J6-Pin_4)*%
X112440000Y-61260000D03*
%TD*%
D28*
%TO.P,R4,1*%
%TO.N,Net-(U1-PB2)*%
X95970000Y-71980000D03*
%TO.P,R4,2*%
%TO.N,GND*%
X95970000Y-73630000D03*
%TD*%
D35*
%TO.P,BT1,1,+_1*%
%TO.N,Net-(BT1-+)*%
X77270000Y-55720000D03*
X77270000Y-30120000D03*
D36*
%TO.P,BT1,2,-_2*%
%TO.N,GND*%
X77270000Y-42920000D03*
%TD*%
D28*
%TO.P,R3,1*%
%TO.N,Net-(J1-CC2)*%
X94290000Y-39485000D03*
%TO.P,R3,2*%
%TO.N,GND*%
X94290000Y-41135000D03*
%TD*%
D12*
%TO.P,J5,1,Pin_1_1*%
%TO.N,GND*%
X113320000Y-64870000D03*
D13*
%TO.P,J5,2,Pin_2_2*%
%TO.N,VDDA(1)*%
X113320000Y-67410000D03*
%TO.P,J5,3,Pin_3_3*%
%TO.N,Net-(J5-Pin_3)*%
X113320000Y-69950000D03*
%TO.P,J5,4,Pin_4_4*%
%TO.N,Net-(J5-Pin_4)*%
X113320000Y-72490000D03*
%TO.P,J5,5,Pin_5_5*%
%TO.N,Net-(J5-Pin_5)*%
X113320000Y-75030000D03*
%TO.P,J5,6,Pin_6_6*%
%TO.N,Net-(J5-Pin_6)*%
X113320000Y-77570000D03*
%TD*%
D23*
%TO.P,C8,1*%
%TO.N,VDDA(1)*%
X90520000Y-53015000D03*
%TO.P,C8,2*%
%TO.N,GND*%
X90520000Y-51465000D03*
%TD*%
D10*
%TO.P,C20,1*%
%TO.N,GND*%
X82515000Y-61510000D03*
%TO.P,C20,2*%
%TO.N,OSC_IN*%
X84065000Y-61510000D03*
%TD*%
D25*
%TO.P,C7,1*%
%TO.N,VDDA(1)*%
X85705000Y-69260000D03*
%TO.P,C7,2*%
%TO.N,GND*%
X84155000Y-69260000D03*
%TD*%
%TO.P,C2,1*%
%TO.N,GND*%
X107775000Y-56500000D03*
%TO.P,C2,2*%
%TO.N,VDDA(1)*%
X106225000Y-56500000D03*
%TD*%
D37*
%TO.P,U1,1,PE2_1*%
%TO.N,Net-(J8-Pin_3)*%
X88825000Y-56500000D03*
%TO.P,U1,2,PE3_2*%
%TO.N,Net-(J8-Pin_4)*%
X88825000Y-57000000D03*
%TO.P,U1,3,PE4_3*%
%TO.N,Net-(J8-Pin_5)*%
X88825000Y-57500000D03*
%TO.P,U1,4,PE5_4*%
%TO.N,Net-(J8-Pin_6)*%
X88825000Y-58000000D03*
%TO.P,U1,5,PE6_5*%
%TO.N,Net-(J8-Pin_7)*%
X88825000Y-58500000D03*
%TO.P,U1,6,VBAT_6*%
%TO.N,VBAT*%
X88825000Y-59000000D03*
%TO.P,U1,7,PC13_7*%
%TO.N,Net-(J10-Pin_14)*%
X88825000Y-59500000D03*
%TO.P,U1,8,PC14_8*%
%TO.N,Net-(J10-Pin_15)*%
X88825000Y-60000000D03*
%TO.P,U1,9,PC15_9*%
%TO.N,Net-(J10-Pin_16)*%
X88825000Y-60500000D03*
%TO.P,U1,10,VSS_10*%
%TO.N,GND*%
X88825000Y-61000000D03*
%TO.P,U1,11,VDD_11*%
%TO.N,VDDA(1)*%
X88825000Y-61500000D03*
%TO.P,U1,12,PH0_12*%
%TO.N,OSC_IN*%
X88825000Y-62000000D03*
%TO.P,U1,13,PH1_13*%
%TO.N,OSC_OUT*%
X88825000Y-62500000D03*
%TO.P,U1,14,NRST_14*%
%TO.N,Net-(U1-NRST)*%
X88825000Y-63000000D03*
%TO.P,U1,15,PC0_15*%
%TO.N,Net-(J10-Pin_1)*%
X88825000Y-63500000D03*
%TO.P,U1,16,PC1_16*%
%TO.N,Net-(J10-Pin_2)*%
X88825000Y-64000000D03*
%TO.P,U1,17,PC2_17*%
%TO.N,Net-(J10-Pin_3)*%
X88825000Y-64500000D03*
%TO.P,U1,18,PC3_18*%
%TO.N,Net-(J10-Pin_4)*%
X88825000Y-65000000D03*
%TO.P,U1,19,VDD_19*%
%TO.N,VDDA(1)*%
X88825000Y-65500000D03*
%TO.P,U1,20,VSSA_20*%
%TO.N,unconnected-(U1-VSSA-Pad20)*%
X88825000Y-66000000D03*
%TO.P,U1,21,VREF+_21*%
%TO.N,VDDA(1)*%
X88825000Y-66500000D03*
%TO.P,U1,22,VDDA_22*%
X88825000Y-67000000D03*
%TO.P,U1,23,PA0_23*%
%TO.N,Net-(J12-Pin_1)*%
X88825000Y-67500000D03*
%TO.P,U1,24,PA1_24*%
%TO.N,Net-(J12-Pin_2)*%
X88825000Y-68000000D03*
%TO.P,U1,25,PA2_25*%
%TO.N,Net-(J12-Pin_3)*%
X88825000Y-68500000D03*
D38*
%TO.P,U1,26,PA3_26*%
%TO.N,Net-(J12-Pin_4)*%
X90500000Y-70175000D03*
%TO.P,U1,27,VSS_27*%
%TO.N,GND*%
X91000000Y-70175000D03*
%TO.P,U1,28,VDD_28*%
%TO.N,VDDA(1)*%
X91500000Y-70175000D03*
%TO.P,U1,29,PA4_29*%
%TO.N,Net-(J5-Pin_6)*%
X92000000Y-70175000D03*
%TO.P,U1,30,PA5_30*%
%TO.N,Net-(J5-Pin_5)*%
X92500000Y-70175000D03*
%TO.P,U1,31,PA6_31*%
%TO.N,Net-(J5-Pin_3)*%
X93000000Y-70175000D03*
%TO.P,U1,32,PA7_32*%
%TO.N,Net-(J5-Pin_4)*%
X93500000Y-70175000D03*
%TO.P,U1,33,PC4_33*%
%TO.N,Net-(J10-Pin_5)*%
X94000000Y-70175000D03*
%TO.P,U1,34,PC5_34*%
%TO.N,Net-(J10-Pin_6)*%
X94500000Y-70175000D03*
%TO.P,U1,35,PB0_35*%
%TO.N,Net-(J11-Pin_1)*%
X95000000Y-70175000D03*
%TO.P,U1,36,PB1_36*%
%TO.N,Net-(J11-Pin_2)*%
X95500000Y-70175000D03*
%TO.P,U1,37,PB2_37*%
%TO.N,Net-(U1-PB2)*%
X96000000Y-70175000D03*
%TO.P,U1,38,PE7_38*%
%TO.N,Net-(J8-Pin_8)*%
X96500000Y-70175000D03*
%TO.P,U1,39,PE8_39*%
%TO.N,Net-(J8-Pin_9)*%
X97000000Y-70175000D03*
%TO.P,U1,40,PE9_40*%
%TO.N,Net-(J8-Pin_10)*%
X97500000Y-70175000D03*
%TO.P,U1,41,PE10_41*%
%TO.N,Net-(J8-Pin_11)*%
X98000000Y-70175000D03*
%TO.P,U1,42,PE11_42*%
%TO.N,Net-(J8-Pin_12)*%
X98500000Y-70175000D03*
%TO.P,U1,43,PE12_43*%
%TO.N,Net-(J8-Pin_13)*%
X99000000Y-70175000D03*
%TO.P,U1,44,PE13_44*%
%TO.N,Net-(J8-Pin_14)*%
X99500000Y-70175000D03*
%TO.P,U1,45,PE14_45*%
%TO.N,Net-(J8-Pin_15)*%
X100000000Y-70175000D03*
%TO.P,U1,46,PE15_46*%
%TO.N,Net-(J8-Pin_16)*%
X100500000Y-70175000D03*
%TO.P,U1,47,PB10_47*%
%TO.N,Net-(J11-Pin_10)*%
X101000000Y-70175000D03*
%TO.P,U1,48,PB11_48*%
%TO.N,Net-(J11-Pin_11)*%
X101500000Y-70175000D03*
%TO.P,U1,49,VCAP_1_49*%
%TO.N,Net-(U1-VCAP_1)*%
X102000000Y-70175000D03*
%TO.P,U1,50,VDD_50*%
%TO.N,VDDA(1)*%
X102500000Y-70175000D03*
D37*
%TO.P,U1,51,PB12_51*%
%TO.N,CS*%
X104175000Y-68500000D03*
%TO.P,U1,52,PB13_52*%
%TO.N,SCK*%
X104175000Y-68000000D03*
%TO.P,U1,53,PB14_53*%
%TO.N,MISO*%
X104175000Y-67500000D03*
%TO.P,U1,54,PB15_54*%
%TO.N,MOSI*%
X104175000Y-67000000D03*
%TO.P,U1,55,PD8_55*%
%TO.N,Net-(J9-Pin_9)*%
X104175000Y-66500000D03*
%TO.P,U1,56,PD9_56*%
%TO.N,Net-(J9-Pin_10)*%
X104175000Y-66000000D03*
%TO.P,U1,57,PD10_57*%
%TO.N,Net-(J9-Pin_11)*%
X104175000Y-65500000D03*
%TO.P,U1,58,PD11_58*%
%TO.N,Net-(J9-Pin_12)*%
X104175000Y-65000000D03*
%TO.P,U1,59,PD12_59*%
%TO.N,Net-(J9-Pin_13)*%
X104175000Y-64500000D03*
%TO.P,U1,60,PD13_60*%
%TO.N,Net-(J9-Pin_14)*%
X104175000Y-64000000D03*
%TO.P,U1,61,PD14_61*%
%TO.N,Net-(J9-Pin_15)*%
X104175000Y-63500000D03*
%TO.P,U1,62,PD15_62*%
%TO.N,Net-(J9-Pin_16)*%
X104175000Y-63000000D03*
%TO.P,U1,63,PC6_63*%
%TO.N,Net-(J10-Pin_7)*%
X104175000Y-62500000D03*
%TO.P,U1,64,PC7_64*%
%TO.N,Net-(J10-Pin_8)*%
X104175000Y-62000000D03*
%TO.P,U1,65,PC8_65*%
%TO.N,Net-(J10-Pin_9)*%
X104175000Y-61500000D03*
%TO.P,U1,66,PC9_66*%
%TO.N,Net-(J10-Pin_10)*%
X104175000Y-61000000D03*
%TO.P,U1,67,PA8_67*%
%TO.N,Net-(J12-Pin_5)*%
X104175000Y-60500000D03*
%TO.P,U1,68,PA9_68*%
%TO.N,TX_OUT*%
X104175000Y-60000000D03*
%TO.P,U1,69,PA10_69*%
%TO.N,RX_IN*%
X104175000Y-59500000D03*
%TO.P,U1,70,PA11_70*%
%TO.N,USB_DM*%
X104175000Y-59000000D03*
%TO.P,U1,71,PA12_71*%
%TO.N,USB_DP*%
X104175000Y-58500000D03*
%TO.P,U1,72,PA13_72*%
%TO.N,Net-(J6-Pin_3)*%
X104175000Y-58000000D03*
%TO.P,U1,73,VCAP_2_73*%
%TO.N,Net-(U1-VCAP_2)*%
X104175000Y-57500000D03*
%TO.P,U1,74,VSS_74*%
%TO.N,GND*%
X104175000Y-57000000D03*
%TO.P,U1,75,VDD_75*%
%TO.N,VDDA(1)*%
X104175000Y-56500000D03*
D38*
%TO.P,U1,76,PA14_76*%
%TO.N,Net-(J6-Pin_4)*%
X102500000Y-54825000D03*
%TO.P,U1,77,PA15_77*%
%TO.N,Net-(J12-Pin_6)*%
X102000000Y-54825000D03*
%TO.P,U1,78,PC10_78*%
%TO.N,Net-(J10-Pin_11)*%
X101500000Y-54825000D03*
%TO.P,U1,79,PC11_79*%
%TO.N,Net-(J10-Pin_12)*%
X101000000Y-54825000D03*
%TO.P,U1,80,PC12_80*%
%TO.N,Net-(J10-Pin_13)*%
X100500000Y-54825000D03*
%TO.P,U1,81,PD0_81*%
%TO.N,Net-(J9-Pin_1)*%
X100000000Y-54825000D03*
%TO.P,U1,82,PD1_82*%
%TO.N,Net-(J9-Pin_2)*%
X99500000Y-54825000D03*
%TO.P,U1,83,PD2_83*%
%TO.N,Net-(J9-Pin_3)*%
X99000000Y-54825000D03*
%TO.P,U1,84,PD3_84*%
%TO.N,Net-(J9-Pin_4)*%
X98500000Y-54825000D03*
%TO.P,U1,85,PD4_85*%
%TO.N,Net-(J9-Pin_5)*%
X98000000Y-54825000D03*
%TO.P,U1,86,PD5_86*%
%TO.N,Net-(J9-Pin_6)*%
X97500000Y-54825000D03*
%TO.P,U1,87,PD6_87*%
%TO.N,Net-(J9-Pin_7)*%
X97000000Y-54825000D03*
%TO.P,U1,88,PD7_88*%
%TO.N,Net-(J9-Pin_8)*%
X96500000Y-54825000D03*
%TO.P,U1,89,PB3_89*%
%TO.N,Net-(J11-Pin_3)*%
X96000000Y-54825000D03*
%TO.P,U1,90,PB4_90*%
%TO.N,Net-(J11-Pin_4)*%
X95500000Y-54825000D03*
%TO.P,U1,91,PB5_91*%
%TO.N,Net-(J11-Pin_5)*%
X95000000Y-54825000D03*
%TO.P,U1,92,PB6_92*%
%TO.N,Net-(J11-Pin_6)*%
X94500000Y-54825000D03*
%TO.P,U1,93,PB7_93*%
%TO.N,Net-(J11-Pin_7)*%
X94000000Y-54825000D03*
%TO.P,U1,94,BOOT0_94*%
%TO.N,Net-(U1-BOOT0)*%
X93500000Y-54825000D03*
%TO.P,U1,95,PB8_95*%
%TO.N,Net-(J11-Pin_8)*%
X93000000Y-54825000D03*
%TO.P,U1,96,PB9_96*%
%TO.N,Net-(J11-Pin_9)*%
X92500000Y-54825000D03*
%TO.P,U1,97,PE0_97*%
%TO.N,Net-(J8-Pin_1)*%
X92000000Y-54825000D03*
%TO.P,U1,98,PE1_98*%
%TO.N,Net-(J8-Pin_2)*%
X91500000Y-54825000D03*
%TO.P,U1,99,VSS_99*%
%TO.N,GND*%
X91000000Y-54825000D03*
%TO.P,U1,100,VDD_100*%
%TO.N,VDDA(1)*%
X90500000Y-54825000D03*
%TD*%
D39*
%TO.P,U4,1,~{CS}_1*%
%TO.N,CS*%
X106427500Y-71417500D03*
%TO.P,U4,2,DO/IO_{1}_2*%
%TO.N,MISO*%
X107697500Y-71417500D03*
%TO.P,U4,3,~{WP}/IO_{2}_3*%
%TO.N,VDDA(1)*%
X108967500Y-71417500D03*
%TO.P,U4,4,GND_4*%
%TO.N,GND*%
X110237500Y-71417500D03*
%TO.P,U4,5,DI/IO_{0}_5*%
%TO.N,MOSI*%
X110237500Y-64242500D03*
%TO.P,U4,6,CLK_6*%
%TO.N,SCK*%
X108967500Y-64242500D03*
%TO.P,U4,7,~{HOLD}/~{RESET}/IO_{3}_7*%
%TO.N,VDDA(1)*%
X107697500Y-64242500D03*
%TO.P,U4,8,VCC_8*%
%TO.N,Net-(U4-VCC)*%
X106427500Y-64242500D03*
%TD*%
D28*
%TO.P,R2,1*%
%TO.N,Net-(J1-CC1)*%
X96220000Y-39375000D03*
%TO.P,R2,2*%
%TO.N,GND*%
X96220000Y-41025000D03*
%TD*%
D10*
%TO.P,C17,1*%
%TO.N,VDDA(1)*%
X103500000Y-46000000D03*
%TO.P,C17,2*%
%TO.N,GND*%
X105050000Y-46000000D03*
%TD*%
D12*
%TO.P,J2,1,Pin_1_1*%
%TO.N,GND*%
X117190000Y-42930000D03*
D13*
%TO.P,J2,2,Pin_2_2*%
%TO.N,A*%
X117190000Y-40390000D03*
%TO.P,J2,3,Pin_3_3*%
%TO.N,B*%
X117190000Y-37850000D03*
%TO.P,J2,4,Pin_4_4*%
%TO.N,Z*%
X117190000Y-35310000D03*
%TO.P,J2,5,Pin_5_5*%
%TO.N,PWM*%
X117190000Y-32770000D03*
%TD*%
D25*
%TO.P,C18,1*%
%TO.N,VBAT*%
X87050000Y-59000000D03*
%TO.P,C18,2*%
%TO.N,GND*%
X85500000Y-59000000D03*
%TD*%
D40*
%TO.N,Net-(U1-NRST)*%
X87140000Y-63100000D03*
X84070000Y-64350000D03*
%TO.N,VDDA(1)*%
X105770000Y-69650000D03*
X103630000Y-70860000D03*
X131610000Y-38200000D03*
X126740000Y-31590000D03*
%TO.N,USB_DP*%
X94510000Y-33790000D03*
X102780000Y-57980000D03*
%TO.N,USB_DM*%
X95770000Y-34610000D03*
X101920000Y-58870000D03*
%TO.N,Net-(J6-Pin_4)*%
X108480000Y-59375000D03*
X102950000Y-55080000D03*
%TO.N,SCK*%
X109110000Y-73180000D03*
X106170000Y-68830000D03*
%TO.N,MISO*%
X107263670Y-72217640D03*
X102410000Y-68190000D03*
%TO.N,MOSI*%
X106136985Y-67036985D03*
X111629265Y-72489265D03*
X108040518Y-66830510D03*
%TD*%
%TO.N,GND*%
D41*
X112440000Y-56180000D02*
X108095000Y-56180000D01*
X89657410Y-61000000D02*
X91000000Y-62342590D01*
X92342590Y-57000000D02*
X91000000Y-55657410D01*
X85515000Y-60520000D02*
X85480000Y-60520000D01*
X107775000Y-56500000D02*
X107775000Y-58000000D01*
X91000000Y-62342590D02*
X91000000Y-70175000D01*
X88825000Y-61000000D02*
X89657410Y-61000000D01*
X91000000Y-59657410D02*
X91000000Y-54825000D01*
X112440000Y-56180000D02*
X117610000Y-56180000D01*
X117610000Y-56180000D02*
X119110000Y-57680000D01*
X91000000Y-55657410D02*
X91000000Y-54825000D01*
X89657410Y-61000000D02*
X91000000Y-59657410D01*
X102911471Y-57000000D02*
X104175000Y-57000000D01*
X104175000Y-57000000D02*
X92342590Y-57000000D01*
X85480000Y-60520000D02*
X84640000Y-59680000D01*
X91000000Y-68911471D02*
X102911471Y-57000000D01*
X108095000Y-56180000D02*
X107775000Y-56500000D01*
X91000000Y-70175000D02*
X91000000Y-68911471D01*
%TO.N,Net-(U1-NRST)*%
X87035000Y-63957590D02*
X87992590Y-63000000D01*
X87240000Y-63000000D02*
X88825000Y-63000000D01*
X87035000Y-63980000D02*
X87035000Y-63957590D01*
X81110000Y-67690000D02*
X81110000Y-67310000D01*
X87140000Y-63100000D02*
X87240000Y-63000000D01*
X87992590Y-63000000D02*
X88825000Y-63000000D01*
X81110000Y-67310000D02*
X84070000Y-64350000D01*
%TO.N,VDDA(1)*%
X126740000Y-31590000D02*
X126225000Y-31590000D01*
X90022500Y-55302500D02*
X86950000Y-55302500D01*
X90500000Y-54825000D02*
X90022500Y-55302500D01*
X102500000Y-71950000D02*
X102500000Y-70175000D01*
X112162501Y-67410000D02*
X113320000Y-67410000D01*
X103500000Y-47950000D02*
X103550000Y-48000000D01*
X123360000Y-31030000D02*
X123785000Y-31030000D01*
X103500000Y-46000000D02*
X103500000Y-47950000D01*
X85710000Y-67400000D02*
X86610000Y-66500000D01*
X91500000Y-71007410D02*
X91500000Y-70175000D01*
X104315000Y-53440000D02*
X104315000Y-54342410D01*
X103550000Y-55875000D02*
X104175000Y-56500000D01*
X89657410Y-67000000D02*
X90050000Y-67392590D01*
X103550000Y-48000000D02*
X103550000Y-55875000D01*
X119110000Y-65300000D02*
X115430000Y-65300000D01*
X104315000Y-54342410D02*
X104175000Y-54482410D01*
X123280000Y-33280000D02*
X124030000Y-32530000D01*
X107035000Y-53640000D02*
X112440000Y-53640000D01*
X100650000Y-47000000D02*
X101650000Y-48000000D01*
X90520000Y-53015000D02*
X90520000Y-54805000D01*
X123785000Y-31030000D02*
X125285000Y-32530000D01*
X94350000Y-47000000D02*
X100650000Y-47000000D01*
X88825000Y-65500000D02*
X87050000Y-65500000D01*
X124935000Y-32180000D02*
X125285000Y-32530000D01*
X87065000Y-60520000D02*
X87065000Y-60995000D01*
X126225000Y-31590000D02*
X125285000Y-32530000D01*
X108967500Y-70605001D02*
X108012499Y-69650000D01*
X108967500Y-70605001D02*
X112162501Y-67410000D01*
X108012499Y-69650000D02*
X105770000Y-69650000D01*
X124030000Y-32530000D02*
X125285000Y-32530000D01*
X103185000Y-70860000D02*
X102500000Y-70175000D01*
X134770000Y-42810000D02*
X131610000Y-39650000D01*
X108967500Y-71417500D02*
X108967500Y-70605001D01*
X85705000Y-69260000D02*
X87965000Y-67000000D01*
X87570000Y-61500000D02*
X88825000Y-61500000D01*
X90267590Y-71275000D02*
X91232410Y-71275000D01*
X91232410Y-71275000D02*
X91500000Y-71007410D01*
X123210000Y-32180000D02*
X124935000Y-32180000D01*
X104175000Y-54482410D02*
X104175000Y-56500000D01*
X90050000Y-67392590D02*
X90050000Y-71057410D01*
X100650000Y-47000000D02*
X101650000Y-46000000D01*
X104175000Y-56500000D02*
X107035000Y-53640000D01*
X115430000Y-65300000D02*
X113320000Y-67410000D01*
X101650000Y-48000000D02*
X103550000Y-48000000D01*
X91500000Y-71950000D02*
X91500000Y-70175000D01*
X88825000Y-66500000D02*
X86610000Y-66500000D01*
X87065000Y-60995000D02*
X87570000Y-61500000D01*
X90520000Y-54805000D02*
X90500000Y-54825000D01*
X87965000Y-67000000D02*
X88825000Y-67000000D01*
X88825000Y-67000000D02*
X89657410Y-67000000D01*
X106225000Y-56500000D02*
X104175000Y-56500000D01*
X103630000Y-70860000D02*
X103185000Y-70860000D01*
X90050000Y-71057410D02*
X90267590Y-71275000D01*
X131610000Y-39650000D02*
X131610000Y-38200000D01*
X101650000Y-46000000D02*
X103500000Y-46000000D01*
%TO.N,U*%
X131010000Y-40530000D02*
X131010000Y-37080000D01*
X128610000Y-42930000D02*
X131010000Y-40530000D01*
%TO.N,V*%
X126070000Y-42930000D02*
X126070000Y-40632501D01*
X126070000Y-40632501D02*
X130272501Y-36430000D01*
X130272501Y-36430000D02*
X131010000Y-36430000D01*
%TO.N,W*%
X123530000Y-42930000D02*
X123530000Y-41727919D01*
X123530000Y-41727919D02*
X129477919Y-35780000D01*
X129477919Y-35780000D02*
X131010000Y-35780000D01*
%TO.N,CAL*%
X128790000Y-35130000D02*
X131010000Y-35130000D01*
X120990000Y-42930000D02*
X128790000Y-35130000D01*
%TO.N,OSC_OUT*%
X85741304Y-62500000D02*
X85231304Y-63010000D01*
X82657500Y-64327500D02*
X79560000Y-64327500D01*
X88825000Y-62500000D02*
X85741304Y-62500000D01*
X85231304Y-63010000D02*
X83975000Y-63010000D01*
X83975000Y-63010000D02*
X82657500Y-64327500D01*
%TO.N,OSC_IN*%
X85750000Y-62000000D02*
X85260000Y-61510000D01*
X84065000Y-61510000D02*
X83182500Y-60627500D01*
X83182500Y-60627500D02*
X79560000Y-60627500D01*
X85260000Y-61510000D02*
X84065000Y-61510000D01*
X88825000Y-62000000D02*
X85750000Y-62000000D01*
%TO.N,+5V*%
X97450000Y-37545000D02*
X97570000Y-37425000D01*
X92330000Y-49085000D02*
X92115000Y-49300000D01*
X92330000Y-44765406D02*
X92330000Y-47420000D01*
X97450000Y-40982648D02*
X94782648Y-43650000D01*
X94210000Y-49300000D02*
X92330000Y-47420000D01*
X93445406Y-43650000D02*
X92330000Y-44765406D01*
X94350000Y-49300000D02*
X92115000Y-49300000D01*
X92330000Y-47420000D02*
X92330000Y-49085000D01*
X94350000Y-49300000D02*
X94210000Y-49300000D01*
X92550000Y-37545000D02*
X92550000Y-47200000D01*
X97570000Y-37425000D02*
X97570000Y-32325000D01*
X92550000Y-47200000D02*
X92330000Y-47420000D01*
X92550000Y-37545000D02*
X92670000Y-37425000D01*
X94782648Y-43650000D02*
X93445406Y-43650000D01*
X97450000Y-37545000D02*
X97450000Y-40982648D01*
X92670000Y-37425000D02*
X92670000Y-32325000D01*
%TO.N,Net-(BT1-+)*%
X77270000Y-30120000D02*
X77480765Y-30120000D01*
X86470000Y-39109235D02*
X86470000Y-49270000D01*
X77480765Y-30120000D02*
X86470000Y-39109235D01*
X80020000Y-55720000D02*
X77270000Y-55720000D01*
X84632500Y-55720000D02*
X77270000Y-55720000D01*
X77427500Y-55562500D02*
X77270000Y-55720000D01*
X86470000Y-49270000D02*
X80020000Y-55720000D01*
X85050000Y-55302500D02*
X84632500Y-55720000D01*
%TO.N,VBAT*%
X87050000Y-59000000D02*
X88825000Y-59000000D01*
X86000000Y-57177500D02*
X86000000Y-57950000D01*
X86000000Y-57950000D02*
X87050000Y-59000000D01*
%TO.N,Net-(J4-Pin_3)*%
X131747499Y-34480000D02*
X131010000Y-34480000D01*
X134770000Y-40270000D02*
X132047500Y-37547500D01*
X132047500Y-34780001D02*
X131747499Y-34480000D01*
X132047500Y-37547500D02*
X132047500Y-34780001D01*
%TO.N,Net-(J4-Pin_4)*%
X131665956Y-33830000D02*
X131010000Y-33830000D01*
X134770000Y-37730000D02*
X134770000Y-36934044D01*
X134770000Y-36934044D02*
X131665956Y-33830000D01*
%TO.N,Net-(J4-Pin_5)*%
X134770000Y-35190000D02*
X132760000Y-33180000D01*
X132760000Y-33180000D02*
X131010000Y-33180000D01*
%TO.N,Net-(J4-Pin_6)*%
X131130000Y-32650000D02*
X131010000Y-32530000D01*
X134770000Y-32650000D02*
X131130000Y-32650000D01*
%TO.N,PWM*%
X123919044Y-33890000D02*
X124629044Y-33180000D01*
X118310000Y-33890000D02*
X123919044Y-33890000D01*
X117190000Y-32770000D02*
X118310000Y-33890000D01*
X124629044Y-33180000D02*
X125285000Y-33180000D01*
%TO.N,Z*%
X117660000Y-35780000D02*
X125285000Y-35780000D01*
X117190000Y-35310000D02*
X117660000Y-35780000D01*
%TO.N,B*%
X118610000Y-36430000D02*
X125285000Y-36430000D01*
X117190000Y-37850000D02*
X118610000Y-36430000D01*
%TO.N,A*%
X117190000Y-40390000D02*
X120500000Y-37080000D01*
X120500000Y-37080000D02*
X125285000Y-37080000D01*
%TO.N,Net-(J1-CC1)*%
X96220000Y-37575000D02*
X96370000Y-37425000D01*
X96220000Y-39375000D02*
X96220000Y-37575000D01*
X96370000Y-37425000D02*
X96370000Y-32325000D01*
%TO.N,USB_DP*%
X103300000Y-58500000D02*
X102780000Y-57980000D01*
X95370000Y-33082410D02*
X95102410Y-33350000D01*
X95370000Y-32325000D02*
X95370000Y-33082410D01*
X94637590Y-33350000D02*
X94370000Y-33082410D01*
X95102410Y-33350000D02*
X94637590Y-33350000D01*
X104175000Y-58500000D02*
X103300000Y-58500000D01*
X94510000Y-33790000D02*
X94370000Y-33650000D01*
X94370000Y-33650000D02*
X94370000Y-32325000D01*
X94370000Y-33082410D02*
X94370000Y-32325000D01*
%TO.N,USB_DM*%
X102050000Y-59000000D02*
X101920000Y-58870000D01*
X95870000Y-32325000D02*
X95870000Y-31567590D01*
X95870000Y-34510000D02*
X95870000Y-32325000D01*
X95130000Y-31280000D02*
X94870000Y-31540000D01*
X95582410Y-31280000D02*
X95130000Y-31280000D01*
X104175000Y-59000000D02*
X102050000Y-59000000D01*
X94870000Y-31540000D02*
X94870000Y-32325000D01*
X95770000Y-34610000D02*
X95870000Y-34510000D01*
X95870000Y-31567590D02*
X95582410Y-31280000D01*
%TO.N,Net-(J1-CC2)*%
X93250000Y-38920000D02*
X93250000Y-37545000D01*
X93370000Y-37425000D02*
X93370000Y-32325000D01*
X94290000Y-39485000D02*
X93815000Y-39485000D01*
X93815000Y-39485000D02*
X93250000Y-38920000D01*
X93250000Y-37545000D02*
X93370000Y-37425000D01*
%TO.N,Net-(U1-VCAP_1)*%
X102000000Y-71007410D02*
X102000000Y-70175000D01*
X101000000Y-71950000D02*
X101057410Y-71950000D01*
X101057410Y-71950000D02*
X102000000Y-71007410D01*
%TO.N,Net-(D2-A)*%
X104322500Y-51860000D02*
X104385000Y-51860000D01*
X104385000Y-51860000D02*
X105965000Y-53440000D01*
%TO.N,Net-(U1-BOOT0)*%
X93490000Y-54815000D02*
X93500000Y-54825000D01*
X93490000Y-53110000D02*
X93490000Y-54815000D01*
%TO.N,Net-(U4-VCC)*%
X106427500Y-62812500D02*
X106910000Y-62330000D01*
X107697500Y-64242500D02*
X107697500Y-62332500D01*
X107697500Y-62332500D02*
X107700000Y-62330000D01*
X106427500Y-64242500D02*
X106427500Y-62812500D01*
X106910000Y-62330000D02*
X107700000Y-62330000D01*
%TO.N,Net-(U1-VCAP_2)*%
X106225000Y-58000000D02*
X105725000Y-57500000D01*
X105725000Y-57500000D02*
X104175000Y-57500000D01*
%TO.N,TX_OUT*%
X105007410Y-60000000D02*
X104175000Y-60000000D01*
X108173696Y-61580000D02*
X106587410Y-61580000D01*
X106587410Y-61580000D02*
X105007410Y-60000000D01*
X109133696Y-62825000D02*
X109133696Y-62540000D01*
X119110000Y-62760000D02*
X119045000Y-62825000D01*
X109133696Y-62540000D02*
X108173696Y-61580000D01*
X119045000Y-62825000D02*
X109133696Y-62825000D01*
%TO.N,RX_IN*%
X110233696Y-62425000D02*
X110233696Y-62090000D01*
X110233696Y-62090000D02*
X107643696Y-59500000D01*
X116905000Y-62425000D02*
X110233696Y-62425000D01*
X119110000Y-60220000D02*
X116905000Y-62425000D01*
X107643696Y-59500000D02*
X104175000Y-59500000D01*
%TO.N,Net-(J8-Pin_15)*%
X102973696Y-72700000D02*
X104230000Y-71443696D01*
X99373096Y-72700000D02*
X102973696Y-72700000D01*
X100000000Y-69342590D02*
X100000000Y-70175000D01*
X102732410Y-69075000D02*
X100267590Y-69075000D01*
X104230000Y-70572590D02*
X102732410Y-69075000D01*
X104230000Y-71443696D02*
X104230000Y-70572590D01*
X100267590Y-69075000D02*
X100000000Y-69342590D01*
%TO.N,Net-(J8-Pin_16)*%
X100500000Y-71007410D02*
X100500000Y-70175000D01*
%TO.N,Net-(J6-Pin_3)*%
X105776304Y-58775000D02*
X105275000Y-58273696D01*
X112385000Y-58775000D02*
X105776304Y-58775000D01*
X112440000Y-58720000D02*
X112385000Y-58775000D01*
X105007410Y-58000000D02*
X104175000Y-58000000D01*
X105275000Y-58273696D02*
X105275000Y-58267590D01*
X105275000Y-58267590D02*
X105007410Y-58000000D01*
%TO.N,Net-(J6-Pin_4)*%
X111297441Y-59375000D02*
X108480000Y-59375000D01*
X102950000Y-55080000D02*
X102755000Y-55080000D01*
X112440000Y-61260000D02*
X112440000Y-60517559D01*
X112440000Y-60517559D02*
X111297441Y-59375000D01*
X102755000Y-55080000D02*
X102500000Y-54825000D01*
%TO.N,Net-(U1-PB2)*%
X95970000Y-71980000D02*
X95970000Y-70205000D01*
X95970000Y-70205000D02*
X96000000Y-70175000D01*
%TO.N,CS*%
X104175000Y-69165000D02*
X104175000Y-68500000D01*
X111767501Y-77570000D02*
X113320000Y-77570000D01*
X106427500Y-72229999D02*
X111767501Y-77570000D01*
X106427500Y-71417500D02*
X104175000Y-69165000D01*
X106427500Y-71417500D02*
X106427500Y-72229999D01*
%TO.N,SCK*%
X111470000Y-73180000D02*
X109110000Y-73180000D01*
X106022499Y-68000000D02*
X104175000Y-68000000D01*
X113320000Y-75030000D02*
X111470000Y-73180000D01*
X108967500Y-65054999D02*
X106022499Y-68000000D01*
X108967500Y-64242500D02*
X108967500Y-65054999D01*
X106170000Y-68830000D02*
X105340000Y-68000000D01*
X105340000Y-68000000D02*
X104175000Y-68000000D01*
%TO.N,MISO*%
X110740000Y-72530000D02*
X113320000Y-69950000D01*
X107697500Y-71783810D02*
X107263670Y-72217640D01*
X102410000Y-68190000D02*
X103100000Y-67500000D01*
X107697500Y-71417500D02*
X107697500Y-71783810D01*
X103100000Y-67500000D02*
X104175000Y-67500000D01*
X107997501Y-72530000D02*
X110740000Y-72530000D01*
X107697500Y-72229999D02*
X107997501Y-72530000D01*
X107697500Y-71417500D02*
X107697500Y-72229999D01*
%TO.N,MOSI*%
X106136985Y-67036985D02*
X104211985Y-67036985D01*
X110237500Y-64633528D02*
X108040518Y-66830510D01*
X113320000Y-72490000D02*
X111630000Y-72490000D01*
X111630000Y-72490000D02*
X111629265Y-72489265D01*
X104211985Y-67036985D02*
X104175000Y-67000000D01*
X110237500Y-64242500D02*
X110237500Y-64633528D01*
%TD*%
%TA.AperFunction,Conductor*%
%TO.N,GND*%
G36*
X91067863Y-55598410D02*
G01*
X91112381Y-55649785D01*
X91154253Y-55739579D01*
X91235421Y-55820747D01*
X91339455Y-55869259D01*
X91386861Y-55875500D01*
X91613138Y-55875499D01*
X91660545Y-55869259D01*
X91697595Y-55851981D01*
X91766672Y-55841490D01*
X91802404Y-55851981D01*
X91839455Y-55869259D01*
X91886861Y-55875500D01*
X92113138Y-55875499D01*
X92160545Y-55869259D01*
X92197595Y-55851981D01*
X92266672Y-55841490D01*
X92302404Y-55851981D01*
X92339455Y-55869259D01*
X92386861Y-55875500D01*
X92613138Y-55875499D01*
X92660545Y-55869259D01*
X92697595Y-55851981D01*
X92766672Y-55841490D01*
X92802404Y-55851981D01*
X92839455Y-55869259D01*
X92886861Y-55875500D01*
X93113138Y-55875499D01*
X93160545Y-55869259D01*
X93197595Y-55851981D01*
X93266672Y-55841490D01*
X93302404Y-55851981D01*
X93339455Y-55869259D01*
X93386861Y-55875500D01*
X93613138Y-55875499D01*
X93660545Y-55869259D01*
X93697595Y-55851981D01*
X93766672Y-55841490D01*
X93802404Y-55851981D01*
X93839455Y-55869259D01*
X93886861Y-55875500D01*
X94113138Y-55875499D01*
X94160545Y-55869259D01*
X94197595Y-55851981D01*
X94266672Y-55841490D01*
X94302404Y-55851981D01*
X94339455Y-55869259D01*
X94386861Y-55875500D01*
X94613138Y-55875499D01*
X94660545Y-55869259D01*
X94697595Y-55851981D01*
X94766672Y-55841490D01*
X94802404Y-55851981D01*
X94839455Y-55869259D01*
X94886861Y-55875500D01*
X95113138Y-55875499D01*
X95160545Y-55869259D01*
X95197595Y-55851981D01*
X95266672Y-55841490D01*
X95302404Y-55851981D01*
X95339455Y-55869259D01*
X95386861Y-55875500D01*
X95613138Y-55875499D01*
X95660545Y-55869259D01*
X95697595Y-55851981D01*
X95766672Y-55841490D01*
X95802404Y-55851981D01*
X95839455Y-55869259D01*
X95886861Y-55875500D01*
X96113138Y-55875499D01*
X96160545Y-55869259D01*
X96197595Y-55851981D01*
X96266672Y-55841490D01*
X96302404Y-55851981D01*
X96339455Y-55869259D01*
X96386861Y-55875500D01*
X96613138Y-55875499D01*
X96660545Y-55869259D01*
X96697595Y-55851981D01*
X96766672Y-55841490D01*
X96802404Y-55851981D01*
X96839455Y-55869259D01*
X96886861Y-55875500D01*
X97113138Y-55875499D01*
X97160545Y-55869259D01*
X97197595Y-55851981D01*
X97266672Y-55841490D01*
X97302404Y-55851981D01*
X97339455Y-55869259D01*
X97386861Y-55875500D01*
X97613138Y-55875499D01*
X97660545Y-55869259D01*
X97697595Y-55851981D01*
X97766672Y-55841490D01*
X97802404Y-55851981D01*
X97839455Y-55869259D01*
X97886861Y-55875500D01*
X98113138Y-55875499D01*
X98160545Y-55869259D01*
X98197595Y-55851981D01*
X98266672Y-55841490D01*
X98302404Y-55851981D01*
X98339455Y-55869259D01*
X98386861Y-55875500D01*
X98613138Y-55875499D01*
X98660545Y-55869259D01*
X98697595Y-55851981D01*
X98766672Y-55841490D01*
X98802404Y-55851981D01*
X98839455Y-55869259D01*
X98886861Y-55875500D01*
X99113138Y-55875499D01*
X99160545Y-55869259D01*
X99197595Y-55851981D01*
X99266672Y-55841490D01*
X99302404Y-55851981D01*
X99339455Y-55869259D01*
X99386861Y-55875500D01*
X99613138Y-55875499D01*
X99660545Y-55869259D01*
X99697595Y-55851981D01*
X99766672Y-55841490D01*
X99802404Y-55851981D01*
X99839455Y-55869259D01*
X99886861Y-55875500D01*
X100113138Y-55875499D01*
X100160545Y-55869259D01*
X100197595Y-55851981D01*
X100266672Y-55841490D01*
X100302404Y-55851981D01*
X100339455Y-55869259D01*
X100386861Y-55875500D01*
X100613138Y-55875499D01*
X100660545Y-55869259D01*
X100697595Y-55851981D01*
X100766672Y-55841490D01*
X100802404Y-55851981D01*
X100839455Y-55869259D01*
X100886861Y-55875500D01*
X101113138Y-55875499D01*
X101160545Y-55869259D01*
X101197595Y-55851981D01*
X101266672Y-55841490D01*
X101302404Y-55851981D01*
X101339455Y-55869259D01*
X101386861Y-55875500D01*
X101613138Y-55875499D01*
X101660545Y-55869259D01*
X101697595Y-55851981D01*
X101766672Y-55841490D01*
X101802404Y-55851981D01*
X101839455Y-55869259D01*
X101886861Y-55875500D01*
X102113138Y-55875499D01*
X102160545Y-55869259D01*
X102197595Y-55851981D01*
X102266672Y-55841490D01*
X102302404Y-55851981D01*
X102339455Y-55869259D01*
X102386861Y-55875500D01*
X102613138Y-55875499D01*
X102660545Y-55869259D01*
X102764579Y-55820747D01*
X102845747Y-55739579D01*
X102863226Y-55702094D01*
X102870715Y-55693589D01*
X102874390Y-55682870D01*
X102893389Y-55667837D01*
X102909399Y-55649656D01*
X102921713Y-55645428D01*
X102929184Y-55639518D01*
X102951629Y-55635157D01*
X102963458Y-55631097D01*
X102969522Y-55630500D01*
X103022475Y-55630500D01*
X103053234Y-55622257D01*
X103063350Y-55621262D01*
X103088083Y-55625953D01*
X103113253Y-55626552D01*
X103121825Y-55632353D01*
X103131996Y-55634283D01*
X103150266Y-55651601D01*
X103171117Y-55665713D01*
X103175192Y-55675229D01*
X103182704Y-55682350D01*
X103188710Y-55706792D01*
X103198623Y-55729940D01*
X103199500Y-55744665D01*
X103199500Y-55921144D01*
X103199602Y-55921524D01*
X103220754Y-56000466D01*
X103223385Y-56010286D01*
X103223387Y-56010290D01*
X103242062Y-56042636D01*
X103258535Y-56110536D01*
X103235682Y-56176563D01*
X103222357Y-56192316D01*
X103179253Y-56235420D01*
X103130740Y-56339456D01*
X103124500Y-56386859D01*
X103124500Y-56613132D01*
X103124501Y-56613138D01*
X103130741Y-56660545D01*
X103130742Y-56660547D01*
X103130742Y-56660548D01*
X103164679Y-56733326D01*
X103179253Y-56764579D01*
X103260421Y-56845747D01*
X103350212Y-56887617D01*
X103402652Y-56933789D01*
X103421804Y-57000982D01*
X103401589Y-57067864D01*
X103350214Y-57112380D01*
X103260422Y-57154252D01*
X103260421Y-57154252D01*
X103179253Y-57235420D01*
X103130740Y-57339456D01*
X103128264Y-57358267D01*
X103099998Y-57422164D01*
X103041673Y-57460635D01*
X102973232Y-57461857D01*
X102852475Y-57429500D01*
X102707525Y-57429500D01*
X102578993Y-57463940D01*
X102567511Y-57467017D01*
X102441988Y-57539488D01*
X102441982Y-57539493D01*
X102339493Y-57641982D01*
X102339488Y-57641988D01*
X102267017Y-57767511D01*
X102267016Y-57767515D01*
X102229500Y-57907525D01*
X102229500Y-58052475D01*
X102267016Y-58192485D01*
X102267017Y-58192486D01*
X102269120Y-58200335D01*
X102265902Y-58201197D01*
X102271713Y-58255275D01*
X102240434Y-58317752D01*
X102180342Y-58353400D01*
X102117592Y-58353025D01*
X102043696Y-58333224D01*
X101992475Y-58319500D01*
X101847525Y-58319500D01*
X101721010Y-58353400D01*
X101707511Y-58357017D01*
X101581988Y-58429488D01*
X101581982Y-58429493D01*
X101479493Y-58531982D01*
X101479488Y-58531988D01*
X101407017Y-58657511D01*
X101407016Y-58657515D01*
X101369500Y-58797525D01*
X101369500Y-58942475D01*
X101407016Y-59082485D01*
X101407017Y-59082488D01*
X101479488Y-59208011D01*
X101479490Y-59208013D01*
X101479491Y-59208015D01*
X101581985Y-59310509D01*
X101581986Y-59310510D01*
X101581988Y-59310511D01*
X101707511Y-59382982D01*
X101707512Y-59382982D01*
X101707515Y-59382984D01*
X101847525Y-59420500D01*
X101847528Y-59420500D01*
X101992472Y-59420500D01*
X101992475Y-59420500D01*
X102132485Y-59382984D01*
X102159974Y-59367112D01*
X102221975Y-59350500D01*
X103000500Y-59350500D01*
X103067539Y-59370185D01*
X103113294Y-59422989D01*
X103124500Y-59474499D01*
X103124500Y-59613131D01*
X103124501Y-59613138D01*
X103130741Y-59660545D01*
X103148018Y-59697596D01*
X103158509Y-59766673D01*
X103148018Y-59802402D01*
X103130742Y-59839451D01*
X103130740Y-59839458D01*
X103124500Y-59886859D01*
X103124500Y-60113131D01*
X103124501Y-60113138D01*
X103130741Y-60160545D01*
X103148018Y-60197596D01*
X103158509Y-60266673D01*
X103148018Y-60302402D01*
X103130742Y-60339451D01*
X103130740Y-60339458D01*
X103124500Y-60386859D01*
X103124500Y-60613131D01*
X103124501Y-60613138D01*
X103130741Y-60660545D01*
X103148018Y-60697596D01*
X103158509Y-60766673D01*
X103148018Y-60802402D01*
X103130742Y-60839451D01*
X103130740Y-60839458D01*
X103124500Y-60886859D01*
X103124500Y-61113131D01*
X103124501Y-61113138D01*
X103130741Y-61160545D01*
X103148018Y-61197596D01*
X103158509Y-61266673D01*
X103148018Y-61302402D01*
X103130742Y-61339451D01*
X103130740Y-61339458D01*
X103124500Y-61386859D01*
X103124500Y-61613131D01*
X103124501Y-61613138D01*
X103130741Y-61660545D01*
X103148018Y-61697596D01*
X103158509Y-61766673D01*
X103148018Y-61802402D01*
X103130742Y-61839451D01*
X103130740Y-61839458D01*
X103124500Y-61886859D01*
X103124500Y-62113131D01*
X103124501Y-62113138D01*
X103130741Y-62160545D01*
X103148018Y-62197596D01*
X103158509Y-62266673D01*
X103148018Y-62302402D01*
X103130742Y-62339451D01*
X103130740Y-62339458D01*
X103124500Y-62386859D01*
X103124500Y-62613131D01*
X103124501Y-62613138D01*
X103130741Y-62660545D01*
X103148018Y-62697596D01*
X103158509Y-62766673D01*
X103148018Y-62802402D01*
X103130742Y-62839451D01*
X103130740Y-62839458D01*
X103124500Y-62886859D01*
X103124500Y-63113131D01*
X103124501Y-63113138D01*
X103130741Y-63160545D01*
X103148018Y-63197596D01*
X103158509Y-63266673D01*
X103148018Y-63302402D01*
X103130742Y-63339451D01*
X103130740Y-63339458D01*
X103124500Y-63386859D01*
X103124500Y-63613131D01*
X103124501Y-63613138D01*
X103130741Y-63660545D01*
X103148018Y-63697596D01*
X103158509Y-63766673D01*
X103148018Y-63802402D01*
X103130742Y-63839451D01*
X103130740Y-63839458D01*
X103124500Y-63886859D01*
X103124500Y-64113131D01*
X103124501Y-64113138D01*
X103130741Y-64160545D01*
X103148018Y-64197596D01*
X103158509Y-64266673D01*
X103148018Y-64302402D01*
X103130742Y-64339451D01*
X103130740Y-64339458D01*
X103124500Y-64386859D01*
X103124500Y-64613131D01*
X103124501Y-64613138D01*
X103130741Y-64660545D01*
X103148018Y-64697596D01*
X103158509Y-64766673D01*
X103148018Y-64802402D01*
X103130742Y-64839451D01*
X103130740Y-64839458D01*
X103124500Y-64886859D01*
X103124500Y-65113131D01*
X103124501Y-65113138D01*
X103130741Y-65160545D01*
X103148018Y-65197596D01*
X103158509Y-65266673D01*
X103148018Y-65302402D01*
X103130742Y-65339451D01*
X103130740Y-65339458D01*
X103124500Y-65386859D01*
X103124500Y-65613131D01*
X103124501Y-65613138D01*
X103130741Y-65660545D01*
X103148018Y-65697596D01*
X103158509Y-65766673D01*
X103148018Y-65802402D01*
X103130742Y-65839451D01*
X103130740Y-65839458D01*
X103124500Y-65886859D01*
X103124500Y-66113131D01*
X103124501Y-66113138D01*
X103130741Y-66160545D01*
X103148018Y-66197596D01*
X103158509Y-66266673D01*
X103148018Y-66302402D01*
X103130742Y-66339451D01*
X103130740Y-66339458D01*
X103124500Y-66386859D01*
X103124500Y-66613131D01*
X103124501Y-66613136D01*
X103124501Y-66613138D01*
X103130741Y-66660545D01*
X103148018Y-66697596D01*
X103158509Y-66766673D01*
X103148018Y-66802402D01*
X103130742Y-66839451D01*
X103130740Y-66839458D01*
X103124500Y-66886860D01*
X103124500Y-67035422D01*
X103104815Y-67102461D01*
X103052011Y-67148216D01*
X103032594Y-67155197D01*
X102982854Y-67168525D01*
X102982853Y-67168524D01*
X102964711Y-67173386D01*
X102964706Y-67173388D01*
X102884794Y-67219526D01*
X102884785Y-67219533D01*
X102501137Y-67603181D01*
X102439814Y-67636666D01*
X102413456Y-67639500D01*
X102337525Y-67639500D01*
X102232294Y-67667697D01*
X102197511Y-67677017D01*
X102071988Y-67749488D01*
X102071982Y-67749493D01*
X101969493Y-67851982D01*
X101969488Y-67851988D01*
X101897017Y-67977511D01*
X101897016Y-67977515D01*
X101859500Y-68117525D01*
X101859500Y-68262475D01*
X101891077Y-68380319D01*
X101897017Y-68402488D01*
X101973555Y-68535054D01*
X101971523Y-68536226D01*
X101992382Y-68590187D01*
X101978341Y-68658632D01*
X101929526Y-68708620D01*
X101868812Y-68724500D01*
X100221446Y-68724500D01*
X100132302Y-68748386D01*
X100132301Y-68748386D01*
X100132299Y-68748387D01*
X100132296Y-68748388D01*
X100052384Y-68794526D01*
X100052379Y-68794530D01*
X99752935Y-69093972D01*
X99691612Y-69127456D01*
X99649072Y-69129230D01*
X99627700Y-69126417D01*
X99613139Y-69124500D01*
X99613136Y-69124500D01*
X99386868Y-69124500D01*
X99376341Y-69125885D01*
X99339455Y-69130741D01*
X99339453Y-69130742D01*
X99339451Y-69130742D01*
X99302403Y-69148018D01*
X99233325Y-69158509D01*
X99197596Y-69148018D01*
X99160545Y-69130741D01*
X99160541Y-69130740D01*
X99113140Y-69124500D01*
X98886868Y-69124500D01*
X98876341Y-69125885D01*
X98839455Y-69130741D01*
X98839453Y-69130742D01*
X98839451Y-69130742D01*
X98802403Y-69148018D01*
X98733325Y-69158509D01*
X98697596Y-69148018D01*
X98660545Y-69130741D01*
X98660541Y-69130740D01*
X98613140Y-69124500D01*
X98386868Y-69124500D01*
X98376341Y-69125885D01*
X98339455Y-69130741D01*
X98339453Y-69130742D01*
X98339451Y-69130742D01*
X98302403Y-69148018D01*
X98233325Y-69158509D01*
X98197596Y-69148018D01*
X98160545Y-69130741D01*
X98160541Y-69130740D01*
X98113140Y-69124500D01*
X97886868Y-69124500D01*
X97876341Y-69125885D01*
X97839455Y-69130741D01*
X97839453Y-69130742D01*
X97839451Y-69130742D01*
X97802403Y-69148018D01*
X97733325Y-69158509D01*
X97697596Y-69148018D01*
X97660545Y-69130741D01*
X97660541Y-69130740D01*
X97613140Y-69124500D01*
X97386868Y-69124500D01*
X97376341Y-69125885D01*
X97339455Y-69130741D01*
X97339453Y-69130742D01*
X97339451Y-69130742D01*
X97302403Y-69148018D01*
X97233325Y-69158509D01*
X97197596Y-69148018D01*
X97160545Y-69130741D01*
X97160541Y-69130740D01*
X97113140Y-69124500D01*
X96886868Y-69124500D01*
X96876341Y-69125885D01*
X96839455Y-69130741D01*
X96839453Y-69130742D01*
X96839451Y-69130742D01*
X96802403Y-69148018D01*
X96733325Y-69158509D01*
X96697596Y-69148018D01*
X96660545Y-69130741D01*
X96660541Y-69130740D01*
X96613140Y-69124500D01*
X96386868Y-69124500D01*
X96376341Y-69125885D01*
X96339455Y-69130741D01*
X96339453Y-69130742D01*
X96339451Y-69130742D01*
X96302403Y-69148018D01*
X96233325Y-69158509D01*
X96197596Y-69148018D01*
X96160545Y-69130741D01*
X96160541Y-69130740D01*
X96113140Y-69124500D01*
X95886868Y-69124500D01*
X95876341Y-69125885D01*
X95839455Y-69130741D01*
X95839453Y-69130742D01*
X95839451Y-69130742D01*
X95802403Y-69148018D01*
X95733325Y-69158509D01*
X95697596Y-69148018D01*
X95660545Y-69130741D01*
X95660541Y-69130740D01*
X95613140Y-69124500D01*
X95386868Y-69124500D01*
X95376341Y-69125885D01*
X95339455Y-69130741D01*
X95339453Y-69130742D01*
X95339451Y-69130742D01*
X95302403Y-69148018D01*
X95233325Y-69158509D01*
X95197596Y-69148018D01*
X95160545Y-69130741D01*
X95160541Y-69130740D01*
X95113140Y-69124500D01*
X94886868Y-69124500D01*
X94876341Y-69125885D01*
X94839455Y-69130741D01*
X94839453Y-69130742D01*
X94839451Y-69130742D01*
X94802403Y-69148018D01*
X94733325Y-69158509D01*
X94697596Y-69148018D01*
X94660545Y-69130741D01*
X94660541Y-69130740D01*
X94613140Y-69124500D01*
X94386868Y-69124500D01*
X94376341Y-69125885D01*
X94339455Y-69130741D01*
X94339453Y-69130742D01*
X94339451Y-69130742D01*
X94302403Y-69148018D01*
X94233325Y-69158509D01*
X94197596Y-69148018D01*
X94160545Y-69130741D01*
X94160541Y-69130740D01*
X94113140Y-69124500D01*
X93886868Y-69124500D01*
X93876341Y-69125885D01*
X93839455Y-69130741D01*
X93839453Y-69130742D01*
X93839451Y-69130742D01*
X93802403Y-69148018D01*
X93733325Y-69158509D01*
X93697596Y-69148018D01*
X93660545Y-69130741D01*
X93660541Y-69130740D01*
X93613140Y-69124500D01*
X93386868Y-69124500D01*
X93376341Y-69125885D01*
X93339455Y-69130741D01*
X93339453Y-69130742D01*
X93339451Y-69130742D01*
X93302403Y-69148018D01*
X93233325Y-69158509D01*
X93197596Y-69148018D01*
X93160545Y-69130741D01*
X93160541Y-69130740D01*
X93113140Y-69124500D01*
X92886868Y-69124500D01*
X92876341Y-69125885D01*
X92839455Y-69130741D01*
X92839453Y-69130742D01*
X92839451Y-69130742D01*
X92802403Y-69148018D01*
X92733325Y-69158509D01*
X92697596Y-69148018D01*
X92660545Y-69130741D01*
X92660541Y-69130740D01*
X92613140Y-69124500D01*
X92386868Y-69124500D01*
X92376341Y-69125885D01*
X92339455Y-69130741D01*
X92339453Y-69130742D01*
X92339451Y-69130742D01*
X92302403Y-69148018D01*
X92233325Y-69158509D01*
X92197596Y-69148018D01*
X92160545Y-69130741D01*
X92160541Y-69130740D01*
X92113140Y-69124500D01*
X91886868Y-69124500D01*
X91876341Y-69125885D01*
X91839455Y-69130741D01*
X91839453Y-69130742D01*
X91839451Y-69130742D01*
X91802403Y-69148018D01*
X91733325Y-69158509D01*
X91697596Y-69148018D01*
X91660545Y-69130741D01*
X91660541Y-69130740D01*
X91613140Y-69124500D01*
X91386867Y-69124500D01*
X91371839Y-69126478D01*
X91339455Y-69130741D01*
X91339453Y-69130742D01*
X91339451Y-69130742D01*
X91235420Y-69179253D01*
X91154253Y-69260420D01*
X91112382Y-69350213D01*
X91066209Y-69402652D01*
X90999016Y-69421804D01*
X90932135Y-69401588D01*
X90887618Y-69350213D01*
X90863970Y-69299500D01*
X90845747Y-69260421D01*
X90764579Y-69179253D01*
X90660545Y-69130741D01*
X90660543Y-69130740D01*
X90660544Y-69130740D01*
X90613140Y-69124500D01*
X90613139Y-69124500D01*
X90524500Y-69124500D01*
X90457461Y-69104815D01*
X90411706Y-69052011D01*
X90400500Y-69000500D01*
X90400500Y-67346448D01*
X90400500Y-67346446D01*
X90376614Y-67257302D01*
X90361434Y-67231010D01*
X90361434Y-67231009D01*
X90330472Y-67177381D01*
X90330468Y-67177376D01*
X89906027Y-66752935D01*
X89872542Y-66691612D01*
X89870769Y-66649072D01*
X89875500Y-66613139D01*
X89875499Y-66386862D01*
X89869259Y-66339455D01*
X89851982Y-66302404D01*
X89841490Y-66233326D01*
X89851980Y-66197599D01*
X89869259Y-66160545D01*
X89875500Y-66113139D01*
X89875499Y-65886862D01*
X89869259Y-65839455D01*
X89851982Y-65802404D01*
X89841490Y-65733326D01*
X89851980Y-65697599D01*
X89869259Y-65660545D01*
X89875500Y-65613139D01*
X89875499Y-65386862D01*
X89869259Y-65339455D01*
X89856584Y-65312274D01*
X89851982Y-65302404D01*
X89841490Y-65233326D01*
X89851980Y-65197599D01*
X89869259Y-65160545D01*
X89875500Y-65113139D01*
X89875499Y-64886862D01*
X89869259Y-64839455D01*
X89851982Y-64802404D01*
X89841490Y-64733326D01*
X89851980Y-64697599D01*
X89869259Y-64660545D01*
X89875500Y-64613139D01*
X89875499Y-64386862D01*
X89869259Y-64339455D01*
X89851982Y-64302404D01*
X89841490Y-64233326D01*
X89851980Y-64197599D01*
X89869259Y-64160545D01*
X89875500Y-64113139D01*
X89875499Y-63886862D01*
X89869259Y-63839455D01*
X89851982Y-63802404D01*
X89841490Y-63733326D01*
X89851980Y-63697599D01*
X89869259Y-63660545D01*
X89875500Y-63613139D01*
X89875499Y-63386862D01*
X89869259Y-63339455D01*
X89851982Y-63302404D01*
X89841490Y-63233326D01*
X89851980Y-63197599D01*
X89869259Y-63160545D01*
X89875500Y-63113139D01*
X89875499Y-62886862D01*
X89869259Y-62839455D01*
X89851982Y-62802404D01*
X89841490Y-62733326D01*
X89851980Y-62697599D01*
X89869259Y-62660545D01*
X89875500Y-62613139D01*
X89875499Y-62386862D01*
X89869259Y-62339455D01*
X89851982Y-62302404D01*
X89841490Y-62233326D01*
X89851980Y-62197599D01*
X89869259Y-62160545D01*
X89875500Y-62113139D01*
X89875499Y-61886862D01*
X89869259Y-61839455D01*
X89860790Y-61821293D01*
X89851982Y-61802404D01*
X89841490Y-61733326D01*
X89851980Y-61697599D01*
X89869259Y-61660545D01*
X89875500Y-61613139D01*
X89875499Y-61386862D01*
X89869259Y-61339455D01*
X89820747Y-61235421D01*
X89739579Y-61154253D01*
X89649785Y-61112381D01*
X89597347Y-61066210D01*
X89578195Y-60999016D01*
X89598411Y-60932135D01*
X89649785Y-60887618D01*
X89739579Y-60845747D01*
X89820747Y-60764579D01*
X89869259Y-60660545D01*
X89875500Y-60613139D01*
X89875499Y-60386862D01*
X89869259Y-60339455D01*
X89851982Y-60302404D01*
X89841490Y-60233326D01*
X89851980Y-60197599D01*
X89869259Y-60160545D01*
X89875500Y-60113139D01*
X89875499Y-59886862D01*
X89869259Y-59839455D01*
X89851982Y-59802404D01*
X89841490Y-59733326D01*
X89851980Y-59697599D01*
X89869259Y-59660545D01*
X89875500Y-59613139D01*
X89875499Y-59386862D01*
X89869259Y-59339455D01*
X89851982Y-59302404D01*
X89841490Y-59233326D01*
X89851980Y-59197599D01*
X89869259Y-59160545D01*
X89875500Y-59113139D01*
X89875499Y-58886862D01*
X89869259Y-58839455D01*
X89851982Y-58802404D01*
X89841490Y-58733326D01*
X89851980Y-58697599D01*
X89869259Y-58660545D01*
X89875500Y-58613139D01*
X89875499Y-58386862D01*
X89869259Y-58339455D01*
X89851982Y-58302404D01*
X89841490Y-58233326D01*
X89851980Y-58197599D01*
X89869259Y-58160545D01*
X89875500Y-58113139D01*
X89875499Y-57886862D01*
X89869259Y-57839455D01*
X89851982Y-57802404D01*
X89841490Y-57733326D01*
X89851980Y-57697599D01*
X89869259Y-57660545D01*
X89875500Y-57613139D01*
X89875499Y-57386862D01*
X89869259Y-57339455D01*
X89851982Y-57302404D01*
X89841490Y-57233326D01*
X89851980Y-57197599D01*
X89869259Y-57160545D01*
X89875500Y-57113139D01*
X89875499Y-56886862D01*
X89869259Y-56839455D01*
X89851982Y-56802404D01*
X89841490Y-56733326D01*
X89851980Y-56697599D01*
X89869259Y-56660545D01*
X89875500Y-56613139D01*
X89875499Y-56386862D01*
X89869259Y-56339455D01*
X89820747Y-56235421D01*
X89739579Y-56154253D01*
X89635545Y-56105741D01*
X89635543Y-56105740D01*
X89635544Y-56105740D01*
X89588139Y-56099500D01*
X88061867Y-56099500D01*
X88046839Y-56101478D01*
X88014455Y-56105741D01*
X88014453Y-56105742D01*
X88014451Y-56105742D01*
X87910420Y-56154253D01*
X87829253Y-56235420D01*
X87780740Y-56339456D01*
X87774500Y-56386859D01*
X87774500Y-56613131D01*
X87774501Y-56613138D01*
X87780741Y-56660545D01*
X87798018Y-56697596D01*
X87808509Y-56766673D01*
X87798018Y-56802402D01*
X87780742Y-56839451D01*
X87780740Y-56839458D01*
X87774500Y-56886859D01*
X87774500Y-57113131D01*
X87774501Y-57113138D01*
X87780741Y-57160545D01*
X87798018Y-57197596D01*
X87808509Y-57266673D01*
X87798018Y-57302402D01*
X87780742Y-57339451D01*
X87780740Y-57339458D01*
X87774500Y-57386859D01*
X87774500Y-57613131D01*
X87774501Y-57613138D01*
X87780741Y-57660545D01*
X87798018Y-57697596D01*
X87808509Y-57766673D01*
X87798018Y-57802402D01*
X87780742Y-57839451D01*
X87780740Y-57839458D01*
X87774500Y-57886859D01*
X87774500Y-58113131D01*
X87774501Y-58113138D01*
X87780741Y-58160545D01*
X87798018Y-58197596D01*
X87798171Y-58198607D01*
X87798835Y-58199385D01*
X87803403Y-58233059D01*
X87808509Y-58266673D01*
X87808136Y-58267940D01*
X87808229Y-58268620D01*
X87798017Y-58302404D01*
X87777786Y-58345789D01*
X87731613Y-58398228D01*
X87664420Y-58417380D01*
X87597539Y-58397164D01*
X87591094Y-58392651D01*
X87505230Y-58328374D01*
X87505227Y-58328373D01*
X87505226Y-58328372D01*
X87377114Y-58280588D01*
X87377112Y-58280587D01*
X87377110Y-58280587D01*
X87320501Y-58274500D01*
X87320485Y-58274500D01*
X86871544Y-58274500D01*
X86804505Y-58254815D01*
X86783863Y-58238181D01*
X86564937Y-58019255D01*
X86531452Y-57957932D01*
X86534351Y-57899979D01*
X86534120Y-57899943D01*
X86534461Y-57897789D01*
X86534688Y-57893254D01*
X86535646Y-57890303D01*
X86536191Y-57886861D01*
X86550500Y-57796519D01*
X86550499Y-56558482D01*
X86535646Y-56464696D01*
X86528527Y-56450725D01*
X86515632Y-56382059D01*
X86541908Y-56317319D01*
X86599014Y-56277061D01*
X86665039Y-56274231D01*
X86665057Y-56274120D01*
X86665605Y-56274206D01*
X86668820Y-56274069D01*
X86673893Y-56275519D01*
X86768475Y-56290499D01*
X86768481Y-56290500D01*
X87131518Y-56290499D01*
X87225304Y-56275646D01*
X87338342Y-56218050D01*
X87428050Y-56128342D01*
X87485646Y-56015304D01*
X87485646Y-56015302D01*
X87485647Y-56015301D01*
X87500500Y-55921524D01*
X87500500Y-55777000D01*
X87520185Y-55709961D01*
X87572989Y-55664206D01*
X87624500Y-55653000D01*
X90034884Y-55653000D01*
X90101923Y-55672685D01*
X90147265Y-55724594D01*
X90154253Y-55739579D01*
X90235421Y-55820747D01*
X90339455Y-55869259D01*
X90386861Y-55875500D01*
X90613138Y-55875499D01*
X90660545Y-55869259D01*
X90764579Y-55820747D01*
X90845747Y-55739579D01*
X90887619Y-55649782D01*
X90933788Y-55597347D01*
X91000982Y-55578195D01*
X91067863Y-55598410D01*
G37*
%TD.AperFunction*%
%TA.AperFunction,Conductor*%
G36*
X107514191Y-59870185D02*
G01*
X107534833Y-59886819D01*
X109846877Y-62198863D01*
X109880362Y-62260186D01*
X109883196Y-62286544D01*
X109883196Y-62350500D01*
X109863511Y-62417539D01*
X109810707Y-62463294D01*
X109759196Y-62474500D01*
X109572072Y-62474500D01*
X109560393Y-62471070D01*
X109548275Y-62472195D01*
X109527493Y-62461410D01*
X109505033Y-62454815D01*
X109495530Y-62444822D01*
X109486259Y-62440011D01*
X109474237Y-62422430D01*
X109464517Y-62412209D01*
X109460392Y-62405020D01*
X109460310Y-62404712D01*
X109445382Y-62378856D01*
X109414166Y-62324788D01*
X108388908Y-61299530D01*
X108388907Y-61299529D01*
X108388904Y-61299527D01*
X108308986Y-61253387D01*
X108308985Y-61253386D01*
X108308984Y-61253386D01*
X108219840Y-61229500D01*
X108219839Y-61229500D01*
X106783953Y-61229500D01*
X106716914Y-61209815D01*
X106696272Y-61193181D01*
X105565273Y-60062181D01*
X105531788Y-60000858D01*
X105536772Y-59931166D01*
X105578644Y-59875233D01*
X105644108Y-59850816D01*
X105652954Y-59850500D01*
X107447152Y-59850500D01*
X107514191Y-59870185D01*
G37*
%TD.AperFunction*%
%TA.AperFunction,Conductor*%
G36*
X105510931Y-56870185D02*
G01*
X105556686Y-56922989D01*
X105560066Y-56931149D01*
X105560435Y-56932135D01*
X105579096Y-56982166D01*
X105584080Y-57051858D01*
X105550595Y-57113181D01*
X105489272Y-57146666D01*
X105462914Y-57149500D01*
X105106876Y-57149500D01*
X105098190Y-57146949D01*
X105089229Y-57148238D01*
X105054471Y-57137882D01*
X104999785Y-57112381D01*
X104947347Y-57066210D01*
X104928195Y-56999016D01*
X104948411Y-56932135D01*
X104999785Y-56887618D01*
X105054471Y-56862117D01*
X105055033Y-56861993D01*
X105055365Y-56861706D01*
X105058109Y-56861311D01*
X105106876Y-56850500D01*
X105443892Y-56850500D01*
X105510931Y-56870185D01*
G37*
%TD.AperFunction*%
%TA.AperFunction,Conductor*%
G36*
X95453621Y-33617475D02*
G01*
X95503614Y-33666286D01*
X95519500Y-33727010D01*
X95519500Y-34047372D01*
X95499815Y-34114411D01*
X95457502Y-34154758D01*
X95431988Y-34169488D01*
X95431982Y-34169493D01*
X95329493Y-34271982D01*
X95329488Y-34271988D01*
X95257017Y-34397511D01*
X95257016Y-34397515D01*
X95219500Y-34537525D01*
X95219500Y-34682475D01*
X95251899Y-34803387D01*
X95257017Y-34822488D01*
X95329488Y-34948011D01*
X95329490Y-34948013D01*
X95329491Y-34948015D01*
X95431985Y-35050509D01*
X95431986Y-35050510D01*
X95431988Y-35050511D01*
X95557511Y-35122982D01*
X95557512Y-35122982D01*
X95557515Y-35122984D01*
X95697525Y-35160500D01*
X95697528Y-35160500D01*
X95842472Y-35160500D01*
X95842475Y-35160500D01*
X95863407Y-35154891D01*
X95933253Y-35156552D01*
X95991117Y-35195713D01*
X96018623Y-35259940D01*
X96019500Y-35274665D01*
X96019500Y-37228456D01*
X95999815Y-37295495D01*
X95983181Y-37316137D01*
X95939532Y-37359785D01*
X95939528Y-37359791D01*
X95909263Y-37412212D01*
X95893387Y-37439709D01*
X95893386Y-37439712D01*
X95869501Y-37528855D01*
X95869500Y-37528857D01*
X95869500Y-38636152D01*
X95849815Y-38703191D01*
X95797011Y-38748946D01*
X95786456Y-38753193D01*
X95732117Y-38772207D01*
X95622850Y-38852850D01*
X95542207Y-38962117D01*
X95542206Y-38962119D01*
X95497353Y-39090298D01*
X95497353Y-39090300D01*
X95494500Y-39120730D01*
X95494500Y-39629269D01*
X95497353Y-39659699D01*
X95497353Y-39659701D01*
X95542206Y-39787880D01*
X95542207Y-39787882D01*
X95622850Y-39897150D01*
X95732118Y-39977793D01*
X95774845Y-39992744D01*
X95860299Y-40022646D01*
X95890730Y-40025500D01*
X95890734Y-40025500D01*
X96549270Y-40025500D01*
X96579699Y-40022646D01*
X96579701Y-40022646D01*
X96643790Y-40000219D01*
X96707882Y-39977793D01*
X96817150Y-39897150D01*
X96875730Y-39817775D01*
X96931377Y-39775526D01*
X97001033Y-39770067D01*
X97062583Y-39803134D01*
X97096484Y-39864228D01*
X97099500Y-39891410D01*
X97099500Y-40786104D01*
X97079815Y-40853143D01*
X97063181Y-40873785D01*
X94673785Y-43263181D01*
X94612462Y-43296666D01*
X94586104Y-43299500D01*
X93399262Y-43299500D01*
X93310118Y-43323386D01*
X93310117Y-43323386D01*
X93310115Y-43323387D01*
X93310112Y-43323388D01*
X93230200Y-43369526D01*
X93230195Y-43369530D01*
X93112181Y-43487544D01*
X93050858Y-43521028D01*
X92981166Y-43516044D01*
X92925233Y-43474172D01*
X92900816Y-43408708D01*
X92900500Y-43399862D01*
X92900500Y-39365544D01*
X92920185Y-39298505D01*
X92972989Y-39252750D01*
X93042147Y-39242806D01*
X93105703Y-39271831D01*
X93112181Y-39277863D01*
X93531955Y-39697637D01*
X93565440Y-39758960D01*
X93566500Y-39765793D01*
X93567353Y-39769701D01*
X93611951Y-39897150D01*
X93612207Y-39897882D01*
X93692850Y-40007150D01*
X93802118Y-40087793D01*
X93844845Y-40102744D01*
X93930299Y-40132646D01*
X93960730Y-40135500D01*
X93960734Y-40135500D01*
X94619270Y-40135500D01*
X94649699Y-40132646D01*
X94649701Y-40132646D01*
X94720525Y-40107863D01*
X94777882Y-40087793D01*
X94887150Y-40007150D01*
X94967793Y-39897882D01*
X95006284Y-39787882D01*
X95012646Y-39769701D01*
X95012646Y-39769699D01*
X95015500Y-39739269D01*
X95015500Y-39230730D01*
X95012646Y-39200300D01*
X95012646Y-39200298D01*
X94967793Y-39072119D01*
X94967792Y-39072117D01*
X94961132Y-39063093D01*
X94887150Y-38962850D01*
X94777882Y-38882207D01*
X94777880Y-38882206D01*
X94649700Y-38837353D01*
X94619270Y-38834500D01*
X94619266Y-38834500D01*
X93960734Y-38834500D01*
X93960730Y-38834500D01*
X93930302Y-38837353D01*
X93805855Y-38880899D01*
X93789287Y-38881744D01*
X93773747Y-38887541D01*
X93755117Y-38883488D01*
X93736077Y-38884460D01*
X93721116Y-38876091D01*
X93705474Y-38872689D01*
X93677220Y-38851538D01*
X93636819Y-38811137D01*
X93603334Y-38749814D01*
X93600500Y-38723456D01*
X93600500Y-37741544D01*
X93620185Y-37674505D01*
X93636819Y-37653863D01*
X93641182Y-37649500D01*
X93650470Y-37640212D01*
X93696614Y-37560288D01*
X93705036Y-37528857D01*
X93705037Y-37528855D01*
X93710696Y-37507731D01*
X93720500Y-37471144D01*
X93720500Y-33912386D01*
X93740185Y-33845347D01*
X93792989Y-33799592D01*
X93862147Y-33789648D01*
X93925703Y-33818673D01*
X93963477Y-33877451D01*
X93964255Y-33880222D01*
X93972874Y-33912386D01*
X93997017Y-34002488D01*
X94069488Y-34128011D01*
X94069490Y-34128013D01*
X94069491Y-34128015D01*
X94171985Y-34230509D01*
X94171986Y-34230510D01*
X94171988Y-34230511D01*
X94297511Y-34302982D01*
X94297512Y-34302982D01*
X94297515Y-34302984D01*
X94437525Y-34340500D01*
X94437528Y-34340500D01*
X94582472Y-34340500D01*
X94582475Y-34340500D01*
X94722485Y-34302984D01*
X94848015Y-34230509D01*
X94950509Y-34128015D01*
X95022984Y-34002485D01*
X95060500Y-33862475D01*
X95060500Y-33819242D01*
X95066735Y-33798006D01*
X95068311Y-33775927D01*
X95076388Y-33765133D01*
X95080185Y-33752203D01*
X95096911Y-33737709D01*
X95110174Y-33719987D01*
X95126542Y-33712033D01*
X95132989Y-33706448D01*
X95141148Y-33703067D01*
X95148027Y-33700500D01*
X95148554Y-33700500D01*
X95237698Y-33676614D01*
X95275633Y-33654712D01*
X95284600Y-33649535D01*
X95317617Y-33630473D01*
X95317617Y-33630472D01*
X95317622Y-33630470D01*
X95317625Y-33630466D01*
X95320008Y-33628639D01*
X95322390Y-33627717D01*
X95324661Y-33626407D01*
X95324865Y-33626760D01*
X95385175Y-33603441D01*
X95453621Y-33617475D01*
G37*
%TD.AperFunction*%
%TA.AperFunction,Conductor*%
G36*
X138642539Y-26050185D02*
G01*
X138688294Y-26102989D01*
X138699500Y-26154500D01*
X138699500Y-80135500D01*
X138679815Y-80202539D01*
X138627011Y-80248294D01*
X138575500Y-80259500D01*
X62424500Y-80259500D01*
X62357461Y-80239815D01*
X62311706Y-80187011D01*
X62300500Y-80135500D01*
X62300500Y-27545321D01*
X74469500Y-27545321D01*
X74469500Y-32694678D01*
X74484032Y-32767735D01*
X74484033Y-32767739D01*
X74484034Y-32767740D01*
X74539399Y-32850601D01*
X74584147Y-32880500D01*
X74622260Y-32905966D01*
X74622264Y-32905967D01*
X74695321Y-32920499D01*
X74695324Y-32920500D01*
X74695326Y-32920500D01*
X79734221Y-32920500D01*
X79801260Y-32940185D01*
X79821902Y-32956819D01*
X86083181Y-39218098D01*
X86116666Y-39279421D01*
X86119500Y-39305779D01*
X86119500Y-49073456D01*
X86099815Y-49140495D01*
X86083181Y-49161137D01*
X80282181Y-54962137D01*
X80220858Y-54995622D01*
X80151166Y-54990638D01*
X80095233Y-54948766D01*
X80070816Y-54883302D01*
X80070500Y-54874456D01*
X80070500Y-53145323D01*
X80070499Y-53145321D01*
X80055967Y-53072264D01*
X80055966Y-53072260D01*
X80000601Y-52989399D01*
X79917740Y-52934034D01*
X79917739Y-52934033D01*
X79917735Y-52934032D01*
X79844677Y-52919500D01*
X79844674Y-52919500D01*
X74695326Y-52919500D01*
X74695323Y-52919500D01*
X74622264Y-52934032D01*
X74622260Y-52934033D01*
X74539399Y-52989399D01*
X74484033Y-53072260D01*
X74484032Y-53072264D01*
X74469500Y-53145321D01*
X74469500Y-58294678D01*
X74484032Y-58367735D01*
X74484033Y-58367739D01*
X74490753Y-58377796D01*
X74539399Y-58450601D01*
X74593142Y-58486510D01*
X74622260Y-58505966D01*
X74622264Y-58505967D01*
X74695321Y-58520499D01*
X74695324Y-58520500D01*
X74695326Y-58520500D01*
X79844676Y-58520500D01*
X79844677Y-58520499D01*
X79917740Y-58505966D01*
X80000601Y-58450601D01*
X80055966Y-58367740D01*
X80070500Y-58294674D01*
X80070500Y-56194500D01*
X80090185Y-56127461D01*
X80142989Y-56081706D01*
X80194500Y-56070500D01*
X84466745Y-56070500D01*
X84533784Y-56090185D01*
X84567067Y-56121620D01*
X84571953Y-56128346D01*
X84661652Y-56218045D01*
X84661654Y-56218046D01*
X84661658Y-56218050D01*
X84771601Y-56274069D01*
X84774698Y-56275647D01*
X84868475Y-56290499D01*
X84868481Y-56290500D01*
X85231518Y-56290499D01*
X85325304Y-56275646D01*
X85325305Y-56275645D01*
X85334943Y-56274119D01*
X85335263Y-56276143D01*
X85392500Y-56274504D01*
X85452335Y-56310580D01*
X85483168Y-56373279D01*
X85475209Y-56442693D01*
X85471472Y-56450726D01*
X85464353Y-56464697D01*
X85464352Y-56464698D01*
X85449500Y-56558475D01*
X85449500Y-57796517D01*
X85456301Y-57839455D01*
X85464354Y-57890304D01*
X85521950Y-58003342D01*
X85611658Y-58093050D01*
X85672859Y-58124233D01*
X85714938Y-58159228D01*
X85719529Y-58165211D01*
X86313181Y-58758862D01*
X86346666Y-58820185D01*
X86349500Y-58846543D01*
X86349500Y-59295481D01*
X86349501Y-59295490D01*
X86355587Y-59352114D01*
X86403372Y-59480226D01*
X86485314Y-59589688D01*
X86587719Y-59666347D01*
X86629591Y-59722280D01*
X86634575Y-59791972D01*
X86601090Y-59853295D01*
X86587720Y-59864881D01*
X86500313Y-59930313D01*
X86418373Y-60039771D01*
X86415609Y-60047181D01*
X86391008Y-60113140D01*
X86370587Y-60167889D01*
X86364500Y-60224498D01*
X86364500Y-60815481D01*
X86364501Y-60815490D01*
X86370587Y-60872114D01*
X86410082Y-60978000D01*
X86418372Y-61000226D01*
X86500313Y-61109687D01*
X86609774Y-61191628D01*
X86737886Y-61239412D01*
X86779373Y-61243872D01*
X86801812Y-61253166D01*
X86825544Y-61258329D01*
X86839501Y-61268777D01*
X86843923Y-61270609D01*
X86853798Y-61279480D01*
X87012137Y-61437819D01*
X87045622Y-61499142D01*
X87040638Y-61568834D01*
X86998766Y-61624767D01*
X86933302Y-61649184D01*
X86924456Y-61649500D01*
X85946544Y-61649500D01*
X85879505Y-61629815D01*
X85858863Y-61613181D01*
X85475213Y-61229531D01*
X85475208Y-61229527D01*
X85395290Y-61183387D01*
X85395289Y-61183386D01*
X85395288Y-61183386D01*
X85306144Y-61159500D01*
X85306143Y-61159500D01*
X84846108Y-61159500D01*
X84779069Y-61139815D01*
X84733314Y-61087011D01*
X84729927Y-61078834D01*
X84711628Y-61029774D01*
X84704685Y-61020499D01*
X84629687Y-60920313D01*
X84521673Y-60839455D01*
X84520228Y-60838373D01*
X84520226Y-60838372D01*
X84392114Y-60790588D01*
X84392112Y-60790587D01*
X84392110Y-60790587D01*
X84335501Y-60784500D01*
X84335485Y-60784500D01*
X83886544Y-60784500D01*
X83819505Y-60764815D01*
X83798863Y-60748181D01*
X83397713Y-60347031D01*
X83397708Y-60347027D01*
X83317790Y-60300887D01*
X83317789Y-60300886D01*
X83317788Y-60300886D01*
X83228644Y-60277000D01*
X83228643Y-60277000D01*
X81134499Y-60277000D01*
X81067460Y-60257315D01*
X81021705Y-60204511D01*
X81010499Y-60153000D01*
X81010499Y-59829629D01*
X81010498Y-59829623D01*
X81010497Y-59829616D01*
X81004091Y-59770017D01*
X81001033Y-59761819D01*
X80953797Y-59635171D01*
X80953793Y-59635164D01*
X80867547Y-59519955D01*
X80867544Y-59519952D01*
X80752335Y-59433706D01*
X80752328Y-59433702D01*
X80617482Y-59383408D01*
X80617483Y-59383408D01*
X80557883Y-59377001D01*
X80557881Y-59377000D01*
X80557873Y-59377000D01*
X80557864Y-59377000D01*
X78562129Y-59377000D01*
X78562123Y-59377001D01*
X78502516Y-59383408D01*
X78367671Y-59433702D01*
X78367664Y-59433706D01*
X78252455Y-59519952D01*
X78252452Y-59519955D01*
X78166206Y-59635164D01*
X78166202Y-59635171D01*
X78115908Y-59770017D01*
X78111018Y-59815509D01*
X78109501Y-59829623D01*
X78109500Y-59829635D01*
X78109500Y-61425370D01*
X78109501Y-61425376D01*
X78115908Y-61484983D01*
X78166202Y-61619828D01*
X78166206Y-61619835D01*
X78252452Y-61735044D01*
X78252455Y-61735047D01*
X78367664Y-61821293D01*
X78367671Y-61821297D01*
X78502517Y-61871591D01*
X78502516Y-61871591D01*
X78509444Y-61872335D01*
X78562127Y-61878000D01*
X80557872Y-61877999D01*
X80617483Y-61871591D01*
X80752331Y-61821296D01*
X80867546Y-61735046D01*
X80953796Y-61619831D01*
X81004091Y-61484983D01*
X81010500Y-61425373D01*
X81010500Y-61102000D01*
X81030185Y-61034961D01*
X81082989Y-60989206D01*
X81134500Y-60978000D01*
X82985956Y-60978000D01*
X83052995Y-60997685D01*
X83073637Y-61014319D01*
X83328181Y-61268863D01*
X83361666Y-61330186D01*
X83364500Y-61356544D01*
X83364500Y-61805481D01*
X83364501Y-61805490D01*
X83370587Y-61862114D01*
X83405300Y-61955179D01*
X83418372Y-61990226D01*
X83500313Y-62099687D01*
X83538424Y-62128216D01*
X83580295Y-62184150D01*
X83585279Y-62253841D01*
X83551794Y-62315165D01*
X83523541Y-62336314D01*
X83519778Y-62338368D01*
X83410313Y-62420313D01*
X83328373Y-62529771D01*
X83328372Y-62529774D01*
X83280878Y-62657110D01*
X83280587Y-62657889D01*
X83274500Y-62714498D01*
X83274500Y-63163455D01*
X83254815Y-63230494D01*
X83238181Y-63251136D01*
X82548637Y-63940681D01*
X82487314Y-63974166D01*
X82460956Y-63977000D01*
X81134499Y-63977000D01*
X81067460Y-63957315D01*
X81021705Y-63904511D01*
X81010499Y-63853000D01*
X81010499Y-63529629D01*
X81010498Y-63529623D01*
X81010497Y-63529616D01*
X81004091Y-63470017D01*
X81001581Y-63463288D01*
X80953796Y-63335169D01*
X80953793Y-63335164D01*
X80867547Y-63219955D01*
X80867544Y-63219952D01*
X80752335Y-63133706D01*
X80752328Y-63133702D01*
X80617482Y-63083408D01*
X80617483Y-63083408D01*
X80557883Y-63077001D01*
X80557881Y-63077000D01*
X80557873Y-63077000D01*
X80557864Y-63077000D01*
X78562129Y-63077000D01*
X78562123Y-63077001D01*
X78502516Y-63083408D01*
X78367671Y-63133702D01*
X78367664Y-63133706D01*
X78252455Y-63219952D01*
X78252452Y-63219955D01*
X78166206Y-63335164D01*
X78166204Y-63335169D01*
X78115908Y-63470017D01*
X78109501Y-63529616D01*
X78109501Y-63529623D01*
X78109500Y-63529635D01*
X78109500Y-65125370D01*
X78109501Y-65125376D01*
X78115908Y-65184983D01*
X78166202Y-65319828D01*
X78166206Y-65319835D01*
X78252452Y-65435044D01*
X78252455Y-65435047D01*
X78367664Y-65521293D01*
X78367671Y-65521297D01*
X78502517Y-65571591D01*
X78502516Y-65571591D01*
X78509444Y-65572335D01*
X78562127Y-65578000D01*
X80557872Y-65577999D01*
X80617483Y-65571591D01*
X80752331Y-65521296D01*
X80867546Y-65435046D01*
X80953796Y-65319831D01*
X81004091Y-65184983D01*
X81010500Y-65125373D01*
X81010500Y-64802000D01*
X81030185Y-64734961D01*
X81082989Y-64689206D01*
X81134500Y-64678000D01*
X82703642Y-64678000D01*
X82703644Y-64678000D01*
X82792788Y-64654114D01*
X82795833Y-64652356D01*
X82797100Y-64651625D01*
X82816885Y-64640201D01*
X82872712Y-64607970D01*
X83309163Y-64171517D01*
X83329347Y-64160496D01*
X83346942Y-64145684D01*
X83359430Y-64144069D01*
X83370484Y-64138034D01*
X83393425Y-64139674D01*
X83416235Y-64136726D01*
X83427613Y-64142119D01*
X83440175Y-64143018D01*
X83458588Y-64156801D01*
X83479371Y-64166653D01*
X83486027Y-64177341D01*
X83496109Y-64184889D01*
X83504147Y-64206440D01*
X83516304Y-64225963D01*
X83517437Y-64242074D01*
X83520526Y-64250354D01*
X83520829Y-64260965D01*
X83520654Y-64273216D01*
X83519500Y-64277525D01*
X83519500Y-64354307D01*
X83519487Y-64355221D01*
X83509421Y-64387777D01*
X83499815Y-64420495D01*
X83498991Y-64421517D01*
X83498850Y-64421974D01*
X83498144Y-64422567D01*
X83483181Y-64441137D01*
X81321137Y-66603181D01*
X81259814Y-66636666D01*
X81233456Y-66639500D01*
X79995323Y-66639500D01*
X79922264Y-66654032D01*
X79922260Y-66654033D01*
X79839399Y-66709399D01*
X79784033Y-66792260D01*
X79784032Y-66792264D01*
X79769500Y-66865321D01*
X79769500Y-68514678D01*
X79784032Y-68587735D01*
X79784033Y-68587739D01*
X79784034Y-68587740D01*
X79839399Y-68670601D01*
X79920066Y-68724500D01*
X79922260Y-68725966D01*
X79922264Y-68725967D01*
X79995321Y-68740499D01*
X79995324Y-68740500D01*
X79995326Y-68740500D01*
X82224676Y-68740500D01*
X82224677Y-68740499D01*
X82297740Y-68725966D01*
X82380601Y-68670601D01*
X82435966Y-68587740D01*
X82450500Y-68514674D01*
X82450500Y-66865326D01*
X82450500Y-66865323D01*
X82450499Y-66865321D01*
X82435967Y-66792264D01*
X82435966Y-66792260D01*
X82422375Y-66771919D01*
X82380601Y-66709399D01*
X82380599Y-66709398D01*
X82373815Y-66699244D01*
X82374897Y-66698520D01*
X82347637Y-66648597D01*
X82352621Y-66578905D01*
X82381120Y-66534560D01*
X83978863Y-64936819D01*
X84040186Y-64903334D01*
X84066544Y-64900500D01*
X84142472Y-64900500D01*
X84142475Y-64900500D01*
X84282485Y-64862984D01*
X84408015Y-64790509D01*
X84510509Y-64688015D01*
X84582984Y-64562485D01*
X84620500Y-64422475D01*
X84620500Y-64277525D01*
X84582984Y-64137515D01*
X84582528Y-64136726D01*
X84510511Y-64011988D01*
X84510506Y-64011982D01*
X84408017Y-63909493D01*
X84408015Y-63909491D01*
X84404884Y-63907683D01*
X84402774Y-63905470D01*
X84401566Y-63904543D01*
X84401710Y-63904354D01*
X84356671Y-63857117D01*
X84343449Y-63788510D01*
X84369417Y-63723646D01*
X84423550Y-63684117D01*
X84430226Y-63681628D01*
X84539687Y-63599687D01*
X84621628Y-63490226D01*
X84632575Y-63460876D01*
X84639927Y-63441166D01*
X84681798Y-63385232D01*
X84747263Y-63360816D01*
X84756108Y-63360500D01*
X85277446Y-63360500D01*
X85277448Y-63360500D01*
X85366592Y-63336614D01*
X85369095Y-63335169D01*
X85446516Y-63290470D01*
X85850167Y-62886819D01*
X85911490Y-62853334D01*
X85937848Y-62850500D01*
X86475334Y-62850500D01*
X86542373Y-62870185D01*
X86588128Y-62922989D01*
X86598072Y-62992147D01*
X86595109Y-63006593D01*
X86589500Y-63027525D01*
X86589500Y-63172479D01*
X86596483Y-63198539D01*
X86594819Y-63268389D01*
X86555656Y-63326250D01*
X86551019Y-63329897D01*
X86470313Y-63390313D01*
X86388373Y-63499771D01*
X86388372Y-63499774D01*
X86346089Y-63613139D01*
X86340587Y-63627889D01*
X86334500Y-63684498D01*
X86334500Y-64275481D01*
X86334501Y-64275490D01*
X86340587Y-64332114D01*
X86388372Y-64460226D01*
X86470314Y-64569688D01*
X86572719Y-64646347D01*
X86614591Y-64702280D01*
X86619575Y-64771972D01*
X86586090Y-64833295D01*
X86572720Y-64844881D01*
X86485313Y-64910313D01*
X86403373Y-65019771D01*
X86355587Y-65147889D01*
X86349500Y-65204498D01*
X86349500Y-65795481D01*
X86349501Y-65795490D01*
X86355587Y-65852114D01*
X86403373Y-65980228D01*
X86442137Y-66032011D01*
X86466554Y-66097475D01*
X86451702Y-66165748D01*
X86404874Y-66213706D01*
X86394791Y-66219527D01*
X86394790Y-66219528D01*
X86208265Y-66406052D01*
X86146941Y-66439536D01*
X86077251Y-66434552D01*
X86067486Y-66430910D01*
X86067485Y-66430909D01*
X86067483Y-66430909D01*
X86007873Y-66424500D01*
X86007863Y-66424500D01*
X85412129Y-66424500D01*
X85412123Y-66424501D01*
X85352516Y-66430908D01*
X85217671Y-66481202D01*
X85217664Y-66481206D01*
X85102455Y-66567452D01*
X85102452Y-66567455D01*
X85016206Y-66682664D01*
X85016202Y-66682671D01*
X84965908Y-66817517D01*
X84959501Y-66877116D01*
X84959500Y-66877135D01*
X84959500Y-67922870D01*
X84959501Y-67922876D01*
X84965908Y-67982483D01*
X85016202Y-68117328D01*
X85016206Y-68117335D01*
X85102452Y-68232544D01*
X85102455Y-68232547D01*
X85217664Y-68318793D01*
X85217671Y-68318797D01*
X85283606Y-68343389D01*
X85339539Y-68385260D01*
X85363957Y-68450724D01*
X85349106Y-68518997D01*
X85299701Y-68568403D01*
X85283609Y-68575752D01*
X85249772Y-68588372D01*
X85140313Y-68670313D01*
X85058373Y-68779771D01*
X85058372Y-68779774D01*
X85015672Y-68894257D01*
X85010587Y-68907889D01*
X85004500Y-68964498D01*
X85004500Y-69555481D01*
X85004501Y-69555490D01*
X85010587Y-69612114D01*
X85040496Y-69692299D01*
X85058372Y-69740226D01*
X85140313Y-69849687D01*
X85249774Y-69931628D01*
X85377886Y-69979412D01*
X85434515Y-69985500D01*
X85975484Y-69985499D01*
X86032114Y-69979412D01*
X86160226Y-69931628D01*
X86269687Y-69849687D01*
X86351628Y-69740226D01*
X86399412Y-69612114D01*
X86403131Y-69577525D01*
X86405499Y-69555501D01*
X86405499Y-69555490D01*
X86405500Y-69555485D01*
X86405499Y-69106542D01*
X86425183Y-69039504D01*
X86441813Y-69018867D01*
X87562821Y-67897859D01*
X87624142Y-67864376D01*
X87693834Y-67869360D01*
X87749767Y-67911232D01*
X87774184Y-67976696D01*
X87774500Y-67985541D01*
X87774500Y-68113131D01*
X87774501Y-68113138D01*
X87780741Y-68160545D01*
X87798018Y-68197596D01*
X87808509Y-68266673D01*
X87798018Y-68302402D01*
X87780742Y-68339451D01*
X87780740Y-68339458D01*
X87774500Y-68386859D01*
X87774500Y-68613132D01*
X87775077Y-68617515D01*
X87780741Y-68660545D01*
X87780742Y-68660547D01*
X87780742Y-68660548D01*
X87821703Y-68748388D01*
X87829253Y-68764579D01*
X87910421Y-68845747D01*
X88014455Y-68894259D01*
X88061861Y-68900500D01*
X89575500Y-68900499D01*
X89642539Y-68920184D01*
X89688294Y-68972987D01*
X89699500Y-69024499D01*
X89699500Y-71103555D01*
X89720111Y-71180478D01*
X89723385Y-71192695D01*
X89723387Y-71192701D01*
X89769527Y-71272618D01*
X89769529Y-71272621D01*
X89769530Y-71272622D01*
X90052378Y-71555470D01*
X90132302Y-71601614D01*
X90221446Y-71625500D01*
X90221447Y-71625500D01*
X90313734Y-71625500D01*
X90650500Y-71625500D01*
X90717539Y-71645185D01*
X90763294Y-71697989D01*
X90774500Y-71749500D01*
X90774500Y-72220481D01*
X90774501Y-72220490D01*
X90780587Y-72277114D01*
X90802317Y-72335372D01*
X90828372Y-72405226D01*
X90910313Y-72514687D01*
X91019774Y-72596628D01*
X91147886Y-72644412D01*
X91204515Y-72650500D01*
X91795484Y-72650499D01*
X91852114Y-72644412D01*
X91980226Y-72596628D01*
X92089687Y-72514687D01*
X92171628Y-72405226D01*
X92219412Y-72277114D01*
X92221687Y-72255944D01*
X92225499Y-72220501D01*
X92225499Y-72220490D01*
X92225500Y-72220485D01*
X92225499Y-71679516D01*
X92219412Y-71622886D01*
X92211477Y-71601613D01*
X92198611Y-71567117D01*
X92171628Y-71494774D01*
X92171624Y-71494768D01*
X92107348Y-71408905D01*
X92099776Y-71388606D01*
X92087919Y-71370473D01*
X92087808Y-71356517D01*
X92082931Y-71343441D01*
X92087536Y-71322271D01*
X92087364Y-71300606D01*
X92094816Y-71288805D01*
X92097783Y-71275168D01*
X92113103Y-71259847D01*
X92124671Y-71241530D01*
X92144176Y-71228774D01*
X92147188Y-71225763D01*
X92154210Y-71222213D01*
X92160547Y-71219258D01*
X92197595Y-71201981D01*
X92266672Y-71191490D01*
X92302404Y-71201981D01*
X92339455Y-71219259D01*
X92386861Y-71225500D01*
X92613138Y-71225499D01*
X92660545Y-71219259D01*
X92697595Y-71201981D01*
X92766672Y-71191490D01*
X92802404Y-71201981D01*
X92839455Y-71219259D01*
X92886861Y-71225500D01*
X93113138Y-71225499D01*
X93160545Y-71219259D01*
X93197595Y-71201981D01*
X93266672Y-71191490D01*
X93302404Y-71201981D01*
X93339455Y-71219259D01*
X93386861Y-71225500D01*
X93613138Y-71225499D01*
X93660545Y-71219259D01*
X93697595Y-71201981D01*
X93766672Y-71191490D01*
X93802404Y-71201981D01*
X93839455Y-71219259D01*
X93886861Y-71225500D01*
X94113138Y-71225499D01*
X94160545Y-71219259D01*
X94197595Y-71201981D01*
X94266672Y-71191490D01*
X94302404Y-71201981D01*
X94339455Y-71219259D01*
X94386861Y-71225500D01*
X94613138Y-71225499D01*
X94660545Y-71219259D01*
X94697595Y-71201981D01*
X94766672Y-71191490D01*
X94802404Y-71201981D01*
X94839455Y-71219259D01*
X94886861Y-71225500D01*
X95113138Y-71225499D01*
X95160545Y-71219259D01*
X95197595Y-71201981D01*
X95229140Y-71197190D01*
X95260403Y-71190801D01*
X95264328Y-71191845D01*
X95266672Y-71191490D01*
X95294793Y-71198737D01*
X95298650Y-71200231D01*
X95339455Y-71219259D01*
X95352046Y-71220916D01*
X95365912Y-71226288D01*
X95382300Y-71238881D01*
X95401199Y-71247241D01*
X95409441Y-71259737D01*
X95421314Y-71268860D01*
X95428292Y-71288315D01*
X95439671Y-71305565D01*
X95439849Y-71320533D01*
X95444905Y-71334627D01*
X95440257Y-71354765D01*
X95440504Y-71375429D01*
X95432560Y-71388119D01*
X95429194Y-71402708D01*
X95414397Y-71417136D01*
X95403433Y-71434653D01*
X95394753Y-71441685D01*
X95372850Y-71457850D01*
X95292207Y-71567117D01*
X95292207Y-71567118D01*
X95247353Y-71695298D01*
X95247353Y-71695300D01*
X95244500Y-71725730D01*
X95244500Y-72234269D01*
X95247353Y-72264699D01*
X95247353Y-72264701D01*
X95292206Y-72392880D01*
X95292207Y-72392882D01*
X95372850Y-72502150D01*
X95482118Y-72582793D01*
X95521656Y-72596628D01*
X95610299Y-72627646D01*
X95640730Y-72630500D01*
X95640734Y-72630500D01*
X96299270Y-72630500D01*
X96329699Y-72627646D01*
X96329701Y-72627646D01*
X96393790Y-72605219D01*
X96457882Y-72582793D01*
X96567150Y-72502150D01*
X96647793Y-72392882D01*
X96675645Y-72313286D01*
X96692646Y-72264701D01*
X96692646Y-72264699D01*
X96695500Y-72234269D01*
X96695500Y-71725730D01*
X96692646Y-71695300D01*
X96692646Y-71695298D01*
X96647793Y-71567118D01*
X96647792Y-71567117D01*
X96634250Y-71548768D01*
X96567150Y-71457850D01*
X96554326Y-71448385D01*
X96512077Y-71392741D01*
X96506618Y-71323085D01*
X96539685Y-71261535D01*
X96594452Y-71229230D01*
X96607744Y-71225499D01*
X96613138Y-71225499D01*
X96660545Y-71219259D01*
X96706760Y-71197708D01*
X96716491Y-71194977D01*
X96741725Y-71195278D01*
X96766672Y-71191490D01*
X96781184Y-71195751D01*
X96786356Y-71195813D01*
X96790334Y-71198437D01*
X96802404Y-71201981D01*
X96839455Y-71219259D01*
X96886861Y-71225500D01*
X97113138Y-71225499D01*
X97160545Y-71219259D01*
X97197595Y-71201981D01*
X97266672Y-71191490D01*
X97302404Y-71201981D01*
X97339455Y-71219259D01*
X97386861Y-71225500D01*
X97613138Y-71225499D01*
X97660545Y-71219259D01*
X97697595Y-71201981D01*
X97766672Y-71191490D01*
X97802404Y-71201981D01*
X97839455Y-71219259D01*
X97886861Y-71225500D01*
X98113138Y-71225499D01*
X98160545Y-71219259D01*
X98197595Y-71201981D01*
X98266672Y-71191490D01*
X98302404Y-71201981D01*
X98339455Y-71219259D01*
X98386861Y-71225500D01*
X98613138Y-71225499D01*
X98660545Y-71219259D01*
X98697595Y-71201981D01*
X98766672Y-71191490D01*
X98802404Y-71201981D01*
X98839455Y-71219259D01*
X98886861Y-71225500D01*
X99113138Y-71225499D01*
X99160545Y-71219259D01*
X99197595Y-71201981D01*
X99266672Y-71191490D01*
X99302404Y-71201981D01*
X99339455Y-71219259D01*
X99386861Y-71225500D01*
X99613138Y-71225499D01*
X99660545Y-71219259D01*
X99697595Y-71201981D01*
X99766672Y-71191490D01*
X99802404Y-71201981D01*
X99839455Y-71219259D01*
X99886861Y-71225500D01*
X100113138Y-71225499D01*
X100113139Y-71225499D01*
X100134995Y-71222622D01*
X100149072Y-71220769D01*
X100181336Y-71225801D01*
X100213787Y-71229600D01*
X100216218Y-71231241D01*
X100218107Y-71231536D01*
X100243969Y-71247895D01*
X100248647Y-71251738D01*
X100284788Y-71287879D01*
X100311202Y-71303129D01*
X100319082Y-71309603D01*
X100333229Y-71330396D01*
X100350584Y-71348597D01*
X100352547Y-71358787D01*
X100358387Y-71367369D01*
X100359047Y-71392511D01*
X100363806Y-71417204D01*
X100359957Y-71427160D01*
X100360221Y-71437214D01*
X100348762Y-71456118D01*
X100339637Y-71479723D01*
X100328375Y-71494768D01*
X100328373Y-71494771D01*
X100328372Y-71494774D01*
X100301389Y-71567117D01*
X100280587Y-71622889D01*
X100274500Y-71679498D01*
X100274500Y-71679515D01*
X100274501Y-72223804D01*
X100273245Y-72223804D01*
X100258349Y-72286854D01*
X100208073Y-72335372D01*
X100150592Y-72349500D01*
X99326952Y-72349500D01*
X99237808Y-72373386D01*
X99237807Y-72373386D01*
X99237805Y-72373387D01*
X99237802Y-72373388D01*
X99157890Y-72419526D01*
X99157881Y-72419533D01*
X99092629Y-72484785D01*
X99092622Y-72484794D01*
X99046484Y-72564706D01*
X99046483Y-72564709D01*
X99046482Y-72564711D01*
X99046482Y-72564712D01*
X99022596Y-72653856D01*
X99022596Y-72746144D01*
X99044931Y-72829500D01*
X99046483Y-72835290D01*
X99046484Y-72835293D01*
X99092622Y-72915205D01*
X99092625Y-72915209D01*
X99092627Y-72915212D01*
X99157884Y-72980469D01*
X99157887Y-72980470D01*
X99157890Y-72980473D01*
X99237802Y-73026611D01*
X99237803Y-73026611D01*
X99237808Y-73026614D01*
X99326952Y-73050500D01*
X99326954Y-73050500D01*
X103019838Y-73050500D01*
X103019840Y-73050500D01*
X103108984Y-73026614D01*
X103111064Y-73025413D01*
X103188908Y-72980470D01*
X104510470Y-71658908D01*
X104556614Y-71578984D01*
X104556617Y-71578973D01*
X104559792Y-71567125D01*
X104559793Y-71567118D01*
X104564710Y-71548768D01*
X104580500Y-71489840D01*
X104580500Y-70526446D01*
X104556614Y-70437302D01*
X104546331Y-70419491D01*
X104510470Y-70357378D01*
X103257574Y-69104482D01*
X103224089Y-69043159D01*
X103229073Y-68973467D01*
X103270945Y-68917534D01*
X103336409Y-68893117D01*
X103361440Y-68893862D01*
X103364454Y-68894258D01*
X103364455Y-68894259D01*
X103411861Y-68900500D01*
X103700501Y-68900499D01*
X103767539Y-68920183D01*
X103813294Y-68972987D01*
X103824500Y-69024499D01*
X103824500Y-69211144D01*
X103837704Y-69260422D01*
X103837704Y-69260423D01*
X103848384Y-69300285D01*
X103848385Y-69300286D01*
X103894527Y-69380208D01*
X103894531Y-69380213D01*
X105815681Y-71301363D01*
X105849166Y-71362686D01*
X105852000Y-71389044D01*
X105852000Y-72100007D01*
X105867317Y-72196713D01*
X105867317Y-72196714D01*
X105881120Y-72223804D01*
X105926711Y-72313281D01*
X105926713Y-72313283D01*
X105926715Y-72313286D01*
X106019213Y-72405784D01*
X106019215Y-72405785D01*
X106019219Y-72405789D01*
X106135785Y-72465182D01*
X106145064Y-72468197D01*
X106144433Y-72470136D01*
X106196211Y-72494679D01*
X106201365Y-72499546D01*
X111552289Y-77850470D01*
X111632213Y-77896614D01*
X111721357Y-77920500D01*
X111813645Y-77920500D01*
X112187481Y-77920500D01*
X112254520Y-77940185D01*
X112297966Y-77988205D01*
X112378768Y-78146788D01*
X112480586Y-78286928D01*
X112603072Y-78409414D01*
X112743212Y-78511232D01*
X112897555Y-78589873D01*
X113062299Y-78643402D01*
X113233389Y-78670500D01*
X113233390Y-78670500D01*
X113406610Y-78670500D01*
X113406611Y-78670500D01*
X113577701Y-78643402D01*
X113742445Y-78589873D01*
X113896788Y-78511232D01*
X114036928Y-78409414D01*
X114159414Y-78286928D01*
X114261232Y-78146788D01*
X114339873Y-77992445D01*
X114393402Y-77827701D01*
X114420500Y-77656611D01*
X114420500Y-77483389D01*
X114393402Y-77312299D01*
X114339873Y-77147555D01*
X114261232Y-76993212D01*
X114159414Y-76853072D01*
X114036928Y-76730586D01*
X113896788Y-76628768D01*
X113742445Y-76550127D01*
X113577701Y-76496598D01*
X113577699Y-76496597D01*
X113577698Y-76496597D01*
X113446271Y-76475781D01*
X113406611Y-76469500D01*
X113233389Y-76469500D01*
X113193728Y-76475781D01*
X113062302Y-76496597D01*
X112897552Y-76550128D01*
X112743211Y-76628768D01*
X112663256Y-76686859D01*
X112603072Y-76730586D01*
X112603070Y-76730588D01*
X112603069Y-76730588D01*
X112480588Y-76853069D01*
X112480588Y-76853070D01*
X112480586Y-76853072D01*
X112436859Y-76913256D01*
X112378768Y-76993211D01*
X112297966Y-77151795D01*
X112287516Y-77162859D01*
X112281194Y-77176703D01*
X112264013Y-77187744D01*
X112249991Y-77202591D01*
X112234311Y-77206832D01*
X112222416Y-77214477D01*
X112187481Y-77219500D01*
X111964045Y-77219500D01*
X111897006Y-77199815D01*
X111876364Y-77183181D01*
X107762674Y-73069491D01*
X107729189Y-73008168D01*
X107734173Y-72938476D01*
X107776045Y-72882543D01*
X107841509Y-72858126D01*
X107882442Y-72862034D01*
X107951357Y-72880500D01*
X108458732Y-72880500D01*
X108525771Y-72900185D01*
X108571526Y-72952989D01*
X108581470Y-73022147D01*
X108578509Y-73036580D01*
X108559500Y-73107525D01*
X108559500Y-73252475D01*
X108580116Y-73329414D01*
X108597017Y-73392488D01*
X108669488Y-73518011D01*
X108669490Y-73518013D01*
X108669491Y-73518015D01*
X108771985Y-73620509D01*
X108771986Y-73620510D01*
X108771988Y-73620511D01*
X108897511Y-73692982D01*
X108897512Y-73692982D01*
X108897515Y-73692984D01*
X109037525Y-73730500D01*
X109037528Y-73730500D01*
X109182472Y-73730500D01*
X109182475Y-73730500D01*
X109322485Y-73692984D01*
X109448015Y-73620509D01*
X109501705Y-73566819D01*
X109563028Y-73533334D01*
X109589386Y-73530500D01*
X111273456Y-73530500D01*
X111340495Y-73550185D01*
X111361137Y-73566819D01*
X112271347Y-74477029D01*
X112304832Y-74538352D01*
X112301597Y-74603028D01*
X112246597Y-74772301D01*
X112219500Y-74943389D01*
X112219500Y-75116611D01*
X112246598Y-75287701D01*
X112300127Y-75452445D01*
X112378768Y-75606788D01*
X112480586Y-75746928D01*
X112603072Y-75869414D01*
X112743212Y-75971232D01*
X112897555Y-76049873D01*
X113062299Y-76103402D01*
X113233389Y-76130500D01*
X113233390Y-76130500D01*
X113406610Y-76130500D01*
X113406611Y-76130500D01*
X113577701Y-76103402D01*
X113742445Y-76049873D01*
X113896788Y-75971232D01*
X114036928Y-75869414D01*
X114159414Y-75746928D01*
X114261232Y-75606788D01*
X114339873Y-75452445D01*
X114393402Y-75287701D01*
X114420500Y-75116611D01*
X114420500Y-74943389D01*
X114393402Y-74772299D01*
X114339873Y-74607555D01*
X114261232Y-74453212D01*
X114159414Y-74313072D01*
X114036928Y-74190586D01*
X113896788Y-74088768D01*
X113742445Y-74010127D01*
X113577701Y-73956598D01*
X113577699Y-73956597D01*
X113577698Y-73956597D01*
X113446271Y-73935781D01*
X113406611Y-73929500D01*
X113233389Y-73929500D01*
X113201192Y-73934599D01*
X113062301Y-73956597D01*
X112893028Y-74011597D01*
X112823186Y-74013592D01*
X112767029Y-73981347D01*
X111921898Y-73136216D01*
X111888413Y-73074893D01*
X111893397Y-73005201D01*
X111929021Y-72954267D01*
X111937693Y-72946855D01*
X111967280Y-72929774D01*
X112023672Y-72873381D01*
X112027358Y-72870232D01*
X112054987Y-72857842D01*
X112081558Y-72843334D01*
X112089167Y-72842515D01*
X112091112Y-72841644D01*
X112093677Y-72842030D01*
X112107916Y-72840500D01*
X112187481Y-72840500D01*
X112254520Y-72860185D01*
X112297966Y-72908205D01*
X112370468Y-73050499D01*
X112378768Y-73066788D01*
X112480586Y-73206928D01*
X112603072Y-73329414D01*
X112743212Y-73431232D01*
X112897555Y-73509873D01*
X113062299Y-73563402D01*
X113233389Y-73590500D01*
X113233390Y-73590500D01*
X113406610Y-73590500D01*
X113406611Y-73590500D01*
X113577701Y-73563402D01*
X113742445Y-73509873D01*
X113896788Y-73431232D01*
X114036928Y-73329414D01*
X114159414Y-73206928D01*
X114261232Y-73066788D01*
X114339873Y-72912445D01*
X114393402Y-72747701D01*
X114420500Y-72576611D01*
X114420500Y-72403389D01*
X114393402Y-72232299D01*
X114339873Y-72067555D01*
X114261232Y-71913212D01*
X114159414Y-71773072D01*
X114036928Y-71650586D01*
X113896788Y-71548768D01*
X113742445Y-71470127D01*
X113577701Y-71416598D01*
X113577699Y-71416597D01*
X113577698Y-71416597D01*
X113446271Y-71395781D01*
X113406611Y-71389500D01*
X113233389Y-71389500D01*
X113193728Y-71395781D01*
X113062302Y-71416597D01*
X112897552Y-71470128D01*
X112743211Y-71548768D01*
X112701623Y-71578984D01*
X112603072Y-71650586D01*
X112603070Y-71650588D01*
X112603069Y-71650588D01*
X112480588Y-71773069D01*
X112480588Y-71773070D01*
X112480586Y-71773072D01*
X112436859Y-71833256D01*
X112378768Y-71913211D01*
X112297966Y-72071795D01*
X112287516Y-72082859D01*
X112281194Y-72096703D01*
X112264013Y-72107744D01*
X112249991Y-72122591D01*
X112234311Y-72126832D01*
X112222416Y-72134477D01*
X112187481Y-72139500D01*
X112109386Y-72139500D01*
X112042347Y-72119815D01*
X112021705Y-72103181D01*
X111967282Y-72048758D01*
X111967280Y-72048756D01*
X111948507Y-72037917D01*
X111900294Y-71987352D01*
X111887072Y-71918744D01*
X111913040Y-71853880D01*
X111922821Y-71842859D01*
X112767031Y-70998649D01*
X112828352Y-70965166D01*
X112893029Y-70968401D01*
X112897547Y-70969869D01*
X112897555Y-70969873D01*
X113062299Y-71023402D01*
X113233389Y-71050500D01*
X113233390Y-71050500D01*
X113406610Y-71050500D01*
X113406611Y-71050500D01*
X113577701Y-71023402D01*
X113742445Y-70969873D01*
X113896788Y-70891232D01*
X114036928Y-70789414D01*
X114159414Y-70666928D01*
X114261232Y-70526788D01*
X114339873Y-70372445D01*
X114393402Y-70207701D01*
X114420500Y-70036611D01*
X114420500Y-69863389D01*
X114393402Y-69692299D01*
X114339873Y-69527555D01*
X114261232Y-69373212D01*
X114159414Y-69233072D01*
X114036928Y-69110586D01*
X113896788Y-69008768D01*
X113742445Y-68930127D01*
X113577701Y-68876598D01*
X113577699Y-68876597D01*
X113577698Y-68876597D01*
X113446271Y-68855781D01*
X113406611Y-68849500D01*
X113233389Y-68849500D01*
X113193728Y-68855781D01*
X113062302Y-68876597D01*
X112897552Y-68930128D01*
X112743211Y-69008768D01*
X112683693Y-69052011D01*
X112603072Y-69110586D01*
X112603070Y-69110588D01*
X112603069Y-69110588D01*
X112480588Y-69233069D01*
X112480588Y-69233070D01*
X112480586Y-69233072D01*
X112446625Y-69279815D01*
X112378768Y-69373211D01*
X112300128Y-69527552D01*
X112246597Y-69692302D01*
X112221670Y-69849686D01*
X112219500Y-69863389D01*
X112219500Y-70036611D01*
X112222432Y-70055122D01*
X112246597Y-70207698D01*
X112301597Y-70376970D01*
X112303592Y-70446811D01*
X112271347Y-70502969D01*
X110631137Y-72143181D01*
X110569814Y-72176666D01*
X110543456Y-72179500D01*
X109667000Y-72179500D01*
X109599961Y-72159815D01*
X109554206Y-72107011D01*
X109543000Y-72055500D01*
X109542999Y-70734992D01*
X109527683Y-70638293D01*
X109527682Y-70638285D01*
X109527677Y-70638276D01*
X109527184Y-70636755D01*
X109527127Y-70634779D01*
X109526156Y-70628646D01*
X109526948Y-70628520D01*
X109525185Y-70566914D01*
X109557430Y-70510751D01*
X112157711Y-67910470D01*
X112219032Y-67876987D01*
X112288724Y-67881971D01*
X112344657Y-67923843D01*
X112355875Y-67941858D01*
X112378133Y-67985541D01*
X112378768Y-67986788D01*
X112480586Y-68126928D01*
X112603072Y-68249414D01*
X112743212Y-68351232D01*
X112897555Y-68429873D01*
X113062299Y-68483402D01*
X113233389Y-68510500D01*
X113233390Y-68510500D01*
X113406610Y-68510500D01*
X113406611Y-68510500D01*
X113577701Y-68483402D01*
X113742445Y-68429873D01*
X113896788Y-68351232D01*
X114036928Y-68249414D01*
X114159414Y-68126928D01*
X114261232Y-67986788D01*
X114339873Y-67832445D01*
X114393402Y-67667701D01*
X114420500Y-67496611D01*
X114420500Y-67323389D01*
X114393402Y-67152299D01*
X114339873Y-66987555D01*
X114339869Y-66987547D01*
X114338401Y-66983029D01*
X114336406Y-66913188D01*
X114368649Y-66857031D01*
X115538863Y-65686819D01*
X115600186Y-65653334D01*
X115626544Y-65650500D01*
X117720500Y-65650500D01*
X117787539Y-65670185D01*
X117833294Y-65722989D01*
X117844500Y-65774500D01*
X117844500Y-66189678D01*
X117859032Y-66262735D01*
X117859033Y-66262739D01*
X117859034Y-66262740D01*
X117914399Y-66345601D01*
X117976147Y-66386859D01*
X117997260Y-66400966D01*
X117997264Y-66400967D01*
X118070321Y-66415499D01*
X118070324Y-66415500D01*
X118070326Y-66415500D01*
X120149676Y-66415500D01*
X120149677Y-66415499D01*
X120222740Y-66400966D01*
X120305601Y-66345601D01*
X120360966Y-66262740D01*
X120375500Y-66189674D01*
X120375500Y-64410326D01*
X120375500Y-64410323D01*
X120375499Y-64410321D01*
X120360967Y-64337264D01*
X120360966Y-64337260D01*
X120321054Y-64277527D01*
X120305601Y-64254399D01*
X120222740Y-64199034D01*
X120222739Y-64199033D01*
X120222735Y-64199032D01*
X120149677Y-64184500D01*
X120149674Y-64184500D01*
X118070326Y-64184500D01*
X118070323Y-64184500D01*
X117997264Y-64199032D01*
X117997260Y-64199033D01*
X117914399Y-64254399D01*
X117859033Y-64337260D01*
X117859032Y-64337264D01*
X117844500Y-64410321D01*
X117844500Y-64825500D01*
X117824815Y-64892539D01*
X117772011Y-64938294D01*
X117720500Y-64949500D01*
X115383856Y-64949500D01*
X115294712Y-64973386D01*
X115294709Y-64973387D01*
X115214791Y-65019527D01*
X115214786Y-65019531D01*
X113872969Y-66361347D01*
X113811646Y-66394832D01*
X113746970Y-66391597D01*
X113577698Y-66336597D01*
X113446271Y-66315781D01*
X113406611Y-66309500D01*
X113233389Y-66309500D01*
X113193728Y-66315781D01*
X113062302Y-66336597D01*
X112897552Y-66390128D01*
X112743211Y-66468768D01*
X112667189Y-66524002D01*
X112603072Y-66570586D01*
X112603070Y-66570588D01*
X112603069Y-66570588D01*
X112480588Y-66693069D01*
X112480588Y-66693070D01*
X112480586Y-66693072D01*
X112468724Y-66709399D01*
X112378768Y-66833211D01*
X112297966Y-66991795D01*
X112249991Y-67042591D01*
X112187481Y-67059500D01*
X112116357Y-67059500D01*
X112028173Y-67083128D01*
X112028172Y-67083129D01*
X112027213Y-67083386D01*
X111947290Y-67129529D01*
X111947287Y-67129531D01*
X109055180Y-70021637D01*
X108993857Y-70055122D01*
X108924165Y-70050138D01*
X108879818Y-70021637D01*
X108227712Y-69369531D01*
X108227707Y-69369527D01*
X108147789Y-69323387D01*
X108147788Y-69323386D01*
X108147787Y-69323386D01*
X108058643Y-69299500D01*
X108058642Y-69299500D01*
X106749371Y-69299500D01*
X106682332Y-69279815D01*
X106636577Y-69227011D01*
X106626633Y-69157853D01*
X106641984Y-69113500D01*
X106682982Y-69042488D01*
X106682981Y-69042488D01*
X106682984Y-69042485D01*
X106720500Y-68902475D01*
X106720500Y-68757525D01*
X106682984Y-68617515D01*
X106680453Y-68613132D01*
X106610511Y-68491988D01*
X106610506Y-68491982D01*
X106508017Y-68389493D01*
X106508015Y-68389491D01*
X106441747Y-68351231D01*
X106407481Y-68331447D01*
X106359266Y-68280879D01*
X106346044Y-68212272D01*
X106372012Y-68147407D01*
X106381793Y-68136386D01*
X107394106Y-67124073D01*
X107455427Y-67090590D01*
X107525119Y-67095574D01*
X107581052Y-67137446D01*
X107589171Y-67149754D01*
X107600006Y-67168521D01*
X107600008Y-67168523D01*
X107600009Y-67168525D01*
X107702503Y-67271019D01*
X107702504Y-67271020D01*
X107702506Y-67271021D01*
X107828029Y-67343492D01*
X107828030Y-67343492D01*
X107828033Y-67343494D01*
X107968043Y-67381010D01*
X107968046Y-67381010D01*
X108112990Y-67381010D01*
X108112993Y-67381010D01*
X108253003Y-67343494D01*
X108378533Y-67271019D01*
X108481027Y-67168525D01*
X108553502Y-67042995D01*
X108591018Y-66902985D01*
X108591018Y-66827053D01*
X108610703Y-66760014D01*
X108627332Y-66739377D01*
X110024891Y-65341817D01*
X110086214Y-65308333D01*
X110112572Y-65305499D01*
X110432507Y-65305499D01*
X110432507Y-65305498D01*
X110529215Y-65290182D01*
X110645781Y-65230789D01*
X110738289Y-65138281D01*
X110797682Y-65021715D01*
X110797990Y-65019774D01*
X110801790Y-64995776D01*
X110813000Y-64925003D01*
X110812999Y-63559998D01*
X110812999Y-63559996D01*
X110812999Y-63559992D01*
X110797682Y-63463286D01*
X110797682Y-63463285D01*
X110758745Y-63386867D01*
X110742912Y-63355793D01*
X110730017Y-63287126D01*
X110756293Y-63222385D01*
X110813400Y-63182128D01*
X110853398Y-63175500D01*
X117843766Y-63175500D01*
X117910805Y-63195185D01*
X117954250Y-63243204D01*
X118005939Y-63344649D01*
X118109145Y-63486699D01*
X118233301Y-63610855D01*
X118375351Y-63714061D01*
X118451326Y-63752772D01*
X118531796Y-63793774D01*
X118531799Y-63793775D01*
X118672399Y-63839458D01*
X118698787Y-63848032D01*
X118872208Y-63875500D01*
X118872209Y-63875500D01*
X119347791Y-63875500D01*
X119347792Y-63875500D01*
X119521213Y-63848032D01*
X119521216Y-63848031D01*
X119521217Y-63848031D01*
X119688200Y-63793775D01*
X119688203Y-63793774D01*
X119698534Y-63788510D01*
X119844649Y-63714061D01*
X119986699Y-63610855D01*
X120110855Y-63486699D01*
X120214061Y-63344649D01*
X120293774Y-63188203D01*
X120294046Y-63187365D01*
X120348031Y-63021217D01*
X120348031Y-63021216D01*
X120348032Y-63021213D01*
X120375500Y-62847792D01*
X120375500Y-62672208D01*
X120348032Y-62498787D01*
X120348031Y-62498783D01*
X120348031Y-62498782D01*
X120293775Y-62331799D01*
X120293774Y-62331796D01*
X120225395Y-62197595D01*
X120214061Y-62175351D01*
X120110855Y-62033301D01*
X119986699Y-61909145D01*
X119844649Y-61805939D01*
X119798055Y-61782198D01*
X119688203Y-61726225D01*
X119688200Y-61726224D01*
X119521215Y-61671968D01*
X119405599Y-61653656D01*
X119347792Y-61644500D01*
X118872208Y-61644500D01*
X118814401Y-61653656D01*
X118698785Y-61671968D01*
X118698782Y-61671968D01*
X118531799Y-61726224D01*
X118531796Y-61726225D01*
X118375344Y-61805942D01*
X118349592Y-61824652D01*
X118283786Y-61848131D01*
X118215732Y-61832304D01*
X118167038Y-61782198D01*
X118153164Y-61713719D01*
X118178515Y-61648611D01*
X118189018Y-61636662D01*
X118508341Y-61317339D01*
X118569662Y-61283856D01*
X118634337Y-61287090D01*
X118698787Y-61308032D01*
X118872208Y-61335500D01*
X118872209Y-61335500D01*
X119347791Y-61335500D01*
X119347792Y-61335500D01*
X119521213Y-61308032D01*
X119521216Y-61308031D01*
X119521217Y-61308031D01*
X119688200Y-61253775D01*
X119688203Y-61253774D01*
X119695610Y-61250000D01*
X119844649Y-61174061D01*
X119986699Y-61070855D01*
X120110855Y-60946699D01*
X120214061Y-60804649D01*
X120293774Y-60648203D01*
X120309701Y-60599185D01*
X120348031Y-60481217D01*
X120348031Y-60481216D01*
X120348032Y-60481213D01*
X120375500Y-60307792D01*
X120375500Y-60132208D01*
X120348032Y-59958787D01*
X120348031Y-59958783D01*
X120348031Y-59958782D01*
X120293775Y-59791799D01*
X120293774Y-59791796D01*
X120245775Y-59697593D01*
X120214061Y-59635351D01*
X120110855Y-59493301D01*
X119986699Y-59369145D01*
X119844649Y-59265939D01*
X119813367Y-59250000D01*
X119688203Y-59186225D01*
X119688200Y-59186224D01*
X119521215Y-59131968D01*
X119402335Y-59113139D01*
X119347792Y-59104500D01*
X118872208Y-59104500D01*
X118817665Y-59113139D01*
X118698785Y-59131968D01*
X118698782Y-59131968D01*
X118531799Y-59186224D01*
X118531796Y-59186225D01*
X118375350Y-59265939D01*
X118233299Y-59369146D01*
X118109146Y-59493299D01*
X118005939Y-59635350D01*
X117926226Y-59791796D01*
X117903866Y-59860611D01*
X117864427Y-59918286D01*
X117800068Y-59945484D01*
X117731222Y-59933569D01*
X117679747Y-59886324D01*
X117671373Y-59869742D01*
X117667434Y-59860233D01*
X117659394Y-59840821D01*
X117659392Y-59840818D01*
X117659390Y-59840814D01*
X117571789Y-59709711D01*
X117571786Y-59709707D01*
X117460292Y-59598213D01*
X117460288Y-59598210D01*
X117329185Y-59510609D01*
X117329172Y-59510602D01*
X117183501Y-59450264D01*
X117183489Y-59450261D01*
X117028845Y-59419500D01*
X117028842Y-59419500D01*
X116871158Y-59419500D01*
X116871155Y-59419500D01*
X116716510Y-59450261D01*
X116716498Y-59450264D01*
X116570827Y-59510602D01*
X116570814Y-59510609D01*
X116439711Y-59598210D01*
X116439707Y-59598213D01*
X116328213Y-59709707D01*
X116328210Y-59709711D01*
X116240609Y-59840814D01*
X116240602Y-59840827D01*
X116180264Y-59986498D01*
X116180261Y-59986510D01*
X116149500Y-60141153D01*
X116149500Y-60298846D01*
X116180261Y-60453489D01*
X116180264Y-60453501D01*
X116240602Y-60599172D01*
X116240609Y-60599185D01*
X116328210Y-60730288D01*
X116328213Y-60730292D01*
X116439707Y-60841786D01*
X116439711Y-60841789D01*
X116570814Y-60929390D01*
X116570827Y-60929397D01*
X116671731Y-60971192D01*
X116716503Y-60989737D01*
X116871153Y-61020499D01*
X116871156Y-61020500D01*
X116871158Y-61020500D01*
X117028844Y-61020500D01*
X117028845Y-61020499D01*
X117183497Y-60989737D01*
X117329179Y-60929394D01*
X117460289Y-60841789D01*
X117571789Y-60730289D01*
X117659394Y-60599179D01*
X117671374Y-60570254D01*
X117684797Y-60553597D01*
X117694137Y-60534345D01*
X117706284Y-60526932D01*
X117715212Y-60515853D01*
X117735513Y-60509095D01*
X117753779Y-60497949D01*
X117768003Y-60498280D01*
X117781505Y-60493786D01*
X117802238Y-60499077D01*
X117823629Y-60499575D01*
X117835416Y-60507544D01*
X117849205Y-60511063D01*
X117863786Y-60526723D01*
X117881512Y-60538707D01*
X117890970Y-60555919D01*
X117896817Y-60562199D01*
X117899898Y-60568835D01*
X117902125Y-60574030D01*
X117926226Y-60648203D01*
X117974910Y-60743752D01*
X117976526Y-60747519D01*
X117980222Y-60778298D01*
X117985944Y-60808765D01*
X117984352Y-60812686D01*
X117984857Y-60816890D01*
X117971325Y-60844782D01*
X117959668Y-60873506D01*
X117954676Y-60879102D01*
X117954361Y-60879753D01*
X117953779Y-60880107D01*
X117950244Y-60884072D01*
X116796137Y-62038181D01*
X116734814Y-62071666D01*
X116708456Y-62074500D01*
X113620428Y-62074500D01*
X113553389Y-62054815D01*
X113507634Y-62002011D01*
X113497690Y-61932853D01*
X113520111Y-61877614D01*
X113544058Y-61844653D01*
X113544057Y-61844653D01*
X113544061Y-61844649D01*
X113623774Y-61688203D01*
X113642745Y-61629815D01*
X113678031Y-61521217D01*
X113678031Y-61521216D01*
X113678032Y-61521213D01*
X113705500Y-61347792D01*
X113705500Y-61172208D01*
X113678032Y-60998787D01*
X113678031Y-60998783D01*
X113678031Y-60998782D01*
X113623775Y-60831799D01*
X113623774Y-60831796D01*
X113555395Y-60697595D01*
X113544061Y-60675351D01*
X113440855Y-60533301D01*
X113316699Y-60409145D01*
X113174649Y-60305939D01*
X113156532Y-60296708D01*
X113018203Y-60226225D01*
X113018200Y-60226224D01*
X112851215Y-60171968D01*
X112731457Y-60153000D01*
X112677792Y-60144500D01*
X112677791Y-60144500D01*
X112613984Y-60144500D01*
X112584543Y-60135855D01*
X112554557Y-60129332D01*
X112549541Y-60125577D01*
X112546945Y-60124815D01*
X112526303Y-60108181D01*
X112465303Y-60047181D01*
X112431818Y-59985858D01*
X112436802Y-59916166D01*
X112478674Y-59860233D01*
X112544138Y-59835816D01*
X112552984Y-59835500D01*
X112677791Y-59835500D01*
X112677792Y-59835500D01*
X112851213Y-59808032D01*
X112851216Y-59808031D01*
X112851217Y-59808031D01*
X113018200Y-59753775D01*
X113018203Y-59753774D01*
X113043595Y-59740836D01*
X113174649Y-59674061D01*
X113316699Y-59570855D01*
X113440855Y-59446699D01*
X113544061Y-59304649D01*
X113623774Y-59148203D01*
X113646133Y-59079389D01*
X113685570Y-59021714D01*
X113749928Y-58994515D01*
X113818775Y-59006429D01*
X113870251Y-59053673D01*
X113878625Y-59070255D01*
X113890602Y-59099173D01*
X113890609Y-59099185D01*
X113978210Y-59230288D01*
X113978213Y-59230292D01*
X114089707Y-59341786D01*
X114089711Y-59341789D01*
X114220814Y-59429390D01*
X114220827Y-59429397D01*
X114343541Y-59480226D01*
X114366503Y-59489737D01*
X114518403Y-59519952D01*
X114521153Y-59520499D01*
X114521156Y-59520500D01*
X114521158Y-59520500D01*
X114678844Y-59520500D01*
X114678845Y-59520499D01*
X114833497Y-59489737D01*
X114968774Y-59433704D01*
X114979172Y-59429397D01*
X114979172Y-59429396D01*
X114979179Y-59429394D01*
X115110289Y-59341789D01*
X115221789Y-59230289D01*
X115309394Y-59099179D01*
X115369737Y-58953497D01*
X115400500Y-58798842D01*
X115400500Y-58641158D01*
X115400500Y-58641155D01*
X115400499Y-58641153D01*
X115394926Y-58613138D01*
X115369737Y-58486503D01*
X115354866Y-58450600D01*
X115309397Y-58340827D01*
X115309390Y-58340814D01*
X115221789Y-58209711D01*
X115221786Y-58209707D01*
X115110292Y-58098213D01*
X115110288Y-58098210D01*
X114979185Y-58010609D01*
X114979172Y-58010602D01*
X114833501Y-57950264D01*
X114833489Y-57950261D01*
X114678845Y-57919500D01*
X114678842Y-57919500D01*
X114521158Y-57919500D01*
X114521155Y-57919500D01*
X114366510Y-57950261D01*
X114366498Y-57950264D01*
X114220827Y-58010602D01*
X114220814Y-58010609D01*
X114089711Y-58098210D01*
X114089707Y-58098213D01*
X113978213Y-58209707D01*
X113978210Y-58209711D01*
X113890609Y-58340814D01*
X113890604Y-58340824D01*
X113878625Y-58369745D01*
X113834784Y-58424148D01*
X113768490Y-58446213D01*
X113700790Y-58428934D01*
X113653180Y-58377796D01*
X113646133Y-58360610D01*
X113623775Y-58291799D01*
X113623774Y-58291796D01*
X113544060Y-58135350D01*
X113440855Y-57993301D01*
X113316699Y-57869145D01*
X113174649Y-57765939D01*
X113143367Y-57750000D01*
X113018203Y-57686225D01*
X113018200Y-57686224D01*
X112851215Y-57631968D01*
X112732284Y-57613131D01*
X112677792Y-57604500D01*
X112202208Y-57604500D01*
X112147716Y-57613131D01*
X112028785Y-57631968D01*
X112028782Y-57631968D01*
X111861799Y-57686224D01*
X111861796Y-57686225D01*
X111705350Y-57765939D01*
X111563299Y-57869146D01*
X111439146Y-57993299D01*
X111335939Y-58135350D01*
X111256227Y-58291792D01*
X111247793Y-58317752D01*
X111244342Y-58328374D01*
X111240948Y-58338819D01*
X111201510Y-58396494D01*
X111137151Y-58423692D01*
X111123017Y-58424500D01*
X107049409Y-58424500D01*
X106982370Y-58404815D01*
X106936615Y-58352011D01*
X106926528Y-58298806D01*
X106925500Y-58298806D01*
X106925499Y-57704518D01*
X106925498Y-57704509D01*
X106919412Y-57647885D01*
X106881401Y-57545976D01*
X106871628Y-57519774D01*
X106789687Y-57410313D01*
X106789685Y-57410312D01*
X106789685Y-57410311D01*
X106708139Y-57349267D01*
X106666267Y-57293334D01*
X106661283Y-57223642D01*
X106694768Y-57162319D01*
X106708139Y-57150733D01*
X106738057Y-57128335D01*
X106789687Y-57089687D01*
X106871628Y-56980226D01*
X106919412Y-56852114D01*
X106921687Y-56830944D01*
X106925499Y-56795501D01*
X106925499Y-56795494D01*
X106925500Y-56795485D01*
X106925499Y-56204516D01*
X106920096Y-56154253D01*
X106919412Y-56147885D01*
X106894728Y-56081706D01*
X106871628Y-56019774D01*
X106789687Y-55910313D01*
X106723911Y-55861074D01*
X106680228Y-55828373D01*
X106680226Y-55828372D01*
X106552114Y-55780588D01*
X106552112Y-55780587D01*
X106552110Y-55780587D01*
X106495493Y-55774500D01*
X105954518Y-55774500D01*
X105954509Y-55774501D01*
X105897885Y-55780587D01*
X105769773Y-55828372D01*
X105660313Y-55910313D01*
X105578371Y-56019774D01*
X105560073Y-56068834D01*
X105518202Y-56124768D01*
X105452737Y-56149184D01*
X105443892Y-56149500D01*
X105320543Y-56149500D01*
X105253504Y-56129815D01*
X105207749Y-56077011D01*
X105197805Y-56007853D01*
X105226830Y-55944297D01*
X105232862Y-55937819D01*
X106175060Y-54995622D01*
X107143863Y-54026819D01*
X107205186Y-53993334D01*
X107231544Y-53990500D01*
X111050500Y-53990500D01*
X111117539Y-54010185D01*
X111163294Y-54062989D01*
X111174500Y-54114500D01*
X111174500Y-54529678D01*
X111189032Y-54602735D01*
X111189033Y-54602739D01*
X111189034Y-54602740D01*
X111244399Y-54685601D01*
X111310574Y-54729817D01*
X111327260Y-54740966D01*
X111327264Y-54740967D01*
X111400321Y-54755499D01*
X111400324Y-54755500D01*
X111400326Y-54755500D01*
X113479676Y-54755500D01*
X113479677Y-54755499D01*
X113552740Y-54740966D01*
X113635601Y-54685601D01*
X113690966Y-54602740D01*
X113705500Y-54529674D01*
X113705500Y-52750326D01*
X113705500Y-52750323D01*
X113705499Y-52750321D01*
X113690967Y-52677264D01*
X113690966Y-52677260D01*
X113635601Y-52594399D01*
X113580235Y-52557405D01*
X113552739Y-52539033D01*
X113552735Y-52539032D01*
X113479677Y-52524500D01*
X113479674Y-52524500D01*
X111400326Y-52524500D01*
X111400323Y-52524500D01*
X111327264Y-52539032D01*
X111327260Y-52539033D01*
X111244399Y-52594399D01*
X111189033Y-52677260D01*
X111189032Y-52677264D01*
X111174500Y-52750321D01*
X111174500Y-53165500D01*
X111154815Y-53232539D01*
X111102011Y-53278294D01*
X111050500Y-53289500D01*
X106988856Y-53289500D01*
X106899712Y-53313386D01*
X106899709Y-53313387D01*
X106819789Y-53359528D01*
X106814984Y-53363216D01*
X106749814Y-53388408D01*
X106681370Y-53374368D01*
X106631381Y-53325553D01*
X106615500Y-53264838D01*
X106615500Y-53110730D01*
X106612646Y-53080300D01*
X106612646Y-53080298D01*
X106567793Y-52952119D01*
X106567792Y-52952117D01*
X106554446Y-52934034D01*
X106487150Y-52842850D01*
X106377882Y-52762207D01*
X106377880Y-52762206D01*
X106249700Y-52717353D01*
X106219270Y-52714500D01*
X106219266Y-52714500D01*
X105786543Y-52714500D01*
X105719504Y-52694815D01*
X105698862Y-52678181D01*
X105046819Y-52026137D01*
X105013334Y-51964814D01*
X105010500Y-51938456D01*
X105010500Y-51558870D01*
X105010499Y-51558855D01*
X105007645Y-51532318D01*
X105004491Y-51502978D01*
X104957336Y-51376550D01*
X104876472Y-51268528D01*
X104768450Y-51187664D01*
X104768447Y-51187662D01*
X104642024Y-51140509D01*
X104586144Y-51134500D01*
X104586130Y-51134500D01*
X104058870Y-51134500D01*
X104058867Y-51134500D01*
X104037754Y-51136770D01*
X103968995Y-51124364D01*
X103917858Y-51076753D01*
X103900500Y-51013480D01*
X103900500Y-49057790D01*
X103920185Y-48990751D01*
X103972989Y-48944996D01*
X103981146Y-48941616D01*
X104042331Y-48918796D01*
X104157546Y-48832546D01*
X104243796Y-48717331D01*
X104294091Y-48582483D01*
X104300500Y-48522873D01*
X104300499Y-47477128D01*
X104294091Y-47417517D01*
X104276437Y-47370185D01*
X104243797Y-47282671D01*
X104243793Y-47282664D01*
X104157547Y-47167455D01*
X104157544Y-47167452D01*
X104042335Y-47081206D01*
X104042329Y-47081203D01*
X103931166Y-47039741D01*
X103913439Y-47026470D01*
X103893297Y-47017272D01*
X103886014Y-47005940D01*
X103875233Y-46997869D01*
X103867495Y-46977123D01*
X103855523Y-46958494D01*
X103852371Y-46936575D01*
X103850816Y-46932405D01*
X103850500Y-46923559D01*
X103850500Y-46796783D01*
X103870185Y-46729744D01*
X103922989Y-46683989D01*
X103931142Y-46680610D01*
X103955226Y-46671628D01*
X104064687Y-46589687D01*
X104146628Y-46480226D01*
X104194412Y-46352114D01*
X104196687Y-46330944D01*
X104200499Y-46295501D01*
X104200499Y-46295494D01*
X104200500Y-46295485D01*
X104200499Y-45704516D01*
X104196254Y-45665025D01*
X104194412Y-45647885D01*
X104176588Y-45600101D01*
X104146628Y-45519774D01*
X104064687Y-45410313D01*
X103998911Y-45361074D01*
X103955228Y-45328373D01*
X103955226Y-45328372D01*
X103827114Y-45280588D01*
X103827112Y-45280587D01*
X103827110Y-45280587D01*
X103770493Y-45274500D01*
X103229518Y-45274500D01*
X103229509Y-45274501D01*
X103172885Y-45280587D01*
X103044773Y-45328372D01*
X102935313Y-45410313D01*
X102853371Y-45519774D01*
X102835073Y-45568834D01*
X102793202Y-45624768D01*
X102727737Y-45649184D01*
X102718892Y-45649500D01*
X102022643Y-45649500D01*
X101955604Y-45629815D01*
X101909849Y-45577011D01*
X101899285Y-45538102D01*
X101895657Y-45502596D01*
X101889999Y-45447203D01*
X101834814Y-45280666D01*
X101742712Y-45131344D01*
X101618656Y-45007288D01*
X101469334Y-44915186D01*
X101302797Y-44860001D01*
X101302795Y-44860000D01*
X101200010Y-44849500D01*
X100099998Y-44849500D01*
X100099980Y-44849501D01*
X99997203Y-44860000D01*
X99997200Y-44860001D01*
X99830668Y-44915185D01*
X99830663Y-44915187D01*
X99681342Y-45007289D01*
X99557289Y-45131342D01*
X99465187Y-45280663D01*
X99465186Y-45280666D01*
X99410001Y-45447203D01*
X99410001Y-45447204D01*
X99410000Y-45447204D01*
X99399500Y-45549983D01*
X99399500Y-46525500D01*
X99379815Y-46592539D01*
X99327011Y-46638294D01*
X99275500Y-46649500D01*
X95722023Y-46649500D01*
X95654984Y-46629815D01*
X95609229Y-46577011D01*
X95598405Y-46535222D01*
X95597709Y-46526372D01*
X95563162Y-46407461D01*
X95553618Y-46374610D01*
X95473170Y-46238580D01*
X95473168Y-46238578D01*
X95473165Y-46238574D01*
X95361425Y-46126834D01*
X95361416Y-46126827D01*
X95225390Y-46046382D01*
X95225385Y-46046380D01*
X95073633Y-46002292D01*
X95073620Y-46002290D01*
X95038163Y-45999500D01*
X93661849Y-45999500D01*
X93661824Y-45999501D01*
X93626372Y-46002291D01*
X93474614Y-46046380D01*
X93474609Y-46046382D01*
X93338583Y-46126827D01*
X93338574Y-46126834D01*
X93226834Y-46238574D01*
X93226827Y-46238583D01*
X93146382Y-46374609D01*
X93146380Y-46374615D01*
X93143576Y-46384267D01*
X93105970Y-46443153D01*
X93042497Y-46472359D01*
X92973311Y-46462613D01*
X92920376Y-46417009D01*
X92900501Y-46350026D01*
X92900500Y-46349672D01*
X92900500Y-44741949D01*
X92920185Y-44674910D01*
X92936819Y-44654268D01*
X93554268Y-44036819D01*
X93615591Y-44003334D01*
X93641949Y-44000500D01*
X94828790Y-44000500D01*
X94828792Y-44000500D01*
X94917936Y-43976614D01*
X94997860Y-43930470D01*
X97730469Y-41197860D01*
X97776614Y-41117936D01*
X97778894Y-41109423D01*
X97778900Y-41109414D01*
X97778897Y-41109414D01*
X97800500Y-41028792D01*
X97800500Y-37741544D01*
X97820185Y-37674505D01*
X97836819Y-37653863D01*
X97841182Y-37649500D01*
X97850470Y-37640212D01*
X97896614Y-37560288D01*
X97905036Y-37528857D01*
X97905037Y-37528855D01*
X97910696Y-37507731D01*
X97920500Y-37471144D01*
X97920500Y-35223389D01*
X116089500Y-35223389D01*
X116089500Y-35396611D01*
X116116598Y-35567701D01*
X116170127Y-35732445D01*
X116248768Y-35886788D01*
X116350586Y-36026928D01*
X116473072Y-36149414D01*
X116613212Y-36251232D01*
X116767555Y-36329873D01*
X116932299Y-36383402D01*
X117103389Y-36410500D01*
X117103390Y-36410500D01*
X117276610Y-36410500D01*
X117276611Y-36410500D01*
X117447701Y-36383402D01*
X117612445Y-36329873D01*
X117766788Y-36251232D01*
X117900365Y-36154181D01*
X117920411Y-36147029D01*
X117938316Y-36135523D01*
X117962342Y-36132068D01*
X117966172Y-36130702D01*
X117973251Y-36130500D01*
X118114457Y-36130500D01*
X118181496Y-36150185D01*
X118227251Y-36202989D01*
X118237195Y-36272147D01*
X118208170Y-36335703D01*
X118202138Y-36342181D01*
X117742970Y-36801347D01*
X117681647Y-36834832D01*
X117616971Y-36831597D01*
X117447698Y-36776597D01*
X117311337Y-36755000D01*
X117276611Y-36749500D01*
X117103389Y-36749500D01*
X117068663Y-36755000D01*
X116932302Y-36776597D01*
X116932299Y-36776598D01*
X116808513Y-36816819D01*
X116767552Y-36830128D01*
X116613211Y-36908768D01*
X116594797Y-36922147D01*
X116473072Y-37010586D01*
X116473070Y-37010588D01*
X116473069Y-37010588D01*
X116350588Y-37133069D01*
X116350588Y-37133070D01*
X116350586Y-37133072D01*
X116319264Y-37176183D01*
X116248768Y-37273211D01*
X116170128Y-37427552D01*
X116116597Y-37592302D01*
X116096343Y-37720182D01*
X116089500Y-37763389D01*
X116089500Y-37936611D01*
X116116598Y-38107701D01*
X116170127Y-38272445D01*
X116248768Y-38426788D01*
X116350586Y-38566928D01*
X116473072Y-38689414D01*
X116613212Y-38791232D01*
X116767555Y-38869873D01*
X116932299Y-38923402D01*
X117103389Y-38950500D01*
X117103390Y-38950500D01*
X117276610Y-38950500D01*
X117276611Y-38950500D01*
X117447701Y-38923402D01*
X117612445Y-38869873D01*
X117766788Y-38791232D01*
X117906928Y-38689414D01*
X118029414Y-38566928D01*
X118131232Y-38426788D01*
X118209873Y-38272445D01*
X118263402Y-38107701D01*
X118290500Y-37936611D01*
X118290500Y-37763389D01*
X118263402Y-37592299D01*
X118209873Y-37427555D01*
X118209869Y-37427549D01*
X118208401Y-37423028D01*
X118206406Y-37353186D01*
X118238649Y-37297030D01*
X118718862Y-36816819D01*
X118780185Y-36783334D01*
X118806543Y-36780500D01*
X120004456Y-36780500D01*
X120071495Y-36800185D01*
X120117250Y-36852989D01*
X120127194Y-36922147D01*
X120098169Y-36985703D01*
X120092137Y-36992181D01*
X117742969Y-39341347D01*
X117681646Y-39374832D01*
X117616970Y-39371597D01*
X117447698Y-39316597D01*
X117316271Y-39295781D01*
X117276611Y-39289500D01*
X117103389Y-39289500D01*
X117063728Y-39295781D01*
X116932302Y-39316597D01*
X116767552Y-39370128D01*
X116613211Y-39448768D01*
X116570481Y-39479814D01*
X116473072Y-39550586D01*
X116473070Y-39550588D01*
X116473069Y-39550588D01*
X116350588Y-39673069D01*
X116350588Y-39673070D01*
X116350586Y-39673072D01*
X116318650Y-39717028D01*
X116248768Y-39813211D01*
X116170128Y-39967552D01*
X116116597Y-40132302D01*
X116108506Y-40183389D01*
X116089500Y-40303389D01*
X116089500Y-40476611D01*
X116116598Y-40647701D01*
X116170127Y-40812445D01*
X116248768Y-40966788D01*
X116350586Y-41106928D01*
X116473072Y-41229414D01*
X116613212Y-41331232D01*
X116767555Y-41409873D01*
X116932299Y-41463402D01*
X117103389Y-41490500D01*
X117103390Y-41490500D01*
X117276610Y-41490500D01*
X117276611Y-41490500D01*
X117447701Y-41463402D01*
X117612445Y-41409873D01*
X117766788Y-41331232D01*
X117906928Y-41229414D01*
X118029414Y-41106928D01*
X118131232Y-40966788D01*
X118209873Y-40812445D01*
X118263402Y-40647701D01*
X118290500Y-40476611D01*
X118290500Y-40303389D01*
X118263402Y-40132299D01*
X118209873Y-39967555D01*
X118209869Y-39967547D01*
X118208401Y-39963029D01*
X118206406Y-39893188D01*
X118238649Y-39837031D01*
X120608863Y-37466819D01*
X120670186Y-37433334D01*
X120696544Y-37430500D01*
X124350956Y-37430500D01*
X124417995Y-37450185D01*
X124438637Y-37466819D01*
X124441014Y-37469196D01*
X124441015Y-37469196D01*
X124441017Y-37469198D01*
X124546107Y-37520573D01*
X124580173Y-37525536D01*
X124614239Y-37530500D01*
X124614240Y-37530500D01*
X125594456Y-37530500D01*
X125661495Y-37550185D01*
X125707250Y-37602989D01*
X125717194Y-37672147D01*
X125688169Y-37735703D01*
X125682137Y-37742181D01*
X121542969Y-41881347D01*
X121481646Y-41914832D01*
X121416970Y-41911597D01*
X121247698Y-41856597D01*
X121111532Y-41835031D01*
X121076611Y-41829500D01*
X120903389Y-41829500D01*
X120868468Y-41835031D01*
X120732302Y-41856597D01*
X120567552Y-41910128D01*
X120413211Y-41988768D01*
X120333256Y-42046859D01*
X120273072Y-42090586D01*
X120273070Y-42090588D01*
X120273069Y-42090588D01*
X120150588Y-42213069D01*
X120150588Y-42213070D01*
X120150586Y-42213072D01*
X120118649Y-42257029D01*
X120048768Y-42353211D01*
X119970128Y-42507552D01*
X119916597Y-42672302D01*
X119916597Y-42672304D01*
X119889500Y-42843389D01*
X119889500Y-43016611D01*
X119916598Y-43187701D01*
X119970127Y-43352445D01*
X120048768Y-43506788D01*
X120150586Y-43646928D01*
X120273072Y-43769414D01*
X120413212Y-43871232D01*
X120567555Y-43949873D01*
X120732299Y-44003402D01*
X120903389Y-44030500D01*
X120903390Y-44030500D01*
X121076610Y-44030500D01*
X121076611Y-44030500D01*
X121247701Y-44003402D01*
X121412445Y-43949873D01*
X121566788Y-43871232D01*
X121706928Y-43769414D01*
X121829414Y-43646928D01*
X121931232Y-43506788D01*
X122009873Y-43352445D01*
X122063402Y-43187701D01*
X122090500Y-43016611D01*
X122090500Y-42843389D01*
X122063402Y-42672299D01*
X122009873Y-42507555D01*
X122009869Y-42507547D01*
X122008401Y-42503029D01*
X122006406Y-42433188D01*
X122038649Y-42377031D01*
X123056931Y-41358749D01*
X123118252Y-41325266D01*
X123187944Y-41330250D01*
X123243877Y-41372122D01*
X123268294Y-41437586D01*
X123253442Y-41505859D01*
X123251998Y-41508431D01*
X123203386Y-41592630D01*
X123203386Y-41592631D01*
X123179500Y-41681775D01*
X123179500Y-41797481D01*
X123159815Y-41864520D01*
X123111795Y-41907966D01*
X122953211Y-41988768D01*
X122873256Y-42046859D01*
X122813072Y-42090586D01*
X122813070Y-42090588D01*
X122813069Y-42090588D01*
X122690588Y-42213069D01*
X122690588Y-42213070D01*
X122690586Y-42213072D01*
X122658649Y-42257029D01*
X122588768Y-42353211D01*
X122510128Y-42507552D01*
X122456597Y-42672302D01*
X122456597Y-42672304D01*
X122429500Y-42843389D01*
X122429500Y-43016611D01*
X122456598Y-43187701D01*
X122510127Y-43352445D01*
X122588768Y-43506788D01*
X122690586Y-43646928D01*
X122813072Y-43769414D01*
X122953212Y-43871232D01*
X123107555Y-43949873D01*
X123272299Y-44003402D01*
X123443389Y-44030500D01*
X123443390Y-44030500D01*
X123616610Y-44030500D01*
X123616611Y-44030500D01*
X123787701Y-44003402D01*
X123952445Y-43949873D01*
X124106788Y-43871232D01*
X124246928Y-43769414D01*
X124369414Y-43646928D01*
X124471232Y-43506788D01*
X124549873Y-43352445D01*
X124603402Y-43187701D01*
X124630500Y-43016611D01*
X124630500Y-42843389D01*
X124603402Y-42672299D01*
X124549873Y-42507555D01*
X124471232Y-42353212D01*
X124369414Y-42213072D01*
X124246928Y-42090586D01*
X124106788Y-41988768D01*
X124032325Y-41950827D01*
X123981529Y-41902852D01*
X123964734Y-41835031D01*
X123987272Y-41768896D01*
X124000933Y-41752667D01*
X129586782Y-36166819D01*
X129613709Y-36152115D01*
X129639528Y-36135523D01*
X129645728Y-36134631D01*
X129648105Y-36133334D01*
X129674463Y-36130500D01*
X129776957Y-36130500D01*
X129843996Y-36150185D01*
X129889751Y-36202989D01*
X129899695Y-36272147D01*
X129870670Y-36335703D01*
X129864638Y-36342181D01*
X125789531Y-40417287D01*
X125789529Y-40417289D01*
X125762610Y-40463917D01*
X125762608Y-40463919D01*
X125743388Y-40497207D01*
X125743387Y-40497210D01*
X125719500Y-40586357D01*
X125719500Y-41797481D01*
X125699815Y-41864520D01*
X125651795Y-41907966D01*
X125493211Y-41988768D01*
X125413256Y-42046859D01*
X125353072Y-42090586D01*
X125353070Y-42090588D01*
X125353069Y-42090588D01*
X125230588Y-42213069D01*
X125230588Y-42213070D01*
X125230586Y-42213072D01*
X125198649Y-42257029D01*
X125128768Y-42353211D01*
X125050128Y-42507552D01*
X124996597Y-42672302D01*
X124996597Y-42672304D01*
X124969500Y-42843389D01*
X124969500Y-43016611D01*
X124996598Y-43187701D01*
X125050127Y-43352445D01*
X125128768Y-43506788D01*
X125230586Y-43646928D01*
X125353072Y-43769414D01*
X125493212Y-43871232D01*
X125647555Y-43949873D01*
X125812299Y-44003402D01*
X125983389Y-44030500D01*
X125983390Y-44030500D01*
X126156610Y-44030500D01*
X126156611Y-44030500D01*
X126327701Y-44003402D01*
X126492445Y-43949873D01*
X126646788Y-43871232D01*
X126786928Y-43769414D01*
X126909414Y-43646928D01*
X127011232Y-43506788D01*
X127089873Y-43352445D01*
X127143402Y-43187701D01*
X127170500Y-43016611D01*
X127170500Y-42843389D01*
X127143402Y-42672299D01*
X127089873Y-42507555D01*
X127011232Y-42353212D01*
X126909414Y-42213072D01*
X126786928Y-42090586D01*
X126646788Y-41988768D01*
X126488205Y-41907966D01*
X126437409Y-41859991D01*
X126420500Y-41797481D01*
X126420500Y-40829045D01*
X126440185Y-40762006D01*
X126456819Y-40741364D01*
X128142895Y-39055288D01*
X129871318Y-37326864D01*
X129932639Y-37293381D01*
X130002331Y-37298365D01*
X130058264Y-37340237D01*
X130070397Y-37360087D01*
X130083300Y-37386482D01*
X130166014Y-37469196D01*
X130166015Y-37469196D01*
X130166017Y-37469198D01*
X130271107Y-37520573D01*
X130305173Y-37525536D01*
X130339239Y-37530500D01*
X130339240Y-37530500D01*
X130535500Y-37530500D01*
X130602539Y-37550185D01*
X130648294Y-37602989D01*
X130659500Y-37654500D01*
X130659500Y-40333455D01*
X130639815Y-40400494D01*
X130623181Y-40421136D01*
X129162969Y-41881347D01*
X129101646Y-41914832D01*
X129036970Y-41911597D01*
X128867698Y-41856597D01*
X128731532Y-41835031D01*
X128696611Y-41829500D01*
X128523389Y-41829500D01*
X128488468Y-41835031D01*
X128352302Y-41856597D01*
X128187552Y-41910128D01*
X128033211Y-41988768D01*
X127953256Y-42046859D01*
X127893072Y-42090586D01*
X127893070Y-42090588D01*
X127893069Y-42090588D01*
X127770588Y-42213069D01*
X127770588Y-42213070D01*
X127770586Y-42213072D01*
X127738649Y-42257029D01*
X127668768Y-42353211D01*
X127590128Y-42507552D01*
X127536597Y-42672302D01*
X127536597Y-42672304D01*
X127509500Y-42843389D01*
X127509500Y-43016611D01*
X127536598Y-43187701D01*
X127590127Y-43352445D01*
X127668768Y-43506788D01*
X127770586Y-43646928D01*
X127893072Y-43769414D01*
X128033212Y-43871232D01*
X128187555Y-43949873D01*
X128352299Y-44003402D01*
X128523389Y-44030500D01*
X128523390Y-44030500D01*
X128696610Y-44030500D01*
X128696611Y-44030500D01*
X128867701Y-44003402D01*
X129032445Y-43949873D01*
X129186788Y-43871232D01*
X129326928Y-43769414D01*
X129449414Y-43646928D01*
X129551232Y-43506788D01*
X129629873Y-43352445D01*
X129683402Y-43187701D01*
X129710500Y-43016611D01*
X129710500Y-42843389D01*
X129683402Y-42672299D01*
X129629873Y-42507555D01*
X129629869Y-42507547D01*
X129628401Y-42503029D01*
X129626406Y-42433188D01*
X129658649Y-42377031D01*
X131290470Y-40745212D01*
X131336614Y-40665288D01*
X131341326Y-40647701D01*
X131360500Y-40576144D01*
X131360500Y-40195544D01*
X131380185Y-40128505D01*
X131432989Y-40082750D01*
X131502147Y-40072806D01*
X131565703Y-40101831D01*
X131572181Y-40107863D01*
X133721347Y-42257029D01*
X133754832Y-42318352D01*
X133751597Y-42383028D01*
X133696597Y-42552301D01*
X133677592Y-42672299D01*
X133669500Y-42723389D01*
X133669500Y-42896611D01*
X133696598Y-43067701D01*
X133750127Y-43232445D01*
X133828768Y-43386788D01*
X133930586Y-43526928D01*
X134053072Y-43649414D01*
X134193212Y-43751232D01*
X134347555Y-43829873D01*
X134512299Y-43883402D01*
X134683389Y-43910500D01*
X134683390Y-43910500D01*
X134856610Y-43910500D01*
X134856611Y-43910500D01*
X135027701Y-43883402D01*
X135192445Y-43829873D01*
X135346788Y-43751232D01*
X135486928Y-43649414D01*
X135609414Y-43526928D01*
X135711232Y-43386788D01*
X135789873Y-43232445D01*
X135843402Y-43067701D01*
X135870500Y-42896611D01*
X135870500Y-42723389D01*
X135843402Y-42552299D01*
X135789873Y-42387555D01*
X135711232Y-42233212D01*
X135609414Y-42093072D01*
X135486928Y-41970586D01*
X135346788Y-41868768D01*
X135192445Y-41790127D01*
X135027701Y-41736598D01*
X135027699Y-41736597D01*
X135027698Y-41736597D01*
X134896271Y-41715781D01*
X134856611Y-41709500D01*
X134683389Y-41709500D01*
X134651192Y-41714599D01*
X134512301Y-41736597D01*
X134343028Y-41791597D01*
X134273186Y-41793592D01*
X134217029Y-41761347D01*
X131996819Y-39541137D01*
X131963334Y-39479814D01*
X131960500Y-39453456D01*
X131960500Y-38679386D01*
X131980185Y-38612347D01*
X131996819Y-38591705D01*
X132021596Y-38566928D01*
X132050509Y-38538015D01*
X132122984Y-38412485D01*
X132129487Y-38388212D01*
X132165851Y-38328552D01*
X132228697Y-38298022D01*
X132298073Y-38306316D01*
X132336943Y-38332624D01*
X133721347Y-39717028D01*
X133754832Y-39778351D01*
X133751597Y-39843026D01*
X133696598Y-40012297D01*
X133696597Y-40012301D01*
X133669500Y-40183389D01*
X133669500Y-40356610D01*
X133691768Y-40497210D01*
X133696598Y-40527701D01*
X133750127Y-40692445D01*
X133828768Y-40846788D01*
X133930586Y-40986928D01*
X134053072Y-41109414D01*
X134193212Y-41211232D01*
X134347555Y-41289873D01*
X134512299Y-41343402D01*
X134683389Y-41370500D01*
X134683390Y-41370500D01*
X134856610Y-41370500D01*
X134856611Y-41370500D01*
X135027701Y-41343402D01*
X135192445Y-41289873D01*
X135346788Y-41211232D01*
X135486928Y-41109414D01*
X135609414Y-40986928D01*
X135711232Y-40846788D01*
X135789873Y-40692445D01*
X135843402Y-40527701D01*
X135870500Y-40356611D01*
X135870500Y-40183389D01*
X135843402Y-40012299D01*
X135789873Y-39847555D01*
X135711232Y-39693212D01*
X135609414Y-39553072D01*
X135486928Y-39430586D01*
X135346788Y-39328768D01*
X135192445Y-39250127D01*
X135027701Y-39196598D01*
X135027699Y-39196597D01*
X135027698Y-39196597D01*
X134896271Y-39175781D01*
X134856611Y-39169500D01*
X134683389Y-39169500D01*
X134651192Y-39174599D01*
X134512301Y-39196597D01*
X134512297Y-39196598D01*
X134343026Y-39251597D01*
X134273185Y-39253592D01*
X134217028Y-39221347D01*
X133328305Y-38332624D01*
X132434319Y-37438637D01*
X132400834Y-37377314D01*
X132398000Y-37350956D01*
X132398000Y-35357088D01*
X132417685Y-35290049D01*
X132470489Y-35244294D01*
X132539647Y-35234350D01*
X132603203Y-35263375D01*
X132609681Y-35269407D01*
X134054285Y-36714011D01*
X134087770Y-36775334D01*
X134082786Y-36845026D01*
X134054285Y-36889373D01*
X133930588Y-37013069D01*
X133930588Y-37013070D01*
X133930586Y-37013072D01*
X133886859Y-37073256D01*
X133828768Y-37153211D01*
X133750128Y-37307552D01*
X133696597Y-37472302D01*
X133677592Y-37592299D01*
X133669500Y-37643389D01*
X133669500Y-37816611D01*
X133696598Y-37987701D01*
X133750127Y-38152445D01*
X133828768Y-38306788D01*
X133930586Y-38446928D01*
X134053072Y-38569414D01*
X134193212Y-38671232D01*
X134347555Y-38749873D01*
X134512299Y-38803402D01*
X134683389Y-38830500D01*
X134683390Y-38830500D01*
X134856610Y-38830500D01*
X134856611Y-38830500D01*
X135027701Y-38803402D01*
X135192445Y-38749873D01*
X135346788Y-38671232D01*
X135486928Y-38569414D01*
X135609414Y-38446928D01*
X135711232Y-38306788D01*
X135789873Y-38152445D01*
X135843402Y-37987701D01*
X135870500Y-37816611D01*
X135870500Y-37643389D01*
X135843402Y-37472299D01*
X135789873Y-37307555D01*
X135711232Y-37153212D01*
X135609414Y-37013072D01*
X135486928Y-36890586D01*
X135346788Y-36788768D01*
X135192445Y-36710127D01*
X135027701Y-36656598D01*
X135020596Y-36655472D01*
X135001365Y-36646355D01*
X134980573Y-36641832D01*
X134961137Y-36627282D01*
X134957464Y-36625541D01*
X134952319Y-36620681D01*
X134826280Y-36494642D01*
X134792795Y-36433319D01*
X134797779Y-36363627D01*
X134839651Y-36307694D01*
X134894557Y-36284489D01*
X135027701Y-36263402D01*
X135192445Y-36209873D01*
X135346788Y-36131232D01*
X135486928Y-36029414D01*
X135609414Y-35906928D01*
X135711232Y-35766788D01*
X135789873Y-35612445D01*
X135843402Y-35447701D01*
X135870500Y-35276611D01*
X135870500Y-35103389D01*
X135843402Y-34932299D01*
X135789873Y-34767555D01*
X135711232Y-34613212D01*
X135609414Y-34473072D01*
X135486928Y-34350586D01*
X135346788Y-34248768D01*
X135310952Y-34230509D01*
X135192447Y-34170128D01*
X135192446Y-34170127D01*
X135192445Y-34170127D01*
X135027701Y-34116598D01*
X135027699Y-34116597D01*
X135027698Y-34116597D01*
X134896271Y-34095781D01*
X134856611Y-34089500D01*
X134683389Y-34089500D01*
X134651192Y-34094599D01*
X134512301Y-34116597D01*
X134512297Y-34116598D01*
X134343026Y-34171597D01*
X134273185Y-34173592D01*
X134217028Y-34141347D01*
X133287863Y-33212181D01*
X133254378Y-33150858D01*
X133259362Y-33081166D01*
X133301234Y-33025233D01*
X133366698Y-33000816D01*
X133375544Y-33000500D01*
X133637481Y-33000500D01*
X133704520Y-33020185D01*
X133747966Y-33068205D01*
X133821325Y-33212181D01*
X133828768Y-33226788D01*
X133930586Y-33366928D01*
X134053072Y-33489414D01*
X134193212Y-33591232D01*
X134347555Y-33669873D01*
X134512299Y-33723402D01*
X134683389Y-33750500D01*
X134683390Y-33750500D01*
X134856610Y-33750500D01*
X134856611Y-33750500D01*
X135027701Y-33723402D01*
X135192445Y-33669873D01*
X135346788Y-33591232D01*
X135486928Y-33489414D01*
X135609414Y-33366928D01*
X135711232Y-33226788D01*
X135789873Y-33072445D01*
X135843402Y-32907701D01*
X135870500Y-32736611D01*
X135870500Y-32563389D01*
X135843402Y-32392299D01*
X135789873Y-32227555D01*
X135711232Y-32073212D01*
X135609414Y-31933072D01*
X135486928Y-31810586D01*
X135346788Y-31708768D01*
X135192445Y-31630127D01*
X135027701Y-31576598D01*
X135027699Y-31576597D01*
X135027698Y-31576597D01*
X134896271Y-31555781D01*
X134856611Y-31549500D01*
X134683389Y-31549500D01*
X134643728Y-31555781D01*
X134512302Y-31576597D01*
X134347552Y-31630128D01*
X134193211Y-31708768D01*
X134136286Y-31750127D01*
X134053072Y-31810586D01*
X134053070Y-31810588D01*
X134053069Y-31810588D01*
X133930588Y-31933069D01*
X133930588Y-31933070D01*
X133930586Y-31933072D01*
X133904045Y-31969603D01*
X133828768Y-32073211D01*
X133747966Y-32231795D01*
X133699991Y-32282591D01*
X133637481Y-32299500D01*
X132051249Y-32299500D01*
X131984210Y-32279815D01*
X131939850Y-32229963D01*
X131936698Y-32223516D01*
X131853985Y-32140803D01*
X131748891Y-32089426D01*
X131680761Y-32079500D01*
X131680760Y-32079500D01*
X130339240Y-32079500D01*
X130339239Y-32079500D01*
X130271108Y-32089426D01*
X130166014Y-32140803D01*
X130083303Y-32223514D01*
X130031926Y-32328608D01*
X130022000Y-32396739D01*
X130022000Y-32663260D01*
X130031926Y-32731392D01*
X130031926Y-32731393D01*
X130065730Y-32800541D01*
X130077488Y-32869414D01*
X130065730Y-32909459D01*
X130031926Y-32978606D01*
X130031926Y-32978607D01*
X130022000Y-33046739D01*
X130022000Y-33313260D01*
X130031926Y-33381392D01*
X130031926Y-33381393D01*
X130065730Y-33450541D01*
X130077488Y-33519414D01*
X130065730Y-33559459D01*
X130031926Y-33628606D01*
X130031926Y-33628607D01*
X130022000Y-33696739D01*
X130022000Y-33963260D01*
X130031926Y-34031392D01*
X130031926Y-34031393D01*
X130065730Y-34100541D01*
X130077488Y-34169414D01*
X130065730Y-34209459D01*
X130031926Y-34278606D01*
X130031926Y-34278607D01*
X130028375Y-34302984D01*
X130022000Y-34346740D01*
X130022000Y-34613260D01*
X130025463Y-34637028D01*
X130025550Y-34637624D01*
X130015735Y-34706801D01*
X129970079Y-34759690D01*
X129903076Y-34779500D01*
X128743856Y-34779500D01*
X128654712Y-34803386D01*
X128654709Y-34803387D01*
X128574791Y-34849527D01*
X128574786Y-34849531D01*
X126473769Y-36950548D01*
X126412446Y-36984033D01*
X126342754Y-36979049D01*
X126286821Y-36937177D01*
X126271805Y-36910986D01*
X126265666Y-36896407D01*
X126263073Y-36878607D01*
X126227737Y-36806327D01*
X126226387Y-36803119D01*
X126222827Y-36771732D01*
X126217510Y-36740587D01*
X126218798Y-36736200D01*
X126218514Y-36733695D01*
X126221033Y-36728587D01*
X126229269Y-36700540D01*
X126263073Y-36631393D01*
X126273000Y-36563260D01*
X126273000Y-36296740D01*
X126263073Y-36228607D01*
X126229268Y-36159458D01*
X126217510Y-36090587D01*
X126229269Y-36050540D01*
X126239597Y-36029414D01*
X126263073Y-35981393D01*
X126273000Y-35913260D01*
X126273000Y-35646740D01*
X126263073Y-35578607D01*
X126211698Y-35473517D01*
X126211696Y-35473515D01*
X126211696Y-35473514D01*
X126128985Y-35390803D01*
X126023891Y-35339426D01*
X125955761Y-35329500D01*
X125955760Y-35329500D01*
X124614240Y-35329500D01*
X124614239Y-35329500D01*
X124546108Y-35339426D01*
X124441014Y-35390803D01*
X124438637Y-35393181D01*
X124434585Y-35395393D01*
X124432653Y-35396773D01*
X124432486Y-35396539D01*
X124377314Y-35426666D01*
X124350956Y-35429500D01*
X118414500Y-35429500D01*
X118347461Y-35409815D01*
X118301706Y-35357011D01*
X118290500Y-35305500D01*
X118290500Y-35223389D01*
X118263402Y-35052299D01*
X118209873Y-34887555D01*
X118131232Y-34733212D01*
X118029414Y-34593072D01*
X117906928Y-34470586D01*
X117766788Y-34368768D01*
X117612445Y-34290127D01*
X117447701Y-34236598D01*
X117447699Y-34236597D01*
X117447698Y-34236597D01*
X117316271Y-34215781D01*
X117276611Y-34209500D01*
X117103389Y-34209500D01*
X117063728Y-34215781D01*
X116932302Y-34236597D01*
X116767552Y-34290128D01*
X116613211Y-34368768D01*
X116573645Y-34397515D01*
X116473072Y-34470586D01*
X116473070Y-34470588D01*
X116473069Y-34470588D01*
X116350588Y-34593069D01*
X116350588Y-34593070D01*
X116350586Y-34593072D01*
X116335919Y-34613260D01*
X116248768Y-34733211D01*
X116170128Y-34887552D01*
X116170127Y-34887554D01*
X116170127Y-34887555D01*
X116150482Y-34948015D01*
X116116597Y-35052302D01*
X116098826Y-35164504D01*
X116089500Y-35223389D01*
X97920500Y-35223389D01*
X97920500Y-33317254D01*
X97940185Y-33250215D01*
X97956819Y-33229572D01*
X97958339Y-33228051D01*
X97958342Y-33228050D01*
X98048050Y-33138342D01*
X98105646Y-33025304D01*
X98105646Y-33025302D01*
X98105647Y-33025301D01*
X98120500Y-32931524D01*
X98120500Y-32683389D01*
X116089500Y-32683389D01*
X116089500Y-32856610D01*
X116115407Y-33020185D01*
X116116598Y-33027701D01*
X116170127Y-33192445D01*
X116248768Y-33346788D01*
X116350586Y-33486928D01*
X116473072Y-33609414D01*
X116613212Y-33711232D01*
X116767555Y-33789873D01*
X116932299Y-33843402D01*
X117103389Y-33870500D01*
X117103390Y-33870500D01*
X117276610Y-33870500D01*
X117276611Y-33870500D01*
X117447701Y-33843402D01*
X117612445Y-33789873D01*
X117612447Y-33789871D01*
X117616971Y-33788402D01*
X117686812Y-33786407D01*
X117742970Y-33818652D01*
X118094788Y-34170470D01*
X118162390Y-34209500D01*
X118174712Y-34216614D01*
X118263856Y-34240500D01*
X118263858Y-34240500D01*
X123965186Y-34240500D01*
X123965188Y-34240500D01*
X124054332Y-34216614D01*
X124066654Y-34209500D01*
X124134256Y-34170470D01*
X124637907Y-33666819D01*
X124699230Y-33633334D01*
X124725588Y-33630500D01*
X125955761Y-33630500D01*
X125983852Y-33626407D01*
X126023893Y-33620573D01*
X126128983Y-33569198D01*
X126211698Y-33486483D01*
X126263073Y-33381393D01*
X126273000Y-33313260D01*
X126273000Y-33046740D01*
X126269876Y-33025302D01*
X126266263Y-33000500D01*
X126263073Y-32978607D01*
X126229268Y-32909458D01*
X126217510Y-32840587D01*
X126229269Y-32800540D01*
X126245304Y-32767740D01*
X126263073Y-32731393D01*
X126273000Y-32663260D01*
X126273000Y-32396740D01*
X126272353Y-32392302D01*
X126263073Y-32328607D01*
X126263072Y-32328604D01*
X126209691Y-32219411D01*
X126205698Y-32196025D01*
X126197407Y-32173797D01*
X126199925Y-32162219D01*
X126197931Y-32150538D01*
X126207216Y-32128704D01*
X126212259Y-32105524D01*
X126223408Y-32090630D01*
X126225275Y-32086241D01*
X126233396Y-32077285D01*
X126257481Y-32053200D01*
X126318801Y-32019717D01*
X126388493Y-32024701D01*
X126407152Y-32033492D01*
X126527515Y-32102984D01*
X126667525Y-32140500D01*
X126667528Y-32140500D01*
X126812472Y-32140500D01*
X126812475Y-32140500D01*
X126952485Y-32102984D01*
X127078015Y-32030509D01*
X127180509Y-31928015D01*
X127252984Y-31802485D01*
X127290500Y-31662475D01*
X127290500Y-31517525D01*
X127252984Y-31377515D01*
X127252512Y-31376698D01*
X127180511Y-31251988D01*
X127180506Y-31251982D01*
X127078017Y-31149493D01*
X127078011Y-31149488D01*
X126952488Y-31077017D01*
X126952489Y-31077017D01*
X126941006Y-31073940D01*
X126812475Y-31039500D01*
X126667525Y-31039500D01*
X126538993Y-31073940D01*
X126527511Y-31077017D01*
X126401988Y-31149488D01*
X126401982Y-31149493D01*
X126348295Y-31203181D01*
X126286972Y-31236666D01*
X126260614Y-31239500D01*
X126178856Y-31239500D01*
X126104101Y-31259529D01*
X126104102Y-31259530D01*
X126089713Y-31263385D01*
X126089709Y-31263387D01*
X126009791Y-31309527D01*
X126009786Y-31309531D01*
X125372681Y-31946637D01*
X125311358Y-31980122D01*
X125241666Y-31975138D01*
X125197319Y-31946637D01*
X124000213Y-30749531D01*
X124000208Y-30749527D01*
X123920291Y-30703387D01*
X123920287Y-30703385D01*
X123902018Y-30698490D01*
X123842359Y-30662124D01*
X123823631Y-30635012D01*
X123819859Y-30627609D01*
X123819858Y-30627608D01*
X123819857Y-30627606D01*
X123732396Y-30540145D01*
X123732393Y-30540143D01*
X123732391Y-30540141D01*
X123622175Y-30483983D01*
X123622174Y-30483982D01*
X123622171Y-30483981D01*
X123530735Y-30469500D01*
X123189260Y-30469500D01*
X123189260Y-30469501D01*
X123097829Y-30483981D01*
X123097828Y-30483981D01*
X122987607Y-30540142D01*
X122987603Y-30540145D01*
X122900145Y-30627603D01*
X122900142Y-30627608D01*
X122843981Y-30737827D01*
X122843981Y-30737828D01*
X122829500Y-30829264D01*
X122829500Y-31230739D01*
X122843981Y-31322170D01*
X122843981Y-31322171D01*
X122843982Y-31322174D01*
X122843983Y-31322175D01*
X122888534Y-31409612D01*
X122900142Y-31432392D01*
X122900145Y-31432396D01*
X122908314Y-31440565D01*
X122941799Y-31501888D01*
X122936815Y-31571580D01*
X122894943Y-31627513D01*
X122875098Y-31639644D01*
X122863789Y-31645172D01*
X122775172Y-31733789D01*
X122720135Y-31846371D01*
X122720134Y-31846373D01*
X122720134Y-31846375D01*
X122709500Y-31919364D01*
X122709500Y-32440636D01*
X122720134Y-32513625D01*
X122720134Y-32513626D01*
X122720135Y-32513628D01*
X122775172Y-32626210D01*
X122835674Y-32686712D01*
X122869159Y-32748035D01*
X122864175Y-32817727D01*
X122835676Y-32862072D01*
X122820146Y-32877602D01*
X122820142Y-32877608D01*
X122763981Y-32987827D01*
X122763981Y-32987828D01*
X122750580Y-33072445D01*
X122749500Y-33079265D01*
X122749500Y-33277913D01*
X122749501Y-33415500D01*
X122729817Y-33482539D01*
X122677013Y-33528294D01*
X122625501Y-33539500D01*
X118506544Y-33539500D01*
X118439505Y-33519815D01*
X118418863Y-33503181D01*
X118238652Y-33322970D01*
X118205167Y-33261647D01*
X118208402Y-33196971D01*
X118209873Y-33192445D01*
X118263402Y-33027701D01*
X118290500Y-32856611D01*
X118290500Y-32683389D01*
X118263402Y-32512299D01*
X118209873Y-32347555D01*
X118131232Y-32193212D01*
X118029414Y-32053072D01*
X117906928Y-31930586D01*
X117766788Y-31828768D01*
X117612445Y-31750127D01*
X117447701Y-31696598D01*
X117447699Y-31696597D01*
X117447698Y-31696597D01*
X117316271Y-31675781D01*
X117276611Y-31669500D01*
X117103389Y-31669500D01*
X117063728Y-31675781D01*
X116932302Y-31696597D01*
X116767552Y-31750128D01*
X116613211Y-31828768D01*
X116533256Y-31886859D01*
X116473072Y-31930586D01*
X116473070Y-31930588D01*
X116473069Y-31930588D01*
X116350588Y-32053069D01*
X116350588Y-32053070D01*
X116350586Y-32053072D01*
X116314324Y-32102982D01*
X116248768Y-32193211D01*
X116170128Y-32347552D01*
X116116597Y-32512302D01*
X116089500Y-32683389D01*
X98120500Y-32683389D01*
X98120500Y-32678517D01*
X98120499Y-31718482D01*
X98120498Y-31718475D01*
X98105646Y-31624696D01*
X98096921Y-31607572D01*
X98084025Y-31538908D01*
X98110300Y-31474167D01*
X98167406Y-31433909D01*
X98175287Y-31431513D01*
X98232135Y-31416281D01*
X98363365Y-31340515D01*
X98470515Y-31233365D01*
X98546281Y-31102135D01*
X98585500Y-30955766D01*
X98585500Y-30804234D01*
X98546281Y-30657865D01*
X98470515Y-30526635D01*
X98363365Y-30419485D01*
X98297750Y-30381602D01*
X98232136Y-30343719D01*
X98158950Y-30324109D01*
X98085766Y-30304500D01*
X97934234Y-30304500D01*
X97787863Y-30343719D01*
X97656635Y-30419485D01*
X97656632Y-30419487D01*
X97549487Y-30526632D01*
X97549485Y-30526635D01*
X97473719Y-30657863D01*
X97449158Y-30749530D01*
X97434500Y-30804234D01*
X97434500Y-30955766D01*
X97446227Y-30999531D01*
X97473719Y-31102136D01*
X97496350Y-31141332D01*
X97501058Y-31149488D01*
X97509148Y-31163499D01*
X97525621Y-31231399D01*
X97502769Y-31297426D01*
X97447848Y-31340617D01*
X97433825Y-31345283D01*
X97418068Y-31349500D01*
X97388482Y-31349501D01*
X97294696Y-31364354D01*
X97219555Y-31402640D01*
X97206952Y-31406014D01*
X97184541Y-31405474D01*
X97162513Y-31409612D01*
X97143899Y-31404497D01*
X97137103Y-31404334D01*
X97132868Y-31401466D01*
X97122485Y-31398613D01*
X97030545Y-31355741D01*
X97030543Y-31355740D01*
X97030544Y-31355740D01*
X96983140Y-31349500D01*
X96756868Y-31349500D01*
X96746341Y-31350885D01*
X96709455Y-31355741D01*
X96709453Y-31355742D01*
X96709451Y-31355742D01*
X96672403Y-31373018D01*
X96603325Y-31383509D01*
X96567596Y-31373018D01*
X96530545Y-31355741D01*
X96530541Y-31355740D01*
X96483140Y-31349500D01*
X96256864Y-31349500D01*
X96220925Y-31354231D01*
X96151890Y-31343462D01*
X96117064Y-31318972D01*
X95797623Y-30999531D01*
X95797618Y-30999527D01*
X95717700Y-30953387D01*
X95717699Y-30953386D01*
X95717698Y-30953386D01*
X95628554Y-30929500D01*
X95083856Y-30929500D01*
X94994712Y-30953386D01*
X94994709Y-30953387D01*
X94914791Y-30999527D01*
X94914786Y-30999531D01*
X94598555Y-31315762D01*
X94537232Y-31349247D01*
X94494693Y-31351021D01*
X94491894Y-31350652D01*
X94483139Y-31349500D01*
X94483137Y-31349500D01*
X94256868Y-31349500D01*
X94246341Y-31350885D01*
X94209455Y-31355741D01*
X94209453Y-31355742D01*
X94209451Y-31355742D01*
X94172403Y-31373018D01*
X94103325Y-31383509D01*
X94067596Y-31373018D01*
X94030545Y-31355741D01*
X94030541Y-31355740D01*
X93983140Y-31349500D01*
X93756868Y-31349500D01*
X93746341Y-31350885D01*
X93709455Y-31355741D01*
X93709453Y-31355742D01*
X93709451Y-31355742D01*
X93672403Y-31373018D01*
X93603325Y-31383509D01*
X93567596Y-31373018D01*
X93530545Y-31355741D01*
X93530541Y-31355740D01*
X93483140Y-31349500D01*
X93256867Y-31349500D01*
X93245314Y-31351021D01*
X93209455Y-31355741D01*
X93209453Y-31355742D01*
X93209448Y-31355743D01*
X93117515Y-31398612D01*
X93048438Y-31409104D01*
X93033047Y-31406013D01*
X93020441Y-31402638D01*
X92945304Y-31364354D01*
X92851519Y-31349500D01*
X92821929Y-31349500D01*
X92806175Y-31345283D01*
X92789702Y-31335247D01*
X92771200Y-31329815D01*
X92760484Y-31317448D01*
X92746506Y-31308933D01*
X92738073Y-31291585D01*
X92725445Y-31277011D01*
X92723115Y-31260812D01*
X92715961Y-31246093D01*
X92718245Y-31226943D01*
X92715501Y-31207853D01*
X92723166Y-31185705D01*
X92724239Y-31176716D01*
X92727750Y-31172461D01*
X92730852Y-31163499D01*
X92766281Y-31102135D01*
X92805500Y-30955766D01*
X92805500Y-30804234D01*
X92766281Y-30657865D01*
X92690515Y-30526635D01*
X92583365Y-30419485D01*
X92517750Y-30381602D01*
X92452136Y-30343719D01*
X92378950Y-30324109D01*
X92305766Y-30304500D01*
X92154234Y-30304500D01*
X92007863Y-30343719D01*
X91876635Y-30419485D01*
X91876632Y-30419487D01*
X91769487Y-30526632D01*
X91769485Y-30526635D01*
X91693719Y-30657863D01*
X91669158Y-30749530D01*
X91654500Y-30804234D01*
X91654500Y-30955766D01*
X91666227Y-30999531D01*
X91693719Y-31102136D01*
X91721058Y-31149488D01*
X91769485Y-31233365D01*
X91876635Y-31340515D01*
X92007865Y-31416281D01*
X92064687Y-31431506D01*
X92124345Y-31467869D01*
X92154875Y-31530716D01*
X92146581Y-31600092D01*
X92143078Y-31607572D01*
X92134354Y-31624694D01*
X92134352Y-31624698D01*
X92119500Y-31718475D01*
X92119500Y-32931517D01*
X92128418Y-32987825D01*
X92134354Y-33025304D01*
X92191950Y-33138342D01*
X92281658Y-33228050D01*
X92281660Y-33228051D01*
X92283181Y-33229572D01*
X92316666Y-33290895D01*
X92319500Y-33317254D01*
X92319500Y-37228456D01*
X92299815Y-37295495D01*
X92298562Y-37297407D01*
X92291792Y-37307525D01*
X92269530Y-37329788D01*
X92225175Y-37406614D01*
X92223386Y-37409712D01*
X92223359Y-37409811D01*
X92223357Y-37409815D01*
X92199500Y-37498856D01*
X92199500Y-44348862D01*
X92179815Y-44415901D01*
X92163181Y-44436543D01*
X92049531Y-44550192D01*
X92049527Y-44550197D01*
X92003387Y-44630115D01*
X92003386Y-44630118D01*
X91979500Y-44719262D01*
X91979500Y-46362209D01*
X91959815Y-46429248D01*
X91907011Y-46475003D01*
X91898833Y-46478391D01*
X91837671Y-46501202D01*
X91837664Y-46501206D01*
X91722455Y-46587452D01*
X91722452Y-46587455D01*
X91636206Y-46702664D01*
X91636202Y-46702671D01*
X91585908Y-46837517D01*
X91579501Y-46897116D01*
X91579500Y-46897135D01*
X91579500Y-47942870D01*
X91579501Y-47942876D01*
X91585908Y-48002483D01*
X91636202Y-48137328D01*
X91636206Y-48137335D01*
X91722452Y-48252544D01*
X91722455Y-48252547D01*
X91837664Y-48338793D01*
X91837667Y-48338795D01*
X91837668Y-48338795D01*
X91837669Y-48338796D01*
X91838080Y-48338949D01*
X91838432Y-48339212D01*
X91845454Y-48343047D01*
X91844903Y-48344055D01*
X91894017Y-48380816D01*
X91918438Y-48446279D01*
X91903592Y-48514553D01*
X91854190Y-48563962D01*
X91808012Y-48578423D01*
X91787888Y-48580586D01*
X91659773Y-48628372D01*
X91550313Y-48710313D01*
X91468373Y-48819771D01*
X91420587Y-48947889D01*
X91414500Y-49004498D01*
X91414500Y-49595481D01*
X91414501Y-49595490D01*
X91420587Y-49652114D01*
X91462610Y-49764778D01*
X91468372Y-49780226D01*
X91550313Y-49889687D01*
X91659774Y-49971628D01*
X91787886Y-50019412D01*
X91844515Y-50025500D01*
X92385484Y-50025499D01*
X92442114Y-50019412D01*
X92570226Y-49971628D01*
X92679687Y-49889687D01*
X92761628Y-49780226D01*
X92771768Y-49753039D01*
X92779927Y-49731166D01*
X92793195Y-49713440D01*
X92802395Y-49693297D01*
X92813726Y-49686015D01*
X92821798Y-49675232D01*
X92842545Y-49667493D01*
X92861173Y-49655523D01*
X92883092Y-49652371D01*
X92887263Y-49650816D01*
X92896108Y-49650500D01*
X92977977Y-49650500D01*
X93045016Y-49670185D01*
X93090771Y-49722989D01*
X93101595Y-49764778D01*
X93102290Y-49773627D01*
X93146380Y-49925385D01*
X93146382Y-49925390D01*
X93226827Y-50061416D01*
X93226834Y-50061425D01*
X93338574Y-50173165D01*
X93338578Y-50173168D01*
X93338580Y-50173170D01*
X93474610Y-50253618D01*
X93626373Y-50297709D01*
X93661837Y-50300500D01*
X95038162Y-50300499D01*
X95073627Y-50297709D01*
X95225390Y-50253618D01*
X95361420Y-50173170D01*
X95473170Y-50061420D01*
X95553618Y-49925390D01*
X95597709Y-49773627D01*
X95600500Y-49738163D01*
X95600499Y-48861838D01*
X95597709Y-48826373D01*
X95553618Y-48674610D01*
X95499134Y-48582482D01*
X95473172Y-48538583D01*
X95473165Y-48538574D01*
X95361425Y-48426834D01*
X95361416Y-48426827D01*
X95225390Y-48346382D01*
X95225385Y-48346380D01*
X95073633Y-48302292D01*
X95073620Y-48302290D01*
X95038170Y-48299500D01*
X95038163Y-48299500D01*
X93756544Y-48299500D01*
X93727103Y-48290855D01*
X93697117Y-48284332D01*
X93692101Y-48280577D01*
X93689505Y-48279815D01*
X93668863Y-48263181D01*
X93617862Y-48212180D01*
X93584377Y-48150857D01*
X93589361Y-48081165D01*
X93631233Y-48025232D01*
X93696697Y-48000815D01*
X93705515Y-48000499D01*
X95038162Y-48000499D01*
X95073627Y-47997709D01*
X95225390Y-47953618D01*
X95361420Y-47873170D01*
X95473170Y-47761420D01*
X95553618Y-47625390D01*
X95597709Y-47473627D01*
X95598406Y-47464772D01*
X95623290Y-47399483D01*
X95679521Y-47358012D01*
X95722024Y-47350500D01*
X99275501Y-47350500D01*
X99342540Y-47370185D01*
X99388295Y-47422989D01*
X99399501Y-47474500D01*
X99399501Y-48450018D01*
X99410000Y-48552796D01*
X99410001Y-48552799D01*
X99450366Y-48674610D01*
X99465186Y-48719334D01*
X99557288Y-48868656D01*
X99681344Y-48992712D01*
X99830666Y-49084814D01*
X99997203Y-49139999D01*
X100099991Y-49150500D01*
X101200008Y-49150499D01*
X101200016Y-49150498D01*
X101200019Y-49150498D01*
X101297941Y-49140495D01*
X101302797Y-49139999D01*
X101469334Y-49084814D01*
X101618656Y-48992712D01*
X101742712Y-48868656D01*
X101834814Y-48719334D01*
X101889999Y-48552797D01*
X101895546Y-48498505D01*
X101899286Y-48461897D01*
X101925683Y-48397205D01*
X101982864Y-48357054D01*
X102022644Y-48350500D01*
X102675501Y-48350500D01*
X102742540Y-48370185D01*
X102788295Y-48422989D01*
X102799501Y-48474500D01*
X102799501Y-48522876D01*
X102805908Y-48582483D01*
X102856202Y-48717328D01*
X102856206Y-48717335D01*
X102942452Y-48832544D01*
X102942455Y-48832547D01*
X103057664Y-48918793D01*
X103057669Y-48918796D01*
X103118833Y-48941608D01*
X103174766Y-48983478D01*
X103199184Y-49048942D01*
X103199500Y-49057790D01*
X103199500Y-54415334D01*
X103193664Y-54435207D01*
X103192677Y-54455900D01*
X103184018Y-54468056D01*
X103179815Y-54482373D01*
X103164162Y-54495935D01*
X103152144Y-54512811D01*
X103138287Y-54518356D01*
X103127011Y-54528128D01*
X103106508Y-54531076D01*
X103087277Y-54538773D01*
X103065580Y-54536960D01*
X103057853Y-54538072D01*
X103052023Y-54537091D01*
X103047677Y-54536253D01*
X103022475Y-54529500D01*
X103012655Y-54529500D01*
X103001022Y-54527257D01*
X102980073Y-54516455D01*
X102957460Y-54509815D01*
X102949596Y-54500740D01*
X102938922Y-54495236D01*
X102927137Y-54474821D01*
X102911705Y-54457011D01*
X102908589Y-54442687D01*
X102903992Y-54434724D01*
X102904507Y-54423924D01*
X102900499Y-54405500D01*
X102900499Y-54061867D01*
X102900499Y-54061862D01*
X102894259Y-54014455D01*
X102845747Y-53910421D01*
X102764579Y-53829253D01*
X102660545Y-53780741D01*
X102660543Y-53780740D01*
X102660544Y-53780740D01*
X102613140Y-53774500D01*
X102386868Y-53774500D01*
X102376341Y-53775885D01*
X102339455Y-53780741D01*
X102339453Y-53780742D01*
X102339451Y-53780742D01*
X102302403Y-53798018D01*
X102233325Y-53808509D01*
X102197596Y-53798018D01*
X102160545Y-53780741D01*
X102160541Y-53780740D01*
X102113140Y-53774500D01*
X101886868Y-53774500D01*
X101876341Y-53775885D01*
X101839455Y-53780741D01*
X101839453Y-53780742D01*
X101839451Y-53780742D01*
X101802403Y-53798018D01*
X101733325Y-53808509D01*
X101697596Y-53798018D01*
X101660545Y-53780741D01*
X101660541Y-53780740D01*
X101613140Y-53774500D01*
X101386868Y-53774500D01*
X101376341Y-53775885D01*
X101339455Y-53780741D01*
X101339453Y-53780742D01*
X101339451Y-53780742D01*
X101302403Y-53798018D01*
X101233325Y-53808509D01*
X101197596Y-53798018D01*
X101160545Y-53780741D01*
X101160541Y-53780740D01*
X101113140Y-53774500D01*
X100886868Y-53774500D01*
X100876341Y-53775885D01*
X100839455Y-53780741D01*
X100839453Y-53780742D01*
X100839451Y-53780742D01*
X100802403Y-53798018D01*
X100733325Y-53808509D01*
X100697596Y-53798018D01*
X100660545Y-53780741D01*
X100660541Y-53780740D01*
X100613140Y-53774500D01*
X100386868Y-53774500D01*
X100376341Y-53775885D01*
X100339455Y-53780741D01*
X100339453Y-53780742D01*
X100339451Y-53780742D01*
X100302403Y-53798018D01*
X100233325Y-53808509D01*
X100197596Y-53798018D01*
X100160545Y-53780741D01*
X100160541Y-53780740D01*
X100113140Y-53774500D01*
X99886868Y-53774500D01*
X99876341Y-53775885D01*
X99839455Y-53780741D01*
X99839453Y-53780742D01*
X99839451Y-53780742D01*
X99802403Y-53798018D01*
X99733325Y-53808509D01*
X99697596Y-53798018D01*
X99660545Y-53780741D01*
X99660541Y-53780740D01*
X99613140Y-53774500D01*
X99386868Y-53774500D01*
X99376341Y-53775885D01*
X99339455Y-53780741D01*
X99339453Y-53780742D01*
X99339451Y-53780742D01*
X99302403Y-53798018D01*
X99233325Y-53808509D01*
X99197596Y-53798018D01*
X99160545Y-53780741D01*
X99160541Y-53780740D01*
X99113140Y-53774500D01*
X98886868Y-53774500D01*
X98876341Y-53775885D01*
X98839455Y-53780741D01*
X98839453Y-53780742D01*
X98839451Y-53780742D01*
X98802403Y-53798018D01*
X98733325Y-53808509D01*
X98697596Y-53798018D01*
X98660545Y-53780741D01*
X98660541Y-53780740D01*
X98613140Y-53774500D01*
X98386868Y-53774500D01*
X98376341Y-53775885D01*
X98339455Y-53780741D01*
X98339453Y-53780742D01*
X98339451Y-53780742D01*
X98302403Y-53798018D01*
X98233325Y-53808509D01*
X98197596Y-53798018D01*
X98160545Y-53780741D01*
X98160541Y-53780740D01*
X98113140Y-53774500D01*
X97886868Y-53774500D01*
X97876341Y-53775885D01*
X97839455Y-53780741D01*
X97839453Y-53780742D01*
X97839451Y-53780742D01*
X97802403Y-53798018D01*
X97733325Y-53808509D01*
X97697596Y-53798018D01*
X97660545Y-53780741D01*
X97660541Y-53780740D01*
X97613140Y-53774500D01*
X97386868Y-53774500D01*
X97376341Y-53775885D01*
X97339455Y-53780741D01*
X97339453Y-53780742D01*
X97339451Y-53780742D01*
X97302403Y-53798018D01*
X97233325Y-53808509D01*
X97197596Y-53798018D01*
X97160545Y-53780741D01*
X97160541Y-53780740D01*
X97113140Y-53774500D01*
X96886868Y-53774500D01*
X96876341Y-53775885D01*
X96839455Y-53780741D01*
X96839453Y-53780742D01*
X96839451Y-53780742D01*
X96802403Y-53798018D01*
X96733325Y-53808509D01*
X96697596Y-53798018D01*
X96660545Y-53780741D01*
X96660541Y-53780740D01*
X96613140Y-53774500D01*
X96386868Y-53774500D01*
X96376341Y-53775885D01*
X96339455Y-53780741D01*
X96339453Y-53780742D01*
X96339451Y-53780742D01*
X96302403Y-53798018D01*
X96233325Y-53808509D01*
X96197596Y-53798018D01*
X96160545Y-53780741D01*
X96160541Y-53780740D01*
X96113140Y-53774500D01*
X95886868Y-53774500D01*
X95876341Y-53775885D01*
X95839455Y-53780741D01*
X95839453Y-53780742D01*
X95839451Y-53780742D01*
X95802403Y-53798018D01*
X95733325Y-53808509D01*
X95697596Y-53798018D01*
X95660545Y-53780741D01*
X95660541Y-53780740D01*
X95613140Y-53774500D01*
X95386868Y-53774500D01*
X95376341Y-53775885D01*
X95339455Y-53780741D01*
X95339453Y-53780742D01*
X95339451Y-53780742D01*
X95302403Y-53798018D01*
X95233325Y-53808509D01*
X95197596Y-53798018D01*
X95160545Y-53780741D01*
X95160541Y-53780740D01*
X95113140Y-53774500D01*
X94886868Y-53774500D01*
X94876341Y-53775885D01*
X94839455Y-53780741D01*
X94839453Y-53780742D01*
X94839451Y-53780742D01*
X94802403Y-53798018D01*
X94733325Y-53808509D01*
X94697596Y-53798018D01*
X94660545Y-53780741D01*
X94660541Y-53780740D01*
X94613140Y-53774500D01*
X94386868Y-53774500D01*
X94376341Y-53775885D01*
X94339455Y-53780741D01*
X94339453Y-53780742D01*
X94339451Y-53780742D01*
X94302403Y-53798018D01*
X94301391Y-53798171D01*
X94300615Y-53798834D01*
X94266953Y-53803401D01*
X94233325Y-53808509D01*
X94232058Y-53808136D01*
X94231380Y-53808229D01*
X94197595Y-53798017D01*
X94161728Y-53781292D01*
X94109289Y-53735120D01*
X94090137Y-53667926D01*
X94110353Y-53601045D01*
X94114345Y-53595301D01*
X94167793Y-53522882D01*
X94190219Y-53458790D01*
X94212646Y-53394701D01*
X94212646Y-53394699D01*
X94215500Y-53364269D01*
X94215500Y-52855730D01*
X94212646Y-52825300D01*
X94212646Y-52825298D01*
X94174874Y-52717354D01*
X94167793Y-52697118D01*
X94087150Y-52587850D01*
X93977882Y-52507207D01*
X93977880Y-52507206D01*
X93849700Y-52462353D01*
X93819270Y-52459500D01*
X93819266Y-52459500D01*
X93160734Y-52459500D01*
X93160730Y-52459500D01*
X93130300Y-52462353D01*
X93130298Y-52462353D01*
X93002119Y-52507206D01*
X93002117Y-52507207D01*
X92892850Y-52587850D01*
X92812207Y-52697117D01*
X92812206Y-52697119D01*
X92767353Y-52825298D01*
X92767353Y-52825300D01*
X92764500Y-52855730D01*
X92764500Y-53364269D01*
X92767353Y-53394699D01*
X92767353Y-53394701D01*
X92812206Y-53522880D01*
X92812207Y-53522882D01*
X92842419Y-53563818D01*
X92870758Y-53602216D01*
X92878050Y-53622182D01*
X92889684Y-53639973D01*
X92889797Y-53654346D01*
X92894728Y-53667845D01*
X92890068Y-53688582D01*
X92890237Y-53709841D01*
X92882562Y-53721993D01*
X92879412Y-53736015D01*
X92864279Y-53750942D01*
X92852929Y-53768916D01*
X92832555Y-53782238D01*
X92829672Y-53785083D01*
X92823390Y-53788232D01*
X92802403Y-53798018D01*
X92733325Y-53808509D01*
X92697596Y-53798018D01*
X92660545Y-53780741D01*
X92660541Y-53780740D01*
X92613140Y-53774500D01*
X92386868Y-53774500D01*
X92376341Y-53775885D01*
X92339455Y-53780741D01*
X92339453Y-53780742D01*
X92339451Y-53780742D01*
X92302403Y-53798018D01*
X92233325Y-53808509D01*
X92197596Y-53798018D01*
X92160545Y-53780741D01*
X92160541Y-53780740D01*
X92113140Y-53774500D01*
X91886868Y-53774500D01*
X91876341Y-53775885D01*
X91839455Y-53780741D01*
X91839453Y-53780742D01*
X91839451Y-53780742D01*
X91802403Y-53798018D01*
X91733325Y-53808509D01*
X91697596Y-53798018D01*
X91660545Y-53780741D01*
X91660541Y-53780740D01*
X91613140Y-53774500D01*
X91386867Y-53774500D01*
X91371839Y-53776478D01*
X91339455Y-53780741D01*
X91339453Y-53780742D01*
X91339451Y-53780742D01*
X91235420Y-53829253D01*
X91154253Y-53910420D01*
X91112382Y-54000213D01*
X91101238Y-54012869D01*
X91094354Y-54028265D01*
X91078626Y-54038549D01*
X91066209Y-54052652D01*
X91049991Y-54057274D01*
X91035877Y-54066504D01*
X91017087Y-54066652D01*
X90999016Y-54071804D01*
X90982872Y-54066924D01*
X90966009Y-54067058D01*
X90950121Y-54057024D01*
X90932135Y-54051588D01*
X90920801Y-54038508D01*
X90906934Y-54029751D01*
X90887617Y-54000212D01*
X90883088Y-53990500D01*
X90882116Y-53988415D01*
X90870500Y-53936013D01*
X90870500Y-53796108D01*
X90890185Y-53729069D01*
X90942989Y-53683314D01*
X90951166Y-53679927D01*
X90973039Y-53671768D01*
X91000226Y-53661628D01*
X91109687Y-53579687D01*
X91191628Y-53470226D01*
X91239412Y-53342114D01*
X91241687Y-53320944D01*
X91245499Y-53285501D01*
X91245499Y-53285490D01*
X91245500Y-53285485D01*
X91245499Y-52744516D01*
X91239412Y-52687886D01*
X91191628Y-52559774D01*
X91109687Y-52450313D01*
X91043911Y-52401074D01*
X91000228Y-52368373D01*
X91000226Y-52368372D01*
X90872114Y-52320588D01*
X90872112Y-52320587D01*
X90872110Y-52320587D01*
X90815493Y-52314500D01*
X90224518Y-52314500D01*
X90224509Y-52314501D01*
X90167885Y-52320587D01*
X90039773Y-52368372D01*
X89930313Y-52450313D01*
X89848373Y-52559771D01*
X89800587Y-52687889D01*
X89794500Y-52744498D01*
X89794500Y-53285481D01*
X89794501Y-53285490D01*
X89800587Y-53342114D01*
X89820201Y-53394699D01*
X89848372Y-53470226D01*
X89930313Y-53579687D01*
X90039774Y-53661628D01*
X90039773Y-53661628D01*
X90088834Y-53679927D01*
X90106559Y-53693195D01*
X90126703Y-53702395D01*
X90133984Y-53713726D01*
X90144768Y-53721798D01*
X90152506Y-53742545D01*
X90164477Y-53761173D01*
X90167628Y-53783092D01*
X90169184Y-53787263D01*
X90169500Y-53796108D01*
X90169500Y-53850234D01*
X90157882Y-53902639D01*
X90105740Y-54014456D01*
X90099500Y-54061860D01*
X90099500Y-54678455D01*
X90090855Y-54707895D01*
X90084332Y-54737882D01*
X90080577Y-54742897D01*
X90079815Y-54745494D01*
X90063185Y-54766131D01*
X89913635Y-54915682D01*
X89852315Y-54949166D01*
X89825956Y-54952000D01*
X87624499Y-54952000D01*
X87557460Y-54932315D01*
X87511705Y-54879511D01*
X87500499Y-54828000D01*
X87500499Y-54683482D01*
X87499703Y-54678455D01*
X87485646Y-54589696D01*
X87428050Y-54476658D01*
X87428046Y-54476654D01*
X87428045Y-54476652D01*
X87338347Y-54386954D01*
X87338344Y-54386952D01*
X87338342Y-54386950D01*
X87261517Y-54347805D01*
X87225301Y-54329352D01*
X87131524Y-54314500D01*
X86768482Y-54314500D01*
X86687519Y-54327323D01*
X86674696Y-54329354D01*
X86561658Y-54386950D01*
X86561657Y-54386951D01*
X86561652Y-54386954D01*
X86471954Y-54476652D01*
X86471951Y-54476657D01*
X86471950Y-54476658D01*
X86469038Y-54482373D01*
X86414352Y-54589698D01*
X86399500Y-54683475D01*
X86399500Y-55921517D01*
X86412001Y-56000450D01*
X86414354Y-56015304D01*
X86416632Y-56019774D01*
X86421472Y-56029273D01*
X86434367Y-56097942D01*
X86408090Y-56162682D01*
X86350983Y-56202938D01*
X86284960Y-56205767D01*
X86284943Y-56205880D01*
X86284389Y-56205792D01*
X86281177Y-56205930D01*
X86276109Y-56204480D01*
X86181524Y-56189500D01*
X85818482Y-56189500D01*
X85747649Y-56200718D01*
X85724696Y-56204354D01*
X85724695Y-56204354D01*
X85715057Y-56205881D01*
X85714736Y-56203859D01*
X85657478Y-56205489D01*
X85597649Y-56169402D01*
X85566827Y-56106698D01*
X85574799Y-56037285D01*
X85578514Y-56029300D01*
X85585646Y-56015304D01*
X85586441Y-56010288D01*
X85600499Y-55921524D01*
X85600500Y-55921519D01*
X85600499Y-54683482D01*
X85585646Y-54589696D01*
X85528050Y-54476658D01*
X85528046Y-54476654D01*
X85528045Y-54476652D01*
X85438347Y-54386954D01*
X85438344Y-54386952D01*
X85438342Y-54386950D01*
X85361517Y-54347805D01*
X85325301Y-54329352D01*
X85231524Y-54314500D01*
X84868482Y-54314500D01*
X84787519Y-54327323D01*
X84774696Y-54329354D01*
X84661658Y-54386950D01*
X84661657Y-54386951D01*
X84661652Y-54386954D01*
X84571954Y-54476652D01*
X84571951Y-54476657D01*
X84571950Y-54476658D01*
X84569038Y-54482373D01*
X84514352Y-54589698D01*
X84499500Y-54683475D01*
X84499500Y-55245500D01*
X84479815Y-55312539D01*
X84427011Y-55358294D01*
X84375500Y-55369500D01*
X81165544Y-55369500D01*
X81098505Y-55349815D01*
X81052750Y-55297011D01*
X81042806Y-55227853D01*
X81071831Y-55164297D01*
X81077863Y-55157819D01*
X83867310Y-52368372D01*
X86750469Y-49485213D01*
X86796614Y-49405288D01*
X86807283Y-49365469D01*
X86820500Y-49316144D01*
X86820500Y-39063091D01*
X86796614Y-38973947D01*
X86794264Y-38969876D01*
X86790209Y-38962852D01*
X86790207Y-38962850D01*
X86750470Y-38894023D01*
X80106819Y-32250372D01*
X80073334Y-32189049D01*
X80070500Y-32162691D01*
X80070500Y-27545323D01*
X80070499Y-27545321D01*
X80055967Y-27472264D01*
X80055966Y-27472260D01*
X80000601Y-27389399D01*
X79917740Y-27334034D01*
X79917739Y-27334033D01*
X79917735Y-27334032D01*
X79844677Y-27319500D01*
X79844674Y-27319500D01*
X74695326Y-27319500D01*
X74695323Y-27319500D01*
X74622264Y-27334032D01*
X74622260Y-27334033D01*
X74539399Y-27389399D01*
X74484033Y-27472260D01*
X74484032Y-27472264D01*
X74469500Y-27545321D01*
X62300500Y-27545321D01*
X62300500Y-26154500D01*
X62320185Y-26087461D01*
X62372989Y-26041706D01*
X62424500Y-26030500D01*
X138575500Y-26030500D01*
X138642539Y-26050185D01*
G37*
%TD.AperFunction*%
%TD*%
M02*
