%TF.GenerationSoftware,KiCad,Pcbnew,10.0.3*%
%TF.CreationDate,2026-06-30T20:31:23-07:00*%
%TF.ProjectId,Wheel V3,57686565-6c20-4563-932e-6b696361645f,rev?*%
%TF.SameCoordinates,Original*%
%TF.FileFunction,Legend,Top*%
%TF.FilePolarity,Positive*%
%FSLAX46Y46*%
G04 Gerber Fmt 4.6, Leading zero omitted, Abs format (unit mm)*
G04 Created by KiCad (PCBNEW 10.0.3) date 2026-06-30 20:31:23*
%MOMM*%
%LPD*%
G01*
G04 APERTURE LIST*
%ADD10C,0.150000*%
%ADD11C,0.254000*%
%ADD12C,0.120000*%
%ADD13C,0.200000*%
G04 APERTURE END LIST*
D10*
X209319905Y-22584819D02*
X209319905Y-21584819D01*
X209319905Y-21584819D02*
X209558000Y-21584819D01*
X209558000Y-21584819D02*
X209700857Y-21632438D01*
X209700857Y-21632438D02*
X209796095Y-21727676D01*
X209796095Y-21727676D02*
X209843714Y-21822914D01*
X209843714Y-21822914D02*
X209891333Y-22013390D01*
X209891333Y-22013390D02*
X209891333Y-22156247D01*
X209891333Y-22156247D02*
X209843714Y-22346723D01*
X209843714Y-22346723D02*
X209796095Y-22441961D01*
X209796095Y-22441961D02*
X209700857Y-22537200D01*
X209700857Y-22537200D02*
X209558000Y-22584819D01*
X209558000Y-22584819D02*
X209319905Y-22584819D01*
X210843714Y-22584819D02*
X210272286Y-22584819D01*
X210558000Y-22584819D02*
X210558000Y-21584819D01*
X210558000Y-21584819D02*
X210462762Y-21727676D01*
X210462762Y-21727676D02*
X210367524Y-21822914D01*
X210367524Y-21822914D02*
X210272286Y-21870533D01*
X100710476Y-77934819D02*
X100710476Y-78649104D01*
X100710476Y-78649104D02*
X100662857Y-78791961D01*
X100662857Y-78791961D02*
X100567619Y-78887200D01*
X100567619Y-78887200D02*
X100424762Y-78934819D01*
X100424762Y-78934819D02*
X100329524Y-78934819D01*
X101710476Y-78934819D02*
X101139048Y-78934819D01*
X101424762Y-78934819D02*
X101424762Y-77934819D01*
X101424762Y-77934819D02*
X101329524Y-78077676D01*
X101329524Y-78077676D02*
X101234286Y-78172914D01*
X101234286Y-78172914D02*
X101139048Y-78220533D01*
X102043810Y-77934819D02*
X102662857Y-77934819D01*
X102662857Y-77934819D02*
X102329524Y-78315771D01*
X102329524Y-78315771D02*
X102472381Y-78315771D01*
X102472381Y-78315771D02*
X102567619Y-78363390D01*
X102567619Y-78363390D02*
X102615238Y-78411009D01*
X102615238Y-78411009D02*
X102662857Y-78506247D01*
X102662857Y-78506247D02*
X102662857Y-78744342D01*
X102662857Y-78744342D02*
X102615238Y-78839580D01*
X102615238Y-78839580D02*
X102567619Y-78887200D01*
X102567619Y-78887200D02*
X102472381Y-78934819D01*
X102472381Y-78934819D02*
X102186667Y-78934819D01*
X102186667Y-78934819D02*
X102091429Y-78887200D01*
X102091429Y-78887200D02*
X102043810Y-78839580D01*
X193243580Y-59536666D02*
X193291200Y-59584285D01*
X193291200Y-59584285D02*
X193338819Y-59727142D01*
X193338819Y-59727142D02*
X193338819Y-59822380D01*
X193338819Y-59822380D02*
X193291200Y-59965237D01*
X193291200Y-59965237D02*
X193195961Y-60060475D01*
X193195961Y-60060475D02*
X193100723Y-60108094D01*
X193100723Y-60108094D02*
X192910247Y-60155713D01*
X192910247Y-60155713D02*
X192767390Y-60155713D01*
X192767390Y-60155713D02*
X192576914Y-60108094D01*
X192576914Y-60108094D02*
X192481676Y-60060475D01*
X192481676Y-60060475D02*
X192386438Y-59965237D01*
X192386438Y-59965237D02*
X192338819Y-59822380D01*
X192338819Y-59822380D02*
X192338819Y-59727142D01*
X192338819Y-59727142D02*
X192386438Y-59584285D01*
X192386438Y-59584285D02*
X192434057Y-59536666D01*
X192338819Y-58679523D02*
X192338819Y-58869999D01*
X192338819Y-58869999D02*
X192386438Y-58965237D01*
X192386438Y-58965237D02*
X192434057Y-59012856D01*
X192434057Y-59012856D02*
X192576914Y-59108094D01*
X192576914Y-59108094D02*
X192767390Y-59155713D01*
X192767390Y-59155713D02*
X193148342Y-59155713D01*
X193148342Y-59155713D02*
X193243580Y-59108094D01*
X193243580Y-59108094D02*
X193291200Y-59060475D01*
X193291200Y-59060475D02*
X193338819Y-58965237D01*
X193338819Y-58965237D02*
X193338819Y-58774761D01*
X193338819Y-58774761D02*
X193291200Y-58679523D01*
X193291200Y-58679523D02*
X193243580Y-58631904D01*
X193243580Y-58631904D02*
X193148342Y-58584285D01*
X193148342Y-58584285D02*
X192910247Y-58584285D01*
X192910247Y-58584285D02*
X192815009Y-58631904D01*
X192815009Y-58631904D02*
X192767390Y-58679523D01*
X192767390Y-58679523D02*
X192719771Y-58774761D01*
X192719771Y-58774761D02*
X192719771Y-58965237D01*
X192719771Y-58965237D02*
X192767390Y-59060475D01*
X192767390Y-59060475D02*
X192815009Y-59108094D01*
X192815009Y-59108094D02*
X192910247Y-59155713D01*
X182141905Y-58748819D02*
X182141905Y-57748819D01*
X182141905Y-57748819D02*
X182380000Y-57748819D01*
X182380000Y-57748819D02*
X182522857Y-57796438D01*
X182522857Y-57796438D02*
X182618095Y-57891676D01*
X182618095Y-57891676D02*
X182665714Y-57986914D01*
X182665714Y-57986914D02*
X182713333Y-58177390D01*
X182713333Y-58177390D02*
X182713333Y-58320247D01*
X182713333Y-58320247D02*
X182665714Y-58510723D01*
X182665714Y-58510723D02*
X182618095Y-58605961D01*
X182618095Y-58605961D02*
X182522857Y-58701200D01*
X182522857Y-58701200D02*
X182380000Y-58748819D01*
X182380000Y-58748819D02*
X182141905Y-58748819D01*
X183570476Y-58082152D02*
X183570476Y-58748819D01*
X183332381Y-57701200D02*
X183094286Y-58415485D01*
X183094286Y-58415485D02*
X183713333Y-58415485D01*
X161036666Y-21304819D02*
X161036666Y-22019104D01*
X161036666Y-22019104D02*
X160989047Y-22161961D01*
X160989047Y-22161961D02*
X160893809Y-22257200D01*
X160893809Y-22257200D02*
X160750952Y-22304819D01*
X160750952Y-22304819D02*
X160655714Y-22304819D01*
X161941428Y-21304819D02*
X161750952Y-21304819D01*
X161750952Y-21304819D02*
X161655714Y-21352438D01*
X161655714Y-21352438D02*
X161608095Y-21400057D01*
X161608095Y-21400057D02*
X161512857Y-21542914D01*
X161512857Y-21542914D02*
X161465238Y-21733390D01*
X161465238Y-21733390D02*
X161465238Y-22114342D01*
X161465238Y-22114342D02*
X161512857Y-22209580D01*
X161512857Y-22209580D02*
X161560476Y-22257200D01*
X161560476Y-22257200D02*
X161655714Y-22304819D01*
X161655714Y-22304819D02*
X161846190Y-22304819D01*
X161846190Y-22304819D02*
X161941428Y-22257200D01*
X161941428Y-22257200D02*
X161989047Y-22209580D01*
X161989047Y-22209580D02*
X162036666Y-22114342D01*
X162036666Y-22114342D02*
X162036666Y-21876247D01*
X162036666Y-21876247D02*
X161989047Y-21781009D01*
X161989047Y-21781009D02*
X161941428Y-21733390D01*
X161941428Y-21733390D02*
X161846190Y-21685771D01*
X161846190Y-21685771D02*
X161655714Y-21685771D01*
X161655714Y-21685771D02*
X161560476Y-21733390D01*
X161560476Y-21733390D02*
X161512857Y-21781009D01*
X161512857Y-21781009D02*
X161465238Y-21876247D01*
X212554819Y-49189523D02*
X213269104Y-49189523D01*
X213269104Y-49189523D02*
X213411961Y-49237142D01*
X213411961Y-49237142D02*
X213507200Y-49332380D01*
X213507200Y-49332380D02*
X213554819Y-49475237D01*
X213554819Y-49475237D02*
X213554819Y-49570475D01*
X213554819Y-48189523D02*
X213554819Y-48760951D01*
X213554819Y-48475237D02*
X212554819Y-48475237D01*
X212554819Y-48475237D02*
X212697676Y-48570475D01*
X212697676Y-48570475D02*
X212792914Y-48665713D01*
X212792914Y-48665713D02*
X212840533Y-48760951D01*
X212650057Y-47808570D02*
X212602438Y-47760951D01*
X212602438Y-47760951D02*
X212554819Y-47665713D01*
X212554819Y-47665713D02*
X212554819Y-47427618D01*
X212554819Y-47427618D02*
X212602438Y-47332380D01*
X212602438Y-47332380D02*
X212650057Y-47284761D01*
X212650057Y-47284761D02*
X212745295Y-47237142D01*
X212745295Y-47237142D02*
X212840533Y-47237142D01*
X212840533Y-47237142D02*
X212983390Y-47284761D01*
X212983390Y-47284761D02*
X213554819Y-47856189D01*
X213554819Y-47856189D02*
X213554819Y-47237142D01*
X194024819Y-36635333D02*
X194739104Y-36635333D01*
X194739104Y-36635333D02*
X194881961Y-36682952D01*
X194881961Y-36682952D02*
X194977200Y-36778190D01*
X194977200Y-36778190D02*
X195024819Y-36921047D01*
X195024819Y-36921047D02*
X195024819Y-37016285D01*
X194453390Y-36016285D02*
X194405771Y-36111523D01*
X194405771Y-36111523D02*
X194358152Y-36159142D01*
X194358152Y-36159142D02*
X194262914Y-36206761D01*
X194262914Y-36206761D02*
X194215295Y-36206761D01*
X194215295Y-36206761D02*
X194120057Y-36159142D01*
X194120057Y-36159142D02*
X194072438Y-36111523D01*
X194072438Y-36111523D02*
X194024819Y-36016285D01*
X194024819Y-36016285D02*
X194024819Y-35825809D01*
X194024819Y-35825809D02*
X194072438Y-35730571D01*
X194072438Y-35730571D02*
X194120057Y-35682952D01*
X194120057Y-35682952D02*
X194215295Y-35635333D01*
X194215295Y-35635333D02*
X194262914Y-35635333D01*
X194262914Y-35635333D02*
X194358152Y-35682952D01*
X194358152Y-35682952D02*
X194405771Y-35730571D01*
X194405771Y-35730571D02*
X194453390Y-35825809D01*
X194453390Y-35825809D02*
X194453390Y-36016285D01*
X194453390Y-36016285D02*
X194501009Y-36111523D01*
X194501009Y-36111523D02*
X194548628Y-36159142D01*
X194548628Y-36159142D02*
X194643866Y-36206761D01*
X194643866Y-36206761D02*
X194834342Y-36206761D01*
X194834342Y-36206761D02*
X194929580Y-36159142D01*
X194929580Y-36159142D02*
X194977200Y-36111523D01*
X194977200Y-36111523D02*
X195024819Y-36016285D01*
X195024819Y-36016285D02*
X195024819Y-35825809D01*
X195024819Y-35825809D02*
X194977200Y-35730571D01*
X194977200Y-35730571D02*
X194929580Y-35682952D01*
X194929580Y-35682952D02*
X194834342Y-35635333D01*
X194834342Y-35635333D02*
X194643866Y-35635333D01*
X194643866Y-35635333D02*
X194548628Y-35682952D01*
X194548628Y-35682952D02*
X194501009Y-35730571D01*
X194501009Y-35730571D02*
X194453390Y-35825809D01*
X182491142Y-49602819D02*
X182157809Y-49126628D01*
X181919714Y-49602819D02*
X181919714Y-48602819D01*
X181919714Y-48602819D02*
X182300666Y-48602819D01*
X182300666Y-48602819D02*
X182395904Y-48650438D01*
X182395904Y-48650438D02*
X182443523Y-48698057D01*
X182443523Y-48698057D02*
X182491142Y-48793295D01*
X182491142Y-48793295D02*
X182491142Y-48936152D01*
X182491142Y-48936152D02*
X182443523Y-49031390D01*
X182443523Y-49031390D02*
X182395904Y-49079009D01*
X182395904Y-49079009D02*
X182300666Y-49126628D01*
X182300666Y-49126628D02*
X181919714Y-49126628D01*
X183443523Y-49602819D02*
X182872095Y-49602819D01*
X183157809Y-49602819D02*
X183157809Y-48602819D01*
X183157809Y-48602819D02*
X183062571Y-48745676D01*
X183062571Y-48745676D02*
X182967333Y-48840914D01*
X182967333Y-48840914D02*
X182872095Y-48888533D01*
X183776857Y-48602819D02*
X184395904Y-48602819D01*
X184395904Y-48602819D02*
X184062571Y-48983771D01*
X184062571Y-48983771D02*
X184205428Y-48983771D01*
X184205428Y-48983771D02*
X184300666Y-49031390D01*
X184300666Y-49031390D02*
X184348285Y-49079009D01*
X184348285Y-49079009D02*
X184395904Y-49174247D01*
X184395904Y-49174247D02*
X184395904Y-49412342D01*
X184395904Y-49412342D02*
X184348285Y-49507580D01*
X184348285Y-49507580D02*
X184300666Y-49555200D01*
X184300666Y-49555200D02*
X184205428Y-49602819D01*
X184205428Y-49602819D02*
X183919714Y-49602819D01*
X183919714Y-49602819D02*
X183824476Y-49555200D01*
X183824476Y-49555200D02*
X183776857Y-49507580D01*
X186269333Y-64334819D02*
X185936000Y-63858628D01*
X185697905Y-64334819D02*
X185697905Y-63334819D01*
X185697905Y-63334819D02*
X186078857Y-63334819D01*
X186078857Y-63334819D02*
X186174095Y-63382438D01*
X186174095Y-63382438D02*
X186221714Y-63430057D01*
X186221714Y-63430057D02*
X186269333Y-63525295D01*
X186269333Y-63525295D02*
X186269333Y-63668152D01*
X186269333Y-63668152D02*
X186221714Y-63763390D01*
X186221714Y-63763390D02*
X186174095Y-63811009D01*
X186174095Y-63811009D02*
X186078857Y-63858628D01*
X186078857Y-63858628D02*
X185697905Y-63858628D01*
X186745524Y-64334819D02*
X186936000Y-64334819D01*
X186936000Y-64334819D02*
X187031238Y-64287200D01*
X187031238Y-64287200D02*
X187078857Y-64239580D01*
X187078857Y-64239580D02*
X187174095Y-64096723D01*
X187174095Y-64096723D02*
X187221714Y-63906247D01*
X187221714Y-63906247D02*
X187221714Y-63525295D01*
X187221714Y-63525295D02*
X187174095Y-63430057D01*
X187174095Y-63430057D02*
X187126476Y-63382438D01*
X187126476Y-63382438D02*
X187031238Y-63334819D01*
X187031238Y-63334819D02*
X186840762Y-63334819D01*
X186840762Y-63334819D02*
X186745524Y-63382438D01*
X186745524Y-63382438D02*
X186697905Y-63430057D01*
X186697905Y-63430057D02*
X186650286Y-63525295D01*
X186650286Y-63525295D02*
X186650286Y-63763390D01*
X186650286Y-63763390D02*
X186697905Y-63858628D01*
X186697905Y-63858628D02*
X186745524Y-63906247D01*
X186745524Y-63906247D02*
X186840762Y-63953866D01*
X186840762Y-63953866D02*
X187031238Y-63953866D01*
X187031238Y-63953866D02*
X187126476Y-63906247D01*
X187126476Y-63906247D02*
X187174095Y-63858628D01*
X187174095Y-63858628D02*
X187221714Y-63763390D01*
X219924319Y-28578333D02*
X220638604Y-28578333D01*
X220638604Y-28578333D02*
X220781461Y-28625952D01*
X220781461Y-28625952D02*
X220876700Y-28721190D01*
X220876700Y-28721190D02*
X220924319Y-28864047D01*
X220924319Y-28864047D02*
X220924319Y-28959285D01*
X220019557Y-28149761D02*
X219971938Y-28102142D01*
X219971938Y-28102142D02*
X219924319Y-28006904D01*
X219924319Y-28006904D02*
X219924319Y-27768809D01*
X219924319Y-27768809D02*
X219971938Y-27673571D01*
X219971938Y-27673571D02*
X220019557Y-27625952D01*
X220019557Y-27625952D02*
X220114795Y-27578333D01*
X220114795Y-27578333D02*
X220210033Y-27578333D01*
X220210033Y-27578333D02*
X220352890Y-27625952D01*
X220352890Y-27625952D02*
X220924319Y-28197380D01*
X220924319Y-28197380D02*
X220924319Y-27578333D01*
X157059333Y-31570819D02*
X156726000Y-31094628D01*
X156487905Y-31570819D02*
X156487905Y-30570819D01*
X156487905Y-30570819D02*
X156868857Y-30570819D01*
X156868857Y-30570819D02*
X156964095Y-30618438D01*
X156964095Y-30618438D02*
X157011714Y-30666057D01*
X157011714Y-30666057D02*
X157059333Y-30761295D01*
X157059333Y-30761295D02*
X157059333Y-30904152D01*
X157059333Y-30904152D02*
X157011714Y-30999390D01*
X157011714Y-30999390D02*
X156964095Y-31047009D01*
X156964095Y-31047009D02*
X156868857Y-31094628D01*
X156868857Y-31094628D02*
X156487905Y-31094628D01*
X157392667Y-30570819D02*
X158059333Y-30570819D01*
X158059333Y-30570819D02*
X157630762Y-31570819D01*
X167139580Y-58300857D02*
X167187200Y-58348476D01*
X167187200Y-58348476D02*
X167234819Y-58491333D01*
X167234819Y-58491333D02*
X167234819Y-58586571D01*
X167234819Y-58586571D02*
X167187200Y-58729428D01*
X167187200Y-58729428D02*
X167091961Y-58824666D01*
X167091961Y-58824666D02*
X166996723Y-58872285D01*
X166996723Y-58872285D02*
X166806247Y-58919904D01*
X166806247Y-58919904D02*
X166663390Y-58919904D01*
X166663390Y-58919904D02*
X166472914Y-58872285D01*
X166472914Y-58872285D02*
X166377676Y-58824666D01*
X166377676Y-58824666D02*
X166282438Y-58729428D01*
X166282438Y-58729428D02*
X166234819Y-58586571D01*
X166234819Y-58586571D02*
X166234819Y-58491333D01*
X166234819Y-58491333D02*
X166282438Y-58348476D01*
X166282438Y-58348476D02*
X166330057Y-58300857D01*
X167234819Y-57348476D02*
X167234819Y-57919904D01*
X167234819Y-57634190D02*
X166234819Y-57634190D01*
X166234819Y-57634190D02*
X166377676Y-57729428D01*
X166377676Y-57729428D02*
X166472914Y-57824666D01*
X166472914Y-57824666D02*
X166520533Y-57919904D01*
X167234819Y-56396095D02*
X167234819Y-56967523D01*
X167234819Y-56681809D02*
X166234819Y-56681809D01*
X166234819Y-56681809D02*
X166377676Y-56777047D01*
X166377676Y-56777047D02*
X166472914Y-56872285D01*
X166472914Y-56872285D02*
X166520533Y-56967523D01*
X133814819Y-52423333D02*
X134529104Y-52423333D01*
X134529104Y-52423333D02*
X134671961Y-52470952D01*
X134671961Y-52470952D02*
X134767200Y-52566190D01*
X134767200Y-52566190D02*
X134814819Y-52709047D01*
X134814819Y-52709047D02*
X134814819Y-52804285D01*
X134814819Y-51899523D02*
X134814819Y-51709047D01*
X134814819Y-51709047D02*
X134767200Y-51613809D01*
X134767200Y-51613809D02*
X134719580Y-51566190D01*
X134719580Y-51566190D02*
X134576723Y-51470952D01*
X134576723Y-51470952D02*
X134386247Y-51423333D01*
X134386247Y-51423333D02*
X134005295Y-51423333D01*
X134005295Y-51423333D02*
X133910057Y-51470952D01*
X133910057Y-51470952D02*
X133862438Y-51518571D01*
X133862438Y-51518571D02*
X133814819Y-51613809D01*
X133814819Y-51613809D02*
X133814819Y-51804285D01*
X133814819Y-51804285D02*
X133862438Y-51899523D01*
X133862438Y-51899523D02*
X133910057Y-51947142D01*
X133910057Y-51947142D02*
X134005295Y-51994761D01*
X134005295Y-51994761D02*
X134243390Y-51994761D01*
X134243390Y-51994761D02*
X134338628Y-51947142D01*
X134338628Y-51947142D02*
X134386247Y-51899523D01*
X134386247Y-51899523D02*
X134433866Y-51804285D01*
X134433866Y-51804285D02*
X134433866Y-51613809D01*
X134433866Y-51613809D02*
X134386247Y-51518571D01*
X134386247Y-51518571D02*
X134338628Y-51470952D01*
X134338628Y-51470952D02*
X134243390Y-51423333D01*
X176583142Y-59443580D02*
X176535523Y-59491200D01*
X176535523Y-59491200D02*
X176392666Y-59538819D01*
X176392666Y-59538819D02*
X176297428Y-59538819D01*
X176297428Y-59538819D02*
X176154571Y-59491200D01*
X176154571Y-59491200D02*
X176059333Y-59395961D01*
X176059333Y-59395961D02*
X176011714Y-59300723D01*
X176011714Y-59300723D02*
X175964095Y-59110247D01*
X175964095Y-59110247D02*
X175964095Y-58967390D01*
X175964095Y-58967390D02*
X176011714Y-58776914D01*
X176011714Y-58776914D02*
X176059333Y-58681676D01*
X176059333Y-58681676D02*
X176154571Y-58586438D01*
X176154571Y-58586438D02*
X176297428Y-58538819D01*
X176297428Y-58538819D02*
X176392666Y-58538819D01*
X176392666Y-58538819D02*
X176535523Y-58586438D01*
X176535523Y-58586438D02*
X176583142Y-58634057D01*
X177535523Y-59538819D02*
X176964095Y-59538819D01*
X177249809Y-59538819D02*
X177249809Y-58538819D01*
X177249809Y-58538819D02*
X177154571Y-58681676D01*
X177154571Y-58681676D02*
X177059333Y-58776914D01*
X177059333Y-58776914D02*
X176964095Y-58824533D01*
X178392666Y-58538819D02*
X178202190Y-58538819D01*
X178202190Y-58538819D02*
X178106952Y-58586438D01*
X178106952Y-58586438D02*
X178059333Y-58634057D01*
X178059333Y-58634057D02*
X177964095Y-58776914D01*
X177964095Y-58776914D02*
X177916476Y-58967390D01*
X177916476Y-58967390D02*
X177916476Y-59348342D01*
X177916476Y-59348342D02*
X177964095Y-59443580D01*
X177964095Y-59443580D02*
X178011714Y-59491200D01*
X178011714Y-59491200D02*
X178106952Y-59538819D01*
X178106952Y-59538819D02*
X178297428Y-59538819D01*
X178297428Y-59538819D02*
X178392666Y-59491200D01*
X178392666Y-59491200D02*
X178440285Y-59443580D01*
X178440285Y-59443580D02*
X178487904Y-59348342D01*
X178487904Y-59348342D02*
X178487904Y-59110247D01*
X178487904Y-59110247D02*
X178440285Y-59015009D01*
X178440285Y-59015009D02*
X178392666Y-58967390D01*
X178392666Y-58967390D02*
X178297428Y-58919771D01*
X178297428Y-58919771D02*
X178106952Y-58919771D01*
X178106952Y-58919771D02*
X178011714Y-58967390D01*
X178011714Y-58967390D02*
X177964095Y-59015009D01*
X177964095Y-59015009D02*
X177916476Y-59110247D01*
X214971333Y-34870819D02*
X214638000Y-34394628D01*
X214399905Y-34870819D02*
X214399905Y-33870819D01*
X214399905Y-33870819D02*
X214780857Y-33870819D01*
X214780857Y-33870819D02*
X214876095Y-33918438D01*
X214876095Y-33918438D02*
X214923714Y-33966057D01*
X214923714Y-33966057D02*
X214971333Y-34061295D01*
X214971333Y-34061295D02*
X214971333Y-34204152D01*
X214971333Y-34204152D02*
X214923714Y-34299390D01*
X214923714Y-34299390D02*
X214876095Y-34347009D01*
X214876095Y-34347009D02*
X214780857Y-34394628D01*
X214780857Y-34394628D02*
X214399905Y-34394628D01*
X215304667Y-33870819D02*
X215923714Y-33870819D01*
X215923714Y-33870819D02*
X215590381Y-34251771D01*
X215590381Y-34251771D02*
X215733238Y-34251771D01*
X215733238Y-34251771D02*
X215828476Y-34299390D01*
X215828476Y-34299390D02*
X215876095Y-34347009D01*
X215876095Y-34347009D02*
X215923714Y-34442247D01*
X215923714Y-34442247D02*
X215923714Y-34680342D01*
X215923714Y-34680342D02*
X215876095Y-34775580D01*
X215876095Y-34775580D02*
X215828476Y-34823200D01*
X215828476Y-34823200D02*
X215733238Y-34870819D01*
X215733238Y-34870819D02*
X215447524Y-34870819D01*
X215447524Y-34870819D02*
X215352286Y-34823200D01*
X215352286Y-34823200D02*
X215304667Y-34775580D01*
X199390095Y-55152819D02*
X199390095Y-55962342D01*
X199390095Y-55962342D02*
X199437714Y-56057580D01*
X199437714Y-56057580D02*
X199485333Y-56105200D01*
X199485333Y-56105200D02*
X199580571Y-56152819D01*
X199580571Y-56152819D02*
X199771047Y-56152819D01*
X199771047Y-56152819D02*
X199866285Y-56105200D01*
X199866285Y-56105200D02*
X199913904Y-56057580D01*
X199913904Y-56057580D02*
X199961523Y-55962342D01*
X199961523Y-55962342D02*
X199961523Y-55152819D01*
X200390095Y-55248057D02*
X200437714Y-55200438D01*
X200437714Y-55200438D02*
X200532952Y-55152819D01*
X200532952Y-55152819D02*
X200771047Y-55152819D01*
X200771047Y-55152819D02*
X200866285Y-55200438D01*
X200866285Y-55200438D02*
X200913904Y-55248057D01*
X200913904Y-55248057D02*
X200961523Y-55343295D01*
X200961523Y-55343295D02*
X200961523Y-55438533D01*
X200961523Y-55438533D02*
X200913904Y-55581390D01*
X200913904Y-55581390D02*
X200342476Y-56152819D01*
X200342476Y-56152819D02*
X200961523Y-56152819D01*
X197358666Y-51518819D02*
X197358666Y-52233104D01*
X197358666Y-52233104D02*
X197311047Y-52375961D01*
X197311047Y-52375961D02*
X197215809Y-52471200D01*
X197215809Y-52471200D02*
X197072952Y-52518819D01*
X197072952Y-52518819D02*
X196977714Y-52518819D01*
X198263428Y-51852152D02*
X198263428Y-52518819D01*
X198025333Y-51471200D02*
X197787238Y-52185485D01*
X197787238Y-52185485D02*
X198406285Y-52185485D01*
X161885333Y-29284819D02*
X161552000Y-28808628D01*
X161313905Y-29284819D02*
X161313905Y-28284819D01*
X161313905Y-28284819D02*
X161694857Y-28284819D01*
X161694857Y-28284819D02*
X161790095Y-28332438D01*
X161790095Y-28332438D02*
X161837714Y-28380057D01*
X161837714Y-28380057D02*
X161885333Y-28475295D01*
X161885333Y-28475295D02*
X161885333Y-28618152D01*
X161885333Y-28618152D02*
X161837714Y-28713390D01*
X161837714Y-28713390D02*
X161790095Y-28761009D01*
X161790095Y-28761009D02*
X161694857Y-28808628D01*
X161694857Y-28808628D02*
X161313905Y-28808628D01*
X162456762Y-28713390D02*
X162361524Y-28665771D01*
X162361524Y-28665771D02*
X162313905Y-28618152D01*
X162313905Y-28618152D02*
X162266286Y-28522914D01*
X162266286Y-28522914D02*
X162266286Y-28475295D01*
X162266286Y-28475295D02*
X162313905Y-28380057D01*
X162313905Y-28380057D02*
X162361524Y-28332438D01*
X162361524Y-28332438D02*
X162456762Y-28284819D01*
X162456762Y-28284819D02*
X162647238Y-28284819D01*
X162647238Y-28284819D02*
X162742476Y-28332438D01*
X162742476Y-28332438D02*
X162790095Y-28380057D01*
X162790095Y-28380057D02*
X162837714Y-28475295D01*
X162837714Y-28475295D02*
X162837714Y-28522914D01*
X162837714Y-28522914D02*
X162790095Y-28618152D01*
X162790095Y-28618152D02*
X162742476Y-28665771D01*
X162742476Y-28665771D02*
X162647238Y-28713390D01*
X162647238Y-28713390D02*
X162456762Y-28713390D01*
X162456762Y-28713390D02*
X162361524Y-28761009D01*
X162361524Y-28761009D02*
X162313905Y-28808628D01*
X162313905Y-28808628D02*
X162266286Y-28903866D01*
X162266286Y-28903866D02*
X162266286Y-29094342D01*
X162266286Y-29094342D02*
X162313905Y-29189580D01*
X162313905Y-29189580D02*
X162361524Y-29237200D01*
X162361524Y-29237200D02*
X162456762Y-29284819D01*
X162456762Y-29284819D02*
X162647238Y-29284819D01*
X162647238Y-29284819D02*
X162742476Y-29237200D01*
X162742476Y-29237200D02*
X162790095Y-29189580D01*
X162790095Y-29189580D02*
X162837714Y-29094342D01*
X162837714Y-29094342D02*
X162837714Y-28903866D01*
X162837714Y-28903866D02*
X162790095Y-28808628D01*
X162790095Y-28808628D02*
X162742476Y-28761009D01*
X162742476Y-28761009D02*
X162647238Y-28713390D01*
D11*
X99090237Y-86934318D02*
X99090237Y-85664318D01*
X100420714Y-86813365D02*
X100360238Y-86873842D01*
X100360238Y-86873842D02*
X100178809Y-86934318D01*
X100178809Y-86934318D02*
X100057857Y-86934318D01*
X100057857Y-86934318D02*
X99876428Y-86873842D01*
X99876428Y-86873842D02*
X99755476Y-86752889D01*
X99755476Y-86752889D02*
X99694999Y-86631937D01*
X99694999Y-86631937D02*
X99634523Y-86390032D01*
X99634523Y-86390032D02*
X99634523Y-86208603D01*
X99634523Y-86208603D02*
X99694999Y-85966699D01*
X99694999Y-85966699D02*
X99755476Y-85845746D01*
X99755476Y-85845746D02*
X99876428Y-85724794D01*
X99876428Y-85724794D02*
X100057857Y-85664318D01*
X100057857Y-85664318D02*
X100178809Y-85664318D01*
X100178809Y-85664318D02*
X100360238Y-85724794D01*
X100360238Y-85724794D02*
X100420714Y-85785270D01*
X101630238Y-86934318D02*
X100904523Y-86934318D01*
X101267380Y-86934318D02*
X101267380Y-85664318D01*
X101267380Y-85664318D02*
X101146428Y-85845746D01*
X101146428Y-85845746D02*
X101025476Y-85966699D01*
X101025476Y-85966699D02*
X100904523Y-86027175D01*
D10*
X133814819Y-43533333D02*
X134529104Y-43533333D01*
X134529104Y-43533333D02*
X134671961Y-43580952D01*
X134671961Y-43580952D02*
X134767200Y-43676190D01*
X134767200Y-43676190D02*
X134814819Y-43819047D01*
X134814819Y-43819047D02*
X134814819Y-43914285D01*
X133814819Y-43152380D02*
X133814819Y-42485714D01*
X133814819Y-42485714D02*
X134814819Y-42914285D01*
X169998819Y-35218666D02*
X169522628Y-35551999D01*
X169998819Y-35790094D02*
X168998819Y-35790094D01*
X168998819Y-35790094D02*
X168998819Y-35409142D01*
X168998819Y-35409142D02*
X169046438Y-35313904D01*
X169046438Y-35313904D02*
X169094057Y-35266285D01*
X169094057Y-35266285D02*
X169189295Y-35218666D01*
X169189295Y-35218666D02*
X169332152Y-35218666D01*
X169332152Y-35218666D02*
X169427390Y-35266285D01*
X169427390Y-35266285D02*
X169475009Y-35313904D01*
X169475009Y-35313904D02*
X169522628Y-35409142D01*
X169522628Y-35409142D02*
X169522628Y-35790094D01*
X169332152Y-34361523D02*
X169998819Y-34361523D01*
X168951200Y-34599618D02*
X169665485Y-34837713D01*
X169665485Y-34837713D02*
X169665485Y-34218666D01*
X182566666Y-67024819D02*
X182566666Y-67739104D01*
X182566666Y-67739104D02*
X182519047Y-67881961D01*
X182519047Y-67881961D02*
X182423809Y-67977200D01*
X182423809Y-67977200D02*
X182280952Y-68024819D01*
X182280952Y-68024819D02*
X182185714Y-68024819D01*
X183566666Y-68024819D02*
X182995238Y-68024819D01*
X183280952Y-68024819D02*
X183280952Y-67024819D01*
X183280952Y-67024819D02*
X183185714Y-67167676D01*
X183185714Y-67167676D02*
X183090476Y-67262914D01*
X183090476Y-67262914D02*
X182995238Y-67310533D01*
X209191905Y-29124819D02*
X209191905Y-28124819D01*
X209191905Y-28124819D02*
X209430000Y-28124819D01*
X209430000Y-28124819D02*
X209572857Y-28172438D01*
X209572857Y-28172438D02*
X209668095Y-28267676D01*
X209668095Y-28267676D02*
X209715714Y-28362914D01*
X209715714Y-28362914D02*
X209763333Y-28553390D01*
X209763333Y-28553390D02*
X209763333Y-28696247D01*
X209763333Y-28696247D02*
X209715714Y-28886723D01*
X209715714Y-28886723D02*
X209668095Y-28981961D01*
X209668095Y-28981961D02*
X209572857Y-29077200D01*
X209572857Y-29077200D02*
X209430000Y-29124819D01*
X209430000Y-29124819D02*
X209191905Y-29124819D01*
X210144286Y-28220057D02*
X210191905Y-28172438D01*
X210191905Y-28172438D02*
X210287143Y-28124819D01*
X210287143Y-28124819D02*
X210525238Y-28124819D01*
X210525238Y-28124819D02*
X210620476Y-28172438D01*
X210620476Y-28172438D02*
X210668095Y-28220057D01*
X210668095Y-28220057D02*
X210715714Y-28315295D01*
X210715714Y-28315295D02*
X210715714Y-28410533D01*
X210715714Y-28410533D02*
X210668095Y-28553390D01*
X210668095Y-28553390D02*
X210096667Y-29124819D01*
X210096667Y-29124819D02*
X210715714Y-29124819D01*
X204978095Y-27534819D02*
X204978095Y-28344342D01*
X204978095Y-28344342D02*
X205025714Y-28439580D01*
X205025714Y-28439580D02*
X205073333Y-28487200D01*
X205073333Y-28487200D02*
X205168571Y-28534819D01*
X205168571Y-28534819D02*
X205359047Y-28534819D01*
X205359047Y-28534819D02*
X205454285Y-28487200D01*
X205454285Y-28487200D02*
X205501904Y-28439580D01*
X205501904Y-28439580D02*
X205549523Y-28344342D01*
X205549523Y-28344342D02*
X205549523Y-27534819D01*
X206549523Y-28534819D02*
X205978095Y-28534819D01*
X206263809Y-28534819D02*
X206263809Y-27534819D01*
X206263809Y-27534819D02*
X206168571Y-27677676D01*
X206168571Y-27677676D02*
X206073333Y-27772914D01*
X206073333Y-27772914D02*
X205978095Y-27820533D01*
X169418095Y-37014819D02*
X169418095Y-37824342D01*
X169418095Y-37824342D02*
X169465714Y-37919580D01*
X169465714Y-37919580D02*
X169513333Y-37967200D01*
X169513333Y-37967200D02*
X169608571Y-38014819D01*
X169608571Y-38014819D02*
X169799047Y-38014819D01*
X169799047Y-38014819D02*
X169894285Y-37967200D01*
X169894285Y-37967200D02*
X169941904Y-37919580D01*
X169941904Y-37919580D02*
X169989523Y-37824342D01*
X169989523Y-37824342D02*
X169989523Y-37014819D01*
X170370476Y-37014819D02*
X170989523Y-37014819D01*
X170989523Y-37014819D02*
X170656190Y-37395771D01*
X170656190Y-37395771D02*
X170799047Y-37395771D01*
X170799047Y-37395771D02*
X170894285Y-37443390D01*
X170894285Y-37443390D02*
X170941904Y-37491009D01*
X170941904Y-37491009D02*
X170989523Y-37586247D01*
X170989523Y-37586247D02*
X170989523Y-37824342D01*
X170989523Y-37824342D02*
X170941904Y-37919580D01*
X170941904Y-37919580D02*
X170894285Y-37967200D01*
X170894285Y-37967200D02*
X170799047Y-38014819D01*
X170799047Y-38014819D02*
X170513333Y-38014819D01*
X170513333Y-38014819D02*
X170418095Y-37967200D01*
X170418095Y-37967200D02*
X170370476Y-37919580D01*
%TO.C,C4*%
D12*
X149125000Y-44523252D02*
X149125000Y-44000748D01*
X150595000Y-44523252D02*
X150595000Y-44000748D01*
%TO.C,D1*%
X207698000Y-23130000D02*
X207698000Y-25130000D01*
X207698000Y-23130000D02*
X211708000Y-23130000D01*
X207698000Y-25130000D02*
X211708000Y-25130000D01*
%TO.C,J13*%
X88970000Y-75130000D02*
X89720000Y-75130000D01*
X89720000Y-72180000D02*
X101520000Y-72180000D01*
X89720000Y-75130000D02*
X89720000Y-72180000D01*
X113120000Y-77680000D02*
X114370000Y-77680000D01*
X113320000Y-72180000D02*
X101520000Y-72180000D01*
X113320000Y-75130000D02*
X113320000Y-72180000D01*
X114070000Y-75130000D02*
X113320000Y-75130000D01*
X114370000Y-77680000D02*
X114370000Y-76430000D01*
X88970000Y-76630000D02*
X90770000Y-76630000D01*
X90770000Y-77380000D01*
X88970000Y-77380000D01*
X88970000Y-76630000D01*
X92270000Y-76630000D02*
X110770000Y-76630000D01*
X110770000Y-77380000D01*
X92270000Y-77380000D01*
X92270000Y-76630000D01*
X112270000Y-76630000D02*
X114070000Y-76630000D01*
X114070000Y-77380000D01*
X112270000Y-77380000D01*
X112270000Y-76630000D01*
X88960000Y-71420000D02*
X114080000Y-71420000D01*
X114080000Y-77390000D01*
X88960000Y-77390000D01*
X88960000Y-71420000D01*
%TO.C,C6*%
X193829000Y-59631252D02*
X193829000Y-59108748D01*
X195299000Y-59631252D02*
X195299000Y-59108748D01*
%TO.C,J10*%
X173038000Y-30016000D02*
X173038000Y-31266000D01*
X173338000Y-32566000D02*
X174088000Y-32566000D01*
X174088000Y-32566000D02*
X174088000Y-35516000D01*
X174088000Y-35516000D02*
X180888000Y-35516000D01*
X174288000Y-30016000D02*
X173038000Y-30016000D01*
X187688000Y-32566000D02*
X187688000Y-35516000D01*
X187688000Y-35516000D02*
X180888000Y-35516000D01*
X188438000Y-32566000D02*
X187688000Y-32566000D01*
X173328000Y-30306000D02*
X188448000Y-30306000D01*
X188448000Y-36276000D01*
X173328000Y-36276000D01*
X173328000Y-30306000D01*
X173338000Y-30316000D02*
X175138000Y-30316000D01*
X175138000Y-31066000D01*
X173338000Y-31066000D01*
X173338000Y-30316000D01*
X176638000Y-30316000D02*
X185138000Y-30316000D01*
X185138000Y-31066000D01*
X176638000Y-31066000D01*
X176638000Y-30316000D01*
X186638000Y-30316000D02*
X188438000Y-30316000D01*
X188438000Y-31066000D01*
X186638000Y-31066000D01*
X186638000Y-30316000D01*
%TO.C,C2*%
X150883252Y-55653000D02*
X150360748Y-55653000D01*
X150883252Y-57123000D02*
X150360748Y-57123000D01*
%TO.C,D4*%
X181195000Y-58984000D02*
X181195000Y-60904000D01*
X181195000Y-60904000D02*
X183880000Y-60904000D01*
X183880000Y-58984000D02*
X181195000Y-58984000D01*
%TO.C,J6*%
X151020000Y-22650000D02*
X151020000Y-23900000D01*
X151320000Y-25200000D02*
X152070000Y-25200000D01*
X152070000Y-25200000D02*
X152070000Y-28150000D01*
X152070000Y-28150000D02*
X161370000Y-28150000D01*
X152270000Y-22650000D02*
X151020000Y-22650000D01*
X170670000Y-25200000D02*
X170670000Y-28150000D01*
X170670000Y-28150000D02*
X161370000Y-28150000D01*
X171420000Y-25200000D02*
X170670000Y-25200000D01*
X151310000Y-22940000D02*
X171430000Y-22940000D01*
X171430000Y-28910000D01*
X151310000Y-28910000D01*
X151310000Y-22940000D01*
X151320000Y-22950000D02*
X153120000Y-22950000D01*
X153120000Y-23700000D01*
X151320000Y-23700000D01*
X151320000Y-22950000D01*
X154620000Y-22950000D02*
X168120000Y-22950000D01*
X168120000Y-23700000D01*
X154620000Y-23700000D01*
X154620000Y-22950000D01*
X169620000Y-22950000D02*
X171420000Y-22950000D01*
X171420000Y-23700000D01*
X169620000Y-23700000D01*
X169620000Y-22950000D01*
%TO.C,J12*%
X206800000Y-36580000D02*
X206800000Y-48380000D01*
X206800000Y-60180000D02*
X206800000Y-48380000D01*
X209750000Y-35830000D02*
X209750000Y-36580000D01*
X209750000Y-36580000D02*
X206800000Y-36580000D01*
X209750000Y-60180000D02*
X206800000Y-60180000D01*
X209750000Y-60930000D02*
X209750000Y-60180000D01*
X212300000Y-35530000D02*
X211050000Y-35530000D01*
X212300000Y-36780000D02*
X212300000Y-35530000D01*
X211250000Y-35830000D02*
X212000000Y-35830000D01*
X212000000Y-37630000D01*
X211250000Y-37630000D01*
X211250000Y-35830000D01*
X211250000Y-39130000D02*
X212000000Y-39130000D01*
X212000000Y-57630000D01*
X211250000Y-57630000D01*
X211250000Y-39130000D01*
X211250000Y-59130000D02*
X212000000Y-59130000D01*
X212000000Y-60930000D01*
X211250000Y-60930000D01*
X211250000Y-59130000D01*
X206040000Y-35820000D02*
X212010000Y-35820000D01*
X212010000Y-60940000D01*
X206040000Y-60940000D01*
X206040000Y-35820000D01*
%TO.C,J8*%
X195370000Y-41652000D02*
X195370000Y-42902000D01*
X195370000Y-42902000D02*
X196620000Y-42902000D01*
X197920000Y-30002000D02*
X197920000Y-30752000D01*
X197920000Y-30752000D02*
X200870000Y-30752000D01*
X197920000Y-41852000D02*
X200870000Y-41852000D01*
X197920000Y-42602000D02*
X197920000Y-41852000D01*
X200870000Y-30752000D02*
X200870000Y-36302000D01*
X200870000Y-41852000D02*
X200870000Y-36302000D01*
X195660000Y-29992000D02*
X201630000Y-29992000D01*
X201630000Y-42612000D01*
X195660000Y-42612000D01*
X195660000Y-29992000D01*
X195670000Y-30002000D02*
X196420000Y-30002000D01*
X196420000Y-31802000D01*
X195670000Y-31802000D01*
X195670000Y-30002000D01*
X195670000Y-33302000D02*
X196420000Y-33302000D01*
X196420000Y-39302000D01*
X195670000Y-39302000D01*
X195670000Y-33302000D01*
X195670000Y-40802000D02*
X196420000Y-40802000D01*
X196420000Y-42602000D01*
X195670000Y-42602000D01*
X195670000Y-40802000D01*
%TO.C,R13*%
X183361064Y-46763000D02*
X182906936Y-46763000D01*
X183361064Y-48233000D02*
X182906936Y-48233000D01*
%TO.C,R9*%
X186663064Y-61495000D02*
X186208936Y-61495000D01*
X186663064Y-62965000D02*
X186208936Y-62965000D01*
%TO.C,R12*%
X150394936Y-48287000D02*
X150849064Y-48287000D01*
X150394936Y-49757000D02*
X150849064Y-49757000D01*
%TO.C,FB1*%
X151021622Y-57860000D02*
X150222378Y-57860000D01*
X151021622Y-58980000D02*
X150222378Y-58980000D01*
%TO.C,R6*%
X214910936Y-29999000D02*
X215365064Y-29999000D01*
X214910936Y-31469000D02*
X215365064Y-31469000D01*
%TO.C,J2*%
X224214500Y-23545000D02*
X226214500Y-23545000D01*
X224214500Y-32945000D02*
X226214500Y-32945000D01*
X228114500Y-23545000D02*
X230014500Y-23545000D01*
X228114500Y-32945000D02*
X230014500Y-32945000D01*
X230014500Y-32945000D02*
X230014500Y-23545000D01*
%TO.C,C1*%
X219209252Y-23395000D02*
X218686748Y-23395000D01*
X219209252Y-24865000D02*
X218686748Y-24865000D01*
%TO.C,R7*%
X156998936Y-32031000D02*
X157453064Y-32031000D01*
X156998936Y-33501000D02*
X157453064Y-33501000D01*
%TO.C,C11*%
X164365000Y-57396748D02*
X164365000Y-57919252D01*
X165835000Y-57396748D02*
X165835000Y-57919252D01*
%TO.C,R5*%
X215014436Y-27967000D02*
X215468564Y-27967000D01*
X215014436Y-29437000D02*
X215468564Y-29437000D01*
%TO.C,C14*%
X164838748Y-33555000D02*
X165361252Y-33555000D01*
X164838748Y-35025000D02*
X165361252Y-35025000D01*
%TO.C,C8*%
X162313252Y-37873000D02*
X161790748Y-37873000D01*
X162313252Y-39343000D02*
X161790748Y-39343000D01*
%TO.C,J9*%
X128060000Y-49040000D02*
X128060000Y-52090000D01*
X128060000Y-55140000D02*
X128060000Y-52090000D01*
X131010000Y-48290000D02*
X131010000Y-49040000D01*
X131010000Y-49040000D02*
X128060000Y-49040000D01*
X131010000Y-55140000D02*
X128060000Y-55140000D01*
X131010000Y-55890000D02*
X131010000Y-55140000D01*
X133560000Y-47990000D02*
X132310000Y-47990000D01*
X133560000Y-49240000D02*
X133560000Y-47990000D01*
X132510000Y-48290000D02*
X133260000Y-48290000D01*
X133260000Y-50090000D01*
X132510000Y-50090000D01*
X132510000Y-48290000D01*
X132510000Y-51590000D02*
X133260000Y-51590000D01*
X133260000Y-52590000D01*
X132510000Y-52590000D01*
X132510000Y-51590000D01*
X132510000Y-54090000D02*
X133260000Y-54090000D01*
X133260000Y-55890000D01*
X132510000Y-55890000D01*
X132510000Y-54090000D01*
X127300000Y-48280000D02*
X133270000Y-48280000D01*
X133270000Y-55900000D01*
X127300000Y-55900000D01*
X127300000Y-48280000D01*
%TO.C,J11*%
X161100000Y-68370000D02*
X161100000Y-69620000D01*
X161400000Y-70920000D02*
X162150000Y-70920000D01*
X162150000Y-70920000D02*
X162150000Y-73870000D01*
X162150000Y-73870000D02*
X168950000Y-73870000D01*
X162350000Y-68370000D02*
X161100000Y-68370000D01*
X175750000Y-70920000D02*
X175750000Y-73870000D01*
X175750000Y-73870000D02*
X168950000Y-73870000D01*
X176500000Y-70920000D02*
X175750000Y-70920000D01*
X161390000Y-68660000D02*
X176510000Y-68660000D01*
X176510000Y-74630000D01*
X161390000Y-74630000D01*
X161390000Y-68660000D01*
X161400000Y-68670000D02*
X163200000Y-68670000D01*
X163200000Y-69420000D01*
X161400000Y-69420000D01*
X161400000Y-68670000D01*
X164700000Y-68670000D02*
X173200000Y-68670000D01*
X173200000Y-69420000D01*
X164700000Y-69420000D01*
X164700000Y-68670000D01*
X174700000Y-68670000D02*
X176500000Y-68670000D01*
X176500000Y-69420000D01*
X174700000Y-69420000D01*
X174700000Y-68670000D01*
%TO.C,C16*%
X177487252Y-56669000D02*
X176964748Y-56669000D01*
X177487252Y-58139000D02*
X176964748Y-58139000D01*
%TO.C,R3*%
X215365064Y-32031000D02*
X214910936Y-32031000D01*
X215365064Y-33501000D02*
X214910936Y-33501000D01*
%TO.C,C10*%
X178234748Y-54637000D02*
X178757252Y-54637000D01*
X178234748Y-56107000D02*
X178757252Y-56107000D01*
%TO.C,C9*%
X177827000Y-39123252D02*
X177827000Y-38600748D01*
X179297000Y-39123252D02*
X179297000Y-38600748D01*
%TO.C,C3*%
X152915252Y-42699000D02*
X152392748Y-42699000D01*
X152915252Y-44169000D02*
X152392748Y-44169000D01*
%TO.C,F1*%
X215335564Y-23474000D02*
X214131436Y-23474000D01*
X215335564Y-25294000D02*
X214131436Y-25294000D01*
%TO.C,C17*%
X179859000Y-40378748D02*
X179859000Y-40901252D01*
X181329000Y-40378748D02*
X181329000Y-40901252D01*
%TO.C,D3*%
X181066000Y-61270000D02*
X181066000Y-63190000D01*
X181066000Y-63190000D02*
X183751000Y-63190000D01*
X183751000Y-61270000D02*
X181066000Y-61270000D01*
%TO.C,C13*%
X151137252Y-40667000D02*
X150614748Y-40667000D01*
X151137252Y-42137000D02*
X150614748Y-42137000D01*
%TO.C,J3*%
X147364000Y-60684000D02*
X147364000Y-69984000D01*
X147364000Y-79284000D02*
X147364000Y-69984000D01*
X150314000Y-59934000D02*
X150314000Y-60684000D01*
X150314000Y-60684000D02*
X147364000Y-60684000D01*
X150314000Y-79284000D02*
X147364000Y-79284000D01*
X150314000Y-80034000D02*
X150314000Y-79284000D01*
X152864000Y-59634000D02*
X151614000Y-59634000D01*
X152864000Y-60884000D02*
X152864000Y-59634000D01*
X151814000Y-59934000D02*
X152564000Y-59934000D01*
X152564000Y-61734000D01*
X151814000Y-61734000D01*
X151814000Y-59934000D01*
X151814000Y-63234000D02*
X152564000Y-63234000D01*
X152564000Y-76734000D01*
X151814000Y-76734000D01*
X151814000Y-63234000D01*
X151814000Y-78234000D02*
X152564000Y-78234000D01*
X152564000Y-80034000D01*
X151814000Y-80034000D01*
X151814000Y-78234000D01*
X146604000Y-59924000D02*
X152574000Y-59924000D01*
X152574000Y-80044000D01*
X146604000Y-80044000D01*
X146604000Y-59924000D01*
%TO.C,U2*%
X198302000Y-56788000D02*
X202062000Y-56788000D01*
X198302000Y-63608000D02*
X202062000Y-63608000D01*
X202062000Y-56788000D02*
X202062000Y-58048000D01*
X202062000Y-63608000D02*
X202062000Y-62348000D01*
X197022000Y-56888000D02*
X196782000Y-56558000D01*
X197262000Y-56558000D01*
X197022000Y-56888000D01*
G36*
X197022000Y-56888000D02*
G01*
X196782000Y-56558000D01*
X197262000Y-56558000D01*
X197022000Y-56888000D01*
G37*
%TO.C,R11*%
X150849064Y-53367000D02*
X150394936Y-53367000D01*
X150849064Y-54837000D02*
X150394936Y-54837000D01*
%TO.C,J4*%
X190142000Y-48714000D02*
X190892000Y-48714000D01*
X190892000Y-45764000D02*
X197692000Y-45764000D01*
X190892000Y-48714000D02*
X190892000Y-45764000D01*
X204292000Y-51264000D02*
X205542000Y-51264000D01*
X204492000Y-45764000D02*
X197692000Y-45764000D01*
X204492000Y-48714000D02*
X204492000Y-45764000D01*
X205242000Y-48714000D02*
X204492000Y-48714000D01*
X205542000Y-51264000D02*
X205542000Y-50014000D01*
X190142000Y-50214000D02*
X191942000Y-50214000D01*
X191942000Y-50964000D01*
X190142000Y-50964000D01*
X190142000Y-50214000D01*
X193442000Y-50214000D02*
X201942000Y-50214000D01*
X201942000Y-50964000D01*
X193442000Y-50964000D01*
X193442000Y-50214000D01*
X203442000Y-50214000D02*
X205242000Y-50214000D01*
X205242000Y-50964000D01*
X203442000Y-50964000D01*
X203442000Y-50214000D01*
X190132000Y-45004000D02*
X205252000Y-45004000D01*
X205252000Y-50974000D01*
X190132000Y-50974000D01*
X190132000Y-45004000D01*
%TO.C,R10*%
X186663064Y-59463000D02*
X186208936Y-59463000D01*
X186663064Y-60933000D02*
X186208936Y-60933000D01*
%TO.C,R8*%
X161824936Y-29745000D02*
X162279064Y-29745000D01*
X161824936Y-31215000D02*
X162279064Y-31215000D01*
%TO.C,IC1*%
D13*
X96655000Y-83510000D02*
X98130000Y-83510000D01*
X98480000Y-83860000D02*
X102180000Y-83860000D01*
X98480000Y-88860000D02*
X98480000Y-83860000D01*
X102180000Y-83860000D02*
X102180000Y-88860000D01*
X102180000Y-88860000D02*
X98480000Y-88860000D01*
%TO.C,C5*%
D12*
X197350748Y-64035000D02*
X197873252Y-64035000D01*
X197350748Y-65505000D02*
X197873252Y-65505000D01*
%TO.C,R14*%
X182906936Y-42699000D02*
X183361064Y-42699000D01*
X182906936Y-44169000D02*
X183361064Y-44169000D01*
%TO.C,C7*%
X146550748Y-56161000D02*
X147073252Y-56161000D01*
X146550748Y-57631000D02*
X147073252Y-57631000D01*
%TO.C,R1*%
X218720936Y-21363000D02*
X219175064Y-21363000D01*
X218720936Y-22833000D02*
X219175064Y-22833000D01*
%TO.C,J7*%
X128060000Y-40150000D02*
X128060000Y-43200000D01*
X128060000Y-46250000D02*
X128060000Y-43200000D01*
X131010000Y-39400000D02*
X131010000Y-40150000D01*
X131010000Y-40150000D02*
X128060000Y-40150000D01*
X131010000Y-46250000D02*
X128060000Y-46250000D01*
X131010000Y-47000000D02*
X131010000Y-46250000D01*
X133560000Y-39100000D02*
X132310000Y-39100000D01*
X133560000Y-40350000D02*
X133560000Y-39100000D01*
X132510000Y-39400000D02*
X133260000Y-39400000D01*
X133260000Y-41200000D01*
X132510000Y-41200000D01*
X132510000Y-39400000D01*
X132510000Y-42700000D02*
X133260000Y-42700000D01*
X133260000Y-43700000D01*
X132510000Y-43700000D01*
X132510000Y-42700000D01*
X132510000Y-45200000D02*
X133260000Y-45200000D01*
X133260000Y-47000000D01*
X132510000Y-47000000D01*
X132510000Y-45200000D01*
X127300000Y-39390000D02*
X133270000Y-39390000D01*
X133270000Y-47010000D01*
X127300000Y-47010000D01*
X127300000Y-39390000D01*
%TO.C,C15*%
X150360748Y-46255000D02*
X150883252Y-46255000D01*
X150360748Y-47725000D02*
X150883252Y-47725000D01*
%TO.C,C12*%
X150883252Y-51335000D02*
X150360748Y-51335000D01*
X150883252Y-52805000D02*
X150360748Y-52805000D01*
%TO.C,SW1*%
X165306000Y-30096000D02*
X168606000Y-30096000D01*
X165306000Y-30396000D02*
X165306000Y-30096000D01*
X165306000Y-32596000D02*
X165306000Y-32896000D01*
X165306000Y-32896000D02*
X168606000Y-32896000D01*
X168606000Y-30096000D02*
X168606000Y-30396000D01*
X168606000Y-32896000D02*
X168606000Y-32596000D01*
%TO.C,SW2*%
X144654000Y-41780000D02*
X147954000Y-41780000D01*
X144654000Y-42080000D02*
X144654000Y-41780000D01*
X144654000Y-44280000D02*
X144654000Y-44580000D01*
X144654000Y-44580000D02*
X147954000Y-44580000D01*
X147954000Y-41780000D02*
X147954000Y-42080000D01*
X147954000Y-44580000D02*
X147954000Y-44280000D01*
%TO.C,Y1*%
X144348000Y-45296000D02*
X144698000Y-45296000D01*
X144698000Y-45246000D02*
X148418000Y-45246000D01*
X144698000Y-45296000D02*
X144698000Y-45246000D01*
X144698000Y-47416000D02*
X144348000Y-47416000D01*
X144698000Y-48596000D02*
X144698000Y-47416000D01*
X144698000Y-50766000D02*
X144698000Y-50716000D01*
X148418000Y-45246000D02*
X148418000Y-45296000D01*
X148418000Y-47416000D02*
X148418000Y-48596000D01*
X148418000Y-50716000D02*
X148418000Y-50766000D01*
X148418000Y-50766000D02*
X144698000Y-50766000D01*
%TO.C,J5*%
X172670000Y-26870000D02*
X173420000Y-26870000D01*
X173420000Y-23920000D02*
X178970000Y-23920000D01*
X173420000Y-26870000D02*
X173420000Y-23920000D01*
X184320000Y-29420000D02*
X185570000Y-29420000D01*
X184520000Y-23920000D02*
X178970000Y-23920000D01*
X184520000Y-26870000D02*
X184520000Y-23920000D01*
X185270000Y-26870000D02*
X184520000Y-26870000D01*
X185570000Y-29420000D02*
X185570000Y-28170000D01*
X172670000Y-28370000D02*
X174470000Y-28370000D01*
X174470000Y-29120000D01*
X172670000Y-29120000D01*
X172670000Y-28370000D01*
X175970000Y-28370000D02*
X181970000Y-28370000D01*
X181970000Y-29120000D01*
X175970000Y-29120000D01*
X175970000Y-28370000D01*
X183470000Y-28370000D02*
X185270000Y-28370000D01*
X185270000Y-29120000D01*
X183470000Y-29120000D01*
X183470000Y-28370000D01*
X172660000Y-23160000D02*
X185280000Y-23160000D01*
X185280000Y-29130000D01*
X172660000Y-29130000D01*
X172660000Y-23160000D01*
%TO.C,R4*%
X167159000Y-34824936D02*
X167159000Y-35279064D01*
X168629000Y-34824936D02*
X168629000Y-35279064D01*
%TO.C,R15*%
X182906936Y-44633000D02*
X183361064Y-44633000D01*
X182906936Y-46103000D02*
X183361064Y-46103000D01*
%TO.C,J1*%
X178800000Y-68370000D02*
X178800000Y-69620000D01*
X179100000Y-70920000D02*
X179850000Y-70920000D01*
X179850000Y-70920000D02*
X179850000Y-73870000D01*
X179850000Y-73870000D02*
X182900000Y-73870000D01*
X180050000Y-68370000D02*
X178800000Y-68370000D01*
X185950000Y-70920000D02*
X185950000Y-73870000D01*
X185950000Y-73870000D02*
X182900000Y-73870000D01*
X186700000Y-70920000D02*
X185950000Y-70920000D01*
X179090000Y-68660000D02*
X186710000Y-68660000D01*
X186710000Y-74630000D01*
X179090000Y-74630000D01*
X179090000Y-68660000D01*
X179100000Y-68670000D02*
X180900000Y-68670000D01*
X180900000Y-69420000D01*
X179100000Y-69420000D01*
X179100000Y-68670000D01*
X182400000Y-68670000D02*
X183400000Y-68670000D01*
X183400000Y-69420000D01*
X182400000Y-69420000D01*
X182400000Y-68670000D01*
X184900000Y-68670000D02*
X186700000Y-68670000D01*
X186700000Y-69420000D01*
X184900000Y-69420000D01*
X184900000Y-68670000D01*
%TO.C,R2*%
X215468564Y-25935000D02*
X215014436Y-25935000D01*
X215468564Y-27405000D02*
X215014436Y-27405000D01*
%TO.C,D2*%
X212290000Y-25670000D02*
X208280000Y-25670000D01*
X212290000Y-27670000D02*
X208280000Y-27670000D01*
X212290000Y-27670000D02*
X212290000Y-25670000D01*
%TO.C,U1*%
X204830000Y-28920000D02*
X206650000Y-28920000D01*
X204830000Y-28970000D02*
X204830000Y-28920000D01*
X204830000Y-32040000D02*
X204830000Y-31990000D01*
X206650000Y-28920000D02*
X206650000Y-28970000D01*
X206650000Y-31990000D02*
X206650000Y-32040000D01*
X206650000Y-32040000D02*
X204830000Y-32040000D01*
X204290000Y-28970000D02*
X204050000Y-28640000D01*
X204530000Y-28640000D01*
X204290000Y-28970000D01*
G36*
X204290000Y-28970000D02*
G01*
X204050000Y-28640000D01*
X204530000Y-28640000D01*
X204290000Y-28970000D01*
G37*
%TO.C,U3*%
X163070000Y-39880000D02*
X163770000Y-39880000D01*
X163070000Y-40580000D02*
X163070000Y-39880000D01*
X163070000Y-54100000D02*
X163070000Y-53400000D01*
X163770000Y-54100000D02*
X163070000Y-54100000D01*
X176590000Y-39880000D02*
X177290000Y-39880000D01*
X177290000Y-39880000D02*
X177290000Y-40580000D01*
X177290000Y-53400000D02*
X177290000Y-54100000D01*
X177290000Y-54100000D02*
X176590000Y-54100000D01*
X162430000Y-40580000D02*
X162090000Y-40110000D01*
X162770000Y-40110000D01*
X162430000Y-40580000D01*
G36*
X162430000Y-40580000D02*
G01*
X162090000Y-40110000D01*
X162770000Y-40110000D01*
X162430000Y-40580000D01*
G37*
%TD*%
M02*
