%TF.GenerationSoftware,KiCad,Pcbnew,10.0.2*%
%TF.CreationDate,2026-05-25T19:48:45-07:00*%
%TF.ProjectId,Wheel,57686565-6c2e-46b6-9963-61645f706362,rev?*%
%TF.SameCoordinates,Original*%
%TF.FileFunction,Copper,L1,Top*%
%TF.FilePolarity,Positive*%
%FSLAX46Y46*%
G04 Gerber Fmt 4.6, Leading zero omitted, Abs format (unit mm)*
G04 Created by KiCad (PCBNEW 10.0.2) date 2026-05-25 19:48:45*
%MOMM*%
%LPD*%
G01*
G04 APERTURE LIST*
G04 Aperture macros list*
%AMRoundRect*
0 Rectangle with rounded corners*
0 $1 Rounding radius*
0 $2 $3 $4 $5 $6 $7 $8 $9 X,Y pos of 4 corners*
0 Add a 4 corners polygon primitive as box body*
4,1,4,$2,$3,$4,$5,$6,$7,$8,$9,$2,$3,0*
0 Add four circle primitives for the rounded corners*
1,1,$1+$1,$2,$3*
1,1,$1+$1,$4,$5*
1,1,$1+$1,$6,$7*
1,1,$1+$1,$8,$9*
0 Add four rect primitives between the rounded corners*
20,1,$1+$1,$2,$3,$4,$5,0*
20,1,$1+$1,$4,$5,$6,$7,0*
20,1,$1+$1,$6,$7,$8,$9,0*
20,1,$1+$1,$8,$9,$2,$3,0*%
G04 Aperture macros list end*
%TA.AperFunction,SMDPad,CuDef*%
%ADD10RoundRect,0.225000X-0.225000X-0.250000X0.225000X-0.250000X0.225000X0.250000X-0.225000X0.250000X0*%
%TD*%
%TA.AperFunction,SMDPad,CuDef*%
%ADD11RoundRect,0.250000X-0.250000X-0.475000X0.250000X-0.475000X0.250000X0.475000X-0.250000X0.475000X0*%
%TD*%
%TA.AperFunction,ComponentPad*%
%ADD12R,1.700000X1.700000*%
%TD*%
%TA.AperFunction,ComponentPad*%
%ADD13C,1.700000*%
%TD*%
%TA.AperFunction,SMDPad,CuDef*%
%ADD14RoundRect,0.250000X0.950000X-0.750000X0.950000X0.750000X-0.950000X0.750000X-0.950000X-0.750000X0*%
%TD*%
%TA.AperFunction,SMDPad,CuDef*%
%ADD15RoundRect,0.375000X-0.625000X-0.375000X0.625000X-0.375000X0.625000X0.375000X-0.625000X0.375000X0*%
%TD*%
%TA.AperFunction,SMDPad,CuDef*%
%ADD16RoundRect,0.500000X-0.500000X-1.400000X0.500000X-1.400000X0.500000X1.400000X-0.500000X1.400000X0*%
%TD*%
%TA.AperFunction,SMDPad,CuDef*%
%ADD17RoundRect,0.150000X-0.150000X0.587500X-0.150000X-0.587500X0.150000X-0.587500X0.150000X0.587500X0*%
%TD*%
%TA.AperFunction,SMDPad,CuDef*%
%ADD18RoundRect,0.100000X0.637500X0.100000X-0.637500X0.100000X-0.637500X-0.100000X0.637500X-0.100000X0*%
%TD*%
%TA.AperFunction,SMDPad,CuDef*%
%ADD19RoundRect,0.150000X0.150000X0.575000X-0.150000X0.575000X-0.150000X-0.575000X0.150000X-0.575000X0*%
%TD*%
%TA.AperFunction,SMDPad,CuDef*%
%ADD20RoundRect,0.075000X0.075000X0.650000X-0.075000X0.650000X-0.075000X-0.650000X0.075000X-0.650000X0*%
%TD*%
%TA.AperFunction,ComponentPad*%
%ADD21O,1.000000X2.100000*%
%TD*%
%TA.AperFunction,ComponentPad*%
%ADD22O,1.000000X1.600000*%
%TD*%
%TA.AperFunction,SMDPad,CuDef*%
%ADD23RoundRect,0.225000X0.250000X-0.225000X0.250000X0.225000X-0.250000X0.225000X-0.250000X-0.225000X0*%
%TD*%
%TA.AperFunction,SMDPad,CuDef*%
%ADD24RoundRect,0.225000X-0.250000X0.225000X-0.250000X-0.225000X0.250000X-0.225000X0.250000X0.225000X0*%
%TD*%
%TA.AperFunction,SMDPad,CuDef*%
%ADD25RoundRect,0.225000X0.225000X0.250000X-0.225000X0.250000X-0.225000X-0.250000X0.225000X-0.250000X0*%
%TD*%
%TA.AperFunction,SMDPad,CuDef*%
%ADD26RoundRect,0.200000X-0.200000X-0.275000X0.200000X-0.275000X0.200000X0.275000X-0.200000X0.275000X0*%
%TD*%
%TA.AperFunction,SMDPad,CuDef*%
%ADD27RoundRect,0.125000X0.125000X0.225000X-0.125000X0.225000X-0.125000X-0.225000X0.125000X-0.225000X0*%
%TD*%
%TA.AperFunction,SMDPad,CuDef*%
%ADD28RoundRect,0.200000X-0.275000X0.200000X-0.275000X-0.200000X0.275000X-0.200000X0.275000X0.200000X0*%
%TD*%
%TA.AperFunction,SMDPad,CuDef*%
%ADD29RoundRect,0.140000X-0.140000X-0.170000X0.140000X-0.170000X0.140000X0.170000X-0.140000X0.170000X0*%
%TD*%
%TA.AperFunction,SMDPad,CuDef*%
%ADD30R,2.180000X1.600000*%
%TD*%
%TA.AperFunction,SMDPad,CuDef*%
%ADD31RoundRect,0.250000X0.250000X0.475000X-0.250000X0.475000X-0.250000X-0.475000X0.250000X-0.475000X0*%
%TD*%
%TA.AperFunction,SMDPad,CuDef*%
%ADD32RoundRect,0.218750X0.218750X0.256250X-0.218750X0.256250X-0.218750X-0.256250X0.218750X-0.256250X0*%
%TD*%
%TA.AperFunction,ComponentPad*%
%ADD33R,2.030000X1.730000*%
%TD*%
%TA.AperFunction,ComponentPad*%
%ADD34O,2.030000X1.730000*%
%TD*%
%TA.AperFunction,SMDPad,CuDef*%
%ADD35R,5.100000X5.100000*%
%TD*%
%TA.AperFunction,SMDPad,CuDef*%
%ADD36C,17.800000*%
%TD*%
%TA.AperFunction,SMDPad,CuDef*%
%ADD37RoundRect,0.075000X-0.725000X-0.075000X0.725000X-0.075000X0.725000X0.075000X-0.725000X0.075000X0*%
%TD*%
%TA.AperFunction,SMDPad,CuDef*%
%ADD38RoundRect,0.075000X-0.075000X-0.725000X0.075000X-0.725000X0.075000X0.725000X-0.075000X0.725000X0*%
%TD*%
%TA.AperFunction,SMDPad,CuDef*%
%ADD39RoundRect,0.162500X0.162500X-0.650000X0.162500X0.650000X-0.162500X0.650000X-0.162500X-0.650000X0*%
%TD*%
%TA.AperFunction,ViaPad*%
%ADD40C,0.600000*%
%TD*%
%TA.AperFunction,Conductor*%
%ADD41C,0.200000*%
%TD*%
G04 APERTURE END LIST*
D10*
%TO.P,C1,1*%
%TO.N,GND*%
X85485000Y-63980000D03*
%TO.P,C1,2*%
%TO.N,Net-(U1-NRST)*%
X87035000Y-63980000D03*
%TD*%
D11*
%TO.P,C14,1*%
%TO.N,VDDA(1)*%
X103550000Y-48000000D03*
%TO.P,C14,2*%
%TO.N,GND*%
X105450000Y-48000000D03*
%TD*%
D12*
%TO.P,J3,1,Pin_1_1*%
%TO.N,GND*%
X131150000Y-42930000D03*
D13*
%TO.P,J3,2,Pin_2_2*%
%TO.N,U*%
X128610000Y-42930000D03*
%TO.P,J3,3,Pin_3_3*%
%TO.N,V*%
X126070000Y-42930000D03*
%TO.P,J3,4,Pin_4_4*%
%TO.N,W*%
X123530000Y-42930000D03*
%TO.P,J3,5,Pin_5_5*%
%TO.N,CAL*%
X120990000Y-42930000D03*
%TD*%
D14*
%TO.P,Y1,1,1_1*%
%TO.N,OSC_OUT*%
X79560000Y-64327500D03*
%TO.P,Y1,2,2_2*%
%TO.N,OSC_IN*%
X79560000Y-60627500D03*
%TD*%
D15*
%TO.P,U2,1,GND_1*%
%TO.N,GND*%
X94350000Y-44700000D03*
%TO.P,U2,2,VO_2*%
%TO.N,VDDA(1)*%
X94350000Y-47000000D03*
D16*
X100650000Y-47000000D03*
D15*
%TO.P,U2,3,VI_3*%
%TO.N,+5V*%
X94350000Y-49300000D03*
%TD*%
D17*
%TO.P,D3,1*%
%TO.N,VDDA(1)*%
X86950000Y-55302500D03*
%TO.P,D3,2*%
%TO.N,Net-(BT1-+)*%
X85050000Y-55302500D03*
%TO.P,D3,3*%
%TO.N,VBAT*%
X86000000Y-57177500D03*
%TD*%
D18*
%TO.P,U3,1,U_1*%
%TO.N,U*%
X131010000Y-37080000D03*
%TO.P,U3,2,V_2*%
%TO.N,V*%
X131010000Y-36430000D03*
%TO.P,U3,3,W_3*%
%TO.N,W*%
X131010000Y-35780000D03*
%TO.P,U3,4,CAL_EN_4*%
%TO.N,CAL*%
X131010000Y-35130000D03*
%TO.P,U3,5,MISO_5*%
%TO.N,Net-(J4-Pin_3)*%
X131010000Y-34480000D03*
%TO.P,U3,6,MOSI_6*%
%TO.N,Net-(J4-Pin_4)*%
X131010000Y-33830000D03*
%TO.P,U3,7,SCK_7*%
%TO.N,Net-(J4-Pin_5)*%
X131010000Y-33180000D03*
%TO.P,U3,8,CSN_8*%
%TO.N,Net-(J4-Pin_6)*%
X131010000Y-32530000D03*
%TO.P,U3,9,VDD_9*%
%TO.N,VDDA(1)*%
X125285000Y-32530000D03*
%TO.P,U3,10,PWM_OUT_10*%
%TO.N,PWM*%
X125285000Y-33180000D03*
%TO.P,U3,11,TEST_11*%
%TO.N,GND*%
X125285000Y-33830000D03*
%TO.P,U3,12,GND_12*%
X125285000Y-34480000D03*
%TO.P,U3,13,TEST_EN_13*%
X125285000Y-35130000D03*
%TO.P,U3,14,Z_14*%
%TO.N,Z*%
X125285000Y-35780000D03*
%TO.P,U3,15,B_15*%
%TO.N,B*%
X125285000Y-36430000D03*
%TO.P,U3,16,A_16*%
%TO.N,A*%
X125285000Y-37080000D03*
%TD*%
D19*
%TO.P,J1,A1,GND_A1*%
%TO.N,GND*%
X98370000Y-32325000D03*
%TO.P,J1,A4,VBUS_A4*%
%TO.N,+5V*%
X97570000Y-32325000D03*
D20*
%TO.P,J1,A5,CC1_A5*%
%TO.N,Net-(J1-CC1)*%
X96370000Y-32325000D03*
%TO.P,J1,A6,D+_A6*%
%TO.N,USB_DP*%
X95370000Y-32325000D03*
%TO.P,J1,A7,D-_A7*%
%TO.N,USB_DM*%
X94870000Y-32325000D03*
%TO.P,J1,A8*%
%TO.N,N/C*%
X93870000Y-32325000D03*
D19*
%TO.P,J1,A9,VBUS_A9*%
%TO.N,+5V*%
X92670000Y-32325000D03*
%TO.P,J1,A12,GND_A12*%
%TO.N,GND*%
X91870000Y-32325000D03*
%TO.P,J1,B1,GND_B1*%
X91870000Y-32325000D03*
%TO.P,J1,B4,VBUS_B4*%
%TO.N,+5V*%
X92670000Y-32325000D03*
D20*
%TO.P,J1,B5,CC2_B5*%
%TO.N,Net-(J1-CC2)*%
X93370000Y-32325000D03*
%TO.P,J1,B6,D+_B6*%
%TO.N,USB_DP*%
X94370000Y-32325000D03*
%TO.P,J1,B7,D-_B7*%
%TO.N,USB_DM*%
X95870000Y-32325000D03*
%TO.P,J1,B8*%
%TO.N,N/C*%
X96870000Y-32325000D03*
D19*
%TO.P,J1,B9,VBUS_B9*%
%TO.N,+5V*%
X97570000Y-32325000D03*
%TO.P,J1,B12,GND_B12*%
%TO.N,GND*%
X98370000Y-32325000D03*
D21*
%TO.P,J1,SH,SHIELD_SH*%
X99440000Y-31410000D03*
D22*
X99440000Y-27230000D03*
D21*
X90800000Y-31410000D03*
D22*
X90800000Y-27230000D03*
%TD*%
D23*
%TO.P,C10,1*%
%TO.N,GND*%
X101000000Y-73500000D03*
%TO.P,C10,2*%
%TO.N,Net-(U1-VCAP_1)*%
X101000000Y-71950000D03*
%TD*%
D10*
%TO.P,C21,1*%
%TO.N,GND*%
X82425000Y-63010000D03*
%TO.P,C21,2*%
%TO.N,OSC_OUT*%
X83975000Y-63010000D03*
%TD*%
D24*
%TO.P,C5,1*%
%TO.N,VDDA(1)*%
X91500000Y-71950000D03*
%TO.P,C5,2*%
%TO.N,GND*%
X91500000Y-73500000D03*
%TD*%
D12*
%TO.P,J4,1,Pin_1_1*%
%TO.N,GND*%
X134770000Y-45350000D03*
D13*
%TO.P,J4,2,Pin_2_2*%
%TO.N,VDDA(1)*%
X134770000Y-42810000D03*
%TO.P,J4,3,Pin_3_3*%
%TO.N,Net-(J4-Pin_3)*%
X134770000Y-40270000D03*
%TO.P,J4,4,Pin_4_4*%
%TO.N,Net-(J4-Pin_4)*%
X134770000Y-37730000D03*
%TO.P,J4,5,Pin_5_5*%
%TO.N,Net-(J4-Pin_5)*%
X134770000Y-35190000D03*
%TO.P,J4,6,Pin_6_6*%
%TO.N,Net-(J4-Pin_6)*%
X134770000Y-32650000D03*
%TD*%
D25*
%TO.P,C13,1*%
%TO.N,+5V*%
X92115000Y-49300000D03*
%TO.P,C13,2*%
%TO.N,GND*%
X90565000Y-49300000D03*
%TD*%
%TO.P,C4,1*%
%TO.N,VDDA(1)*%
X87050000Y-65500000D03*
%TO.P,C4,2*%
%TO.N,GND*%
X85500000Y-65500000D03*
%TD*%
D26*
%TO.P,R5,1*%
%TO.N,VDDA(1)*%
X104315000Y-53440000D03*
%TO.P,R5,2*%
%TO.N,Net-(D2-A)*%
X105965000Y-53440000D03*
%TD*%
D27*
%TO.P,D1,1,A1_1*%
%TO.N,VDDA(1)*%
X123210000Y-32180000D03*
%TO.P,D1,2,A2_2*%
%TO.N,GND*%
X122410000Y-32180000D03*
%TD*%
D28*
%TO.P,R1,1*%
%TO.N,GND*%
X93490000Y-51460000D03*
%TO.P,R1,2*%
%TO.N,Net-(U1-BOOT0)*%
X93490000Y-53110000D03*
%TD*%
D29*
%TO.P,C16,1*%
%TO.N,GND*%
X122400000Y-31030000D03*
%TO.P,C16,2*%
%TO.N,VDDA(1)*%
X123360000Y-31030000D03*
%TD*%
D30*
%TO.P,SW1,1,1_1*%
%TO.N,GND*%
X71930000Y-67690000D03*
%TO.P,SW1,2,2_2*%
%TO.N,Net-(U1-NRST)*%
X81110000Y-67690000D03*
%TD*%
D31*
%TO.P,C9,1*%
%TO.N,VDDA(1)*%
X85710000Y-67400000D03*
%TO.P,C9,2*%
%TO.N,GND*%
X83810000Y-67400000D03*
%TD*%
D24*
%TO.P,C19,1*%
%TO.N,GND*%
X107700000Y-60780000D03*
%TO.P,C19,2*%
%TO.N,Net-(U4-VCC)*%
X107700000Y-62330000D03*
%TD*%
D25*
%TO.P,C11,1*%
%TO.N,GND*%
X107775000Y-58000000D03*
%TO.P,C11,2*%
%TO.N,Net-(U1-VCAP_2)*%
X106225000Y-58000000D03*
%TD*%
D32*
%TO.P,D2,1,K_1*%
%TO.N,GND*%
X105897500Y-51860000D03*
%TO.P,D2,2,A_2*%
%TO.N,Net-(D2-A)*%
X104322500Y-51860000D03*
%TD*%
D33*
%TO.P,J7,1,Pin_1_1*%
%TO.N,VDDA(1)*%
X119110000Y-65300000D03*
D34*
%TO.P,J7,2,Pin_2_2*%
%TO.N,TX_OUT*%
X119110000Y-62760000D03*
%TO.P,J7,3,Pin_3_3*%
%TO.N,RX_IN*%
X119110000Y-60220000D03*
%TO.P,J7,4,Pin_4_4*%
%TO.N,GND*%
X119110000Y-57680000D03*
%TD*%
D29*
%TO.P,C15,1*%
%TO.N,GND*%
X122320000Y-33280000D03*
%TO.P,C15,2*%
%TO.N,VDDA(1)*%
X123280000Y-33280000D03*
%TD*%
D25*
%TO.P,C3,1*%
%TO.N,VDDA(1)*%
X87065000Y-60520000D03*
%TO.P,C3,2*%
%TO.N,GND*%
X85515000Y-60520000D03*
%TD*%
D24*
%TO.P,C6,1*%
%TO.N,VDDA(1)*%
X102500000Y-71950000D03*
%TO.P,C6,2*%
%TO.N,GND*%
X102500000Y-73500000D03*
%TD*%
D31*
%TO.P,C12,1*%
%TO.N,+5V*%
X92330000Y-47420000D03*
%TO.P,C12,2*%
%TO.N,GND*%
X90430000Y-47420000D03*
%TD*%
D33*
%TO.P,J6,1,Pin_1_1*%
%TO.N,VDDA(1)*%
X112440000Y-53640000D03*
D34*
%TO.P,J6,2,Pin_2_2*%
%TO.N,GND*%
X112440000Y-56180000D03*
%TO.P,J6,3,Pin_3_3*%
%TO.N,Net-(J6-Pin_3)*%
X112440000Y-58720000D03*
%TO.P,J6,4,Pin_4_4*%
%TO.N,Net-(J6-Pin_4)*%
X112440000Y-61260000D03*
%TD*%
D28*
%TO.P,R4,1*%
%TO.N,Net-(U1-PB2)*%
X95970000Y-71980000D03*
%TO.P,R4,2*%
%TO.N,GND*%
X95970000Y-73630000D03*
%TD*%
D35*
%TO.P,BT1,1,+_1*%
%TO.N,Net-(BT1-+)*%
X77270000Y-55720000D03*
X77270000Y-30120000D03*
D36*
%TO.P,BT1,2,-_2*%
%TO.N,GND*%
X77270000Y-42920000D03*
%TD*%
D28*
%TO.P,R3,1*%
%TO.N,Net-(J1-CC2)*%
X94290000Y-39485000D03*
%TO.P,R3,2*%
%TO.N,GND*%
X94290000Y-41135000D03*
%TD*%
D12*
%TO.P,J5,1,Pin_1_1*%
%TO.N,GND*%
X113320000Y-64870000D03*
D13*
%TO.P,J5,2,Pin_2_2*%
%TO.N,VDDA(1)*%
X113320000Y-67410000D03*
%TO.P,J5,3,Pin_3_3*%
%TO.N,MISO*%
X113320000Y-69950000D03*
%TO.P,J5,4,Pin_4_4*%
%TO.N,MOSI*%
X113320000Y-72490000D03*
%TO.P,J5,5,Pin_5_5*%
%TO.N,SCK*%
X113320000Y-75030000D03*
%TO.P,J5,6,Pin_6_6*%
%TO.N,CS*%
X113320000Y-77570000D03*
%TD*%
D23*
%TO.P,C8,1*%
%TO.N,VDDA(1)*%
X90520000Y-53015000D03*
%TO.P,C8,2*%
%TO.N,GND*%
X90520000Y-51465000D03*
%TD*%
D10*
%TO.P,C20,1*%
%TO.N,GND*%
X82515000Y-61510000D03*
%TO.P,C20,2*%
%TO.N,OSC_IN*%
X84065000Y-61510000D03*
%TD*%
D25*
%TO.P,C7,1*%
%TO.N,VDDA(1)*%
X85705000Y-69260000D03*
%TO.P,C7,2*%
%TO.N,GND*%
X84155000Y-69260000D03*
%TD*%
%TO.P,C2,1*%
%TO.N,GND*%
X107775000Y-56500000D03*
%TO.P,C2,2*%
%TO.N,VDDA(1)*%
X106225000Y-56500000D03*
%TD*%
D37*
%TO.P,U1,1,PE2_1*%
%TO.N,unconnected-(U1-PE2-Pad1)*%
X88825000Y-56500000D03*
%TO.P,U1,2,PE3_2*%
%TO.N,unconnected-(U1-PE3-Pad2)*%
X88825000Y-57000000D03*
%TO.P,U1,3,PE4_3*%
%TO.N,unconnected-(U1-PE4-Pad3)*%
X88825000Y-57500000D03*
%TO.P,U1,4,PE5_4*%
%TO.N,unconnected-(U1-PE5-Pad4)*%
X88825000Y-58000000D03*
%TO.P,U1,5,PE6_5*%
%TO.N,unconnected-(U1-PE6-Pad5)*%
X88825000Y-58500000D03*
%TO.P,U1,6,VBAT_6*%
%TO.N,VBAT*%
X88825000Y-59000000D03*
%TO.P,U1,7,PC13_7*%
%TO.N,unconnected-(U1-PC13-Pad7)*%
X88825000Y-59500000D03*
%TO.P,U1,8,PC14_8*%
%TO.N,unconnected-(U1-PC14-Pad8)*%
X88825000Y-60000000D03*
%TO.P,U1,9,PC15_9*%
%TO.N,unconnected-(U1-PC15-Pad9)*%
X88825000Y-60500000D03*
%TO.P,U1,10,VSS_10*%
%TO.N,GND*%
X88825000Y-61000000D03*
%TO.P,U1,11,VDD_11*%
%TO.N,VDDA(1)*%
X88825000Y-61500000D03*
%TO.P,U1,12,PH0_12*%
%TO.N,OSC_IN*%
X88825000Y-62000000D03*
%TO.P,U1,13,PH1_13*%
%TO.N,OSC_OUT*%
X88825000Y-62500000D03*
%TO.P,U1,14,NRST_14*%
%TO.N,Net-(U1-NRST)*%
X88825000Y-63000000D03*
%TO.P,U1,15,PC0_15*%
%TO.N,unconnected-(U1-PC0-Pad15)*%
X88825000Y-63500000D03*
%TO.P,U1,16,PC1_16*%
%TO.N,unconnected-(U1-PC1-Pad16)*%
X88825000Y-64000000D03*
%TO.P,U1,17,PC2_17*%
%TO.N,unconnected-(U1-PC2-Pad17)*%
X88825000Y-64500000D03*
%TO.P,U1,18,PC3_18*%
%TO.N,unconnected-(U1-PC3-Pad18)*%
X88825000Y-65000000D03*
%TO.P,U1,19,VDD_19*%
%TO.N,VDDA(1)*%
X88825000Y-65500000D03*
%TO.P,U1,20,VSSA_20*%
%TO.N,unconnected-(U1-VSSA-Pad20)*%
X88825000Y-66000000D03*
%TO.P,U1,21,VREF+_21*%
%TO.N,VDDA(1)*%
X88825000Y-66500000D03*
%TO.P,U1,22,VDDA_22*%
X88825000Y-67000000D03*
%TO.P,U1,23,PA0_23*%
%TO.N,unconnected-(U1-PA0-Pad23)*%
X88825000Y-67500000D03*
%TO.P,U1,24,PA1_24*%
%TO.N,unconnected-(U1-PA1-Pad24)*%
X88825000Y-68000000D03*
%TO.P,U1,25,PA2_25*%
%TO.N,unconnected-(U1-PA2-Pad25)*%
X88825000Y-68500000D03*
D38*
%TO.P,U1,26,PA3_26*%
%TO.N,unconnected-(U1-PA3-Pad26)*%
X90500000Y-70175000D03*
%TO.P,U1,27,VSS_27*%
%TO.N,GND*%
X91000000Y-70175000D03*
%TO.P,U1,28,VDD_28*%
%TO.N,VDDA(1)*%
X91500000Y-70175000D03*
%TO.P,U1,29,PA4_29*%
%TO.N,unconnected-(U1-PA4-Pad29)*%
X92000000Y-70175000D03*
%TO.P,U1,30,PA5_30*%
%TO.N,unconnected-(U1-PA5-Pad30)*%
X92500000Y-70175000D03*
%TO.P,U1,31,PA6_31*%
%TO.N,unconnected-(U1-PA6-Pad31)*%
X93000000Y-70175000D03*
%TO.P,U1,32,PA7_32*%
%TO.N,unconnected-(U1-PA7-Pad32)*%
X93500000Y-70175000D03*
%TO.P,U1,33,PC4_33*%
%TO.N,unconnected-(U1-PC4-Pad33)*%
X94000000Y-70175000D03*
%TO.P,U1,34,PC5_34*%
%TO.N,unconnected-(U1-PC5-Pad34)*%
X94500000Y-70175000D03*
%TO.P,U1,35,PB0_35*%
%TO.N,unconnected-(U1-PB0-Pad35)*%
X95000000Y-70175000D03*
%TO.P,U1,36,PB1_36*%
%TO.N,unconnected-(U1-PB1-Pad36)*%
X95500000Y-70175000D03*
%TO.P,U1,37,PB2_37*%
%TO.N,Net-(U1-PB2)*%
X96000000Y-70175000D03*
%TO.P,U1,38,PE7_38*%
%TO.N,unconnected-(U1-PE7-Pad38)*%
X96500000Y-70175000D03*
%TO.P,U1,39,PE8_39*%
%TO.N,unconnected-(U1-PE8-Pad39)*%
X97000000Y-70175000D03*
%TO.P,U1,40,PE9_40*%
%TO.N,unconnected-(U1-PE9-Pad40)*%
X97500000Y-70175000D03*
%TO.P,U1,41,PE10_41*%
%TO.N,unconnected-(U1-PE10-Pad41)*%
X98000000Y-70175000D03*
%TO.P,U1,42,PE11_42*%
%TO.N,unconnected-(U1-PE11-Pad42)*%
X98500000Y-70175000D03*
%TO.P,U1,43,PE12_43*%
%TO.N,unconnected-(U1-PE12-Pad43)*%
X99000000Y-70175000D03*
%TO.P,U1,44,PE13_44*%
%TO.N,unconnected-(U1-PE13-Pad44)*%
X99500000Y-70175000D03*
%TO.P,U1,45,PE14_45*%
%TO.N,unconnected-(U1-PE14-Pad45)*%
X100000000Y-70175000D03*
%TO.P,U1,46,PE15_46*%
%TO.N,unconnected-(U1-PE15-Pad46)*%
X100500000Y-70175000D03*
%TO.P,U1,47,PB10_47*%
%TO.N,unconnected-(U1-PB10-Pad47)*%
X101000000Y-70175000D03*
%TO.P,U1,48,PB11_48*%
%TO.N,unconnected-(U1-PB11-Pad48)*%
X101500000Y-70175000D03*
%TO.P,U1,49,VCAP_1_49*%
%TO.N,Net-(U1-VCAP_1)*%
X102000000Y-70175000D03*
%TO.P,U1,50,VDD_50*%
%TO.N,VDDA(1)*%
X102500000Y-70175000D03*
D37*
%TO.P,U1,51,PB12_51*%
%TO.N,CS*%
X104175000Y-68500000D03*
%TO.P,U1,52,PB13_52*%
%TO.N,SCK*%
X104175000Y-68000000D03*
%TO.P,U1,53,PB14_53*%
%TO.N,MISO*%
X104175000Y-67500000D03*
%TO.P,U1,54,PB15_54*%
%TO.N,MOSI*%
X104175000Y-67000000D03*
%TO.P,U1,55,PD8_55*%
%TO.N,unconnected-(U1-PD8-Pad55)*%
X104175000Y-66500000D03*
%TO.P,U1,56,PD9_56*%
%TO.N,unconnected-(U1-PD9-Pad56)*%
X104175000Y-66000000D03*
%TO.P,U1,57,PD10_57*%
%TO.N,unconnected-(U1-PD10-Pad57)*%
X104175000Y-65500000D03*
%TO.P,U1,58,PD11_58*%
%TO.N,unconnected-(U1-PD11-Pad58)*%
X104175000Y-65000000D03*
%TO.P,U1,59,PD12_59*%
%TO.N,unconnected-(U1-PD12-Pad59)*%
X104175000Y-64500000D03*
%TO.P,U1,60,PD13_60*%
%TO.N,unconnected-(U1-PD13-Pad60)*%
X104175000Y-64000000D03*
%TO.P,U1,61,PD14_61*%
%TO.N,unconnected-(U1-PD14-Pad61)*%
X104175000Y-63500000D03*
%TO.P,U1,62,PD15_62*%
%TO.N,unconnected-(U1-PD15-Pad62)*%
X104175000Y-63000000D03*
%TO.P,U1,63,PC6_63*%
%TO.N,unconnected-(U1-PC6-Pad63)*%
X104175000Y-62500000D03*
%TO.P,U1,64,PC7_64*%
%TO.N,unconnected-(U1-PC7-Pad64)*%
X104175000Y-62000000D03*
%TO.P,U1,65,PC8_65*%
%TO.N,unconnected-(U1-PC8-Pad65)*%
X104175000Y-61500000D03*
%TO.P,U1,66,PC9_66*%
%TO.N,unconnected-(U1-PC9-Pad66)*%
X104175000Y-61000000D03*
%TO.P,U1,67,PA8_67*%
%TO.N,unconnected-(U1-PA8-Pad67)*%
X104175000Y-60500000D03*
%TO.P,U1,68,PA9_68*%
%TO.N,TX_OUT*%
X104175000Y-60000000D03*
%TO.P,U1,69,PA10_69*%
%TO.N,RX_IN*%
X104175000Y-59500000D03*
%TO.P,U1,70,PA11_70*%
%TO.N,USB_DM*%
X104175000Y-59000000D03*
%TO.P,U1,71,PA12_71*%
%TO.N,USB_DP*%
X104175000Y-58500000D03*
%TO.P,U1,72,PA13_72*%
%TO.N,Net-(J6-Pin_3)*%
X104175000Y-58000000D03*
%TO.P,U1,73,VCAP_2_73*%
%TO.N,Net-(U1-VCAP_2)*%
X104175000Y-57500000D03*
%TO.P,U1,74,VSS_74*%
%TO.N,GND*%
X104175000Y-57000000D03*
%TO.P,U1,75,VDD_75*%
%TO.N,VDDA(1)*%
X104175000Y-56500000D03*
D38*
%TO.P,U1,76,PA14_76*%
%TO.N,Net-(J6-Pin_4)*%
X102500000Y-54825000D03*
%TO.P,U1,77,PA15_77*%
%TO.N,unconnected-(U1-PA15-Pad77)*%
X102000000Y-54825000D03*
%TO.P,U1,78,PC10_78*%
%TO.N,unconnected-(U1-PC10-Pad78)*%
X101500000Y-54825000D03*
%TO.P,U1,79,PC11_79*%
%TO.N,unconnected-(U1-PC11-Pad79)*%
X101000000Y-54825000D03*
%TO.P,U1,80,PC12_80*%
%TO.N,unconnected-(U1-PC12-Pad80)*%
X100500000Y-54825000D03*
%TO.P,U1,81,PD0_81*%
%TO.N,unconnected-(U1-PD0-Pad81)*%
X100000000Y-54825000D03*
%TO.P,U1,82,PD1_82*%
%TO.N,unconnected-(U1-PD1-Pad82)*%
X99500000Y-54825000D03*
%TO.P,U1,83,PD2_83*%
%TO.N,unconnected-(U1-PD2-Pad83)*%
X99000000Y-54825000D03*
%TO.P,U1,84,PD3_84*%
%TO.N,unconnected-(U1-PD3-Pad84)*%
X98500000Y-54825000D03*
%TO.P,U1,85,PD4_85*%
%TO.N,unconnected-(U1-PD4-Pad85)*%
X98000000Y-54825000D03*
%TO.P,U1,86,PD5_86*%
%TO.N,unconnected-(U1-PD5-Pad86)*%
X97500000Y-54825000D03*
%TO.P,U1,87,PD6_87*%
%TO.N,unconnected-(U1-PD6-Pad87)*%
X97000000Y-54825000D03*
%TO.P,U1,88,PD7_88*%
%TO.N,unconnected-(U1-PD7-Pad88)*%
X96500000Y-54825000D03*
%TO.P,U1,89,PB3_89*%
%TO.N,unconnected-(U1-PB3-Pad89)*%
X96000000Y-54825000D03*
%TO.P,U1,90,PB4_90*%
%TO.N,unconnected-(U1-PB4-Pad90)*%
X95500000Y-54825000D03*
%TO.P,U1,91,PB5_91*%
%TO.N,unconnected-(U1-PB5-Pad91)*%
X95000000Y-54825000D03*
%TO.P,U1,92,PB6_92*%
%TO.N,unconnected-(U1-PB6-Pad92)*%
X94500000Y-54825000D03*
%TO.P,U1,93,PB7_93*%
%TO.N,unconnected-(U1-PB7-Pad93)*%
X94000000Y-54825000D03*
%TO.P,U1,94,BOOT0_94*%
%TO.N,Net-(U1-BOOT0)*%
X93500000Y-54825000D03*
%TO.P,U1,95,PB8_95*%
%TO.N,unconnected-(U1-PB8-Pad95)*%
X93000000Y-54825000D03*
%TO.P,U1,96,PB9_96*%
%TO.N,unconnected-(U1-PB9-Pad96)*%
X92500000Y-54825000D03*
%TO.P,U1,97,PE0_97*%
%TO.N,unconnected-(U1-PE0-Pad97)*%
X92000000Y-54825000D03*
%TO.P,U1,98,PE1_98*%
%TO.N,unconnected-(U1-PE1-Pad98)*%
X91500000Y-54825000D03*
%TO.P,U1,99,VSS_99*%
%TO.N,GND*%
X91000000Y-54825000D03*
%TO.P,U1,100,VDD_100*%
%TO.N,VDDA(1)*%
X90500000Y-54825000D03*
%TD*%
D39*
%TO.P,U4,1,~{CS}_1*%
%TO.N,CS*%
X106427500Y-71417500D03*
%TO.P,U4,2,DO/IO_{1}_2*%
%TO.N,MISO*%
X107697500Y-71417500D03*
%TO.P,U4,3,~{WP}/IO_{2}_3*%
%TO.N,VDDA(1)*%
X108967500Y-71417500D03*
%TO.P,U4,4,GND_4*%
%TO.N,GND*%
X110237500Y-71417500D03*
%TO.P,U4,5,DI/IO_{0}_5*%
%TO.N,MOSI*%
X110237500Y-64242500D03*
%TO.P,U4,6,CLK_6*%
%TO.N,SCK*%
X108967500Y-64242500D03*
%TO.P,U4,7,~{HOLD}/~{RESET}/IO_{3}_7*%
%TO.N,Net-(U4-VCC)*%
X107697500Y-64242500D03*
%TO.P,U4,8,VCC_8*%
X106427500Y-64242500D03*
%TD*%
D28*
%TO.P,R2,1*%
%TO.N,Net-(J1-CC1)*%
X96220000Y-39375000D03*
%TO.P,R2,2*%
%TO.N,GND*%
X96220000Y-41025000D03*
%TD*%
D10*
%TO.P,C17,1*%
%TO.N,VDDA(1)*%
X103500000Y-46000000D03*
%TO.P,C17,2*%
%TO.N,GND*%
X105050000Y-46000000D03*
%TD*%
D12*
%TO.P,J2,1,Pin_1_1*%
%TO.N,GND*%
X117190000Y-42930000D03*
D13*
%TO.P,J2,2,Pin_2_2*%
%TO.N,A*%
X117190000Y-40390000D03*
%TO.P,J2,3,Pin_3_3*%
%TO.N,B*%
X117190000Y-37850000D03*
%TO.P,J2,4,Pin_4_4*%
%TO.N,Z*%
X117190000Y-35310000D03*
%TO.P,J2,5,Pin_5_5*%
%TO.N,PWM*%
X117190000Y-32770000D03*
%TD*%
D25*
%TO.P,C18,1*%
%TO.N,VBAT*%
X87050000Y-59000000D03*
%TO.P,C18,2*%
%TO.N,GND*%
X85500000Y-59000000D03*
%TD*%
D40*
%TO.N,Net-(U1-NRST)*%
X87140000Y-63100000D03*
X84070000Y-64350000D03*
%TO.N,VDDA(1)*%
X105770000Y-69650000D03*
X103630000Y-70860000D03*
X131610000Y-38200000D03*
X126740000Y-31590000D03*
%TO.N,USB_DM*%
X95770000Y-34610000D03*
X101920000Y-58870000D03*
%TO.N,USB_DP*%
X94510000Y-33790000D03*
X102780000Y-57980000D03*
%TO.N,SCK*%
X109110000Y-73180000D03*
X106170000Y-68830000D03*
%TO.N,MOSI*%
X106136985Y-67036985D03*
X111629265Y-72489265D03*
X108040518Y-66830510D03*
%TO.N,MISO*%
X107263670Y-72217640D03*
X102410000Y-68190000D03*
%TO.N,Net-(J6-Pin_4)*%
X108480000Y-59375000D03*
X102950000Y-55080000D03*
%TD*%
%TO.N,Net-(BT1-+)*%
D41*
X77270000Y-30120000D02*
X77480765Y-30120000D01*
X86470000Y-39109235D02*
X86470000Y-49270000D01*
X77480765Y-30120000D02*
X86470000Y-39109235D01*
X80020000Y-55720000D02*
X77270000Y-55720000D01*
X84632500Y-55720000D02*
X77270000Y-55720000D01*
X77427500Y-55562500D02*
X77270000Y-55720000D01*
X86470000Y-49270000D02*
X80020000Y-55720000D01*
X85050000Y-55302500D02*
X84632500Y-55720000D01*
%TO.N,GND*%
X112440000Y-56180000D02*
X108095000Y-56180000D01*
X89657410Y-61000000D02*
X91000000Y-62342590D01*
X92342590Y-57000000D02*
X91000000Y-55657410D01*
X85515000Y-60520000D02*
X85480000Y-60520000D01*
X107775000Y-56500000D02*
X107775000Y-58000000D01*
X91000000Y-62342590D02*
X91000000Y-70175000D01*
X88825000Y-61000000D02*
X89657410Y-61000000D01*
X91000000Y-59657410D02*
X91000000Y-54825000D01*
X112440000Y-56180000D02*
X117610000Y-56180000D01*
X117610000Y-56180000D02*
X119110000Y-57680000D01*
X91000000Y-55657410D02*
X91000000Y-54825000D01*
X89657410Y-61000000D02*
X91000000Y-59657410D01*
X102911471Y-57000000D02*
X104175000Y-57000000D01*
X104175000Y-57000000D02*
X92342590Y-57000000D01*
X85480000Y-60520000D02*
X84640000Y-59680000D01*
X91000000Y-68911471D02*
X102911471Y-57000000D01*
X108095000Y-56180000D02*
X107775000Y-56500000D01*
X91000000Y-70175000D02*
X91000000Y-68911471D01*
%TO.N,Net-(U1-NRST)*%
X87035000Y-63957590D02*
X87992590Y-63000000D01*
X87240000Y-63000000D02*
X88825000Y-63000000D01*
X87035000Y-63980000D02*
X87035000Y-63957590D01*
X81110000Y-67690000D02*
X81110000Y-67310000D01*
X87140000Y-63100000D02*
X87240000Y-63000000D01*
X87992590Y-63000000D02*
X88825000Y-63000000D01*
X81110000Y-67310000D02*
X84070000Y-64350000D01*
%TO.N,VDDA(1)*%
X126740000Y-31590000D02*
X126225000Y-31590000D01*
X90022500Y-55302500D02*
X86950000Y-55302500D01*
X90500000Y-54825000D02*
X90022500Y-55302500D01*
X102500000Y-71950000D02*
X102500000Y-70175000D01*
X112162501Y-67410000D02*
X113320000Y-67410000D01*
X103500000Y-47950000D02*
X103550000Y-48000000D01*
X123360000Y-31030000D02*
X123785000Y-31030000D01*
X103500000Y-46000000D02*
X103500000Y-47950000D01*
X85710000Y-67400000D02*
X86610000Y-66500000D01*
X104315000Y-53440000D02*
X104315000Y-54342410D01*
X103550000Y-55875000D02*
X104175000Y-56500000D01*
X103550000Y-48000000D02*
X103550000Y-55875000D01*
X119110000Y-65300000D02*
X115430000Y-65300000D01*
X104315000Y-54342410D02*
X104175000Y-54482410D01*
X123280000Y-33280000D02*
X124030000Y-32530000D01*
X107035000Y-53640000D02*
X112440000Y-53640000D01*
X100650000Y-47000000D02*
X101650000Y-48000000D01*
X90520000Y-53015000D02*
X90520000Y-54805000D01*
X123785000Y-31030000D02*
X125285000Y-32530000D01*
X94350000Y-47000000D02*
X100650000Y-47000000D01*
X88825000Y-65500000D02*
X87050000Y-65500000D01*
X124935000Y-32180000D02*
X125285000Y-32530000D01*
X87065000Y-60520000D02*
X87065000Y-60995000D01*
X126225000Y-31590000D02*
X125285000Y-32530000D01*
X108967500Y-70605001D02*
X108012499Y-69650000D01*
X108967500Y-70605001D02*
X112162501Y-67410000D01*
X108012499Y-69650000D02*
X105770000Y-69650000D01*
X124030000Y-32530000D02*
X125285000Y-32530000D01*
X103185000Y-70860000D02*
X102500000Y-70175000D01*
X134770000Y-42810000D02*
X131610000Y-39650000D01*
X108967500Y-71417500D02*
X108967500Y-70605001D01*
X85705000Y-69260000D02*
X87965000Y-67000000D01*
X87570000Y-61500000D02*
X88825000Y-61500000D01*
X123210000Y-32180000D02*
X124935000Y-32180000D01*
X104175000Y-54482410D02*
X104175000Y-56500000D01*
X100650000Y-47000000D02*
X101650000Y-46000000D01*
X104175000Y-56500000D02*
X107035000Y-53640000D01*
X115430000Y-65300000D02*
X113320000Y-67410000D01*
X101650000Y-48000000D02*
X103550000Y-48000000D01*
X91500000Y-71950000D02*
X91500000Y-70175000D01*
X88825000Y-66500000D02*
X86610000Y-66500000D01*
X87065000Y-60995000D02*
X87570000Y-61500000D01*
X90520000Y-54805000D02*
X90500000Y-54825000D01*
X87965000Y-67000000D02*
X88825000Y-67000000D01*
X106225000Y-56500000D02*
X104175000Y-56500000D01*
X103630000Y-70860000D02*
X103185000Y-70860000D01*
X131610000Y-39650000D02*
X131610000Y-38200000D01*
X101650000Y-46000000D02*
X103500000Y-46000000D01*
%TO.N,Net-(U1-VCAP_1)*%
X102000000Y-71007410D02*
X102000000Y-70175000D01*
X101000000Y-71950000D02*
X101057410Y-71950000D01*
X101057410Y-71950000D02*
X102000000Y-71007410D01*
%TO.N,Net-(U1-VCAP_2)*%
X106225000Y-58000000D02*
X105725000Y-57500000D01*
X105725000Y-57500000D02*
X104175000Y-57500000D01*
%TO.N,+5V*%
X97450000Y-37545000D02*
X97570000Y-37425000D01*
X92330000Y-49085000D02*
X92115000Y-49300000D01*
X92330000Y-44765406D02*
X92330000Y-47420000D01*
X97450000Y-40982648D02*
X94782648Y-43650000D01*
X94210000Y-49300000D02*
X92330000Y-47420000D01*
X93445406Y-43650000D02*
X92330000Y-44765406D01*
X94350000Y-49300000D02*
X92115000Y-49300000D01*
X92330000Y-47420000D02*
X92330000Y-49085000D01*
X94350000Y-49300000D02*
X94210000Y-49300000D01*
X92550000Y-37545000D02*
X92550000Y-47200000D01*
X97570000Y-37425000D02*
X97570000Y-32325000D01*
X92550000Y-47200000D02*
X92330000Y-47420000D01*
X92550000Y-37545000D02*
X92670000Y-37425000D01*
X94782648Y-43650000D02*
X93445406Y-43650000D01*
X97450000Y-37545000D02*
X97450000Y-40982648D01*
X92670000Y-37425000D02*
X92670000Y-32325000D01*
%TO.N,VBAT*%
X87050000Y-59000000D02*
X88825000Y-59000000D01*
X86000000Y-57177500D02*
X86000000Y-57950000D01*
X86000000Y-57950000D02*
X87050000Y-59000000D01*
%TO.N,Net-(U4-VCC)*%
X106427500Y-62812500D02*
X106910000Y-62330000D01*
X107697500Y-64242500D02*
X107697500Y-62332500D01*
X107697500Y-62332500D02*
X107700000Y-62330000D01*
X106427500Y-64242500D02*
X106427500Y-62812500D01*
X106910000Y-62330000D02*
X107700000Y-62330000D01*
%TO.N,OSC_IN*%
X85750000Y-62000000D02*
X85260000Y-61510000D01*
X84065000Y-61510000D02*
X83182500Y-60627500D01*
X83182500Y-60627500D02*
X79560000Y-60627500D01*
X85260000Y-61510000D02*
X84065000Y-61510000D01*
X88825000Y-62000000D02*
X85750000Y-62000000D01*
%TO.N,OSC_OUT*%
X85741304Y-62500000D02*
X85231304Y-63010000D01*
X82657500Y-64327500D02*
X79560000Y-64327500D01*
X88825000Y-62500000D02*
X85741304Y-62500000D01*
X85231304Y-63010000D02*
X83975000Y-63010000D01*
X83975000Y-63010000D02*
X82657500Y-64327500D01*
%TO.N,Net-(D2-A)*%
X104322500Y-51860000D02*
X104385000Y-51860000D01*
X104385000Y-51860000D02*
X105965000Y-53440000D01*
%TO.N,USB_DM*%
X102050000Y-59000000D02*
X101920000Y-58870000D01*
X95870000Y-32325000D02*
X95870000Y-31567590D01*
X95870000Y-34510000D02*
X95870000Y-32325000D01*
X95130000Y-31280000D02*
X94870000Y-31540000D01*
X95582410Y-31280000D02*
X95130000Y-31280000D01*
X104175000Y-59000000D02*
X102050000Y-59000000D01*
X94870000Y-31540000D02*
X94870000Y-32325000D01*
X95770000Y-34610000D02*
X95870000Y-34510000D01*
X95870000Y-31567590D02*
X95582410Y-31280000D01*
%TO.N,Net-(J1-CC1)*%
X96220000Y-37575000D02*
X96370000Y-37425000D01*
X96220000Y-39375000D02*
X96220000Y-37575000D01*
X96370000Y-37425000D02*
X96370000Y-32325000D01*
%TO.N,Net-(J1-CC2)*%
X93250000Y-38920000D02*
X93250000Y-37545000D01*
X93370000Y-37425000D02*
X93370000Y-32325000D01*
X94290000Y-39485000D02*
X93815000Y-39485000D01*
X93815000Y-39485000D02*
X93250000Y-38920000D01*
X93250000Y-37545000D02*
X93370000Y-37425000D01*
%TO.N,USB_DP*%
X103300000Y-58500000D02*
X102780000Y-57980000D01*
X95370000Y-33082410D02*
X95102410Y-33350000D01*
X95370000Y-32325000D02*
X95370000Y-33082410D01*
X94637590Y-33350000D02*
X94370000Y-33082410D01*
X95102410Y-33350000D02*
X94637590Y-33350000D01*
X104175000Y-58500000D02*
X103300000Y-58500000D01*
X94510000Y-33790000D02*
X94370000Y-33650000D01*
X94370000Y-33650000D02*
X94370000Y-32325000D01*
X94370000Y-33082410D02*
X94370000Y-32325000D01*
%TO.N,B*%
X118610000Y-36430000D02*
X125285000Y-36430000D01*
X117190000Y-37850000D02*
X118610000Y-36430000D01*
%TO.N,Z*%
X117660000Y-35780000D02*
X125285000Y-35780000D01*
X117190000Y-35310000D02*
X117660000Y-35780000D01*
%TO.N,PWM*%
X123919044Y-33890000D02*
X124629044Y-33180000D01*
X118310000Y-33890000D02*
X123919044Y-33890000D01*
X117190000Y-32770000D02*
X118310000Y-33890000D01*
X124629044Y-33180000D02*
X125285000Y-33180000D01*
%TO.N,A*%
X117190000Y-40390000D02*
X120500000Y-37080000D01*
X120500000Y-37080000D02*
X125285000Y-37080000D01*
%TO.N,CAL*%
X128790000Y-35130000D02*
X131010000Y-35130000D01*
X120990000Y-42930000D02*
X128790000Y-35130000D01*
%TO.N,U*%
X131010000Y-40530000D02*
X131010000Y-37080000D01*
X128610000Y-42930000D02*
X131010000Y-40530000D01*
%TO.N,W*%
X123530000Y-42930000D02*
X123530000Y-41727919D01*
X123530000Y-41727919D02*
X129477919Y-35780000D01*
X129477919Y-35780000D02*
X131010000Y-35780000D01*
%TO.N,V*%
X126070000Y-42930000D02*
X126070000Y-40632501D01*
X126070000Y-40632501D02*
X130272501Y-36430000D01*
X130272501Y-36430000D02*
X131010000Y-36430000D01*
%TO.N,Net-(J4-Pin_3)*%
X131747499Y-34480000D02*
X131010000Y-34480000D01*
X134770000Y-40270000D02*
X132047500Y-37547500D01*
X132047500Y-34780001D02*
X131747499Y-34480000D01*
X132047500Y-37547500D02*
X132047500Y-34780001D01*
%TO.N,Net-(J4-Pin_5)*%
X134770000Y-35190000D02*
X132760000Y-33180000D01*
X132760000Y-33180000D02*
X131010000Y-33180000D01*
%TO.N,Net-(J4-Pin_4)*%
X131665956Y-33830000D02*
X131010000Y-33830000D01*
X134770000Y-37730000D02*
X134770000Y-36934044D01*
X134770000Y-36934044D02*
X131665956Y-33830000D01*
%TO.N,Net-(J4-Pin_6)*%
X131130000Y-32650000D02*
X131010000Y-32530000D01*
X134770000Y-32650000D02*
X131130000Y-32650000D01*
%TO.N,SCK*%
X111470000Y-73180000D02*
X109110000Y-73180000D01*
X106022499Y-68000000D02*
X104175000Y-68000000D01*
X113320000Y-75030000D02*
X111470000Y-73180000D01*
X108967500Y-65054999D02*
X106022499Y-68000000D01*
X108967500Y-64242500D02*
X108967500Y-65054999D01*
X106170000Y-68830000D02*
X105340000Y-68000000D01*
X105340000Y-68000000D02*
X104175000Y-68000000D01*
%TO.N,CS*%
X104175000Y-69165000D02*
X104175000Y-68500000D01*
X111767501Y-77570000D02*
X113320000Y-77570000D01*
X106427500Y-72229999D02*
X111767501Y-77570000D01*
X106427500Y-71417500D02*
X104175000Y-69165000D01*
X106427500Y-71417500D02*
X106427500Y-72229999D01*
%TO.N,MOSI*%
X106136985Y-67036985D02*
X104211985Y-67036985D01*
X110237500Y-64633528D02*
X108040518Y-66830510D01*
X113320000Y-72490000D02*
X111630000Y-72490000D01*
X111630000Y-72490000D02*
X111629265Y-72489265D01*
X104211985Y-67036985D02*
X104175000Y-67000000D01*
X110237500Y-64242500D02*
X110237500Y-64633528D01*
%TO.N,MISO*%
X110740000Y-72530000D02*
X113320000Y-69950000D01*
X107697500Y-71783810D02*
X107263670Y-72217640D01*
X102410000Y-68190000D02*
X103100000Y-67500000D01*
X107697500Y-71417500D02*
X107697500Y-71783810D01*
X103100000Y-67500000D02*
X104175000Y-67500000D01*
X107997501Y-72530000D02*
X110740000Y-72530000D01*
X107697500Y-72229999D02*
X107997501Y-72530000D01*
X107697500Y-71417500D02*
X107697500Y-72229999D01*
%TO.N,Net-(J6-Pin_4)*%
X111297441Y-59375000D02*
X108480000Y-59375000D01*
X102950000Y-55080000D02*
X102755000Y-55080000D01*
X112440000Y-61260000D02*
X112440000Y-60517559D01*
X112440000Y-60517559D02*
X111297441Y-59375000D01*
X102755000Y-55080000D02*
X102500000Y-54825000D01*
%TO.N,Net-(J6-Pin_3)*%
X105776304Y-58775000D02*
X105275000Y-58273696D01*
X112385000Y-58775000D02*
X105776304Y-58775000D01*
X112440000Y-58720000D02*
X112385000Y-58775000D01*
X105007410Y-58000000D02*
X104175000Y-58000000D01*
X105275000Y-58273696D02*
X105275000Y-58267590D01*
X105275000Y-58267590D02*
X105007410Y-58000000D01*
%TO.N,TX_OUT*%
X105007410Y-60000000D02*
X104175000Y-60000000D01*
X108173696Y-61580000D02*
X106587410Y-61580000D01*
X106587410Y-61580000D02*
X105007410Y-60000000D01*
X109133696Y-62825000D02*
X109133696Y-62540000D01*
X119110000Y-62760000D02*
X119045000Y-62825000D01*
X109133696Y-62540000D02*
X108173696Y-61580000D01*
X119045000Y-62825000D02*
X109133696Y-62825000D01*
%TO.N,RX_IN*%
X110233696Y-62425000D02*
X110233696Y-62090000D01*
X110233696Y-62090000D02*
X107643696Y-59500000D01*
X116905000Y-62425000D02*
X110233696Y-62425000D01*
X119110000Y-60220000D02*
X116905000Y-62425000D01*
X107643696Y-59500000D02*
X104175000Y-59500000D01*
%TO.N,Net-(U1-BOOT0)*%
X93490000Y-54815000D02*
X93500000Y-54825000D01*
X93490000Y-53110000D02*
X93490000Y-54815000D01*
%TO.N,Net-(U1-PB2)*%
X95970000Y-71980000D02*
X95970000Y-70205000D01*
X95970000Y-70205000D02*
X96000000Y-70175000D01*
%TD*%
%TA.AperFunction,Conductor*%
%TO.N,GND*%
G36*
X112227893Y-68268109D02*
G01*
X112254253Y-68269995D01*
X112263306Y-68275813D01*
X112270346Y-68277345D01*
X112298600Y-68298496D01*
X112440213Y-68440109D01*
X112612182Y-68565050D01*
X112620946Y-68569516D01*
X112671742Y-68617491D01*
X112688536Y-68685312D01*
X112665998Y-68751447D01*
X112620946Y-68790484D01*
X112612182Y-68794949D01*
X112440213Y-68919890D01*
X112289890Y-69070213D01*
X112164951Y-69242179D01*
X112068444Y-69431585D01*
X112002753Y-69633760D01*
X111973463Y-69818694D01*
X111969500Y-69843713D01*
X111969500Y-70056287D01*
X111975983Y-70097221D01*
X112002754Y-70266244D01*
X112002754Y-70266247D01*
X112016491Y-70308523D01*
X112018486Y-70378364D01*
X111986241Y-70434522D01*
X110527584Y-71893181D01*
X110466261Y-71926666D01*
X110439903Y-71929500D01*
X109917000Y-71929500D01*
X109849961Y-71909815D01*
X109804206Y-71857011D01*
X109793000Y-71805500D01*
X109792999Y-70713903D01*
X109791160Y-70693667D01*
X109804697Y-70625121D01*
X109826967Y-70594767D01*
X112123242Y-68298493D01*
X112131183Y-68294157D01*
X112136609Y-68286910D01*
X112161368Y-68277675D01*
X112184561Y-68265011D01*
X112193590Y-68265656D01*
X112202073Y-68262493D01*
X112227893Y-68268109D01*
G37*
%TD.AperFunction*%
%TA.AperFunction,Conductor*%
G36*
X117759521Y-63445185D02*
G01*
X117792800Y-63476614D01*
X117918455Y-63649563D01*
X117918457Y-63649565D01*
X118012981Y-63744089D01*
X118046466Y-63805412D01*
X118041482Y-63875104D01*
X117999610Y-63931037D01*
X117968633Y-63947952D01*
X117852671Y-63991202D01*
X117852664Y-63991206D01*
X117737455Y-64077452D01*
X117737452Y-64077455D01*
X117651206Y-64192664D01*
X117651202Y-64192671D01*
X117600908Y-64327517D01*
X117595512Y-64377710D01*
X117594501Y-64387123D01*
X117594500Y-64387135D01*
X117594500Y-64575500D01*
X117574815Y-64642539D01*
X117522011Y-64688294D01*
X117470500Y-64699500D01*
X115516670Y-64699500D01*
X115516654Y-64699499D01*
X115509058Y-64699499D01*
X115350943Y-64699499D01*
X115274579Y-64719961D01*
X115198214Y-64740423D01*
X115198209Y-64740426D01*
X115061290Y-64819475D01*
X115061282Y-64819481D01*
X113804522Y-66076241D01*
X113743199Y-66109726D01*
X113678523Y-66106491D01*
X113636245Y-66092754D01*
X113496272Y-66070584D01*
X113426287Y-66059500D01*
X113213713Y-66059500D01*
X113165042Y-66067208D01*
X113003760Y-66092753D01*
X112801585Y-66158444D01*
X112612179Y-66254951D01*
X112440213Y-66379890D01*
X112289890Y-66530213D01*
X112164949Y-66702182D01*
X112139573Y-66751985D01*
X112091598Y-66802781D01*
X112061186Y-66815463D01*
X111930717Y-66850423D01*
X111930716Y-66850423D01*
X111930714Y-66850424D01*
X111930710Y-66850426D01*
X111793791Y-66929475D01*
X111793783Y-66929481D01*
X109055180Y-69668084D01*
X108993857Y-69701569D01*
X108924165Y-69696585D01*
X108879818Y-69668084D01*
X108500089Y-69288355D01*
X108500087Y-69288352D01*
X108381216Y-69169481D01*
X108381215Y-69169480D01*
X108294403Y-69119360D01*
X108294403Y-69119359D01*
X108294399Y-69119358D01*
X108244284Y-69090423D01*
X108091556Y-69049499D01*
X107933442Y-69049499D01*
X107925846Y-69049499D01*
X107925830Y-69049500D01*
X107093460Y-69049500D01*
X107026421Y-69029815D01*
X106980666Y-68977011D01*
X106970056Y-68913354D01*
X106970500Y-68908843D01*
X106970500Y-68751155D01*
X106970499Y-68751153D01*
X106965344Y-68725236D01*
X106939737Y-68596503D01*
X106926708Y-68565048D01*
X106879397Y-68450827D01*
X106879390Y-68450814D01*
X106791789Y-68319711D01*
X106791786Y-68319707D01*
X106759587Y-68287508D01*
X106726102Y-68226185D01*
X106731086Y-68156493D01*
X106759587Y-68112146D01*
X107060919Y-67810814D01*
X107391855Y-67479877D01*
X107453177Y-67446394D01*
X107522869Y-67451378D01*
X107548426Y-67464458D01*
X107661332Y-67539900D01*
X107661345Y-67539907D01*
X107729683Y-67568213D01*
X107807021Y-67600247D01*
X107961671Y-67631009D01*
X107961674Y-67631010D01*
X107961676Y-67631010D01*
X108119362Y-67631010D01*
X108119363Y-67631009D01*
X108274015Y-67600247D01*
X108419697Y-67539904D01*
X108550807Y-67452299D01*
X108662307Y-67340799D01*
X108749912Y-67209689D01*
X108810255Y-67064007D01*
X108834087Y-66944195D01*
X108841156Y-66908660D01*
X108873541Y-66846749D01*
X108875036Y-66845226D01*
X110128445Y-65591818D01*
X110189768Y-65558333D01*
X110216126Y-65555499D01*
X110453597Y-65555499D01*
X110520382Y-65549431D01*
X110520385Y-65549430D01*
X110520387Y-65549430D01*
X110674102Y-65501531D01*
X110811888Y-65418236D01*
X110925736Y-65304388D01*
X111009031Y-65166602D01*
X111056930Y-65012887D01*
X111063000Y-64946091D01*
X111062999Y-63549499D01*
X111082684Y-63482461D01*
X111135487Y-63436706D01*
X111186999Y-63425500D01*
X117692482Y-63425500D01*
X117759521Y-63445185D01*
G37*
%TD.AperFunction*%
%TA.AperFunction,Conductor*%
G36*
X91058127Y-55996054D02*
G01*
X91075482Y-56007206D01*
X91134767Y-56052698D01*
X91274764Y-56110687D01*
X91381586Y-56124750D01*
X91387264Y-56125498D01*
X91387280Y-56125500D01*
X91387287Y-56125500D01*
X91612713Y-56125500D01*
X91612720Y-56125500D01*
X91725236Y-56110687D01*
X91725236Y-56110686D01*
X91733295Y-56109626D01*
X91733698Y-56112689D01*
X91766302Y-56112689D01*
X91766705Y-56109626D01*
X91774763Y-56110686D01*
X91774764Y-56110687D01*
X91887280Y-56125500D01*
X91887287Y-56125500D01*
X92112713Y-56125500D01*
X92112720Y-56125500D01*
X92225236Y-56110687D01*
X92225236Y-56110686D01*
X92233295Y-56109626D01*
X92233698Y-56112689D01*
X92266302Y-56112689D01*
X92266705Y-56109626D01*
X92274763Y-56110686D01*
X92274764Y-56110687D01*
X92387280Y-56125500D01*
X92387287Y-56125500D01*
X92612713Y-56125500D01*
X92612720Y-56125500D01*
X92725236Y-56110687D01*
X92725236Y-56110686D01*
X92733295Y-56109626D01*
X92733698Y-56112689D01*
X92766302Y-56112689D01*
X92766705Y-56109626D01*
X92774763Y-56110686D01*
X92774764Y-56110687D01*
X92887280Y-56125500D01*
X92887287Y-56125500D01*
X93112713Y-56125500D01*
X93112720Y-56125500D01*
X93225236Y-56110687D01*
X93225236Y-56110686D01*
X93233295Y-56109626D01*
X93233698Y-56112689D01*
X93266302Y-56112689D01*
X93266705Y-56109626D01*
X93274763Y-56110686D01*
X93274764Y-56110687D01*
X93387280Y-56125500D01*
X93387287Y-56125500D01*
X93612713Y-56125500D01*
X93612720Y-56125500D01*
X93725236Y-56110687D01*
X93725236Y-56110686D01*
X93733295Y-56109626D01*
X93733698Y-56112689D01*
X93766302Y-56112689D01*
X93766705Y-56109626D01*
X93774763Y-56110686D01*
X93774764Y-56110687D01*
X93887280Y-56125500D01*
X93887287Y-56125500D01*
X94112713Y-56125500D01*
X94112720Y-56125500D01*
X94225236Y-56110687D01*
X94225236Y-56110686D01*
X94233295Y-56109626D01*
X94233698Y-56112689D01*
X94266302Y-56112689D01*
X94266705Y-56109626D01*
X94274763Y-56110686D01*
X94274764Y-56110687D01*
X94387280Y-56125500D01*
X94387287Y-56125500D01*
X94612713Y-56125500D01*
X94612720Y-56125500D01*
X94725236Y-56110687D01*
X94725236Y-56110686D01*
X94733295Y-56109626D01*
X94733698Y-56112689D01*
X94766302Y-56112689D01*
X94766705Y-56109626D01*
X94774763Y-56110686D01*
X94774764Y-56110687D01*
X94887280Y-56125500D01*
X94887287Y-56125500D01*
X95112713Y-56125500D01*
X95112720Y-56125500D01*
X95225236Y-56110687D01*
X95225236Y-56110686D01*
X95233295Y-56109626D01*
X95233698Y-56112689D01*
X95266302Y-56112689D01*
X95266705Y-56109626D01*
X95274763Y-56110686D01*
X95274764Y-56110687D01*
X95387280Y-56125500D01*
X95387287Y-56125500D01*
X95612713Y-56125500D01*
X95612720Y-56125500D01*
X95725236Y-56110687D01*
X95725236Y-56110686D01*
X95733295Y-56109626D01*
X95733698Y-56112689D01*
X95766302Y-56112689D01*
X95766705Y-56109626D01*
X95774763Y-56110686D01*
X95774764Y-56110687D01*
X95887280Y-56125500D01*
X95887287Y-56125500D01*
X96112713Y-56125500D01*
X96112720Y-56125500D01*
X96225236Y-56110687D01*
X96225236Y-56110686D01*
X96233295Y-56109626D01*
X96233698Y-56112689D01*
X96266302Y-56112689D01*
X96266705Y-56109626D01*
X96274763Y-56110686D01*
X96274764Y-56110687D01*
X96387280Y-56125500D01*
X96387287Y-56125500D01*
X96612713Y-56125500D01*
X96612720Y-56125500D01*
X96725236Y-56110687D01*
X96725236Y-56110686D01*
X96733295Y-56109626D01*
X96733698Y-56112689D01*
X96766302Y-56112689D01*
X96766705Y-56109626D01*
X96774763Y-56110686D01*
X96774764Y-56110687D01*
X96887280Y-56125500D01*
X96887287Y-56125500D01*
X97112713Y-56125500D01*
X97112720Y-56125500D01*
X97225236Y-56110687D01*
X97225236Y-56110686D01*
X97233295Y-56109626D01*
X97233698Y-56112689D01*
X97266302Y-56112689D01*
X97266705Y-56109626D01*
X97274763Y-56110686D01*
X97274764Y-56110687D01*
X97387280Y-56125500D01*
X97387287Y-56125500D01*
X97612713Y-56125500D01*
X97612720Y-56125500D01*
X97725236Y-56110687D01*
X97725236Y-56110686D01*
X97733295Y-56109626D01*
X97733698Y-56112689D01*
X97766302Y-56112689D01*
X97766705Y-56109626D01*
X97774763Y-56110686D01*
X97774764Y-56110687D01*
X97887280Y-56125500D01*
X97887287Y-56125500D01*
X98112713Y-56125500D01*
X98112720Y-56125500D01*
X98225236Y-56110687D01*
X98225236Y-56110686D01*
X98233295Y-56109626D01*
X98233698Y-56112689D01*
X98266302Y-56112689D01*
X98266705Y-56109626D01*
X98274763Y-56110686D01*
X98274764Y-56110687D01*
X98387280Y-56125500D01*
X98387287Y-56125500D01*
X98612713Y-56125500D01*
X98612720Y-56125500D01*
X98725236Y-56110687D01*
X98725236Y-56110686D01*
X98733295Y-56109626D01*
X98733698Y-56112689D01*
X98766302Y-56112689D01*
X98766705Y-56109626D01*
X98774763Y-56110686D01*
X98774764Y-56110687D01*
X98887280Y-56125500D01*
X98887287Y-56125500D01*
X99112713Y-56125500D01*
X99112720Y-56125500D01*
X99225236Y-56110687D01*
X99225236Y-56110686D01*
X99233295Y-56109626D01*
X99233698Y-56112689D01*
X99266302Y-56112689D01*
X99266705Y-56109626D01*
X99274763Y-56110686D01*
X99274764Y-56110687D01*
X99387280Y-56125500D01*
X99387287Y-56125500D01*
X99612713Y-56125500D01*
X99612720Y-56125500D01*
X99725236Y-56110687D01*
X99725236Y-56110686D01*
X99733295Y-56109626D01*
X99733698Y-56112689D01*
X99766302Y-56112689D01*
X99766705Y-56109626D01*
X99774763Y-56110686D01*
X99774764Y-56110687D01*
X99887280Y-56125500D01*
X99887287Y-56125500D01*
X100112713Y-56125500D01*
X100112720Y-56125500D01*
X100225236Y-56110687D01*
X100225236Y-56110686D01*
X100233295Y-56109626D01*
X100233698Y-56112689D01*
X100266302Y-56112689D01*
X100266705Y-56109626D01*
X100274763Y-56110686D01*
X100274764Y-56110687D01*
X100387280Y-56125500D01*
X100387287Y-56125500D01*
X100612713Y-56125500D01*
X100612720Y-56125500D01*
X100725236Y-56110687D01*
X100725236Y-56110686D01*
X100733295Y-56109626D01*
X100733698Y-56112689D01*
X100766302Y-56112689D01*
X100766705Y-56109626D01*
X100774763Y-56110686D01*
X100774764Y-56110687D01*
X100887280Y-56125500D01*
X100887287Y-56125500D01*
X101112713Y-56125500D01*
X101112720Y-56125500D01*
X101225236Y-56110687D01*
X101225236Y-56110686D01*
X101233295Y-56109626D01*
X101233698Y-56112689D01*
X101266302Y-56112689D01*
X101266705Y-56109626D01*
X101274763Y-56110686D01*
X101274764Y-56110687D01*
X101387280Y-56125500D01*
X101387287Y-56125500D01*
X101612713Y-56125500D01*
X101612720Y-56125500D01*
X101725236Y-56110687D01*
X101725236Y-56110686D01*
X101733295Y-56109626D01*
X101733698Y-56112689D01*
X101766302Y-56112689D01*
X101766705Y-56109626D01*
X101774763Y-56110686D01*
X101774764Y-56110687D01*
X101887280Y-56125500D01*
X101887287Y-56125500D01*
X102112713Y-56125500D01*
X102112720Y-56125500D01*
X102225236Y-56110687D01*
X102225236Y-56110686D01*
X102233295Y-56109626D01*
X102233698Y-56112689D01*
X102266302Y-56112689D01*
X102266705Y-56109626D01*
X102274763Y-56110686D01*
X102274764Y-56110687D01*
X102387280Y-56125500D01*
X102387287Y-56125500D01*
X102612713Y-56125500D01*
X102612720Y-56125500D01*
X102725236Y-56110687D01*
X102728754Y-56109229D01*
X102731961Y-56108884D01*
X102733087Y-56108583D01*
X102733134Y-56108758D01*
X102798220Y-56101757D01*
X102860701Y-56133028D01*
X102896357Y-56193114D01*
X102893868Y-56262940D01*
X102890774Y-56271235D01*
X102889315Y-56274757D01*
X102889313Y-56274764D01*
X102874500Y-56387272D01*
X102874500Y-56612727D01*
X102889313Y-56725235D01*
X102889313Y-56725236D01*
X102947300Y-56865230D01*
X102947301Y-56865232D01*
X102947302Y-56865233D01*
X102992790Y-56924514D01*
X103002832Y-56950490D01*
X103015885Y-56975086D01*
X103015255Y-56982625D01*
X103017984Y-56989683D01*
X103012388Y-57016963D01*
X103010072Y-57044713D01*
X103004755Y-57054180D01*
X103003946Y-57058127D01*
X102992793Y-57075482D01*
X102950203Y-57130987D01*
X102893774Y-57172189D01*
X102851827Y-57179500D01*
X102701155Y-57179500D01*
X102546510Y-57210261D01*
X102546498Y-57210264D01*
X102400827Y-57270602D01*
X102400814Y-57270609D01*
X102269711Y-57358210D01*
X102269707Y-57358213D01*
X102158213Y-57469707D01*
X102158210Y-57469711D01*
X102070609Y-57600814D01*
X102070602Y-57600827D01*
X102010264Y-57746498D01*
X102010261Y-57746510D01*
X101979500Y-57901153D01*
X101979500Y-57945500D01*
X101959815Y-58012539D01*
X101907011Y-58058294D01*
X101855500Y-58069500D01*
X101841155Y-58069500D01*
X101686510Y-58100261D01*
X101686498Y-58100264D01*
X101540827Y-58160602D01*
X101540814Y-58160609D01*
X101409711Y-58248210D01*
X101409707Y-58248213D01*
X101298213Y-58359707D01*
X101298210Y-58359711D01*
X101210609Y-58490814D01*
X101210602Y-58490827D01*
X101150264Y-58636498D01*
X101150261Y-58636510D01*
X101119500Y-58791153D01*
X101119500Y-58948846D01*
X101150261Y-59103489D01*
X101150264Y-59103501D01*
X101210602Y-59249172D01*
X101210609Y-59249185D01*
X101298210Y-59380288D01*
X101298213Y-59380292D01*
X101409707Y-59491786D01*
X101409711Y-59491789D01*
X101540814Y-59579390D01*
X101540827Y-59579397D01*
X101640794Y-59620804D01*
X101686503Y-59639737D01*
X101816826Y-59665660D01*
X101841153Y-59670499D01*
X101841156Y-59670500D01*
X101841158Y-59670500D01*
X101998844Y-59670500D01*
X101998845Y-59670499D01*
X102153497Y-59639737D01*
X102200700Y-59620185D01*
X102225437Y-59609939D01*
X102272889Y-59600500D01*
X102764146Y-59600500D01*
X102764713Y-59600666D01*
X102765283Y-59600505D01*
X102798209Y-59610502D01*
X102831185Y-59620185D01*
X102831572Y-59620631D01*
X102832139Y-59620804D01*
X102854451Y-59647035D01*
X102876940Y-59672989D01*
X102877152Y-59673724D01*
X102877408Y-59674025D01*
X102884787Y-59700171D01*
X102887041Y-59707979D01*
X102889313Y-59725236D01*
X102889383Y-59725407D01*
X102890469Y-59733479D01*
X102887399Y-59753523D01*
X102887399Y-59766316D01*
X102890374Y-59766708D01*
X102874500Y-59887272D01*
X102874500Y-60112727D01*
X102883511Y-60181166D01*
X102888840Y-60221647D01*
X102890374Y-60233292D01*
X102887399Y-60233683D01*
X102887399Y-60266316D01*
X102890374Y-60266708D01*
X102874500Y-60387272D01*
X102874500Y-60612727D01*
X102890374Y-60733292D01*
X102887399Y-60733683D01*
X102887399Y-60766316D01*
X102890374Y-60766708D01*
X102874500Y-60887272D01*
X102874500Y-61112727D01*
X102882844Y-61176100D01*
X102889024Y-61223044D01*
X102890374Y-61233292D01*
X102887399Y-61233683D01*
X102887399Y-61266316D01*
X102890374Y-61266708D01*
X102874500Y-61387272D01*
X102874500Y-61387280D01*
X102874500Y-61612720D01*
X102888420Y-61718455D01*
X102890374Y-61733292D01*
X102887399Y-61733683D01*
X102887399Y-61766316D01*
X102890374Y-61766708D01*
X102889313Y-61774762D01*
X102889313Y-61774764D01*
X102888075Y-61784170D01*
X102874500Y-61887272D01*
X102874500Y-62112727D01*
X102885499Y-62196271D01*
X102887965Y-62215000D01*
X102890374Y-62233292D01*
X102887399Y-62233683D01*
X102887399Y-62266316D01*
X102890374Y-62266708D01*
X102874500Y-62387272D01*
X102874500Y-62612727D01*
X102890374Y-62733292D01*
X102887399Y-62733683D01*
X102887399Y-62766316D01*
X102890374Y-62766708D01*
X102874500Y-62887272D01*
X102874500Y-63112727D01*
X102890374Y-63233292D01*
X102887399Y-63233683D01*
X102887399Y-63266316D01*
X102890374Y-63266708D01*
X102889313Y-63274762D01*
X102889313Y-63274764D01*
X102888075Y-63284167D01*
X102874500Y-63387272D01*
X102874500Y-63612727D01*
X102890374Y-63733292D01*
X102887399Y-63733683D01*
X102887399Y-63766316D01*
X102890374Y-63766708D01*
X102889313Y-63774762D01*
X102889313Y-63774764D01*
X102885938Y-63800393D01*
X102874500Y-63887272D01*
X102874500Y-64112727D01*
X102890374Y-64233292D01*
X102887399Y-64233683D01*
X102887399Y-64266316D01*
X102890374Y-64266708D01*
X102889313Y-64274762D01*
X102889313Y-64274764D01*
X102885938Y-64300393D01*
X102874500Y-64387272D01*
X102874500Y-64612727D01*
X102890374Y-64733292D01*
X102887399Y-64733683D01*
X102887399Y-64766316D01*
X102890374Y-64766708D01*
X102874500Y-64887272D01*
X102874500Y-65112727D01*
X102885499Y-65196271D01*
X102889222Y-65224548D01*
X102890374Y-65233292D01*
X102887399Y-65233683D01*
X102887399Y-65266316D01*
X102890374Y-65266708D01*
X102874500Y-65387272D01*
X102874500Y-65612727D01*
X102890374Y-65733292D01*
X102887399Y-65733683D01*
X102887399Y-65766316D01*
X102890374Y-65766708D01*
X102874500Y-65887272D01*
X102874500Y-66112727D01*
X102882734Y-66175267D01*
X102887685Y-66212873D01*
X102890374Y-66233292D01*
X102887399Y-66233683D01*
X102887399Y-66266316D01*
X102890374Y-66266708D01*
X102874500Y-66387272D01*
X102874500Y-66612727D01*
X102890053Y-66730860D01*
X102890105Y-66730969D01*
X102890094Y-66731168D01*
X102890374Y-66733292D01*
X102889978Y-66733344D01*
X102889257Y-66746928D01*
X102890503Y-66766261D01*
X102889408Y-66774532D01*
X102889313Y-66774764D01*
X102875590Y-66878994D01*
X102875416Y-66880316D01*
X102861445Y-66911843D01*
X102847159Y-66944138D01*
X102847121Y-66944169D01*
X102847110Y-66944195D01*
X102847019Y-66944254D01*
X102814487Y-66971442D01*
X102731287Y-67019477D01*
X102731282Y-67019481D01*
X102395339Y-67355425D01*
X102334016Y-67388910D01*
X102331850Y-67389361D01*
X102176508Y-67420261D01*
X102176498Y-67420264D01*
X102030827Y-67480602D01*
X102030814Y-67480609D01*
X101899711Y-67568210D01*
X101899707Y-67568213D01*
X101788213Y-67679707D01*
X101788210Y-67679711D01*
X101700609Y-67810814D01*
X101700602Y-67810827D01*
X101640264Y-67956498D01*
X101640261Y-67956510D01*
X101609500Y-68111153D01*
X101609500Y-68268846D01*
X101640261Y-68423489D01*
X101640264Y-68423501D01*
X101700602Y-68569172D01*
X101700609Y-68569185D01*
X101780723Y-68689083D01*
X101801601Y-68755760D01*
X101783117Y-68823141D01*
X101731138Y-68869831D01*
X101662168Y-68881007D01*
X101661437Y-68880913D01*
X101612732Y-68874501D01*
X101612724Y-68874500D01*
X101612720Y-68874500D01*
X101387280Y-68874500D01*
X101387272Y-68874500D01*
X101300393Y-68885938D01*
X101274764Y-68889313D01*
X101274762Y-68889313D01*
X101266708Y-68890374D01*
X101266316Y-68887399D01*
X101233684Y-68887399D01*
X101233292Y-68890374D01*
X101225237Y-68889313D01*
X101225236Y-68889313D01*
X101196271Y-68885499D01*
X101112727Y-68874500D01*
X101112720Y-68874500D01*
X100887280Y-68874500D01*
X100887272Y-68874500D01*
X100800393Y-68885938D01*
X100774764Y-68889313D01*
X100774762Y-68889313D01*
X100766708Y-68890374D01*
X100766316Y-68887399D01*
X100733684Y-68887399D01*
X100733292Y-68890374D01*
X100725237Y-68889313D01*
X100725236Y-68889313D01*
X100696271Y-68885499D01*
X100612727Y-68874500D01*
X100612720Y-68874500D01*
X100387280Y-68874500D01*
X100387272Y-68874500D01*
X100300393Y-68885938D01*
X100274764Y-68889313D01*
X100274762Y-68889313D01*
X100266708Y-68890374D01*
X100266316Y-68887399D01*
X100233684Y-68887399D01*
X100233292Y-68890374D01*
X100225237Y-68889313D01*
X100225236Y-68889313D01*
X100196271Y-68885499D01*
X100112727Y-68874500D01*
X100112720Y-68874500D01*
X99887280Y-68874500D01*
X99887272Y-68874500D01*
X99800393Y-68885938D01*
X99774764Y-68889313D01*
X99774762Y-68889313D01*
X99766708Y-68890374D01*
X99766316Y-68887399D01*
X99733684Y-68887399D01*
X99733292Y-68890374D01*
X99725237Y-68889313D01*
X99725236Y-68889313D01*
X99696271Y-68885499D01*
X99612727Y-68874500D01*
X99612720Y-68874500D01*
X99387280Y-68874500D01*
X99387272Y-68874500D01*
X99300393Y-68885938D01*
X99274764Y-68889313D01*
X99274762Y-68889313D01*
X99266708Y-68890374D01*
X99266316Y-68887399D01*
X99233684Y-68887399D01*
X99233292Y-68890374D01*
X99225237Y-68889313D01*
X99225236Y-68889313D01*
X99196271Y-68885499D01*
X99112727Y-68874500D01*
X99112720Y-68874500D01*
X98887280Y-68874500D01*
X98887272Y-68874500D01*
X98800393Y-68885938D01*
X98774764Y-68889313D01*
X98774762Y-68889313D01*
X98766708Y-68890374D01*
X98766316Y-68887399D01*
X98733684Y-68887399D01*
X98733292Y-68890374D01*
X98725237Y-68889313D01*
X98725236Y-68889313D01*
X98696271Y-68885499D01*
X98612727Y-68874500D01*
X98612720Y-68874500D01*
X98387280Y-68874500D01*
X98387272Y-68874500D01*
X98300393Y-68885938D01*
X98274764Y-68889313D01*
X98274762Y-68889313D01*
X98266708Y-68890374D01*
X98266316Y-68887399D01*
X98233684Y-68887399D01*
X98233292Y-68890374D01*
X98225237Y-68889313D01*
X98225236Y-68889313D01*
X98196271Y-68885499D01*
X98112727Y-68874500D01*
X98112720Y-68874500D01*
X97887280Y-68874500D01*
X97887272Y-68874500D01*
X97800393Y-68885938D01*
X97774764Y-68889313D01*
X97774762Y-68889313D01*
X97766708Y-68890374D01*
X97766316Y-68887399D01*
X97733684Y-68887399D01*
X97733292Y-68890374D01*
X97725237Y-68889313D01*
X97725236Y-68889313D01*
X97696271Y-68885499D01*
X97612727Y-68874500D01*
X97612720Y-68874500D01*
X97387280Y-68874500D01*
X97387272Y-68874500D01*
X97300393Y-68885938D01*
X97274764Y-68889313D01*
X97274762Y-68889313D01*
X97266708Y-68890374D01*
X97266316Y-68887399D01*
X97233684Y-68887399D01*
X97233292Y-68890374D01*
X97225237Y-68889313D01*
X97225236Y-68889313D01*
X97196271Y-68885499D01*
X97112727Y-68874500D01*
X97112720Y-68874500D01*
X96887280Y-68874500D01*
X96887272Y-68874500D01*
X96800393Y-68885938D01*
X96774764Y-68889313D01*
X96774762Y-68889313D01*
X96766708Y-68890374D01*
X96766316Y-68887399D01*
X96733684Y-68887399D01*
X96733292Y-68890374D01*
X96725237Y-68889313D01*
X96725236Y-68889313D01*
X96696271Y-68885499D01*
X96612727Y-68874500D01*
X96612720Y-68874500D01*
X96387280Y-68874500D01*
X96387272Y-68874500D01*
X96300393Y-68885938D01*
X96274764Y-68889313D01*
X96274762Y-68889313D01*
X96266708Y-68890374D01*
X96266316Y-68887399D01*
X96233684Y-68887399D01*
X96233292Y-68890374D01*
X96225237Y-68889313D01*
X96225236Y-68889313D01*
X96196271Y-68885499D01*
X96112727Y-68874500D01*
X96112720Y-68874500D01*
X95887280Y-68874500D01*
X95887272Y-68874500D01*
X95800393Y-68885938D01*
X95774764Y-68889313D01*
X95774762Y-68889313D01*
X95766708Y-68890374D01*
X95766316Y-68887399D01*
X95733684Y-68887399D01*
X95733292Y-68890374D01*
X95725237Y-68889313D01*
X95725236Y-68889313D01*
X95696271Y-68885499D01*
X95612727Y-68874500D01*
X95612720Y-68874500D01*
X95387280Y-68874500D01*
X95387272Y-68874500D01*
X95300393Y-68885938D01*
X95274764Y-68889313D01*
X95274762Y-68889313D01*
X95266708Y-68890374D01*
X95266316Y-68887399D01*
X95233684Y-68887399D01*
X95233292Y-68890374D01*
X95225237Y-68889313D01*
X95225236Y-68889313D01*
X95196271Y-68885499D01*
X95112727Y-68874500D01*
X95112720Y-68874500D01*
X94887280Y-68874500D01*
X94887272Y-68874500D01*
X94800393Y-68885938D01*
X94774764Y-68889313D01*
X94774762Y-68889313D01*
X94766708Y-68890374D01*
X94766316Y-68887399D01*
X94733684Y-68887399D01*
X94733292Y-68890374D01*
X94725237Y-68889313D01*
X94725236Y-68889313D01*
X94696271Y-68885499D01*
X94612727Y-68874500D01*
X94612720Y-68874500D01*
X94387280Y-68874500D01*
X94387272Y-68874500D01*
X94300393Y-68885938D01*
X94274764Y-68889313D01*
X94274762Y-68889313D01*
X94266708Y-68890374D01*
X94266316Y-68887399D01*
X94233684Y-68887399D01*
X94233292Y-68890374D01*
X94225237Y-68889313D01*
X94225236Y-68889313D01*
X94196271Y-68885499D01*
X94112727Y-68874500D01*
X94112720Y-68874500D01*
X93887280Y-68874500D01*
X93887272Y-68874500D01*
X93800393Y-68885938D01*
X93774764Y-68889313D01*
X93774762Y-68889313D01*
X93766708Y-68890374D01*
X93766316Y-68887399D01*
X93733684Y-68887399D01*
X93733292Y-68890374D01*
X93725237Y-68889313D01*
X93725236Y-68889313D01*
X93696271Y-68885499D01*
X93612727Y-68874500D01*
X93612720Y-68874500D01*
X93387280Y-68874500D01*
X93387272Y-68874500D01*
X93300393Y-68885938D01*
X93274764Y-68889313D01*
X93274762Y-68889313D01*
X93266708Y-68890374D01*
X93266316Y-68887399D01*
X93233684Y-68887399D01*
X93233292Y-68890374D01*
X93225237Y-68889313D01*
X93225236Y-68889313D01*
X93196271Y-68885499D01*
X93112727Y-68874500D01*
X93112720Y-68874500D01*
X92887280Y-68874500D01*
X92887272Y-68874500D01*
X92800393Y-68885938D01*
X92774764Y-68889313D01*
X92774762Y-68889313D01*
X92766708Y-68890374D01*
X92766316Y-68887399D01*
X92733684Y-68887399D01*
X92733292Y-68890374D01*
X92725237Y-68889313D01*
X92725236Y-68889313D01*
X92696271Y-68885499D01*
X92612727Y-68874500D01*
X92612720Y-68874500D01*
X92387280Y-68874500D01*
X92387272Y-68874500D01*
X92300393Y-68885938D01*
X92274764Y-68889313D01*
X92274762Y-68889313D01*
X92266708Y-68890374D01*
X92266316Y-68887399D01*
X92233684Y-68887399D01*
X92233292Y-68890374D01*
X92225237Y-68889313D01*
X92225236Y-68889313D01*
X92196271Y-68885499D01*
X92112727Y-68874500D01*
X92112720Y-68874500D01*
X91887280Y-68874500D01*
X91887272Y-68874500D01*
X91800393Y-68885938D01*
X91774764Y-68889313D01*
X91774762Y-68889313D01*
X91766708Y-68890374D01*
X91766316Y-68887399D01*
X91733684Y-68887399D01*
X91733292Y-68890374D01*
X91725237Y-68889313D01*
X91725236Y-68889313D01*
X91696271Y-68885499D01*
X91612727Y-68874500D01*
X91612720Y-68874500D01*
X91387280Y-68874500D01*
X91387272Y-68874500D01*
X91274764Y-68889313D01*
X91274763Y-68889313D01*
X91134769Y-68947300D01*
X91131962Y-68949454D01*
X91075485Y-68992790D01*
X91010317Y-69017984D01*
X90941873Y-69003946D01*
X90924517Y-68992793D01*
X90865233Y-68947302D01*
X90865232Y-68947301D01*
X90865230Y-68947300D01*
X90749998Y-68899570D01*
X90725236Y-68889313D01*
X90710698Y-68887399D01*
X90612727Y-68874500D01*
X90612720Y-68874500D01*
X90387280Y-68874500D01*
X90387272Y-68874500D01*
X90274764Y-68889313D01*
X90274757Y-68889315D01*
X90271235Y-68890774D01*
X90268025Y-68891118D01*
X90266913Y-68891417D01*
X90266866Y-68891243D01*
X90201766Y-68898240D01*
X90139288Y-68866962D01*
X90103638Y-68806871D01*
X90106135Y-68737046D01*
X90109220Y-68728776D01*
X90110687Y-68725236D01*
X90125500Y-68612720D01*
X90125500Y-68387280D01*
X90110687Y-68274764D01*
X90110686Y-68274763D01*
X90109626Y-68266705D01*
X90112689Y-68266301D01*
X90112689Y-68233698D01*
X90109626Y-68233295D01*
X90112928Y-68208211D01*
X90125500Y-68112720D01*
X90125500Y-67887280D01*
X90110687Y-67774764D01*
X90110686Y-67774763D01*
X90109626Y-67766705D01*
X90112689Y-67766301D01*
X90112689Y-67733698D01*
X90109626Y-67733295D01*
X90116681Y-67679707D01*
X90125500Y-67612720D01*
X90125500Y-67387280D01*
X90110687Y-67274764D01*
X90110686Y-67274763D01*
X90109626Y-67266705D01*
X90112689Y-67266301D01*
X90112689Y-67233698D01*
X90109626Y-67233295D01*
X90112735Y-67209682D01*
X90125500Y-67112720D01*
X90125500Y-66887280D01*
X90110687Y-66774764D01*
X90110686Y-66774763D01*
X90109626Y-66766705D01*
X90112689Y-66766301D01*
X90112689Y-66733698D01*
X90109626Y-66733295D01*
X90118551Y-66665500D01*
X90125500Y-66612720D01*
X90125500Y-66387280D01*
X90110687Y-66274764D01*
X90110686Y-66274763D01*
X90109626Y-66266705D01*
X90112689Y-66266301D01*
X90112689Y-66233698D01*
X90109626Y-66233295D01*
X90112314Y-66212876D01*
X90125500Y-66112720D01*
X90125500Y-65887280D01*
X90110687Y-65774764D01*
X90110686Y-65774763D01*
X90109626Y-65766705D01*
X90112689Y-65766301D01*
X90112689Y-65733698D01*
X90109626Y-65733295D01*
X90121793Y-65640874D01*
X90125500Y-65612720D01*
X90125500Y-65387280D01*
X90110687Y-65274764D01*
X90110686Y-65274763D01*
X90109626Y-65266705D01*
X90112689Y-65266301D01*
X90112689Y-65233698D01*
X90109626Y-65233295D01*
X90113791Y-65201655D01*
X90125500Y-65112720D01*
X90125500Y-64887280D01*
X90110687Y-64774764D01*
X90110686Y-64774763D01*
X90109626Y-64766705D01*
X90112689Y-64766301D01*
X90112689Y-64733698D01*
X90109626Y-64733295D01*
X90114075Y-64699499D01*
X90125500Y-64612720D01*
X90125500Y-64387280D01*
X90110687Y-64274764D01*
X90110686Y-64274763D01*
X90109626Y-64266705D01*
X90112689Y-64266301D01*
X90112689Y-64233698D01*
X90109626Y-64233295D01*
X90114974Y-64192671D01*
X90125500Y-64112720D01*
X90125500Y-63887280D01*
X90110687Y-63774764D01*
X90110686Y-63774763D01*
X90109626Y-63766705D01*
X90112689Y-63766301D01*
X90112689Y-63733698D01*
X90109626Y-63733295D01*
X90115236Y-63690681D01*
X90125500Y-63612720D01*
X90125500Y-63387280D01*
X90110687Y-63274764D01*
X90110686Y-63274763D01*
X90109626Y-63266705D01*
X90112689Y-63266301D01*
X90112689Y-63233698D01*
X90109626Y-63233295D01*
X90110773Y-63224583D01*
X90125500Y-63112720D01*
X90125500Y-62887280D01*
X90110687Y-62774764D01*
X90110686Y-62774763D01*
X90109626Y-62766705D01*
X90112689Y-62766301D01*
X90112689Y-62733698D01*
X90109626Y-62733295D01*
X90120258Y-62652534D01*
X90125500Y-62612720D01*
X90125500Y-62387280D01*
X90110687Y-62274764D01*
X90110686Y-62274763D01*
X90109626Y-62266705D01*
X90112689Y-62266301D01*
X90112689Y-62233698D01*
X90109626Y-62233295D01*
X90110687Y-62225236D01*
X90125500Y-62112720D01*
X90125500Y-61887280D01*
X90110687Y-61774764D01*
X90110686Y-61774763D01*
X90109626Y-61766705D01*
X90112689Y-61766301D01*
X90112689Y-61733698D01*
X90109626Y-61733295D01*
X90125499Y-61612727D01*
X90125500Y-61612720D01*
X90125500Y-61387280D01*
X90110687Y-61274764D01*
X90055398Y-61141285D01*
X90052699Y-61134769D01*
X90052698Y-61134768D01*
X90052698Y-61134767D01*
X90007209Y-61075485D01*
X89982016Y-61010317D01*
X89996054Y-60941873D01*
X90007206Y-60924517D01*
X90052698Y-60865233D01*
X90110687Y-60725236D01*
X90125500Y-60612720D01*
X90125500Y-60387280D01*
X90110687Y-60274764D01*
X90110686Y-60274763D01*
X90109626Y-60266705D01*
X90112689Y-60266301D01*
X90112689Y-60233698D01*
X90109626Y-60233295D01*
X90111158Y-60221655D01*
X90125500Y-60112720D01*
X90125500Y-59887280D01*
X90110687Y-59774764D01*
X90110686Y-59774763D01*
X90109626Y-59766705D01*
X90112689Y-59766301D01*
X90112689Y-59733698D01*
X90109626Y-59733295D01*
X90110757Y-59724703D01*
X90125500Y-59612720D01*
X90125500Y-59387280D01*
X90110687Y-59274764D01*
X90110686Y-59274763D01*
X90109626Y-59266705D01*
X90112689Y-59266301D01*
X90112689Y-59233698D01*
X90109626Y-59233295D01*
X90114972Y-59192685D01*
X90125500Y-59112720D01*
X90125500Y-58887280D01*
X90110687Y-58774764D01*
X90110686Y-58774763D01*
X90109626Y-58766705D01*
X90112689Y-58766301D01*
X90112689Y-58733698D01*
X90109626Y-58733295D01*
X90112193Y-58713793D01*
X90125500Y-58612720D01*
X90125500Y-58387280D01*
X90110687Y-58274764D01*
X90110686Y-58274763D01*
X90109626Y-58266705D01*
X90112689Y-58266301D01*
X90112689Y-58233698D01*
X90109626Y-58233295D01*
X90114778Y-58194160D01*
X90125500Y-58112720D01*
X90125500Y-57887280D01*
X90110687Y-57774764D01*
X90110686Y-57774763D01*
X90109626Y-57766705D01*
X90112689Y-57766301D01*
X90112689Y-57733698D01*
X90109626Y-57733295D01*
X90110687Y-57725236D01*
X90125500Y-57612720D01*
X90125500Y-57387280D01*
X90110687Y-57274764D01*
X90110686Y-57274763D01*
X90109626Y-57266705D01*
X90112689Y-57266301D01*
X90112689Y-57233698D01*
X90109626Y-57233295D01*
X90112658Y-57210261D01*
X90125500Y-57112720D01*
X90125500Y-56887280D01*
X90110687Y-56774764D01*
X90110686Y-56774763D01*
X90109626Y-56766705D01*
X90112689Y-56766301D01*
X90112689Y-56733698D01*
X90109626Y-56733295D01*
X90118683Y-56664500D01*
X90125500Y-56612720D01*
X90125500Y-56387280D01*
X90110687Y-56274764D01*
X90109227Y-56271240D01*
X90108882Y-56268030D01*
X90108583Y-56266913D01*
X90108757Y-56266866D01*
X90101758Y-56201775D01*
X90133030Y-56139295D01*
X90193118Y-56103641D01*
X90262944Y-56106132D01*
X90271220Y-56109219D01*
X90274764Y-56110687D01*
X90368355Y-56123008D01*
X90387264Y-56125498D01*
X90387280Y-56125500D01*
X90387287Y-56125500D01*
X90612713Y-56125500D01*
X90612720Y-56125500D01*
X90725236Y-56110687D01*
X90865233Y-56052698D01*
X90924514Y-56007209D01*
X90989683Y-55982016D01*
X91058127Y-55996054D01*
G37*
%TD.AperFunction*%
%TA.AperFunction,Conductor*%
G36*
X107410638Y-60120185D02*
G01*
X107431280Y-60136819D01*
X108062280Y-60767819D01*
X108095765Y-60829142D01*
X108090781Y-60898834D01*
X108048909Y-60954767D01*
X107983445Y-60979184D01*
X107974599Y-60979500D01*
X106887507Y-60979500D01*
X106820468Y-60959815D01*
X106799826Y-60943181D01*
X106168826Y-60312181D01*
X106135341Y-60250858D01*
X106140325Y-60181166D01*
X106182197Y-60125233D01*
X106247661Y-60100816D01*
X106256507Y-60100500D01*
X107343599Y-60100500D01*
X107410638Y-60120185D01*
G37*
%TD.AperFunction*%
%TA.AperFunction,Conductor*%
G36*
X93355703Y-39960087D02*
G01*
X93380615Y-39989647D01*
X93419397Y-40053800D01*
X93459530Y-40120188D01*
X93579811Y-40240469D01*
X93579813Y-40240470D01*
X93579815Y-40240472D01*
X93725394Y-40328478D01*
X93887804Y-40379086D01*
X93958384Y-40385500D01*
X93958387Y-40385500D01*
X94621613Y-40385500D01*
X94621616Y-40385500D01*
X94692196Y-40379086D01*
X94854606Y-40328478D01*
X95000185Y-40240472D01*
X95120472Y-40120185D01*
X95182257Y-40017979D01*
X95233783Y-39970795D01*
X95302642Y-39958956D01*
X95366971Y-39986225D01*
X95385988Y-40005666D01*
X95389531Y-40010189D01*
X95509811Y-40130469D01*
X95509813Y-40130470D01*
X95509815Y-40130472D01*
X95655394Y-40218478D01*
X95817804Y-40269086D01*
X95888384Y-40275500D01*
X95888387Y-40275500D01*
X96551613Y-40275500D01*
X96551616Y-40275500D01*
X96622196Y-40269086D01*
X96688613Y-40248389D01*
X96758470Y-40247240D01*
X96817863Y-40284041D01*
X96847931Y-40347110D01*
X96849500Y-40366776D01*
X96849500Y-40682551D01*
X96829815Y-40749590D01*
X96813181Y-40770232D01*
X94570232Y-43013181D01*
X94508909Y-43046666D01*
X94482551Y-43049500D01*
X93366346Y-43049500D01*
X93306592Y-43065511D01*
X93236743Y-43063848D01*
X93178880Y-43024685D01*
X93151377Y-42960456D01*
X93150500Y-42945736D01*
X93150500Y-40053800D01*
X93170185Y-39986761D01*
X93222989Y-39941006D01*
X93292147Y-39931062D01*
X93355703Y-39960087D01*
G37*
%TD.AperFunction*%
%TA.AperFunction,Conductor*%
G36*
X138642539Y-26050185D02*
G01*
X138688294Y-26102989D01*
X138699500Y-26154500D01*
X138699500Y-81185500D01*
X138679815Y-81252539D01*
X138627011Y-81298294D01*
X138575500Y-81309500D01*
X62424500Y-81309500D01*
X62357461Y-81289815D01*
X62311706Y-81237011D01*
X62300500Y-81185500D01*
X62300500Y-27522135D01*
X74219500Y-27522135D01*
X74219500Y-32717870D01*
X74219501Y-32717876D01*
X74225908Y-32777483D01*
X74276202Y-32912328D01*
X74276206Y-32912335D01*
X74362452Y-33027544D01*
X74362455Y-33027547D01*
X74477664Y-33113793D01*
X74477671Y-33113797D01*
X74612517Y-33164091D01*
X74612516Y-33164091D01*
X74619444Y-33164835D01*
X74672127Y-33170500D01*
X79630667Y-33170499D01*
X79697706Y-33190184D01*
X79718348Y-33206818D01*
X85833181Y-39321651D01*
X85866666Y-39382974D01*
X85869500Y-39409332D01*
X85869500Y-48969902D01*
X85849815Y-49036941D01*
X85833181Y-49057583D01*
X80532180Y-54358584D01*
X80470857Y-54392069D01*
X80401165Y-54387085D01*
X80345232Y-54345213D01*
X80320815Y-54279749D01*
X80320499Y-54270903D01*
X80320499Y-53122129D01*
X80320498Y-53122123D01*
X80320497Y-53122116D01*
X80314091Y-53062517D01*
X80305506Y-53039500D01*
X80263797Y-52927671D01*
X80263793Y-52927664D01*
X80177547Y-52812455D01*
X80177544Y-52812452D01*
X80062335Y-52726206D01*
X80062328Y-52726202D01*
X79927482Y-52675908D01*
X79927483Y-52675908D01*
X79867883Y-52669501D01*
X79867881Y-52669500D01*
X79867873Y-52669500D01*
X79867864Y-52669500D01*
X74672129Y-52669500D01*
X74672123Y-52669501D01*
X74612516Y-52675908D01*
X74477671Y-52726202D01*
X74477664Y-52726206D01*
X74362455Y-52812452D01*
X74362452Y-52812455D01*
X74276206Y-52927664D01*
X74276202Y-52927671D01*
X74225908Y-53062517D01*
X74219501Y-53122116D01*
X74219501Y-53122123D01*
X74219500Y-53122135D01*
X74219500Y-58317870D01*
X74219501Y-58317876D01*
X74225908Y-58377483D01*
X74276202Y-58512328D01*
X74276206Y-58512335D01*
X74362452Y-58627544D01*
X74362455Y-58627547D01*
X74477664Y-58713793D01*
X74477671Y-58713797D01*
X74612517Y-58764091D01*
X74612516Y-58764091D01*
X74619444Y-58764835D01*
X74672127Y-58770500D01*
X79867872Y-58770499D01*
X79927483Y-58764091D01*
X80062331Y-58713796D01*
X80177546Y-58627546D01*
X80263796Y-58512331D01*
X80314091Y-58377483D01*
X80320500Y-58317873D01*
X80320500Y-56444500D01*
X80340185Y-56377461D01*
X80392989Y-56331706D01*
X80444500Y-56320500D01*
X84359192Y-56320500D01*
X84426231Y-56340185D01*
X84446874Y-56356820D01*
X84498129Y-56408076D01*
X84498133Y-56408079D01*
X84498135Y-56408081D01*
X84639602Y-56491744D01*
X84670284Y-56500658D01*
X84797426Y-56537597D01*
X84797429Y-56537597D01*
X84797431Y-56537598D01*
X84834306Y-56540500D01*
X85075500Y-56540500D01*
X85142539Y-56560185D01*
X85188294Y-56612989D01*
X85199500Y-56664500D01*
X85199500Y-57830701D01*
X85202401Y-57867567D01*
X85202402Y-57867573D01*
X85248254Y-58025393D01*
X85248255Y-58025396D01*
X85248256Y-58025398D01*
X85248721Y-58026184D01*
X85331917Y-58166862D01*
X85331923Y-58166870D01*
X85448129Y-58283076D01*
X85448133Y-58283079D01*
X85448135Y-58283081D01*
X85448138Y-58283082D01*
X85448141Y-58283085D01*
X85522046Y-58326792D01*
X85546602Y-58345838D01*
X85631284Y-58430520D01*
X85631286Y-58430521D01*
X85638356Y-58437591D01*
X86063181Y-58862416D01*
X86096666Y-58923739D01*
X86099500Y-58950097D01*
X86099500Y-59298337D01*
X86099501Y-59298355D01*
X86109650Y-59397707D01*
X86109651Y-59397710D01*
X86162996Y-59558694D01*
X86162998Y-59558699D01*
X86254510Y-59707062D01*
X86272950Y-59774454D01*
X86254510Y-59837256D01*
X86177998Y-59961300D01*
X86177996Y-59961305D01*
X86124651Y-60122290D01*
X86114500Y-60221647D01*
X86114500Y-60818337D01*
X86114501Y-60818355D01*
X86124650Y-60917707D01*
X86124651Y-60917710D01*
X86177996Y-61078694D01*
X86178001Y-61078705D01*
X86259234Y-61210403D01*
X86261318Y-61218020D01*
X86266490Y-61223989D01*
X86270408Y-61251238D01*
X86277675Y-61277795D01*
X86275310Y-61285330D01*
X86276434Y-61293147D01*
X86264997Y-61318189D01*
X86256753Y-61344459D01*
X86250689Y-61349519D01*
X86247409Y-61356703D01*
X86224249Y-61371586D01*
X86203111Y-61389229D01*
X86193778Y-61391168D01*
X86188631Y-61394477D01*
X86153696Y-61399500D01*
X86050098Y-61399500D01*
X85983059Y-61379815D01*
X85962417Y-61363181D01*
X85628717Y-61029481D01*
X85628716Y-61029480D01*
X85517463Y-60965248D01*
X85517461Y-60965247D01*
X85491785Y-60950423D01*
X85491784Y-60950422D01*
X85491783Y-60950422D01*
X85435881Y-60935443D01*
X85339057Y-60909499D01*
X85180943Y-60909499D01*
X85173347Y-60909499D01*
X85173331Y-60909500D01*
X84995425Y-60909500D01*
X84928386Y-60889815D01*
X84889887Y-60850598D01*
X84862968Y-60806956D01*
X84743044Y-60687032D01*
X84743040Y-60687029D01*
X84598705Y-60598001D01*
X84598699Y-60597998D01*
X84598697Y-60597997D01*
X84598694Y-60597996D01*
X84437709Y-60544651D01*
X84338352Y-60534500D01*
X84338345Y-60534500D01*
X83990097Y-60534500D01*
X83923058Y-60514815D01*
X83902416Y-60498181D01*
X83670090Y-60265855D01*
X83670088Y-60265852D01*
X83551217Y-60146981D01*
X83551209Y-60146975D01*
X83433570Y-60079057D01*
X83433567Y-60079056D01*
X83414285Y-60067923D01*
X83261557Y-60026999D01*
X83103443Y-60026999D01*
X83095847Y-60026999D01*
X83095831Y-60027000D01*
X81384499Y-60027000D01*
X81317460Y-60007315D01*
X81271705Y-59954511D01*
X81260499Y-59903000D01*
X81260499Y-59827498D01*
X81260498Y-59827481D01*
X81249999Y-59724703D01*
X81249998Y-59724700D01*
X81233106Y-59673724D01*
X81194814Y-59558166D01*
X81102712Y-59408844D01*
X80978656Y-59284788D01*
X80829334Y-59192686D01*
X80662797Y-59137501D01*
X80662795Y-59137500D01*
X80560010Y-59127000D01*
X78559998Y-59127000D01*
X78559981Y-59127001D01*
X78457203Y-59137500D01*
X78457200Y-59137501D01*
X78290668Y-59192685D01*
X78290663Y-59192687D01*
X78141342Y-59284789D01*
X78017289Y-59408842D01*
X77925187Y-59558163D01*
X77925185Y-59558168D01*
X77904635Y-59620185D01*
X77870001Y-59724703D01*
X77870001Y-59724704D01*
X77870000Y-59724704D01*
X77859500Y-59827483D01*
X77859500Y-61427501D01*
X77859501Y-61427518D01*
X77870000Y-61530296D01*
X77870001Y-61530299D01*
X77925185Y-61696831D01*
X77925187Y-61696836D01*
X77947924Y-61733698D01*
X78017288Y-61846156D01*
X78141344Y-61970212D01*
X78290666Y-62062314D01*
X78457203Y-62117499D01*
X78559991Y-62128000D01*
X80560008Y-62127999D01*
X80662797Y-62117499D01*
X80829334Y-62062314D01*
X80978656Y-61970212D01*
X81102712Y-61846156D01*
X81194814Y-61696834D01*
X81249999Y-61530297D01*
X81260500Y-61427509D01*
X81260500Y-61352000D01*
X81280185Y-61284961D01*
X81332989Y-61239206D01*
X81384500Y-61228000D01*
X82882403Y-61228000D01*
X82911843Y-61236644D01*
X82941830Y-61243168D01*
X82946845Y-61246922D01*
X82949442Y-61247685D01*
X82970084Y-61264319D01*
X83078181Y-61372416D01*
X83111666Y-61433739D01*
X83114500Y-61460097D01*
X83114500Y-61808337D01*
X83114501Y-61808355D01*
X83124650Y-61907707D01*
X83124651Y-61907710D01*
X83177996Y-62068694D01*
X83178000Y-62068703D01*
X83217052Y-62132016D01*
X83235492Y-62199408D01*
X83214569Y-62266072D01*
X83199196Y-62284792D01*
X83177029Y-62306959D01*
X83088001Y-62451294D01*
X83087996Y-62451305D01*
X83034651Y-62612290D01*
X83024500Y-62711647D01*
X83024500Y-63059902D01*
X83004815Y-63126941D01*
X82988181Y-63147583D01*
X82445084Y-63690681D01*
X82383761Y-63724166D01*
X82357403Y-63727000D01*
X81384499Y-63727000D01*
X81317460Y-63707315D01*
X81271705Y-63654511D01*
X81260499Y-63603000D01*
X81260499Y-63527491D01*
X81260498Y-63527481D01*
X81249999Y-63424703D01*
X81249998Y-63424700D01*
X81237598Y-63387280D01*
X81194814Y-63258166D01*
X81102712Y-63108844D01*
X80978656Y-62984788D01*
X80843720Y-62901559D01*
X80829336Y-62892687D01*
X80829331Y-62892685D01*
X80813020Y-62887280D01*
X80662797Y-62837501D01*
X80662795Y-62837500D01*
X80560010Y-62827000D01*
X78559998Y-62827000D01*
X78559981Y-62827001D01*
X78457203Y-62837500D01*
X78457200Y-62837501D01*
X78290668Y-62892685D01*
X78290663Y-62892687D01*
X78141342Y-62984789D01*
X78017289Y-63108842D01*
X77925187Y-63258163D01*
X77925185Y-63258168D01*
X77917188Y-63282303D01*
X77870001Y-63424703D01*
X77870001Y-63424704D01*
X77870000Y-63424704D01*
X77859500Y-63527483D01*
X77859500Y-65127501D01*
X77859501Y-65127518D01*
X77870000Y-65230296D01*
X77870001Y-65230299D01*
X77925185Y-65396831D01*
X77925187Y-65396836D01*
X77960069Y-65453388D01*
X78017288Y-65546156D01*
X78141344Y-65670212D01*
X78290666Y-65762314D01*
X78457203Y-65817499D01*
X78559991Y-65828000D01*
X80560008Y-65827999D01*
X80662797Y-65817499D01*
X80829334Y-65762314D01*
X80978656Y-65670212D01*
X81102712Y-65546156D01*
X81194814Y-65396834D01*
X81249999Y-65230297D01*
X81260500Y-65127509D01*
X81260500Y-65052000D01*
X81280185Y-64984961D01*
X81332989Y-64939206D01*
X81384500Y-64928000D01*
X82343403Y-64928000D01*
X82410442Y-64947685D01*
X82456197Y-65000489D01*
X82466141Y-65069647D01*
X82437116Y-65133203D01*
X82431084Y-65139681D01*
X81217582Y-66353181D01*
X81156259Y-66386666D01*
X81129901Y-66389500D01*
X79972129Y-66389500D01*
X79972123Y-66389501D01*
X79912516Y-66395908D01*
X79777671Y-66446202D01*
X79777664Y-66446206D01*
X79662455Y-66532452D01*
X79662452Y-66532455D01*
X79576206Y-66647664D01*
X79576202Y-66647671D01*
X79525908Y-66782517D01*
X79519501Y-66842116D01*
X79519501Y-66842123D01*
X79519500Y-66842135D01*
X79519500Y-68537870D01*
X79519501Y-68537876D01*
X79525908Y-68597483D01*
X79576202Y-68732328D01*
X79576206Y-68732335D01*
X79662452Y-68847544D01*
X79662455Y-68847547D01*
X79777664Y-68933793D01*
X79777671Y-68933797D01*
X79912517Y-68984091D01*
X79912516Y-68984091D01*
X79919444Y-68984835D01*
X79972127Y-68990500D01*
X82247872Y-68990499D01*
X82307483Y-68984091D01*
X82442331Y-68933796D01*
X82557546Y-68847546D01*
X82643796Y-68732331D01*
X82694091Y-68597483D01*
X82700500Y-68537873D01*
X82700499Y-66842128D01*
X82694091Y-66782517D01*
X82694091Y-66782516D01*
X82665605Y-66706141D01*
X82660621Y-66636449D01*
X82694104Y-66575129D01*
X84084662Y-65184572D01*
X84145983Y-65151089D01*
X84148150Y-65150638D01*
X84206085Y-65139113D01*
X84303497Y-65119737D01*
X84449179Y-65059394D01*
X84580289Y-64971789D01*
X84691789Y-64860289D01*
X84779394Y-64729179D01*
X84839737Y-64583497D01*
X84870500Y-64428842D01*
X84870500Y-64271158D01*
X84870500Y-64271155D01*
X84870499Y-64271153D01*
X84863046Y-64233683D01*
X84839737Y-64116503D01*
X84823563Y-64077455D01*
X84779397Y-63970827D01*
X84779390Y-63970814D01*
X84730106Y-63897056D01*
X84722914Y-63874087D01*
X84711679Y-63852798D01*
X84712661Y-63841345D01*
X84709228Y-63830379D01*
X84715595Y-63807167D01*
X84717654Y-63783184D01*
X84725451Y-63771237D01*
X84727712Y-63762999D01*
X84735007Y-63752451D01*
X84739875Y-63746136D01*
X84772968Y-63713044D01*
X84803278Y-63663903D01*
X84807224Y-63658786D01*
X84830470Y-63641894D01*
X84851835Y-63622678D01*
X84859227Y-63620998D01*
X84863747Y-63617714D01*
X84877023Y-63616954D01*
X84905425Y-63610500D01*
X85144635Y-63610500D01*
X85144651Y-63610501D01*
X85152247Y-63610501D01*
X85310358Y-63610501D01*
X85310361Y-63610501D01*
X85463089Y-63569577D01*
X85535982Y-63527492D01*
X85600020Y-63490520D01*
X85711824Y-63378716D01*
X85711824Y-63378714D01*
X85722025Y-63368514D01*
X85722028Y-63368509D01*
X85953721Y-63136816D01*
X85980653Y-63122111D01*
X86006466Y-63105523D01*
X86012666Y-63104631D01*
X86015043Y-63103334D01*
X86041401Y-63100500D01*
X86123696Y-63100500D01*
X86190735Y-63120185D01*
X86236490Y-63172989D01*
X86246434Y-63242147D01*
X86229234Y-63289597D01*
X86148001Y-63421294D01*
X86147996Y-63421305D01*
X86094651Y-63582290D01*
X86084500Y-63681647D01*
X86084500Y-64278337D01*
X86084501Y-64278355D01*
X86094650Y-64377707D01*
X86094651Y-64377710D01*
X86147996Y-64538694D01*
X86147998Y-64538699D01*
X86239510Y-64687062D01*
X86257950Y-64754454D01*
X86239510Y-64817256D01*
X86162998Y-64941300D01*
X86162996Y-64941305D01*
X86109651Y-65102290D01*
X86099500Y-65201647D01*
X86099500Y-65798337D01*
X86099501Y-65798355D01*
X86109650Y-65897707D01*
X86109651Y-65897710D01*
X86147823Y-66012904D01*
X86150225Y-66082732D01*
X86114493Y-66142774D01*
X86051973Y-66173967D01*
X86017522Y-66175267D01*
X86010010Y-66174500D01*
X85409998Y-66174500D01*
X85409980Y-66174501D01*
X85307203Y-66185000D01*
X85307200Y-66185001D01*
X85140668Y-66240185D01*
X85140663Y-66240187D01*
X84991342Y-66332289D01*
X84867289Y-66456342D01*
X84775187Y-66605663D01*
X84775185Y-66605668D01*
X84761267Y-66647671D01*
X84720001Y-66772203D01*
X84720001Y-66772204D01*
X84720000Y-66772204D01*
X84709500Y-66874983D01*
X84709500Y-67925001D01*
X84709501Y-67925019D01*
X84720000Y-68027796D01*
X84720001Y-68027799D01*
X84775185Y-68194331D01*
X84775187Y-68194336D01*
X84779603Y-68201495D01*
X84852516Y-68319707D01*
X84867289Y-68343657D01*
X84906128Y-68382496D01*
X84939613Y-68443819D01*
X84934629Y-68513511D01*
X84910743Y-68550686D01*
X84911510Y-68551293D01*
X84907029Y-68556959D01*
X84818001Y-68701294D01*
X84817996Y-68701305D01*
X84764651Y-68862290D01*
X84754500Y-68961647D01*
X84754500Y-69558337D01*
X84754501Y-69558355D01*
X84764650Y-69657707D01*
X84764651Y-69657710D01*
X84817996Y-69818694D01*
X84818001Y-69818705D01*
X84907029Y-69963040D01*
X84907032Y-69963044D01*
X85026955Y-70082967D01*
X85026959Y-70082970D01*
X85171294Y-70171998D01*
X85171297Y-70171999D01*
X85171303Y-70172003D01*
X85332292Y-70225349D01*
X85431655Y-70235500D01*
X85978344Y-70235499D01*
X85978352Y-70235498D01*
X85978355Y-70235498D01*
X86032760Y-70229940D01*
X86077708Y-70225349D01*
X86238697Y-70172003D01*
X86383044Y-70082968D01*
X86502968Y-69963044D01*
X86592003Y-69818697D01*
X86645349Y-69657708D01*
X86655500Y-69558345D01*
X86655499Y-69210095D01*
X86675183Y-69143057D01*
X86691813Y-69122420D01*
X87312819Y-68501415D01*
X87374142Y-68467930D01*
X87443834Y-68472914D01*
X87499767Y-68514786D01*
X87524184Y-68580250D01*
X87524500Y-68589096D01*
X87524500Y-68612727D01*
X87539313Y-68725235D01*
X87539313Y-68725236D01*
X87596083Y-68862292D01*
X87597302Y-68865233D01*
X87689549Y-68985451D01*
X87809767Y-69077698D01*
X87949764Y-69135687D01*
X88062280Y-69150500D01*
X88062287Y-69150500D01*
X89587713Y-69150500D01*
X89587720Y-69150500D01*
X89700236Y-69135687D01*
X89703754Y-69134229D01*
X89706961Y-69133884D01*
X89708087Y-69133583D01*
X89708134Y-69133758D01*
X89773220Y-69126757D01*
X89835701Y-69158028D01*
X89871357Y-69218114D01*
X89868868Y-69287940D01*
X89865774Y-69296235D01*
X89864315Y-69299757D01*
X89864313Y-69299764D01*
X89849500Y-69412272D01*
X89849500Y-70937727D01*
X89864313Y-71050235D01*
X89864313Y-71050236D01*
X89905038Y-71148556D01*
X89922302Y-71190233D01*
X90014549Y-71310451D01*
X90134767Y-71402698D01*
X90274764Y-71460687D01*
X90378796Y-71474383D01*
X90387264Y-71475498D01*
X90387280Y-71475500D01*
X90407737Y-71475500D01*
X90474776Y-71495185D01*
X90520531Y-71547989D01*
X90531094Y-71612101D01*
X90529293Y-71629735D01*
X90524500Y-71676647D01*
X90524500Y-72223337D01*
X90524501Y-72223355D01*
X90534650Y-72322707D01*
X90534651Y-72322710D01*
X90587996Y-72483694D01*
X90588001Y-72483705D01*
X90677029Y-72628040D01*
X90677032Y-72628044D01*
X90796955Y-72747967D01*
X90796959Y-72747970D01*
X90941294Y-72836998D01*
X90941297Y-72836999D01*
X90941303Y-72837003D01*
X91102292Y-72890349D01*
X91201655Y-72900500D01*
X91798344Y-72900499D01*
X91798352Y-72900498D01*
X91798355Y-72900498D01*
X91852760Y-72894940D01*
X91897708Y-72890349D01*
X92058697Y-72837003D01*
X92203044Y-72747968D01*
X92322968Y-72628044D01*
X92412003Y-72483697D01*
X92465349Y-72322708D01*
X92475500Y-72223345D01*
X92475499Y-71676656D01*
X92475498Y-71676644D01*
X92468905Y-71612101D01*
X92470490Y-71603570D01*
X92468339Y-71595165D01*
X92476779Y-71569743D01*
X92481675Y-71543408D01*
X92487620Y-71537089D01*
X92490355Y-71528854D01*
X92511199Y-71512031D01*
X92529556Y-71492524D01*
X92539401Y-71489272D01*
X92544727Y-71484974D01*
X92564110Y-71481110D01*
X92578918Y-71476220D01*
X92585569Y-71475500D01*
X92612720Y-71475500D01*
X92725236Y-71460687D01*
X92726235Y-71460272D01*
X92736655Y-71459145D01*
X92756380Y-71462689D01*
X92766302Y-71462689D01*
X92766705Y-71459626D01*
X92774763Y-71460686D01*
X92774764Y-71460687D01*
X92887280Y-71475500D01*
X92887287Y-71475500D01*
X93112713Y-71475500D01*
X93112720Y-71475500D01*
X93225236Y-71460687D01*
X93225236Y-71460686D01*
X93233295Y-71459626D01*
X93233698Y-71462689D01*
X93266302Y-71462689D01*
X93266705Y-71459626D01*
X93274763Y-71460686D01*
X93274764Y-71460687D01*
X93387280Y-71475500D01*
X93387287Y-71475500D01*
X93612713Y-71475500D01*
X93612720Y-71475500D01*
X93725236Y-71460687D01*
X93725236Y-71460686D01*
X93733295Y-71459626D01*
X93733698Y-71462689D01*
X93766302Y-71462689D01*
X93766705Y-71459626D01*
X93774763Y-71460686D01*
X93774764Y-71460687D01*
X93887280Y-71475500D01*
X93887287Y-71475500D01*
X94112713Y-71475500D01*
X94112720Y-71475500D01*
X94225236Y-71460687D01*
X94225236Y-71460686D01*
X94233295Y-71459626D01*
X94233698Y-71462689D01*
X94266302Y-71462689D01*
X94266705Y-71459626D01*
X94274763Y-71460686D01*
X94274764Y-71460687D01*
X94387280Y-71475500D01*
X94387287Y-71475500D01*
X94612713Y-71475500D01*
X94612720Y-71475500D01*
X94725236Y-71460687D01*
X94725238Y-71460685D01*
X94729947Y-71460066D01*
X94729978Y-71460052D01*
X94730036Y-71460054D01*
X94733295Y-71459626D01*
X94733373Y-71460223D01*
X94744790Y-71460799D01*
X94765265Y-71459368D01*
X94774279Y-71460486D01*
X94774764Y-71460687D01*
X94887280Y-71475500D01*
X94895307Y-71475500D01*
X94902909Y-71476443D01*
X94928221Y-71487414D01*
X94954683Y-71495185D01*
X94959817Y-71501110D01*
X94967016Y-71504231D01*
X94982379Y-71527148D01*
X95000438Y-71547989D01*
X95001553Y-71555750D01*
X95005922Y-71562266D01*
X95006456Y-71589846D01*
X95010382Y-71617147D01*
X95007253Y-71630977D01*
X95007276Y-71632123D01*
X95006831Y-71632845D01*
X95006031Y-71636381D01*
X95000914Y-71652804D01*
X94998747Y-71676656D01*
X94994500Y-71723386D01*
X94994500Y-72236613D01*
X95000913Y-72307192D01*
X95000913Y-72307194D01*
X95000914Y-72307196D01*
X95051522Y-72469606D01*
X95126257Y-72593233D01*
X95139530Y-72615188D01*
X95259811Y-72735469D01*
X95259813Y-72735470D01*
X95259815Y-72735472D01*
X95405394Y-72823478D01*
X95567804Y-72874086D01*
X95638384Y-72880500D01*
X95638387Y-72880500D01*
X96301613Y-72880500D01*
X96301616Y-72880500D01*
X96372196Y-72874086D01*
X96534606Y-72823478D01*
X96680185Y-72735472D01*
X96800472Y-72615185D01*
X96888478Y-72469606D01*
X96939086Y-72307196D01*
X96945500Y-72236616D01*
X96945500Y-71723384D01*
X96939086Y-71652804D01*
X96933970Y-71636388D01*
X96933604Y-71614147D01*
X96928555Y-71592483D01*
X96933039Y-71579894D01*
X96932819Y-71566531D01*
X96944537Y-71547618D01*
X96952002Y-71526665D01*
X96962579Y-71518499D01*
X96969619Y-71507139D01*
X96989698Y-71497565D01*
X97007310Y-71483971D01*
X97025315Y-71480585D01*
X97032688Y-71477070D01*
X97041683Y-71475960D01*
X97047008Y-71475500D01*
X97112720Y-71475500D01*
X97225236Y-71460687D01*
X97227019Y-71459948D01*
X97239327Y-71458885D01*
X97258149Y-71462689D01*
X97266302Y-71462689D01*
X97266705Y-71459626D01*
X97274763Y-71460686D01*
X97274764Y-71460687D01*
X97387280Y-71475500D01*
X97387287Y-71475500D01*
X97612713Y-71475500D01*
X97612720Y-71475500D01*
X97725236Y-71460687D01*
X97725236Y-71460686D01*
X97733295Y-71459626D01*
X97733698Y-71462689D01*
X97766302Y-71462689D01*
X97766705Y-71459626D01*
X97774763Y-71460686D01*
X97774764Y-71460687D01*
X97887280Y-71475500D01*
X97887287Y-71475500D01*
X98112713Y-71475500D01*
X98112720Y-71475500D01*
X98225236Y-71460687D01*
X98225236Y-71460686D01*
X98233295Y-71459626D01*
X98233698Y-71462689D01*
X98266302Y-71462689D01*
X98266705Y-71459626D01*
X98274763Y-71460686D01*
X98274764Y-71460687D01*
X98387280Y-71475500D01*
X98387287Y-71475500D01*
X98612713Y-71475500D01*
X98612720Y-71475500D01*
X98725236Y-71460687D01*
X98725236Y-71460686D01*
X98733295Y-71459626D01*
X98733698Y-71462689D01*
X98766302Y-71462689D01*
X98766705Y-71459626D01*
X98774763Y-71460686D01*
X98774764Y-71460687D01*
X98887280Y-71475500D01*
X98887287Y-71475500D01*
X99112713Y-71475500D01*
X99112720Y-71475500D01*
X99225236Y-71460687D01*
X99225236Y-71460686D01*
X99233295Y-71459626D01*
X99233698Y-71462689D01*
X99266302Y-71462689D01*
X99266705Y-71459626D01*
X99274763Y-71460686D01*
X99274764Y-71460687D01*
X99387280Y-71475500D01*
X99387287Y-71475500D01*
X99612713Y-71475500D01*
X99612720Y-71475500D01*
X99725236Y-71460687D01*
X99725236Y-71460686D01*
X99733295Y-71459626D01*
X99733536Y-71461462D01*
X99763345Y-71459145D01*
X99773764Y-71460272D01*
X99774764Y-71460687D01*
X99887280Y-71475500D01*
X99914431Y-71475500D01*
X99921082Y-71476220D01*
X99947422Y-71487153D01*
X99974776Y-71495185D01*
X99979270Y-71500372D01*
X99985614Y-71503005D01*
X100001863Y-71526445D01*
X100020531Y-71547989D01*
X100021695Y-71555053D01*
X100025420Y-71560427D01*
X100026185Y-71582306D01*
X100031094Y-71612101D01*
X100029293Y-71629735D01*
X100024500Y-71676647D01*
X100024500Y-72223337D01*
X100024501Y-72223355D01*
X100034650Y-72322707D01*
X100034651Y-72322710D01*
X100087996Y-72483694D01*
X100088001Y-72483705D01*
X100177029Y-72628040D01*
X100177032Y-72628044D01*
X100296955Y-72747967D01*
X100296959Y-72747970D01*
X100441294Y-72836998D01*
X100441297Y-72836999D01*
X100441303Y-72837003D01*
X100602292Y-72890349D01*
X100701655Y-72900500D01*
X101298344Y-72900499D01*
X101298352Y-72900498D01*
X101298355Y-72900498D01*
X101352760Y-72894940D01*
X101397708Y-72890349D01*
X101558697Y-72837003D01*
X101580626Y-72823477D01*
X101684903Y-72759158D01*
X101752295Y-72740717D01*
X101815097Y-72759158D01*
X101941294Y-72836998D01*
X101941297Y-72836999D01*
X101941303Y-72837003D01*
X102102292Y-72890349D01*
X102201655Y-72900500D01*
X102798344Y-72900499D01*
X102798352Y-72900498D01*
X102798355Y-72900498D01*
X102852760Y-72894940D01*
X102897708Y-72890349D01*
X103058697Y-72837003D01*
X103203044Y-72747968D01*
X103322968Y-72628044D01*
X103412003Y-72483697D01*
X103465349Y-72322708D01*
X103475500Y-72223345D01*
X103475499Y-71784499D01*
X103495183Y-71717461D01*
X103547987Y-71671706D01*
X103599499Y-71660500D01*
X103708844Y-71660500D01*
X103708845Y-71660499D01*
X103863497Y-71629737D01*
X103990111Y-71577292D01*
X104009172Y-71569397D01*
X104009172Y-71569396D01*
X104009179Y-71569394D01*
X104140289Y-71481789D01*
X104251789Y-71370289D01*
X104339394Y-71239179D01*
X104399737Y-71093497D01*
X104430500Y-70938842D01*
X104430500Y-70781158D01*
X104430500Y-70781155D01*
X104430499Y-70781153D01*
X104405966Y-70657820D01*
X104399737Y-70626503D01*
X104364271Y-70540882D01*
X104356803Y-70471413D01*
X104388078Y-70408934D01*
X104448167Y-70373282D01*
X104517992Y-70375776D01*
X104566514Y-70405749D01*
X105565681Y-71404916D01*
X105599166Y-71466239D01*
X105602000Y-71492597D01*
X105602000Y-72121098D01*
X105608068Y-72187882D01*
X105608071Y-72187893D01*
X105655967Y-72341598D01*
X105739266Y-72479391D01*
X105853108Y-72593233D01*
X105853110Y-72593234D01*
X105853112Y-72593236D01*
X105990898Y-72676531D01*
X106010961Y-72682782D01*
X106022974Y-72690043D01*
X106033485Y-72692329D01*
X106046813Y-72702305D01*
X106046954Y-72702094D01*
X106046957Y-72702096D01*
X106051400Y-72705738D01*
X106061717Y-72713461D01*
X106061742Y-72713476D01*
X106065846Y-72717580D01*
X106065847Y-72717582D01*
X106065849Y-72717584D01*
X106065855Y-72717589D01*
X111282640Y-77934374D01*
X111282650Y-77934385D01*
X111286980Y-77938715D01*
X111286981Y-77938716D01*
X111398785Y-78050520D01*
X111464418Y-78088412D01*
X111485596Y-78100639D01*
X111485598Y-78100641D01*
X111523652Y-78122611D01*
X111535716Y-78129577D01*
X111688444Y-78170501D01*
X111688447Y-78170501D01*
X111854154Y-78170501D01*
X111854170Y-78170500D01*
X112034281Y-78170500D01*
X112101320Y-78190185D01*
X112144765Y-78238205D01*
X112164947Y-78277814D01*
X112164948Y-78277815D01*
X112289890Y-78449786D01*
X112440213Y-78600109D01*
X112612179Y-78725048D01*
X112612181Y-78725049D01*
X112612184Y-78725051D01*
X112801588Y-78821557D01*
X113003757Y-78887246D01*
X113213713Y-78920500D01*
X113213714Y-78920500D01*
X113426286Y-78920500D01*
X113426287Y-78920500D01*
X113636243Y-78887246D01*
X113838412Y-78821557D01*
X114027816Y-78725051D01*
X114049789Y-78709086D01*
X114199786Y-78600109D01*
X114199788Y-78600106D01*
X114199792Y-78600104D01*
X114350104Y-78449792D01*
X114350106Y-78449788D01*
X114350109Y-78449786D01*
X114475048Y-78277820D01*
X114475047Y-78277820D01*
X114475051Y-78277816D01*
X114571557Y-78088412D01*
X114637246Y-77886243D01*
X114670500Y-77676287D01*
X114670500Y-77463713D01*
X114637246Y-77253757D01*
X114571557Y-77051588D01*
X114475051Y-76862184D01*
X114475049Y-76862181D01*
X114475048Y-76862179D01*
X114350109Y-76690213D01*
X114199786Y-76539890D01*
X114027820Y-76414951D01*
X114027115Y-76414591D01*
X114019054Y-76410485D01*
X113968259Y-76362512D01*
X113951463Y-76294692D01*
X113973999Y-76228556D01*
X114019054Y-76189515D01*
X114027816Y-76185051D01*
X114049789Y-76169086D01*
X114199786Y-76060109D01*
X114199788Y-76060106D01*
X114199792Y-76060104D01*
X114350104Y-75909792D01*
X114350106Y-75909788D01*
X114350109Y-75909786D01*
X114475048Y-75737820D01*
X114475047Y-75737820D01*
X114475051Y-75737816D01*
X114571557Y-75548412D01*
X114637246Y-75346243D01*
X114670500Y-75136287D01*
X114670500Y-74923713D01*
X114637246Y-74713757D01*
X114571557Y-74511588D01*
X114475051Y-74322184D01*
X114475049Y-74322181D01*
X114475048Y-74322179D01*
X114350109Y-74150213D01*
X114199786Y-73999890D01*
X114027820Y-73874951D01*
X114027115Y-73874591D01*
X114019054Y-73870485D01*
X113968259Y-73822512D01*
X113951463Y-73754692D01*
X113973999Y-73688556D01*
X114019054Y-73649515D01*
X114027816Y-73645051D01*
X114049789Y-73629086D01*
X114199786Y-73520109D01*
X114199788Y-73520106D01*
X114199792Y-73520104D01*
X114350104Y-73369792D01*
X114350106Y-73369788D01*
X114350109Y-73369786D01*
X114475048Y-73197820D01*
X114475047Y-73197820D01*
X114475051Y-73197816D01*
X114571557Y-73008412D01*
X114637246Y-72806243D01*
X114670500Y-72596287D01*
X114670500Y-72383713D01*
X114637246Y-72173757D01*
X114571557Y-71971588D01*
X114475051Y-71782184D01*
X114475049Y-71782181D01*
X114475048Y-71782179D01*
X114350109Y-71610213D01*
X114199786Y-71459890D01*
X114027820Y-71334951D01*
X114027115Y-71334591D01*
X114019054Y-71330485D01*
X113968259Y-71282512D01*
X113951463Y-71214692D01*
X113973999Y-71148556D01*
X114019054Y-71109515D01*
X114027816Y-71105051D01*
X114103263Y-71050236D01*
X114199786Y-70980109D01*
X114199788Y-70980106D01*
X114199792Y-70980104D01*
X114350104Y-70829792D01*
X114350106Y-70829788D01*
X114350109Y-70829786D01*
X114475048Y-70657820D01*
X114475047Y-70657820D01*
X114475051Y-70657816D01*
X114571557Y-70468412D01*
X114637246Y-70266243D01*
X114670500Y-70056287D01*
X114670500Y-69843713D01*
X114637246Y-69633757D01*
X114571557Y-69431588D01*
X114475051Y-69242184D01*
X114475049Y-69242181D01*
X114475048Y-69242179D01*
X114350109Y-69070213D01*
X114199786Y-68919890D01*
X114027820Y-68794951D01*
X114027115Y-68794591D01*
X114019054Y-68790485D01*
X113968259Y-68742512D01*
X113951463Y-68674692D01*
X113973999Y-68608556D01*
X114019054Y-68569515D01*
X114027816Y-68565051D01*
X114065210Y-68537883D01*
X114199786Y-68440109D01*
X114199788Y-68440106D01*
X114199792Y-68440104D01*
X114350104Y-68289792D01*
X114350106Y-68289788D01*
X114350109Y-68289786D01*
X114475048Y-68117820D01*
X114475047Y-68117820D01*
X114475051Y-68117816D01*
X114571557Y-67928412D01*
X114637246Y-67726243D01*
X114670500Y-67516287D01*
X114670500Y-67303713D01*
X114637246Y-67093757D01*
X114623506Y-67051473D01*
X114621512Y-66981635D01*
X114653755Y-66925478D01*
X115642417Y-65936819D01*
X115703740Y-65903334D01*
X115730098Y-65900500D01*
X117470501Y-65900500D01*
X117537540Y-65920185D01*
X117583295Y-65972989D01*
X117594501Y-66024500D01*
X117594501Y-66212876D01*
X117600908Y-66272483D01*
X117651202Y-66407328D01*
X117651206Y-66407335D01*
X117737452Y-66522544D01*
X117737455Y-66522547D01*
X117852664Y-66608793D01*
X117852671Y-66608797D01*
X117987517Y-66659091D01*
X117987516Y-66659091D01*
X117994444Y-66659835D01*
X118047127Y-66665500D01*
X120172872Y-66665499D01*
X120232483Y-66659091D01*
X120367331Y-66608796D01*
X120482546Y-66522546D01*
X120568796Y-66407331D01*
X120619091Y-66272483D01*
X120625500Y-66212873D01*
X120625499Y-64387128D01*
X120619091Y-64327517D01*
X120599415Y-64274764D01*
X120568797Y-64192671D01*
X120568793Y-64192664D01*
X120482547Y-64077455D01*
X120482544Y-64077452D01*
X120367335Y-63991206D01*
X120367328Y-63991202D01*
X120251366Y-63947952D01*
X120195433Y-63906081D01*
X120171015Y-63840617D01*
X120185866Y-63772344D01*
X120207012Y-63744095D01*
X120301545Y-63649563D01*
X120427880Y-63475678D01*
X120525458Y-63284170D01*
X120536383Y-63250547D01*
X120591875Y-63079759D01*
X120591875Y-63079758D01*
X120591876Y-63079755D01*
X120625500Y-62867467D01*
X120625500Y-62652533D01*
X120591876Y-62440245D01*
X120591875Y-62440241D01*
X120591875Y-62440240D01*
X120525459Y-62235832D01*
X120525458Y-62235829D01*
X120451122Y-62089937D01*
X120427880Y-62044322D01*
X120301545Y-61870437D01*
X120149563Y-61718455D01*
X120119800Y-61696831D01*
X119973198Y-61590318D01*
X119930532Y-61534988D01*
X119924553Y-61465375D01*
X119957159Y-61403580D01*
X119973198Y-61389682D01*
X120018589Y-61356703D01*
X120149563Y-61261545D01*
X120301545Y-61109563D01*
X120427880Y-60935678D01*
X120525458Y-60744170D01*
X120568166Y-60612727D01*
X120591875Y-60539759D01*
X120591875Y-60539758D01*
X120591876Y-60539755D01*
X120625500Y-60327467D01*
X120625500Y-60112533D01*
X120591876Y-59900245D01*
X120591875Y-59900241D01*
X120591875Y-59900240D01*
X120525459Y-59695832D01*
X120525458Y-59695829D01*
X120475718Y-59598210D01*
X120427880Y-59504322D01*
X120301545Y-59330437D01*
X120149563Y-59178455D01*
X119975678Y-59052120D01*
X119784170Y-58954541D01*
X119784167Y-58954540D01*
X119579757Y-58888124D01*
X119417445Y-58862416D01*
X119367467Y-58854500D01*
X118852533Y-58854500D01*
X118802555Y-58862416D01*
X118640243Y-58888124D01*
X118640240Y-58888124D01*
X118435832Y-58954540D01*
X118435829Y-58954541D01*
X118244321Y-59052120D01*
X118173602Y-59103501D01*
X118070437Y-59178455D01*
X118070435Y-59178457D01*
X118070434Y-59178457D01*
X117918457Y-59330434D01*
X117918457Y-59330435D01*
X117918455Y-59330437D01*
X117882236Y-59380288D01*
X117792118Y-59504323D01*
X117725904Y-59634275D01*
X117677930Y-59685070D01*
X117610109Y-59701865D01*
X117543974Y-59679327D01*
X117527739Y-59665660D01*
X117460292Y-59598213D01*
X117460288Y-59598210D01*
X117329185Y-59510609D01*
X117329172Y-59510602D01*
X117183501Y-59450264D01*
X117183489Y-59450261D01*
X117028845Y-59419500D01*
X117028842Y-59419500D01*
X116871158Y-59419500D01*
X116871155Y-59419500D01*
X116716510Y-59450261D01*
X116716498Y-59450264D01*
X116570827Y-59510602D01*
X116570814Y-59510609D01*
X116439711Y-59598210D01*
X116439707Y-59598213D01*
X116328213Y-59709707D01*
X116328210Y-59709711D01*
X116240609Y-59840814D01*
X116240602Y-59840827D01*
X116180264Y-59986498D01*
X116180261Y-59986510D01*
X116149500Y-60141153D01*
X116149500Y-60298846D01*
X116180261Y-60453489D01*
X116180264Y-60453501D01*
X116240602Y-60599172D01*
X116240609Y-60599185D01*
X116328210Y-60730288D01*
X116328213Y-60730292D01*
X116439707Y-60841786D01*
X116439711Y-60841789D01*
X116570814Y-60929390D01*
X116570827Y-60929397D01*
X116710525Y-60987261D01*
X116716503Y-60989737D01*
X116841241Y-61014549D01*
X116871153Y-61020499D01*
X116871156Y-61020500D01*
X116871158Y-61020500D01*
X117028844Y-61020500D01*
X117107124Y-61004928D01*
X117166469Y-60993124D01*
X117236060Y-60999351D01*
X117291237Y-61042214D01*
X117314482Y-61108103D01*
X117298415Y-61176100D01*
X117278341Y-61202422D01*
X116692584Y-61788181D01*
X116631261Y-61821666D01*
X116604903Y-61824500D01*
X114013026Y-61824500D01*
X113945987Y-61804815D01*
X113900232Y-61752011D01*
X113890288Y-61682853D01*
X113895095Y-61662183D01*
X113921874Y-61579763D01*
X113921874Y-61579759D01*
X113921876Y-61579755D01*
X113955500Y-61367467D01*
X113955500Y-61152533D01*
X113921876Y-60940245D01*
X113921875Y-60940241D01*
X113921875Y-60940240D01*
X113855459Y-60735832D01*
X113855458Y-60735829D01*
X113785228Y-60597996D01*
X113757880Y-60544322D01*
X113631545Y-60370437D01*
X113479563Y-60218455D01*
X113381186Y-60146980D01*
X113303198Y-60090318D01*
X113260532Y-60034988D01*
X113254553Y-59965375D01*
X113287159Y-59903580D01*
X113303198Y-59889682D01*
X113331381Y-59869205D01*
X113479563Y-59761545D01*
X113631545Y-59609563D01*
X113757880Y-59435678D01*
X113824094Y-59305724D01*
X113872068Y-59254929D01*
X113939889Y-59238134D01*
X114006024Y-59260671D01*
X114022260Y-59274339D01*
X114089707Y-59341786D01*
X114089711Y-59341789D01*
X114220814Y-59429390D01*
X114220827Y-59429397D01*
X114366498Y-59489735D01*
X114366503Y-59489737D01*
X114521153Y-59520499D01*
X114521156Y-59520500D01*
X114521158Y-59520500D01*
X114678844Y-59520500D01*
X114678845Y-59520499D01*
X114833497Y-59489737D01*
X114979179Y-59429394D01*
X115110289Y-59341789D01*
X115221789Y-59230289D01*
X115309394Y-59099179D01*
X115369737Y-58953497D01*
X115400500Y-58798842D01*
X115400500Y-58641158D01*
X115400500Y-58641155D01*
X115400499Y-58641153D01*
X115374875Y-58512335D01*
X115369737Y-58486503D01*
X115349477Y-58437591D01*
X115309397Y-58340827D01*
X115309390Y-58340814D01*
X115221789Y-58209711D01*
X115221786Y-58209707D01*
X115110292Y-58098213D01*
X115110288Y-58098210D01*
X114979185Y-58010609D01*
X114979172Y-58010602D01*
X114833501Y-57950264D01*
X114833489Y-57950261D01*
X114678845Y-57919500D01*
X114678842Y-57919500D01*
X114521158Y-57919500D01*
X114521155Y-57919500D01*
X114366510Y-57950261D01*
X114366498Y-57950264D01*
X114220827Y-58010602D01*
X114220814Y-58010609D01*
X114089711Y-58098210D01*
X114022260Y-58165661D01*
X113960936Y-58199145D01*
X113891245Y-58194160D01*
X113835311Y-58152289D01*
X113824094Y-58134274D01*
X113768629Y-58025419D01*
X113757880Y-58004322D01*
X113631545Y-57830437D01*
X113479563Y-57678455D01*
X113305678Y-57552120D01*
X113114170Y-57454541D01*
X113114167Y-57454540D01*
X112909757Y-57388124D01*
X112720909Y-57358213D01*
X112697467Y-57354500D01*
X112182533Y-57354500D01*
X112159091Y-57358213D01*
X111970243Y-57388124D01*
X111970240Y-57388124D01*
X111765832Y-57454540D01*
X111765829Y-57454541D01*
X111574321Y-57552120D01*
X111505270Y-57602289D01*
X111400437Y-57678455D01*
X111400435Y-57678457D01*
X111400434Y-57678457D01*
X111248457Y-57830434D01*
X111248457Y-57830435D01*
X111248455Y-57830437D01*
X111221477Y-57867569D01*
X111122120Y-58004321D01*
X111069907Y-58106795D01*
X111021932Y-58157591D01*
X110959422Y-58174500D01*
X107299500Y-58174500D01*
X107232461Y-58154815D01*
X107186706Y-58102011D01*
X107175500Y-58050500D01*
X107175499Y-57701662D01*
X107175498Y-57701644D01*
X107165349Y-57602292D01*
X107165348Y-57602289D01*
X107121415Y-57469707D01*
X107112003Y-57441303D01*
X107111999Y-57441297D01*
X107111998Y-57441294D01*
X107034158Y-57315097D01*
X107015717Y-57247705D01*
X107034158Y-57184903D01*
X107111998Y-57058705D01*
X107111997Y-57058705D01*
X107112003Y-57058697D01*
X107165349Y-56897708D01*
X107175500Y-56798345D01*
X107175499Y-56201656D01*
X107174626Y-56193114D01*
X107165349Y-56102292D01*
X107165348Y-56102289D01*
X107159908Y-56085873D01*
X107112003Y-55941303D01*
X107111999Y-55941297D01*
X107111998Y-55941294D01*
X107022970Y-55796959D01*
X107022967Y-55796955D01*
X106903044Y-55677032D01*
X106903040Y-55677029D01*
X106758705Y-55588001D01*
X106758699Y-55587998D01*
X106758697Y-55587997D01*
X106758694Y-55587996D01*
X106597709Y-55534651D01*
X106498352Y-55524500D01*
X106498345Y-55524500D01*
X106299096Y-55524500D01*
X106232057Y-55504815D01*
X106186302Y-55452011D01*
X106176358Y-55382853D01*
X106205383Y-55319297D01*
X106211415Y-55312819D01*
X106404735Y-55119500D01*
X107247417Y-54276819D01*
X107308740Y-54243334D01*
X107335098Y-54240500D01*
X110800501Y-54240500D01*
X110867540Y-54260185D01*
X110913295Y-54312989D01*
X110924501Y-54364500D01*
X110924501Y-54552876D01*
X110930908Y-54612483D01*
X110981202Y-54747328D01*
X110981206Y-54747335D01*
X111067452Y-54862544D01*
X111067455Y-54862547D01*
X111182664Y-54948793D01*
X111182671Y-54948797D01*
X111317517Y-54999091D01*
X111317516Y-54999091D01*
X111324444Y-54999835D01*
X111377127Y-55005500D01*
X113502872Y-55005499D01*
X113562483Y-54999091D01*
X113697331Y-54948796D01*
X113812546Y-54862546D01*
X113898796Y-54747331D01*
X113949091Y-54612483D01*
X113955500Y-54552873D01*
X113955499Y-52727128D01*
X113949091Y-52667517D01*
X113931515Y-52620394D01*
X113898797Y-52532671D01*
X113898793Y-52532664D01*
X113812547Y-52417455D01*
X113812544Y-52417452D01*
X113697335Y-52331206D01*
X113697328Y-52331202D01*
X113562482Y-52280908D01*
X113562483Y-52280908D01*
X113502883Y-52274501D01*
X113502881Y-52274500D01*
X113502873Y-52274500D01*
X113502864Y-52274500D01*
X111377129Y-52274500D01*
X111377123Y-52274501D01*
X111317516Y-52280908D01*
X111182671Y-52331202D01*
X111182664Y-52331206D01*
X111067455Y-52417452D01*
X111067452Y-52417455D01*
X110981206Y-52532664D01*
X110981202Y-52532671D01*
X110930908Y-52667517D01*
X110924599Y-52726202D01*
X110924501Y-52727123D01*
X110924500Y-52727135D01*
X110924500Y-52915500D01*
X110904815Y-52982539D01*
X110852011Y-53028294D01*
X110800500Y-53039500D01*
X107121669Y-53039500D01*
X107114061Y-53039499D01*
X107114058Y-53039499D01*
X106955943Y-53039499D01*
X106955942Y-53039499D01*
X106950855Y-53039499D01*
X106883816Y-53019814D01*
X106838061Y-52967010D01*
X106838060Y-52967005D01*
X106832471Y-52952389D01*
X106808479Y-52875397D01*
X106808478Y-52875396D01*
X106808478Y-52875394D01*
X106720472Y-52729815D01*
X106720470Y-52729813D01*
X106720469Y-52729811D01*
X106600188Y-52609530D01*
X106454606Y-52521522D01*
X106292196Y-52470914D01*
X106292194Y-52470913D01*
X106292192Y-52470913D01*
X106242778Y-52466423D01*
X106221616Y-52464500D01*
X106221613Y-52464500D01*
X105890097Y-52464500D01*
X105823058Y-52444815D01*
X105802416Y-52428181D01*
X105296819Y-51922584D01*
X105263334Y-51861261D01*
X105260500Y-51834903D01*
X105260500Y-51555831D01*
X105260499Y-51555818D01*
X105250436Y-51457316D01*
X105250436Y-51457315D01*
X105197549Y-51297713D01*
X105197545Y-51297707D01*
X105197544Y-51297704D01*
X105109283Y-51154612D01*
X105109280Y-51154608D01*
X104990391Y-51035719D01*
X104990387Y-51035716D01*
X104847295Y-50947455D01*
X104847289Y-50947452D01*
X104847287Y-50947451D01*
X104687685Y-50894564D01*
X104687683Y-50894563D01*
X104589181Y-50884500D01*
X104589174Y-50884500D01*
X104274500Y-50884500D01*
X104207461Y-50864815D01*
X104161706Y-50812011D01*
X104150500Y-50760500D01*
X104150500Y-49209797D01*
X104170185Y-49142758D01*
X104209403Y-49104258D01*
X104268656Y-49067712D01*
X104392712Y-48943656D01*
X104484814Y-48794334D01*
X104539999Y-48627797D01*
X104550500Y-48525009D01*
X104550499Y-47474992D01*
X104539999Y-47372203D01*
X104484814Y-47205666D01*
X104392712Y-47056344D01*
X104268656Y-46932288D01*
X104268654Y-46932287D01*
X104266296Y-46930422D01*
X104265098Y-46928730D01*
X104263549Y-46927181D01*
X104263813Y-46926916D01*
X104225923Y-46873398D01*
X104222788Y-46803598D01*
X104255531Y-46745480D01*
X104297968Y-46703044D01*
X104387003Y-46558697D01*
X104440349Y-46397708D01*
X104450500Y-46298345D01*
X104450499Y-45701656D01*
X104440349Y-45602292D01*
X104387003Y-45441303D01*
X104386999Y-45441297D01*
X104386998Y-45441294D01*
X104297970Y-45296959D01*
X104297967Y-45296955D01*
X104178044Y-45177032D01*
X104178040Y-45177029D01*
X104033705Y-45088001D01*
X104033699Y-45087998D01*
X104033697Y-45087997D01*
X104033694Y-45087996D01*
X103872709Y-45034651D01*
X103773346Y-45024500D01*
X103226662Y-45024500D01*
X103226644Y-45024501D01*
X103127292Y-45034650D01*
X103127289Y-45034651D01*
X102966305Y-45087996D01*
X102966294Y-45088001D01*
X102821959Y-45177029D01*
X102821955Y-45177032D01*
X102702031Y-45296956D01*
X102675113Y-45340598D01*
X102623165Y-45387322D01*
X102569575Y-45399500D01*
X102226777Y-45399500D01*
X102159738Y-45379815D01*
X102113983Y-45327011D01*
X102107561Y-45309612D01*
X102083909Y-45226951D01*
X101989698Y-45046593D01*
X101965958Y-45017479D01*
X101861109Y-44888890D01*
X101703409Y-44760304D01*
X101703410Y-44760304D01*
X101703407Y-44760302D01*
X101523049Y-44666091D01*
X101523048Y-44666090D01*
X101523045Y-44666089D01*
X101405829Y-44632550D01*
X101327418Y-44610114D01*
X101327415Y-44610113D01*
X101327413Y-44610113D01*
X101261102Y-44604217D01*
X101208037Y-44599500D01*
X101208032Y-44599500D01*
X100091971Y-44599500D01*
X100091965Y-44599500D01*
X100091964Y-44599501D01*
X100080316Y-44600536D01*
X99972584Y-44610113D01*
X99776954Y-44666089D01*
X99738169Y-44686349D01*
X99596593Y-44760302D01*
X99596591Y-44760303D01*
X99596590Y-44760304D01*
X99438890Y-44888890D01*
X99320040Y-45034650D01*
X99310302Y-45046593D01*
X99263196Y-45136772D01*
X99216089Y-45226954D01*
X99160114Y-45422583D01*
X99160113Y-45422586D01*
X99149500Y-45541966D01*
X99149500Y-46275500D01*
X99129815Y-46342539D01*
X99077011Y-46388294D01*
X99025500Y-46399500D01*
X95916916Y-46399500D01*
X95849877Y-46379815D01*
X95804122Y-46327011D01*
X95802425Y-46322887D01*
X95717032Y-46150707D01*
X95717030Y-46150704D01*
X95597722Y-46002278D01*
X95597721Y-46002277D01*
X95449295Y-45882969D01*
X95449292Y-45882967D01*
X95278697Y-45798360D01*
X95093892Y-45752400D01*
X95072506Y-45750950D01*
X95051123Y-45749500D01*
X95051120Y-45749500D01*
X93648877Y-45749500D01*
X93648874Y-45749501D01*
X93606113Y-45752399D01*
X93606112Y-45752399D01*
X93421307Y-45798359D01*
X93329594Y-45843844D01*
X93260789Y-45855995D01*
X93196337Y-45829018D01*
X93156701Y-45771478D01*
X93150500Y-45732755D01*
X93150500Y-44845503D01*
X93170185Y-44778464D01*
X93186819Y-44757822D01*
X93657822Y-44286819D01*
X93719145Y-44253334D01*
X93745503Y-44250500D01*
X94695979Y-44250500D01*
X94695995Y-44250501D01*
X94703591Y-44250501D01*
X94861702Y-44250501D01*
X94861705Y-44250501D01*
X95014433Y-44209577D01*
X95091805Y-44164906D01*
X95151364Y-44130520D01*
X95263168Y-44018716D01*
X95263168Y-44018714D01*
X95273372Y-44008511D01*
X95273376Y-44008506D01*
X97808506Y-41473376D01*
X97808511Y-41473372D01*
X97818714Y-41463168D01*
X97818716Y-41463168D01*
X97930520Y-41351364D01*
X98009577Y-41214432D01*
X98050500Y-41061705D01*
X98050500Y-37826975D01*
X98067113Y-37764975D01*
X98129577Y-37656784D01*
X98170501Y-37504057D01*
X98170501Y-37345942D01*
X98170501Y-37338347D01*
X98170500Y-37338329D01*
X98170500Y-33420808D01*
X98190185Y-33353769D01*
X98206820Y-33333126D01*
X98238076Y-33301870D01*
X98238081Y-33301865D01*
X98321744Y-33160398D01*
X98360341Y-33027547D01*
X98367597Y-33002573D01*
X98367598Y-33002567D01*
X98370500Y-32965694D01*
X98370500Y-32663713D01*
X115839500Y-32663713D01*
X115839500Y-32876287D01*
X115846936Y-32923234D01*
X115872753Y-33086239D01*
X115872753Y-33086241D01*
X115872754Y-33086243D01*
X115935155Y-33278294D01*
X115938444Y-33288414D01*
X116034951Y-33477820D01*
X116159890Y-33649786D01*
X116310213Y-33800109D01*
X116482182Y-33925050D01*
X116490946Y-33929516D01*
X116541742Y-33977491D01*
X116558536Y-34045312D01*
X116535998Y-34111447D01*
X116490946Y-34150484D01*
X116482182Y-34154949D01*
X116310213Y-34279890D01*
X116159890Y-34430213D01*
X116034951Y-34602179D01*
X115938444Y-34791585D01*
X115872753Y-34993760D01*
X115846453Y-35159815D01*
X115839500Y-35203713D01*
X115839500Y-35416287D01*
X115872754Y-35626243D01*
X115899452Y-35708412D01*
X115938444Y-35828414D01*
X116034951Y-36017820D01*
X116159890Y-36189786D01*
X116310213Y-36340109D01*
X116482182Y-36465050D01*
X116490946Y-36469516D01*
X116541742Y-36517491D01*
X116558536Y-36585312D01*
X116535998Y-36651447D01*
X116490946Y-36690484D01*
X116482182Y-36694949D01*
X116310213Y-36819890D01*
X116159890Y-36970213D01*
X116034951Y-37142179D01*
X115938444Y-37331585D01*
X115872753Y-37533760D01*
X115839500Y-37743713D01*
X115839500Y-37956286D01*
X115867185Y-38131086D01*
X115872754Y-38166243D01*
X115900321Y-38251086D01*
X115938444Y-38368414D01*
X116034951Y-38557820D01*
X116159890Y-38729786D01*
X116310213Y-38880109D01*
X116482182Y-39005050D01*
X116490946Y-39009516D01*
X116541742Y-39057491D01*
X116558536Y-39125312D01*
X116535998Y-39191447D01*
X116490946Y-39230484D01*
X116482182Y-39234949D01*
X116310213Y-39359890D01*
X116159890Y-39510213D01*
X116034951Y-39682179D01*
X115938444Y-39871585D01*
X115872753Y-40073760D01*
X115839500Y-40283713D01*
X115839500Y-40496286D01*
X115869001Y-40682551D01*
X115872754Y-40706243D01*
X115935290Y-40898709D01*
X115938444Y-40908414D01*
X116034951Y-41097820D01*
X116159890Y-41269786D01*
X116310213Y-41420109D01*
X116482179Y-41545048D01*
X116482181Y-41545049D01*
X116482184Y-41545051D01*
X116671588Y-41641557D01*
X116873757Y-41707246D01*
X117083713Y-41740500D01*
X117083714Y-41740500D01*
X117296286Y-41740500D01*
X117296287Y-41740500D01*
X117506243Y-41707246D01*
X117708412Y-41641557D01*
X117897816Y-41545051D01*
X117930153Y-41521557D01*
X118069786Y-41420109D01*
X118069788Y-41420106D01*
X118069792Y-41420104D01*
X118220104Y-41269792D01*
X118220106Y-41269788D01*
X118220109Y-41269786D01*
X118345048Y-41097820D01*
X118345047Y-41097820D01*
X118345051Y-41097816D01*
X118441557Y-40908412D01*
X118507246Y-40706243D01*
X118540500Y-40496287D01*
X118540500Y-40283713D01*
X118507246Y-40073757D01*
X118493506Y-40031473D01*
X118491512Y-39961635D01*
X118523755Y-39905478D01*
X120712416Y-37716819D01*
X120773739Y-37683334D01*
X120800097Y-37680500D01*
X124271243Y-37680500D01*
X124338282Y-37700185D01*
X124343599Y-37703924D01*
X124344657Y-37704534D01*
X124344659Y-37704536D01*
X124344660Y-37704536D01*
X124344663Y-37704538D01*
X124417698Y-37734790D01*
X124490738Y-37765044D01*
X124608139Y-37780500D01*
X124990902Y-37780499D01*
X125057940Y-37800183D01*
X125103695Y-37852987D01*
X125113639Y-37922146D01*
X125084614Y-37985701D01*
X125078582Y-37992180D01*
X121474522Y-41596241D01*
X121413199Y-41629726D01*
X121348523Y-41626491D01*
X121306245Y-41612754D01*
X121166272Y-41590584D01*
X121096287Y-41579500D01*
X120883713Y-41579500D01*
X120835042Y-41587208D01*
X120673760Y-41612753D01*
X120471585Y-41678444D01*
X120282179Y-41774951D01*
X120110213Y-41899890D01*
X119959890Y-42050213D01*
X119834951Y-42222179D01*
X119738444Y-42411585D01*
X119672753Y-42613760D01*
X119672753Y-42613762D01*
X119639500Y-42823713D01*
X119639500Y-43036287D01*
X119672754Y-43246243D01*
X119699452Y-43328412D01*
X119738444Y-43448414D01*
X119834951Y-43637820D01*
X119959890Y-43809786D01*
X120110213Y-43960109D01*
X120282179Y-44085048D01*
X120282181Y-44085049D01*
X120282184Y-44085051D01*
X120471588Y-44181557D01*
X120673757Y-44247246D01*
X120883713Y-44280500D01*
X120883714Y-44280500D01*
X121096286Y-44280500D01*
X121096287Y-44280500D01*
X121306243Y-44247246D01*
X121508412Y-44181557D01*
X121697816Y-44085051D01*
X121789123Y-44018713D01*
X121869786Y-43960109D01*
X121869788Y-43960106D01*
X121869792Y-43960104D01*
X122020104Y-43809792D01*
X122020106Y-43809788D01*
X122020109Y-43809786D01*
X122145048Y-43637820D01*
X122145047Y-43637820D01*
X122145051Y-43637816D01*
X122149514Y-43629054D01*
X122197488Y-43578259D01*
X122265308Y-43561463D01*
X122331444Y-43583999D01*
X122370486Y-43629056D01*
X122374951Y-43637820D01*
X122499890Y-43809786D01*
X122650213Y-43960109D01*
X122822179Y-44085048D01*
X122822181Y-44085049D01*
X122822184Y-44085051D01*
X123011588Y-44181557D01*
X123213757Y-44247246D01*
X123423713Y-44280500D01*
X123423714Y-44280500D01*
X123636286Y-44280500D01*
X123636287Y-44280500D01*
X123846243Y-44247246D01*
X124048412Y-44181557D01*
X124237816Y-44085051D01*
X124329123Y-44018713D01*
X124409786Y-43960109D01*
X124409788Y-43960106D01*
X124409792Y-43960104D01*
X124560104Y-43809792D01*
X124560106Y-43809788D01*
X124560109Y-43809786D01*
X124685048Y-43637820D01*
X124685047Y-43637820D01*
X124685051Y-43637816D01*
X124689514Y-43629054D01*
X124737488Y-43578259D01*
X124805308Y-43561463D01*
X124871444Y-43583999D01*
X124910486Y-43629056D01*
X124914951Y-43637820D01*
X125039890Y-43809786D01*
X125190213Y-43960109D01*
X125362179Y-44085048D01*
X125362181Y-44085049D01*
X125362184Y-44085051D01*
X125551588Y-44181557D01*
X125753757Y-44247246D01*
X125963713Y-44280500D01*
X125963714Y-44280500D01*
X126176286Y-44280500D01*
X126176287Y-44280500D01*
X126386243Y-44247246D01*
X126588412Y-44181557D01*
X126777816Y-44085051D01*
X126869123Y-44018713D01*
X126949786Y-43960109D01*
X126949788Y-43960106D01*
X126949792Y-43960104D01*
X127100104Y-43809792D01*
X127100106Y-43809788D01*
X127100109Y-43809786D01*
X127225048Y-43637820D01*
X127225047Y-43637820D01*
X127225051Y-43637816D01*
X127229514Y-43629054D01*
X127277488Y-43578259D01*
X127345308Y-43561463D01*
X127411444Y-43583999D01*
X127450486Y-43629056D01*
X127454951Y-43637820D01*
X127579890Y-43809786D01*
X127730213Y-43960109D01*
X127902179Y-44085048D01*
X127902181Y-44085049D01*
X127902184Y-44085051D01*
X128091588Y-44181557D01*
X128293757Y-44247246D01*
X128503713Y-44280500D01*
X128503714Y-44280500D01*
X128716286Y-44280500D01*
X128716287Y-44280500D01*
X128926243Y-44247246D01*
X129128412Y-44181557D01*
X129317816Y-44085051D01*
X129409123Y-44018713D01*
X129489786Y-43960109D01*
X129489788Y-43960106D01*
X129489792Y-43960104D01*
X129640104Y-43809792D01*
X129640106Y-43809788D01*
X129640109Y-43809786D01*
X129765048Y-43637820D01*
X129765047Y-43637820D01*
X129765051Y-43637816D01*
X129861557Y-43448412D01*
X129927246Y-43246243D01*
X129960500Y-43036287D01*
X129960500Y-42823713D01*
X129927246Y-42613757D01*
X129913506Y-42571473D01*
X129911512Y-42501635D01*
X129943755Y-42445478D01*
X131490520Y-40898716D01*
X131569577Y-40761784D01*
X131578015Y-40730291D01*
X131614378Y-40670633D01*
X131677224Y-40640103D01*
X131746600Y-40648397D01*
X131785470Y-40674705D01*
X133436241Y-42325476D01*
X133469726Y-42386799D01*
X133466492Y-42451473D01*
X133452753Y-42493757D01*
X133419500Y-42703713D01*
X133419500Y-42916286D01*
X133451663Y-43119360D01*
X133452754Y-43126243D01*
X133491743Y-43246239D01*
X133518444Y-43328414D01*
X133614951Y-43517820D01*
X133739890Y-43689786D01*
X133890213Y-43840109D01*
X134062179Y-43965048D01*
X134062181Y-43965049D01*
X134062184Y-43965051D01*
X134251588Y-44061557D01*
X134453757Y-44127246D01*
X134663713Y-44160500D01*
X134663714Y-44160500D01*
X134876286Y-44160500D01*
X134876287Y-44160500D01*
X135086243Y-44127246D01*
X135288412Y-44061557D01*
X135477816Y-43965051D01*
X135499789Y-43949086D01*
X135649786Y-43840109D01*
X135649788Y-43840106D01*
X135649792Y-43840104D01*
X135800104Y-43689792D01*
X135800106Y-43689788D01*
X135800109Y-43689786D01*
X135925048Y-43517820D01*
X135925047Y-43517820D01*
X135925051Y-43517816D01*
X136021557Y-43328412D01*
X136087246Y-43126243D01*
X136120500Y-42916287D01*
X136120500Y-42703713D01*
X136087246Y-42493757D01*
X136021557Y-42291588D01*
X135925051Y-42102184D01*
X135925049Y-42102181D01*
X135925048Y-42102179D01*
X135800109Y-41930213D01*
X135649786Y-41779890D01*
X135477820Y-41654951D01*
X135477115Y-41654591D01*
X135469054Y-41650485D01*
X135418259Y-41602512D01*
X135401463Y-41534692D01*
X135423999Y-41468556D01*
X135469054Y-41429515D01*
X135477816Y-41425051D01*
X135579237Y-41351365D01*
X135649786Y-41300109D01*
X135649788Y-41300106D01*
X135649792Y-41300104D01*
X135800104Y-41149792D01*
X135800106Y-41149788D01*
X135800109Y-41149786D01*
X135925048Y-40977820D01*
X135925047Y-40977820D01*
X135925051Y-40977816D01*
X136021557Y-40788412D01*
X136087246Y-40586243D01*
X136120500Y-40376287D01*
X136120500Y-40163713D01*
X136087246Y-39953757D01*
X136021557Y-39751588D01*
X135925051Y-39562184D01*
X135925049Y-39562181D01*
X135925048Y-39562179D01*
X135800109Y-39390213D01*
X135649786Y-39239890D01*
X135477820Y-39114951D01*
X135473329Y-39112663D01*
X135469054Y-39110485D01*
X135418259Y-39062512D01*
X135401463Y-38994692D01*
X135423999Y-38928556D01*
X135469054Y-38889515D01*
X135477816Y-38885051D01*
X135537046Y-38842018D01*
X135649786Y-38760109D01*
X135649788Y-38760106D01*
X135649792Y-38760104D01*
X135800104Y-38609792D01*
X135800106Y-38609788D01*
X135800109Y-38609786D01*
X135925048Y-38437820D01*
X135925047Y-38437820D01*
X135925051Y-38437816D01*
X136021557Y-38248412D01*
X136087246Y-38046243D01*
X136120500Y-37836287D01*
X136120500Y-37623713D01*
X136087246Y-37413757D01*
X136021557Y-37211588D01*
X135925051Y-37022184D01*
X135925049Y-37022181D01*
X135925048Y-37022179D01*
X135800109Y-36850213D01*
X135649786Y-36699890D01*
X135477820Y-36574951D01*
X135477115Y-36574591D01*
X135469054Y-36570485D01*
X135418259Y-36522512D01*
X135401463Y-36454692D01*
X135423999Y-36388556D01*
X135469054Y-36349515D01*
X135477816Y-36345051D01*
X135571843Y-36276737D01*
X135649786Y-36220109D01*
X135649788Y-36220106D01*
X135649792Y-36220104D01*
X135800104Y-36069792D01*
X135800106Y-36069788D01*
X135800109Y-36069786D01*
X135925048Y-35897820D01*
X135925047Y-35897820D01*
X135925051Y-35897816D01*
X136021557Y-35708412D01*
X136087246Y-35506243D01*
X136120500Y-35296287D01*
X136120500Y-35083713D01*
X136087246Y-34873757D01*
X136021557Y-34671588D01*
X135925051Y-34482184D01*
X135925049Y-34482181D01*
X135925048Y-34482179D01*
X135800109Y-34310213D01*
X135649786Y-34159890D01*
X135477820Y-34034951D01*
X135477115Y-34034591D01*
X135469054Y-34030485D01*
X135418259Y-33982512D01*
X135401463Y-33914692D01*
X135423999Y-33848556D01*
X135469054Y-33809515D01*
X135477816Y-33805051D01*
X135511608Y-33780500D01*
X135649786Y-33680109D01*
X135649788Y-33680106D01*
X135649792Y-33680104D01*
X135800104Y-33529792D01*
X135800106Y-33529788D01*
X135800109Y-33529786D01*
X135925048Y-33357820D01*
X135925047Y-33357820D01*
X135925051Y-33357816D01*
X136021557Y-33168412D01*
X136087246Y-32966243D01*
X136120500Y-32756287D01*
X136120500Y-32543713D01*
X136087246Y-32333757D01*
X136021557Y-32131588D01*
X135925051Y-31942184D01*
X135925049Y-31942181D01*
X135925048Y-31942179D01*
X135800109Y-31770213D01*
X135649786Y-31619890D01*
X135477820Y-31494951D01*
X135288414Y-31398444D01*
X135288413Y-31398443D01*
X135288412Y-31398443D01*
X135086243Y-31332754D01*
X135086241Y-31332753D01*
X135086240Y-31332753D01*
X134924957Y-31307208D01*
X134876287Y-31299500D01*
X134663713Y-31299500D01*
X134615042Y-31307208D01*
X134453760Y-31332753D01*
X134251585Y-31398444D01*
X134062179Y-31494951D01*
X133890213Y-31619890D01*
X133739890Y-31770213D01*
X133614948Y-31942184D01*
X133614947Y-31942185D01*
X133594765Y-31981795D01*
X133546791Y-32032591D01*
X133484281Y-32049500D01*
X132173596Y-32049500D01*
X132106557Y-32029815D01*
X132081880Y-32007113D01*
X132081529Y-32007465D01*
X132075786Y-32001722D01*
X132075783Y-32001720D01*
X132075782Y-32001718D01*
X131950341Y-31905464D01*
X131917423Y-31891829D01*
X131804262Y-31844956D01*
X131804260Y-31844955D01*
X131686870Y-31829501D01*
X131686867Y-31829500D01*
X131686861Y-31829500D01*
X131686854Y-31829500D01*
X130333136Y-31829500D01*
X130215746Y-31844953D01*
X130215737Y-31844956D01*
X130069660Y-31905463D01*
X129944218Y-32001718D01*
X129847963Y-32127160D01*
X129787456Y-32273237D01*
X129787455Y-32273239D01*
X129772000Y-32390638D01*
X129772000Y-32669363D01*
X129787453Y-32786753D01*
X129787457Y-32786765D01*
X129796066Y-32807550D01*
X129803533Y-32877019D01*
X129796066Y-32902450D01*
X129787457Y-32923234D01*
X129787455Y-32923239D01*
X129772000Y-33040638D01*
X129772000Y-33319363D01*
X129787453Y-33436753D01*
X129787457Y-33436765D01*
X129796066Y-33457550D01*
X129803533Y-33527019D01*
X129796066Y-33552450D01*
X129787457Y-33573234D01*
X129787455Y-33573239D01*
X129772000Y-33690638D01*
X129772000Y-33969363D01*
X129787453Y-34086753D01*
X129787457Y-34086765D01*
X129796066Y-34107550D01*
X129803533Y-34177019D01*
X129796066Y-34202450D01*
X129787457Y-34223234D01*
X129787455Y-34223239D01*
X129772000Y-34340638D01*
X129772000Y-34405500D01*
X129752315Y-34472539D01*
X129699511Y-34518294D01*
X129648000Y-34529500D01*
X128876670Y-34529500D01*
X128876654Y-34529499D01*
X128869058Y-34529499D01*
X128710943Y-34529499D01*
X128570736Y-34567067D01*
X128558211Y-34570424D01*
X128421287Y-34649477D01*
X128421282Y-34649481D01*
X126730711Y-36340051D01*
X126721870Y-36344878D01*
X126715702Y-36352843D01*
X126691716Y-36361343D01*
X126669388Y-36373536D01*
X126659341Y-36372817D01*
X126649846Y-36376183D01*
X126625073Y-36370366D01*
X126599696Y-36368552D01*
X126591632Y-36362515D01*
X126581826Y-36360213D01*
X126564132Y-36341928D01*
X126543763Y-36326680D01*
X126538948Y-36315903D01*
X126533238Y-36310003D01*
X126525717Y-36286291D01*
X126521448Y-36276737D01*
X126520634Y-36272677D01*
X126507544Y-36173238D01*
X126494295Y-36141253D01*
X126491913Y-36129367D01*
X126493956Y-36106154D01*
X126491465Y-36082986D01*
X126497936Y-36060947D01*
X126498040Y-36059766D01*
X126498431Y-36059260D01*
X126498935Y-36057545D01*
X126507544Y-36036762D01*
X126523000Y-35919361D01*
X126522999Y-35640640D01*
X126522999Y-35640636D01*
X126507546Y-35523246D01*
X126507544Y-35523241D01*
X126507544Y-35523238D01*
X126447036Y-35377159D01*
X126350782Y-35251718D01*
X126225341Y-35155464D01*
X126140428Y-35120292D01*
X126079262Y-35094956D01*
X126079260Y-35094955D01*
X125961870Y-35079501D01*
X125961867Y-35079500D01*
X125961861Y-35079500D01*
X125961854Y-35079500D01*
X124608136Y-35079500D01*
X124490746Y-35094953D01*
X124490734Y-35094957D01*
X124344663Y-35155461D01*
X124337624Y-35159526D01*
X124336617Y-35157783D01*
X124281568Y-35179069D01*
X124271243Y-35179500D01*
X118642571Y-35179500D01*
X118575532Y-35159815D01*
X118529777Y-35107011D01*
X118520098Y-35074898D01*
X118507246Y-34993760D01*
X118507246Y-34993757D01*
X118441557Y-34791588D01*
X118380010Y-34670795D01*
X118367114Y-34602126D01*
X118393390Y-34537385D01*
X118450497Y-34497128D01*
X118490495Y-34490500D01*
X123832375Y-34490500D01*
X123832391Y-34490501D01*
X123839987Y-34490501D01*
X123998098Y-34490501D01*
X123998101Y-34490501D01*
X124150829Y-34449577D01*
X124209850Y-34415501D01*
X124287760Y-34370520D01*
X124399564Y-34258716D01*
X124399564Y-34258714D01*
X124409768Y-34248511D01*
X124409772Y-34248506D01*
X124741460Y-33916818D01*
X124802783Y-33883333D01*
X124829141Y-33880499D01*
X125961863Y-33880499D01*
X126079253Y-33865046D01*
X126079257Y-33865044D01*
X126079262Y-33865044D01*
X126225341Y-33804536D01*
X126350782Y-33708282D01*
X126447036Y-33582841D01*
X126507544Y-33436762D01*
X126523000Y-33319361D01*
X126522999Y-33040640D01*
X126521275Y-33027547D01*
X126513205Y-32966243D01*
X126507544Y-32923238D01*
X126507542Y-32923234D01*
X126498935Y-32902455D01*
X126491465Y-32832986D01*
X126498935Y-32807545D01*
X126507544Y-32786762D01*
X126523000Y-32669361D01*
X126522999Y-32513704D01*
X126542683Y-32446666D01*
X126595487Y-32400911D01*
X126655066Y-32390985D01*
X126655066Y-32390500D01*
X126657978Y-32390500D01*
X126659160Y-32390303D01*
X126661157Y-32390499D01*
X126661158Y-32390500D01*
X126661159Y-32390500D01*
X126818844Y-32390500D01*
X126818845Y-32390499D01*
X126973497Y-32359737D01*
X127119179Y-32299394D01*
X127250289Y-32211789D01*
X127361789Y-32100289D01*
X127449394Y-31969179D01*
X127509737Y-31823497D01*
X127540500Y-31668842D01*
X127540500Y-31511158D01*
X127540500Y-31511155D01*
X127540499Y-31511153D01*
X127529607Y-31456395D01*
X127509737Y-31356503D01*
X127486744Y-31300993D01*
X127449397Y-31210827D01*
X127449390Y-31210814D01*
X127361789Y-31079711D01*
X127361786Y-31079707D01*
X127250292Y-30968213D01*
X127250288Y-30968210D01*
X127119185Y-30880609D01*
X127119172Y-30880602D01*
X126973501Y-30820264D01*
X126973489Y-30820261D01*
X126818845Y-30789500D01*
X126818842Y-30789500D01*
X126661158Y-30789500D01*
X126661155Y-30789500D01*
X126506510Y-30820261D01*
X126506498Y-30820264D01*
X126360827Y-30880602D01*
X126360814Y-30880609D01*
X126229127Y-30968601D01*
X126162450Y-30989479D01*
X126160236Y-30989499D01*
X126145943Y-30989499D01*
X126075801Y-31008294D01*
X125993214Y-31030423D01*
X125993209Y-31030426D01*
X125856290Y-31109475D01*
X125856282Y-31109481D01*
X125372680Y-31593083D01*
X125311357Y-31626568D01*
X125241665Y-31621584D01*
X125197318Y-31593083D01*
X124272590Y-30668355D01*
X124272588Y-30668352D01*
X124153717Y-30549481D01*
X124153709Y-30549475D01*
X124048470Y-30488716D01*
X124048469Y-30488715D01*
X124048469Y-30488716D01*
X124029601Y-30477822D01*
X124003922Y-30458117D01*
X123895692Y-30349887D01*
X123895684Y-30349881D01*
X123756393Y-30267505D01*
X123756390Y-30267504D01*
X123600997Y-30222357D01*
X123600991Y-30222356D01*
X123564697Y-30219500D01*
X123564690Y-30219500D01*
X123155310Y-30219500D01*
X123155302Y-30219500D01*
X123119008Y-30222356D01*
X123119002Y-30222357D01*
X122963609Y-30267504D01*
X122963606Y-30267505D01*
X122824315Y-30349881D01*
X122824307Y-30349887D01*
X122709887Y-30464307D01*
X122709881Y-30464315D01*
X122627505Y-30603606D01*
X122627504Y-30603609D01*
X122582357Y-30759002D01*
X122582356Y-30759008D01*
X122579500Y-30795302D01*
X122579500Y-31264697D01*
X122582356Y-31300991D01*
X122582357Y-31300997D01*
X122623144Y-31441384D01*
X122622945Y-31511253D01*
X122591753Y-31563656D01*
X122586835Y-31568573D01*
X122586826Y-31568585D01*
X122506382Y-31704609D01*
X122506380Y-31704614D01*
X122462292Y-31856366D01*
X122462290Y-31856379D01*
X122459500Y-31891829D01*
X122459500Y-32468150D01*
X122459501Y-32468175D01*
X122462290Y-32503624D01*
X122506381Y-32655389D01*
X122548226Y-32726144D01*
X122565409Y-32793868D01*
X122550043Y-32846206D01*
X122550603Y-32846449D01*
X122548643Y-32850976D01*
X122548233Y-32852375D01*
X122547506Y-32853603D01*
X122547504Y-32853609D01*
X122502357Y-33009002D01*
X122502356Y-33009008D01*
X122499500Y-33045302D01*
X122499500Y-33165500D01*
X122479815Y-33232539D01*
X122427011Y-33278294D01*
X122375500Y-33289500D01*
X118611875Y-33289500D01*
X118544836Y-33269815D01*
X118499081Y-33217011D01*
X118489137Y-33147853D01*
X118493944Y-33127182D01*
X118498294Y-33113793D01*
X118507246Y-33086243D01*
X118540500Y-32876287D01*
X118540500Y-32663713D01*
X118507246Y-32453757D01*
X118441557Y-32251588D01*
X118345051Y-32062184D01*
X118345049Y-32062181D01*
X118345048Y-32062179D01*
X118220109Y-31890213D01*
X118069786Y-31739890D01*
X117897820Y-31614951D01*
X117708414Y-31518444D01*
X117708413Y-31518443D01*
X117708412Y-31518443D01*
X117506243Y-31452754D01*
X117506241Y-31452753D01*
X117506240Y-31452753D01*
X117344957Y-31427208D01*
X117296287Y-31419500D01*
X117083713Y-31419500D01*
X117035042Y-31427208D01*
X116873760Y-31452753D01*
X116873757Y-31452754D01*
X116693717Y-31511253D01*
X116671585Y-31518444D01*
X116482179Y-31614951D01*
X116310213Y-31739890D01*
X116159890Y-31890213D01*
X116034951Y-32062179D01*
X115938444Y-32251585D01*
X115872753Y-32453760D01*
X115864855Y-32503627D01*
X115839500Y-32663713D01*
X98370500Y-32663713D01*
X98370500Y-31684306D01*
X98367598Y-31647431D01*
X98360089Y-31621584D01*
X98319568Y-31482110D01*
X98321019Y-31481688D01*
X98313530Y-31421078D01*
X98343812Y-31358112D01*
X98360410Y-31342782D01*
X98363358Y-31340518D01*
X98363365Y-31340515D01*
X98470515Y-31233365D01*
X98546281Y-31102135D01*
X98585500Y-30955766D01*
X98585500Y-30804234D01*
X98546281Y-30657865D01*
X98470515Y-30526635D01*
X98363365Y-30419485D01*
X98297750Y-30381602D01*
X98232136Y-30343719D01*
X98158950Y-30324109D01*
X98085766Y-30304500D01*
X97934234Y-30304500D01*
X97787863Y-30343719D01*
X97656635Y-30419485D01*
X97656632Y-30419487D01*
X97549487Y-30526632D01*
X97549485Y-30526635D01*
X97473719Y-30657863D01*
X97434500Y-30804234D01*
X97434500Y-30955767D01*
X97435351Y-30962233D01*
X97424582Y-31031268D01*
X97378200Y-31083521D01*
X97343986Y-31098326D01*
X97333227Y-31101158D01*
X97317431Y-31102402D01*
X97210261Y-31133537D01*
X97208730Y-31133941D01*
X97175308Y-31133000D01*
X97141880Y-31132905D01*
X97139290Y-31131987D01*
X97138888Y-31131976D01*
X97138488Y-31131703D01*
X97129704Y-31128590D01*
X97097797Y-31115374D01*
X97095236Y-31114313D01*
X97080698Y-31112399D01*
X96982727Y-31099500D01*
X96982720Y-31099500D01*
X96757280Y-31099500D01*
X96757272Y-31099500D01*
X96670393Y-31110938D01*
X96644764Y-31114313D01*
X96644762Y-31114313D01*
X96636708Y-31115374D01*
X96636316Y-31112399D01*
X96603684Y-31112399D01*
X96603292Y-31115374D01*
X96595237Y-31114313D01*
X96595236Y-31114313D01*
X96566271Y-31110499D01*
X96482727Y-31099500D01*
X96482720Y-31099500D01*
X96302508Y-31099500D01*
X96273064Y-31090854D01*
X96243082Y-31084332D01*
X96238066Y-31080577D01*
X96235469Y-31079815D01*
X96214831Y-31063185D01*
X96080369Y-30928724D01*
X96080368Y-30928722D01*
X95951127Y-30799481D01*
X95951126Y-30799480D01*
X95864314Y-30749360D01*
X95864314Y-30749359D01*
X95864310Y-30749358D01*
X95814195Y-30720423D01*
X95661467Y-30679499D01*
X95503353Y-30679499D01*
X95495757Y-30679499D01*
X95495741Y-30679500D01*
X95216670Y-30679500D01*
X95216654Y-30679499D01*
X95209058Y-30679499D01*
X95050943Y-30679499D01*
X94974579Y-30699961D01*
X94898214Y-30720423D01*
X94898209Y-30720426D01*
X94761290Y-30799475D01*
X94761282Y-30799481D01*
X94497583Y-31063181D01*
X94436260Y-31096666D01*
X94409902Y-31099500D01*
X94257272Y-31099500D01*
X94170393Y-31110938D01*
X94144764Y-31114313D01*
X94144762Y-31114313D01*
X94136708Y-31115374D01*
X94136316Y-31112399D01*
X94103684Y-31112399D01*
X94103292Y-31115374D01*
X94095237Y-31114313D01*
X94095236Y-31114313D01*
X94066271Y-31110499D01*
X93982727Y-31099500D01*
X93982720Y-31099500D01*
X93757280Y-31099500D01*
X93757272Y-31099500D01*
X93670393Y-31110938D01*
X93644764Y-31114313D01*
X93644762Y-31114313D01*
X93636708Y-31115374D01*
X93636316Y-31112399D01*
X93603684Y-31112399D01*
X93603292Y-31115374D01*
X93595237Y-31114313D01*
X93595236Y-31114313D01*
X93566271Y-31110499D01*
X93482727Y-31099500D01*
X93482720Y-31099500D01*
X93257280Y-31099500D01*
X93257272Y-31099500D01*
X93144764Y-31114313D01*
X93144760Y-31114314D01*
X93110295Y-31128590D01*
X93087825Y-31131005D01*
X93066329Y-31137980D01*
X93046530Y-31135445D01*
X93040825Y-31136059D01*
X93031267Y-31133941D01*
X93029759Y-31133543D01*
X92922569Y-31102402D01*
X92906774Y-31101158D01*
X92896012Y-31098325D01*
X92875240Y-31085787D01*
X92852569Y-31077145D01*
X92845865Y-31068055D01*
X92836195Y-31062218D01*
X92825498Y-31040438D01*
X92811099Y-31020913D01*
X92809712Y-31008294D01*
X92805395Y-30999504D01*
X92807109Y-30984615D01*
X92804649Y-30962224D01*
X92805498Y-30955770D01*
X92805500Y-30955766D01*
X92805500Y-30804234D01*
X92766281Y-30657865D01*
X92690515Y-30526635D01*
X92583365Y-30419485D01*
X92517750Y-30381602D01*
X92452136Y-30343719D01*
X92378950Y-30324109D01*
X92305766Y-30304500D01*
X92154234Y-30304500D01*
X92007863Y-30343719D01*
X91876635Y-30419485D01*
X91876632Y-30419487D01*
X91769487Y-30526632D01*
X91769485Y-30526635D01*
X91693719Y-30657863D01*
X91669203Y-30749360D01*
X91654500Y-30804234D01*
X91654500Y-30955766D01*
X91668575Y-31008294D01*
X91693719Y-31102136D01*
X91713305Y-31136059D01*
X91769485Y-31233365D01*
X91769487Y-31233367D01*
X91876636Y-31340516D01*
X91879594Y-31342786D01*
X91881455Y-31345335D01*
X91882382Y-31346262D01*
X91882237Y-31346406D01*
X91920796Y-31399214D01*
X91924949Y-31468960D01*
X91918896Y-31487394D01*
X91872402Y-31647426D01*
X91872401Y-31647432D01*
X91869500Y-31684298D01*
X91869500Y-32965701D01*
X91872401Y-33002567D01*
X91872402Y-33002573D01*
X91918254Y-33160393D01*
X91918255Y-33160396D01*
X91918256Y-33160398D01*
X91922997Y-33168414D01*
X92001917Y-33301862D01*
X92001923Y-33301870D01*
X92033180Y-33333126D01*
X92066666Y-33394448D01*
X92069500Y-33420808D01*
X92069500Y-37143023D01*
X92065350Y-37158510D01*
X92066006Y-37172251D01*
X92052891Y-37205017D01*
X92044610Y-37219361D01*
X91990423Y-37313215D01*
X91949499Y-37465943D01*
X91949499Y-37465945D01*
X91949499Y-37634046D01*
X91949500Y-37634059D01*
X91949500Y-44245308D01*
X91943161Y-44266893D01*
X91941424Y-44289327D01*
X91932543Y-44303056D01*
X91929815Y-44312347D01*
X91924327Y-44320203D01*
X91919194Y-44326975D01*
X91849480Y-44396690D01*
X91799360Y-44483501D01*
X91795483Y-44490214D01*
X91795479Y-44490221D01*
X91770425Y-44533615D01*
X91770424Y-44533616D01*
X91770423Y-44533621D01*
X91729499Y-44686349D01*
X91729499Y-44686351D01*
X91729499Y-44854452D01*
X91729500Y-44854465D01*
X91729500Y-46210201D01*
X91709815Y-46277240D01*
X91670598Y-46315739D01*
X91611344Y-46352287D01*
X91487289Y-46476342D01*
X91395187Y-46625663D01*
X91395185Y-46625668D01*
X91384650Y-46657461D01*
X91340001Y-46792203D01*
X91340001Y-46792204D01*
X91340000Y-46792204D01*
X91329500Y-46894983D01*
X91329500Y-47945001D01*
X91329501Y-47945019D01*
X91340000Y-48047796D01*
X91340001Y-48047799D01*
X91395185Y-48214331D01*
X91395189Y-48214340D01*
X91459867Y-48319200D01*
X91478307Y-48386592D01*
X91457384Y-48453256D01*
X91442010Y-48471977D01*
X91317029Y-48596959D01*
X91228001Y-48741294D01*
X91227996Y-48741305D01*
X91174651Y-48902290D01*
X91164500Y-49001647D01*
X91164500Y-49598337D01*
X91164501Y-49598355D01*
X91174650Y-49697707D01*
X91174651Y-49697710D01*
X91227996Y-49858694D01*
X91228001Y-49858705D01*
X91317029Y-50003040D01*
X91317032Y-50003044D01*
X91436955Y-50122967D01*
X91436959Y-50122970D01*
X91581294Y-50211998D01*
X91581297Y-50211999D01*
X91581303Y-50212003D01*
X91742292Y-50265349D01*
X91841655Y-50275500D01*
X92388344Y-50275499D01*
X92388352Y-50275498D01*
X92388355Y-50275498D01*
X92442760Y-50269940D01*
X92487708Y-50265349D01*
X92648697Y-50212003D01*
X92793044Y-50122968D01*
X92793047Y-50122964D01*
X92798712Y-50118487D01*
X92800354Y-50120564D01*
X92850849Y-50092972D01*
X92920542Y-50097935D01*
X92976488Y-50139789D01*
X92981719Y-50147339D01*
X92982970Y-50149296D01*
X93102277Y-50297721D01*
X93102278Y-50297722D01*
X93250704Y-50417030D01*
X93250707Y-50417032D01*
X93421302Y-50501639D01*
X93421303Y-50501639D01*
X93421307Y-50501641D01*
X93606111Y-50547600D01*
X93648877Y-50550500D01*
X95051122Y-50550499D01*
X95093889Y-50547600D01*
X95278693Y-50501641D01*
X95449296Y-50417030D01*
X95597722Y-50297722D01*
X95717030Y-50149296D01*
X95801641Y-49978693D01*
X95847600Y-49793889D01*
X95850500Y-49751123D01*
X95850499Y-48848878D01*
X95847600Y-48806111D01*
X95801641Y-48621307D01*
X95779873Y-48577415D01*
X95717032Y-48450707D01*
X95717030Y-48450704D01*
X95597722Y-48302278D01*
X95597721Y-48302277D01*
X95528514Y-48246647D01*
X95488595Y-48189304D01*
X95486015Y-48119482D01*
X95521594Y-48059349D01*
X95528514Y-48053353D01*
X95537909Y-48045800D01*
X95597722Y-47997722D01*
X95717030Y-47849296D01*
X95801641Y-47678693D01*
X95804628Y-47672671D01*
X95806535Y-47673617D01*
X95842131Y-47625590D01*
X95907478Y-47600860D01*
X95916916Y-47600500D01*
X99025501Y-47600500D01*
X99092540Y-47620185D01*
X99138295Y-47672989D01*
X99149501Y-47724500D01*
X99149501Y-48458034D01*
X99160113Y-48577415D01*
X99216089Y-48773045D01*
X99216090Y-48773046D01*
X99216091Y-48773049D01*
X99310302Y-48953407D01*
X99310304Y-48953409D01*
X99438890Y-49111109D01*
X99532803Y-49187684D01*
X99596593Y-49239698D01*
X99776951Y-49333909D01*
X99972582Y-49389886D01*
X100091963Y-49400500D01*
X101208036Y-49400499D01*
X101327418Y-49389886D01*
X101523049Y-49333909D01*
X101703407Y-49239698D01*
X101861109Y-49111109D01*
X101989698Y-48953407D01*
X102083909Y-48773049D01*
X102107561Y-48690387D01*
X102121915Y-48667709D01*
X102133064Y-48643297D01*
X102140317Y-48638635D01*
X102144928Y-48631351D01*
X102169262Y-48620033D01*
X102191842Y-48605523D01*
X102204322Y-48603728D01*
X102208282Y-48601887D01*
X102226777Y-48600500D01*
X102461415Y-48600500D01*
X102528454Y-48620185D01*
X102574209Y-48672989D01*
X102579118Y-48685489D01*
X102615186Y-48794334D01*
X102707288Y-48943656D01*
X102831344Y-49067712D01*
X102890596Y-49104258D01*
X102937321Y-49156204D01*
X102949500Y-49209797D01*
X102949500Y-53446627D01*
X102929815Y-53513666D01*
X102877011Y-53559421D01*
X102807853Y-53569365D01*
X102778048Y-53561188D01*
X102725239Y-53539314D01*
X102725237Y-53539313D01*
X102725236Y-53539313D01*
X102710698Y-53537399D01*
X102612727Y-53524500D01*
X102612720Y-53524500D01*
X102387280Y-53524500D01*
X102387272Y-53524500D01*
X102300393Y-53535938D01*
X102274764Y-53539313D01*
X102274762Y-53539313D01*
X102266708Y-53540374D01*
X102266316Y-53537399D01*
X102233684Y-53537399D01*
X102233292Y-53540374D01*
X102225237Y-53539313D01*
X102225236Y-53539313D01*
X102196271Y-53535499D01*
X102112727Y-53524500D01*
X102112720Y-53524500D01*
X101887280Y-53524500D01*
X101887272Y-53524500D01*
X101800393Y-53535938D01*
X101774764Y-53539313D01*
X101774762Y-53539313D01*
X101766708Y-53540374D01*
X101766316Y-53537399D01*
X101733684Y-53537399D01*
X101733292Y-53540374D01*
X101725237Y-53539313D01*
X101725236Y-53539313D01*
X101696271Y-53535499D01*
X101612727Y-53524500D01*
X101612720Y-53524500D01*
X101387280Y-53524500D01*
X101387272Y-53524500D01*
X101300393Y-53535938D01*
X101274764Y-53539313D01*
X101274762Y-53539313D01*
X101266708Y-53540374D01*
X101266316Y-53537399D01*
X101233684Y-53537399D01*
X101233292Y-53540374D01*
X101225237Y-53539313D01*
X101225236Y-53539313D01*
X101196271Y-53535499D01*
X101112727Y-53524500D01*
X101112720Y-53524500D01*
X100887280Y-53524500D01*
X100887272Y-53524500D01*
X100800393Y-53535938D01*
X100774764Y-53539313D01*
X100774762Y-53539313D01*
X100766708Y-53540374D01*
X100766316Y-53537399D01*
X100733684Y-53537399D01*
X100733292Y-53540374D01*
X100725237Y-53539313D01*
X100725236Y-53539313D01*
X100696271Y-53535499D01*
X100612727Y-53524500D01*
X100612720Y-53524500D01*
X100387280Y-53524500D01*
X100387272Y-53524500D01*
X100300393Y-53535938D01*
X100274764Y-53539313D01*
X100274762Y-53539313D01*
X100266708Y-53540374D01*
X100266316Y-53537399D01*
X100233684Y-53537399D01*
X100233292Y-53540374D01*
X100225237Y-53539313D01*
X100225236Y-53539313D01*
X100196271Y-53535499D01*
X100112727Y-53524500D01*
X100112720Y-53524500D01*
X99887280Y-53524500D01*
X99887272Y-53524500D01*
X99800393Y-53535938D01*
X99774764Y-53539313D01*
X99774762Y-53539313D01*
X99766708Y-53540374D01*
X99766316Y-53537399D01*
X99733684Y-53537399D01*
X99733292Y-53540374D01*
X99725237Y-53539313D01*
X99725236Y-53539313D01*
X99696271Y-53535499D01*
X99612727Y-53524500D01*
X99612720Y-53524500D01*
X99387280Y-53524500D01*
X99387272Y-53524500D01*
X99300393Y-53535938D01*
X99274764Y-53539313D01*
X99274762Y-53539313D01*
X99266708Y-53540374D01*
X99266316Y-53537399D01*
X99233684Y-53537399D01*
X99233292Y-53540374D01*
X99225237Y-53539313D01*
X99225236Y-53539313D01*
X99196271Y-53535499D01*
X99112727Y-53524500D01*
X99112720Y-53524500D01*
X98887280Y-53524500D01*
X98887272Y-53524500D01*
X98800393Y-53535938D01*
X98774764Y-53539313D01*
X98774762Y-53539313D01*
X98766708Y-53540374D01*
X98766316Y-53537399D01*
X98733684Y-53537399D01*
X98733292Y-53540374D01*
X98725237Y-53539313D01*
X98725236Y-53539313D01*
X98696271Y-53535499D01*
X98612727Y-53524500D01*
X98612720Y-53524500D01*
X98387280Y-53524500D01*
X98387272Y-53524500D01*
X98300393Y-53535938D01*
X98274764Y-53539313D01*
X98274762Y-53539313D01*
X98266708Y-53540374D01*
X98266316Y-53537399D01*
X98233684Y-53537399D01*
X98233292Y-53540374D01*
X98225237Y-53539313D01*
X98225236Y-53539313D01*
X98196271Y-53535499D01*
X98112727Y-53524500D01*
X98112720Y-53524500D01*
X97887280Y-53524500D01*
X97887272Y-53524500D01*
X97800393Y-53535938D01*
X97774764Y-53539313D01*
X97774762Y-53539313D01*
X97766708Y-53540374D01*
X97766316Y-53537399D01*
X97733684Y-53537399D01*
X97733292Y-53540374D01*
X97725237Y-53539313D01*
X97725236Y-53539313D01*
X97696271Y-53535499D01*
X97612727Y-53524500D01*
X97612720Y-53524500D01*
X97387280Y-53524500D01*
X97387272Y-53524500D01*
X97300393Y-53535938D01*
X97274764Y-53539313D01*
X97274762Y-53539313D01*
X97266708Y-53540374D01*
X97266316Y-53537399D01*
X97233684Y-53537399D01*
X97233292Y-53540374D01*
X97225237Y-53539313D01*
X97225236Y-53539313D01*
X97196271Y-53535499D01*
X97112727Y-53524500D01*
X97112720Y-53524500D01*
X96887280Y-53524500D01*
X96887272Y-53524500D01*
X96800393Y-53535938D01*
X96774764Y-53539313D01*
X96774762Y-53539313D01*
X96766708Y-53540374D01*
X96766316Y-53537399D01*
X96733684Y-53537399D01*
X96733292Y-53540374D01*
X96725237Y-53539313D01*
X96725236Y-53539313D01*
X96696271Y-53535499D01*
X96612727Y-53524500D01*
X96612720Y-53524500D01*
X96387280Y-53524500D01*
X96387272Y-53524500D01*
X96300393Y-53535938D01*
X96274764Y-53539313D01*
X96274762Y-53539313D01*
X96266708Y-53540374D01*
X96266316Y-53537399D01*
X96233684Y-53537399D01*
X96233292Y-53540374D01*
X96225237Y-53539313D01*
X96225236Y-53539313D01*
X96196271Y-53535499D01*
X96112727Y-53524500D01*
X96112720Y-53524500D01*
X95887280Y-53524500D01*
X95887272Y-53524500D01*
X95800393Y-53535938D01*
X95774764Y-53539313D01*
X95774762Y-53539313D01*
X95766708Y-53540374D01*
X95766316Y-53537399D01*
X95733684Y-53537399D01*
X95733292Y-53540374D01*
X95725237Y-53539313D01*
X95725236Y-53539313D01*
X95696271Y-53535499D01*
X95612727Y-53524500D01*
X95612720Y-53524500D01*
X95387280Y-53524500D01*
X95387272Y-53524500D01*
X95300393Y-53535938D01*
X95274764Y-53539313D01*
X95274762Y-53539313D01*
X95266708Y-53540374D01*
X95266316Y-53537399D01*
X95233684Y-53537399D01*
X95233292Y-53540374D01*
X95225237Y-53539313D01*
X95225236Y-53539313D01*
X95196271Y-53535499D01*
X95112727Y-53524500D01*
X95112720Y-53524500D01*
X94887280Y-53524500D01*
X94887272Y-53524500D01*
X94800393Y-53535938D01*
X94774764Y-53539313D01*
X94774762Y-53539313D01*
X94766708Y-53540374D01*
X94766475Y-53538604D01*
X94737087Y-53540900D01*
X94726354Y-53539776D01*
X94725236Y-53539313D01*
X94612720Y-53524500D01*
X94580455Y-53524500D01*
X94574018Y-53523826D01*
X94547447Y-53512906D01*
X94519892Y-53504815D01*
X94515540Y-53499793D01*
X94509393Y-53497267D01*
X94492942Y-53473713D01*
X94474137Y-53452011D01*
X94472958Y-53445101D01*
X94469386Y-53439986D01*
X94468598Y-53419528D01*
X94463440Y-53389278D01*
X94465500Y-53366616D01*
X94465500Y-52853384D01*
X94459086Y-52782804D01*
X94408478Y-52620394D01*
X94320472Y-52474815D01*
X94320470Y-52474813D01*
X94320469Y-52474811D01*
X94200188Y-52354530D01*
X94171117Y-52336956D01*
X94054606Y-52266522D01*
X93892196Y-52215914D01*
X93892194Y-52215913D01*
X93892192Y-52215913D01*
X93842778Y-52211423D01*
X93821616Y-52209500D01*
X93158384Y-52209500D01*
X93139145Y-52211248D01*
X93087807Y-52215913D01*
X92925393Y-52266522D01*
X92779811Y-52354530D01*
X92659530Y-52474811D01*
X92571522Y-52620393D01*
X92520913Y-52782807D01*
X92518219Y-52812455D01*
X92514500Y-52853384D01*
X92514500Y-53366616D01*
X92516559Y-53389278D01*
X92515146Y-53396432D01*
X92517033Y-53403478D01*
X92508469Y-53430248D01*
X92503024Y-53457822D01*
X92497966Y-53463077D01*
X92495744Y-53470026D01*
X92474067Y-53487915D01*
X92454579Y-53508169D01*
X92446156Y-53510949D01*
X92441856Y-53514499D01*
X92424844Y-53517986D01*
X92407763Y-53523626D01*
X92400439Y-53524500D01*
X92387280Y-53524500D01*
X92274764Y-53539313D01*
X92274135Y-53539573D01*
X92264694Y-53540700D01*
X92245089Y-53537399D01*
X92233684Y-53537399D01*
X92233292Y-53540374D01*
X92225237Y-53539313D01*
X92225236Y-53539313D01*
X92196271Y-53535499D01*
X92112727Y-53524500D01*
X92112720Y-53524500D01*
X91887280Y-53524500D01*
X91887272Y-53524500D01*
X91800393Y-53535938D01*
X91774764Y-53539313D01*
X91774762Y-53539313D01*
X91766708Y-53540374D01*
X91766619Y-53539702D01*
X91756141Y-53539205D01*
X91735126Y-53540679D01*
X91725819Y-53539554D01*
X91725236Y-53539313D01*
X91612720Y-53524500D01*
X91601221Y-53524500D01*
X91593814Y-53523605D01*
X91568292Y-53512638D01*
X91541649Y-53504815D01*
X91536644Y-53499039D01*
X91529620Y-53496021D01*
X91514077Y-53472996D01*
X91495894Y-53452011D01*
X91494596Y-53444135D01*
X91490529Y-53438110D01*
X91490041Y-53416490D01*
X91485330Y-53387898D01*
X91495499Y-53288354D01*
X91495500Y-53288345D01*
X91495499Y-52741656D01*
X91494289Y-52729815D01*
X91485349Y-52642292D01*
X91485348Y-52642289D01*
X91474492Y-52609528D01*
X91432003Y-52481303D01*
X91431999Y-52481297D01*
X91431998Y-52481294D01*
X91342970Y-52336959D01*
X91342967Y-52336955D01*
X91223044Y-52217032D01*
X91223040Y-52217029D01*
X91078705Y-52128001D01*
X91078699Y-52127998D01*
X91078697Y-52127997D01*
X91078694Y-52127996D01*
X90917709Y-52074651D01*
X90818346Y-52064500D01*
X90221662Y-52064500D01*
X90221644Y-52064501D01*
X90122292Y-52074650D01*
X90122289Y-52074651D01*
X89961305Y-52127996D01*
X89961294Y-52128001D01*
X89816959Y-52217029D01*
X89816955Y-52217032D01*
X89697032Y-52336955D01*
X89697029Y-52336959D01*
X89608001Y-52481294D01*
X89607996Y-52481305D01*
X89554651Y-52642290D01*
X89544500Y-52741647D01*
X89544500Y-53288337D01*
X89544501Y-53288355D01*
X89554650Y-53387707D01*
X89554651Y-53387710D01*
X89607996Y-53548694D01*
X89608001Y-53548705D01*
X89697029Y-53693040D01*
X89697030Y-53693041D01*
X89697032Y-53693044D01*
X89816955Y-53812967D01*
X89822308Y-53817200D01*
X89862684Y-53874223D01*
X89865822Y-53944022D01*
X89865174Y-53946548D01*
X89864313Y-53949759D01*
X89849500Y-54062272D01*
X89849500Y-54574903D01*
X89840855Y-54604343D01*
X89834332Y-54634330D01*
X89830577Y-54639345D01*
X89829815Y-54641942D01*
X89813181Y-54662584D01*
X89810084Y-54665681D01*
X89748761Y-54699166D01*
X89722403Y-54702000D01*
X87866722Y-54702000D01*
X87799683Y-54682315D01*
X87753928Y-54629511D01*
X87747646Y-54612595D01*
X87701745Y-54454606D01*
X87701744Y-54454603D01*
X87701744Y-54454602D01*
X87618081Y-54313135D01*
X87618079Y-54313133D01*
X87618076Y-54313129D01*
X87501870Y-54196923D01*
X87501862Y-54196917D01*
X87360396Y-54113255D01*
X87360393Y-54113254D01*
X87202573Y-54067402D01*
X87202567Y-54067401D01*
X87165701Y-54064500D01*
X87165694Y-54064500D01*
X86734306Y-54064500D01*
X86734298Y-54064500D01*
X86697432Y-54067401D01*
X86697426Y-54067402D01*
X86539606Y-54113254D01*
X86539603Y-54113255D01*
X86398137Y-54196917D01*
X86398129Y-54196923D01*
X86281923Y-54313129D01*
X86281917Y-54313137D01*
X86198255Y-54454603D01*
X86198254Y-54454606D01*
X86152402Y-54612426D01*
X86152401Y-54612432D01*
X86149500Y-54649298D01*
X86149500Y-55815500D01*
X86146949Y-55824185D01*
X86148238Y-55833147D01*
X86137259Y-55857187D01*
X86129815Y-55882539D01*
X86122974Y-55888466D01*
X86119213Y-55896703D01*
X86096978Y-55910992D01*
X86077011Y-55928294D01*
X86066496Y-55930581D01*
X86060435Y-55934477D01*
X86025500Y-55939500D01*
X85974500Y-55939500D01*
X85907461Y-55919815D01*
X85861706Y-55867011D01*
X85850500Y-55815500D01*
X85850500Y-54649313D01*
X85850499Y-54649298D01*
X85847598Y-54612432D01*
X85847597Y-54612426D01*
X85801745Y-54454606D01*
X85801744Y-54454603D01*
X85801744Y-54454602D01*
X85718081Y-54313135D01*
X85718079Y-54313133D01*
X85718076Y-54313129D01*
X85601870Y-54196923D01*
X85601862Y-54196917D01*
X85460396Y-54113255D01*
X85460393Y-54113254D01*
X85302573Y-54067402D01*
X85302567Y-54067401D01*
X85265701Y-54064500D01*
X85265694Y-54064500D01*
X84834306Y-54064500D01*
X84834298Y-54064500D01*
X84797432Y-54067401D01*
X84797426Y-54067402D01*
X84639606Y-54113254D01*
X84639603Y-54113255D01*
X84498137Y-54196917D01*
X84498129Y-54196923D01*
X84381923Y-54313129D01*
X84381917Y-54313137D01*
X84298255Y-54454603D01*
X84298254Y-54454606D01*
X84252402Y-54612426D01*
X84252401Y-54612432D01*
X84249500Y-54649298D01*
X84249500Y-54995500D01*
X84229815Y-55062539D01*
X84177011Y-55108294D01*
X84125500Y-55119500D01*
X81769097Y-55119500D01*
X81702058Y-55099815D01*
X81656303Y-55047011D01*
X81646359Y-54977853D01*
X81675384Y-54914297D01*
X81681416Y-54907819D01*
X82927273Y-53661962D01*
X86828506Y-49760727D01*
X86828511Y-49760724D01*
X86838714Y-49750520D01*
X86838716Y-49750520D01*
X86950520Y-49638716D01*
X87029577Y-49501784D01*
X87070500Y-49349057D01*
X87070500Y-39030178D01*
X87049572Y-38952074D01*
X87040750Y-38919148D01*
X87040748Y-38919145D01*
X87038136Y-38909394D01*
X87029577Y-38877450D01*
X86997441Y-38821789D01*
X86994360Y-38816452D01*
X86994358Y-38816448D01*
X86950524Y-38740525D01*
X86950521Y-38740521D01*
X86950520Y-38740519D01*
X86838716Y-38628715D01*
X86838715Y-38628714D01*
X86834385Y-38624384D01*
X86834374Y-38624374D01*
X80356818Y-32146818D01*
X80323333Y-32085495D01*
X80320499Y-32059137D01*
X80320499Y-27522129D01*
X80320498Y-27522123D01*
X80320497Y-27522116D01*
X80314091Y-27462517D01*
X80263796Y-27327669D01*
X80263795Y-27327668D01*
X80263793Y-27327664D01*
X80177547Y-27212455D01*
X80177544Y-27212452D01*
X80062335Y-27126206D01*
X80062328Y-27126202D01*
X79927482Y-27075908D01*
X79927483Y-27075908D01*
X79867883Y-27069501D01*
X79867881Y-27069500D01*
X79867873Y-27069500D01*
X79867864Y-27069500D01*
X74672129Y-27069500D01*
X74672123Y-27069501D01*
X74612516Y-27075908D01*
X74477671Y-27126202D01*
X74477664Y-27126206D01*
X74362455Y-27212452D01*
X74362452Y-27212455D01*
X74276206Y-27327664D01*
X74276202Y-27327671D01*
X74225908Y-27462517D01*
X74219501Y-27522116D01*
X74219501Y-27522123D01*
X74219500Y-27522135D01*
X62300500Y-27522135D01*
X62300500Y-26154500D01*
X62320185Y-26087461D01*
X62372989Y-26041706D01*
X62424500Y-26030500D01*
X138575500Y-26030500D01*
X138642539Y-26050185D01*
G37*
%TD.AperFunction*%
%TD*%
M02*
