M48
; DRILL file KiCad 10.0.2 date 2026-05-25T19:49:05
; FORMAT={-:-/ absolute / metric / decimal}
; #@! TF.CreationDate,2026-05-25T19:49:05-07:00
; #@! TF.GenerationSoftware,Kicad,Pcbnew,10.0.2
; #@! TF.FileFunction,Plated,1,2,PTH
FMAT,2
METRIC
; #@! TA.AperFunction,Plated,PTH,ViaDrill
T1C0.300
; #@! TA.AperFunction,Plated,PTH,ComponentDrill
T2C0.600
; #@! TA.AperFunction,Plated,PTH,ComponentDrill
T3C1.000
; #@! TA.AperFunction,Plated,PTH,ComponentDrill
T4C1.020
%
G90
G05
T1
X84.07Y-64.35
X87.14Y-63.1
X94.51Y-33.79
X95.77Y-34.61
X101.92Y-58.87
X102.41Y-68.19
X102.78Y-57.98
X102.95Y-55.08
X103.63Y-70.86
X105.77Y-69.65
X106.137Y-67.037
X106.17Y-68.83
X107.264Y-72.218
X108.041Y-66.831
X108.48Y-59.375
X109.11Y-73.18
X111.629Y-72.489
X126.74Y-31.59
X131.61Y-38.2
T3
X113.32Y-64.87
X113.32Y-67.41
X113.32Y-69.95
X113.32Y-72.49
X113.32Y-75.03
X113.32Y-77.57
X117.19Y-32.77
X117.19Y-35.31
X117.19Y-37.85
X117.19Y-40.39
X117.19Y-42.93
X120.99Y-42.93
X123.53Y-42.93
X126.07Y-42.93
X128.61Y-42.93
X131.15Y-42.93
X134.77Y-32.65
X134.77Y-35.19
X134.77Y-37.73
X134.77Y-40.27
X134.77Y-42.81
X134.77Y-45.35
T4
X112.44Y-53.64
X112.44Y-56.18
X112.44Y-58.72
X112.44Y-61.26
X119.11Y-57.68
X119.11Y-60.22
X119.11Y-62.76
X119.11Y-65.3
T2
G00X90.8Y-27.53
M15
G01X90.8Y-26.93
M16
G05
G00X90.8Y-31.96
M15
G01X90.8Y-30.86
M16
G05
G00X99.44Y-27.53
M15
G01X99.44Y-26.93
M16
G05
G00X99.44Y-31.96
M15
G01X99.44Y-30.86
M16
G05
M30
