%TF.GenerationSoftware,KiCad,Pcbnew,10.0.5*%
%TF.CreationDate,2026-08-01T12:50:42-07:00*%
%TF.ProjectId,Wheel V3,57686565-6c20-4563-932e-6b696361645f,rev?*%
%TF.SameCoordinates,Original*%
%TF.FileFunction,Soldermask,Bot*%
%TF.FilePolarity,Negative*%
%FSLAX46Y46*%
G04 Gerber Fmt 4.6, Leading zero omitted, Abs format (unit mm)*
G04 Created by KiCad (PCBNEW 10.0.5) date 2026-08-01 12:50:42*
%MOMM*%
%LPD*%
G01*
G04 APERTURE LIST*
G04 Aperture macros list*
%AMRoundRect*
0 Rectangle with rounded corners*
0 $1 Rounding radius*
0 $2 $3 $4 $5 $6 $7 $8 $9 X,Y pos of 4 corners*
0 Add a 4 corners polygon primitive as box body*
4,1,4,$2,$3,$4,$5,$6,$7,$8,$9,$2,$3,0*
0 Add four circle primitives for the rounded corners*
1,1,$1+$1,$2,$3*
1,1,$1+$1,$4,$5*
1,1,$1+$1,$6,$7*
1,1,$1+$1,$8,$9*
0 Add four rect primitives between the rounded corners*
20,1,$1+$1,$2,$3,$4,$5,0*
20,1,$1+$1,$4,$5,$6,$7,0*
20,1,$1+$1,$6,$7,$8,$9,0*
20,1,$1+$1,$8,$9,$2,$3,0*%
G04 Aperture macros list end*
%ADD10C,0.500000*%
%ADD11O,2.000000X1.700000*%
%ADD12RoundRect,0.250000X-0.750000X0.600000X-0.750000X-0.600000X0.750000X-0.600000X0.750000X0.600000X0*%
%ADD13O,1.700000X1.950000*%
%ADD14RoundRect,0.250000X-0.600000X-0.725000X0.600000X-0.725000X0.600000X0.725000X-0.600000X0.725000X0*%
%ADD15RoundRect,0.250000X-0.725000X0.600000X-0.725000X-0.600000X0.725000X-0.600000X0.725000X0.600000X0*%
%ADD16O,1.950000X1.700000*%
%ADD17RoundRect,0.250000X0.725000X-0.600000X0.725000X0.600000X-0.725000X0.600000X-0.725000X-0.600000X0*%
%ADD18C,0.650000*%
%ADD19O,2.100000X1.000000*%
%ADD20O,1.600000X1.000000*%
%ADD21RoundRect,0.250000X0.600000X0.725000X-0.600000X0.725000X-0.600000X-0.725000X0.600000X-0.725000X0*%
%ADD22RoundRect,0.250000X-0.600000X-0.750000X0.600000X-0.750000X0.600000X0.750000X-0.600000X0.750000X0*%
%ADD23O,1.700000X2.000000*%
G04 APERTURE END LIST*
D10*
%TO.C,REF\u002A\u002A*%
X197636000Y-73748000D03*
X199136000Y-73748000D03*
X197636000Y-72898000D03*
X199136000Y-72898000D03*
X197636000Y-72048000D03*
X199136000Y-72048000D03*
X197636000Y-71198000D03*
X199136000Y-71198000D03*
X197636000Y-70348000D03*
X199136000Y-70348000D03*
X197636000Y-69498000D03*
X199136000Y-69498000D03*
X197636000Y-68648000D03*
X199136000Y-68648000D03*
%TD*%
%TO.C,REF\u002A\u002A*%
X197636000Y-80606000D03*
X199136000Y-80606000D03*
X197636000Y-79756000D03*
X199136000Y-79756000D03*
X197636000Y-78906000D03*
X199136000Y-78906000D03*
X197636000Y-78056000D03*
X199136000Y-78056000D03*
X197636000Y-77206000D03*
X199136000Y-77206000D03*
X197636000Y-76356000D03*
X199136000Y-76356000D03*
X197636000Y-75506000D03*
X199136000Y-75506000D03*
%TD*%
%TO.C,REF\u002A\u002A*%
X221732000Y-59464000D03*
X221732000Y-60964000D03*
X222582000Y-59464000D03*
X222582000Y-60964000D03*
X223432000Y-59464000D03*
X223432000Y-60964000D03*
X224282000Y-59464000D03*
X224282000Y-60964000D03*
X225132000Y-59464000D03*
X225132000Y-60964000D03*
X225982000Y-59464000D03*
X225982000Y-60964000D03*
X226832000Y-59464000D03*
X226832000Y-60964000D03*
%TD*%
%TO.C,REF\u002A\u002A*%
X214874000Y-59464000D03*
X214874000Y-60964000D03*
X215724000Y-59464000D03*
X215724000Y-60964000D03*
X216574000Y-59464000D03*
X216574000Y-60964000D03*
X217424000Y-59464000D03*
X217424000Y-60964000D03*
X218274000Y-59464000D03*
X218274000Y-60964000D03*
X219124000Y-59464000D03*
X219124000Y-60964000D03*
X219974000Y-59464000D03*
X219974000Y-60964000D03*
%TD*%
D11*
%TO.C,J9*%
X139954000Y-53300000D03*
D12*
X139954000Y-50800000D03*
%TD*%
D13*
%TO.C,J13*%
X224670000Y-77134500D03*
X222170000Y-77134500D03*
X219670000Y-77134500D03*
X217170000Y-77134500D03*
X214670000Y-77134500D03*
X212170000Y-77134500D03*
X209670000Y-77134500D03*
X207170000Y-77134500D03*
D14*
X204670000Y-77134500D03*
%TD*%
%TO.C,J10*%
X175888000Y-32766000D03*
D13*
X178388000Y-32766000D03*
X180888000Y-32766000D03*
X183388000Y-32766000D03*
X185888000Y-32766000D03*
%TD*%
D14*
%TO.C,J6*%
X153870000Y-25400000D03*
D13*
X156370000Y-25400000D03*
X158870000Y-25400000D03*
X161370000Y-25400000D03*
X163870000Y-25400000D03*
X166370000Y-25400000D03*
X168870000Y-25400000D03*
%TD*%
D15*
%TO.C,J12*%
X209550000Y-38380000D03*
D16*
X209550000Y-40880000D03*
X209550000Y-43380000D03*
X209550000Y-45880000D03*
X209550000Y-48380000D03*
X209550000Y-50880000D03*
X209550000Y-53380000D03*
X209550000Y-55880000D03*
X209550000Y-58380000D03*
%TD*%
D17*
%TO.C,J8*%
X198120000Y-40052000D03*
D16*
X198120000Y-37552000D03*
X198120000Y-35052000D03*
X198120000Y-32552000D03*
%TD*%
D18*
%TO.C,J2*%
X223514500Y-31135000D03*
X223514500Y-25355000D03*
D19*
X222984500Y-32565000D03*
D20*
X227164500Y-32565000D03*
D19*
X222984500Y-23925000D03*
D20*
X227164500Y-23925000D03*
%TD*%
D14*
%TO.C,J11*%
X163950000Y-71120000D03*
D13*
X166450000Y-71120000D03*
X168950000Y-71120000D03*
X171450000Y-71120000D03*
X173950000Y-71120000D03*
%TD*%
D15*
%TO.C,J3*%
X150114000Y-62484000D03*
D16*
X150114000Y-64984000D03*
X150114000Y-67484000D03*
X150114000Y-69984000D03*
X150114000Y-72484000D03*
X150114000Y-74984000D03*
X150114000Y-77484000D03*
%TD*%
D21*
%TO.C,J4*%
X202692000Y-48514000D03*
D13*
X200192000Y-48514000D03*
X197692000Y-48514000D03*
X195192000Y-48514000D03*
X192692000Y-48514000D03*
%TD*%
D12*
%TO.C,J7*%
X140208000Y-41950000D03*
D11*
X140208000Y-44450000D03*
%TD*%
D21*
%TO.C,J5*%
X182720000Y-26670000D03*
D13*
X180220000Y-26670000D03*
X177720000Y-26670000D03*
X175220000Y-26670000D03*
%TD*%
D22*
%TO.C,J1*%
X181650000Y-71120000D03*
D23*
X184150000Y-71120000D03*
%TD*%
M02*
