M48
; DRILL file KiCad 10.0.3 date 2026-07-06T12:51:37
; FORMAT={-:-/ absolute / metric / decimal}
; #@! TF.CreationDate,2026-07-06T12:51:37-07:00
; #@! TF.GenerationSoftware,Kicad,Pcbnew,10.0.3
; #@! TF.FileFunction,Plated,1,2,PTH
FMAT,2
METRIC
; #@! TA.AperFunction,Plated,PTH,ViaDrill
T1C0.300
; #@! TA.AperFunction,Plated,PTH,ComponentDrill
T2C0.600
; #@! TA.AperFunction,Plated,PTH,ComponentDrill
T3C0.950
; #@! TA.AperFunction,Plated,PTH,ComponentDrill
T4C1.000
%
G90
G05
T1
X142.748Y-56.134
X147.558Y-46.356
X148.082Y-41.148
X149.108Y-47.244
X151.638Y-68.834
X152.908Y-53.34
X153.162Y-55.88
X155.194Y-46.99
X157.734Y-50.09
X157.734Y-50.89
X158.426Y-30.804
X159.258Y-48.89
X161.036Y-55.88
X161.798Y-55.626
X162.306Y-35.814
X163.576Y-56.642
X163.83Y-35.814
X164.084Y-30.734
X166.116Y-37.338
X172.899Y-44.358
X175.514Y-40.894
X175.514Y-42.164
X176.022Y-37.084
X176.53Y-44.958
X176.83Y-38.613
X179.054Y-51.39
X179.324Y-42.672
X180.34Y-37.592
X180.563Y-44.602
X180.724Y-43.818
X181.102Y-38.354
X181.356Y-40.64
X183.642Y-42.672
X189.738Y-33.02
X189.738Y-35.814
X202.946Y-31.496
X208.28Y-31.242
X212.598Y-26.162
X213.106Y-28.702
X213.333Y-24.384
X223.774Y-27.395
X224.028Y-28.702
T3
X91.52Y-74.93
X94.02Y-74.93
X96.52Y-74.93
X99.02Y-74.93
X101.52Y-74.93
X104.02Y-74.93
X106.52Y-74.93
X109.02Y-74.93
X111.52Y-74.93
X150.114Y-62.484
X150.114Y-64.984
X150.114Y-67.484
X150.114Y-69.984
X150.114Y-72.484
X150.114Y-74.984
X150.114Y-77.484
X153.87Y-25.4
X156.37Y-25.4
X158.87Y-25.4
X161.37Y-25.4
X163.87Y-25.4
X163.95Y-71.12
X166.37Y-25.4
X166.45Y-71.12
X168.87Y-25.4
X168.95Y-71.12
X171.45Y-71.12
X173.95Y-71.12
X175.22Y-26.67
X175.888Y-32.766
X177.72Y-26.67
X178.388Y-32.766
X180.22Y-26.67
X180.888Y-32.766
X182.72Y-26.67
X183.388Y-32.766
X185.888Y-32.766
X192.692Y-48.514
X195.192Y-48.514
X197.692Y-48.514
X198.12Y-32.552
X198.12Y-35.052
X198.12Y-37.552
X198.12Y-40.052
X200.192Y-48.514
X202.692Y-48.514
X209.55Y-38.38
X209.55Y-40.88
X209.55Y-43.38
X209.55Y-45.88
X209.55Y-48.38
X209.55Y-50.88
X209.55Y-53.38
X209.55Y-55.88
X209.55Y-58.38
T4
X130.81Y-41.95
X130.81Y-44.45
X130.81Y-50.84
X130.81Y-53.34
X181.65Y-71.12
X184.15Y-71.12
T2
G00X222.434Y-23.925
M15
G01X223.534Y-23.925
M16
G05
G00X222.434Y-32.565
M15
G01X223.534Y-32.565
M16
G05
G00X226.864Y-23.925
M15
G01X227.464Y-23.925
M16
G05
G00X226.864Y-32.565
M15
G01X227.464Y-32.565
M16
G05
M30
