M48
; DRILL file KiCad 10.0.5 date 2026-08-01T12:50:45
; FORMAT={-:-/ absolute / metric / decimal}
; #@! TF.CreationDate,2026-08-01T12:50:45-07:00
; #@! TF.GenerationSoftware,Kicad,Pcbnew,10.0.5
; #@! TF.FileFunction,NonPlated,1,2,NPTH
FMAT,2
METRIC
; #@! TA.AperFunction,NonPlated,NPTH,ComponentDrill
T1C0.500
; #@! TA.AperFunction,NonPlated,NPTH,ComponentDrill
T2C0.650
%
G90
G05
T1
X197.636Y-68.648
X197.636Y-69.498
X197.636Y-70.348
X197.636Y-71.198
X197.636Y-72.048
X197.636Y-72.898
X197.636Y-73.748
X197.636Y-75.506
X197.636Y-76.356
X197.636Y-77.206
X197.636Y-78.056
X197.636Y-78.906
X197.636Y-79.756
X197.636Y-80.606
X199.136Y-68.648
X199.136Y-69.498
X199.136Y-70.348
X199.136Y-71.198
X199.136Y-72.048
X199.136Y-72.898
X199.136Y-73.748
X199.136Y-75.506
X199.136Y-76.356
X199.136Y-77.206
X199.136Y-78.056
X199.136Y-78.906
X199.136Y-79.756
X199.136Y-80.606
X214.874Y-59.464
X214.874Y-60.964
X215.724Y-59.464
X215.724Y-60.964
X216.574Y-59.464
X216.574Y-60.964
X217.424Y-59.464
X217.424Y-60.964
X218.274Y-59.464
X218.274Y-60.964
X219.124Y-59.464
X219.124Y-60.964
X219.974Y-59.464
X219.974Y-60.964
X221.732Y-59.464
X221.732Y-60.964
X222.582Y-59.464
X222.582Y-60.964
X223.432Y-59.464
X223.432Y-60.964
X224.282Y-59.464
X224.282Y-60.964
X225.132Y-59.464
X225.132Y-60.964
X225.982Y-59.464
X225.982Y-60.964
X226.832Y-59.464
X226.832Y-60.964
T2
X223.514Y-25.355
X223.514Y-31.135
M30
