%TF.GenerationSoftware,KiCad,Pcbnew,10.0.3*%
%TF.CreationDate,2026-07-06T12:34:38-07:00*%
%TF.ProjectId,Wheel Brake,57686565-6c20-4427-9261-6b652e6b6963,rev?*%
%TF.SameCoordinates,Original*%
%TF.FileFunction,Legend,Top*%
%TF.FilePolarity,Positive*%
%FSLAX46Y46*%
G04 Gerber Fmt 4.6, Leading zero omitted, Abs format (unit mm)*
G04 Created by KiCad (PCBNEW 10.0.3) date 2026-07-06 12:34:38*
%MOMM*%
%LPD*%
G01*
G04 APERTURE LIST*
%ADD10C,0.150000*%
%ADD11C,0.120000*%
G04 APERTURE END LIST*
D10*
X178741833Y-59815080D02*
X178694214Y-59862700D01*
X178694214Y-59862700D02*
X178551357Y-59910319D01*
X178551357Y-59910319D02*
X178456119Y-59910319D01*
X178456119Y-59910319D02*
X178313262Y-59862700D01*
X178313262Y-59862700D02*
X178218024Y-59767461D01*
X178218024Y-59767461D02*
X178170405Y-59672223D01*
X178170405Y-59672223D02*
X178122786Y-59481747D01*
X178122786Y-59481747D02*
X178122786Y-59338890D01*
X178122786Y-59338890D02*
X178170405Y-59148414D01*
X178170405Y-59148414D02*
X178218024Y-59053176D01*
X178218024Y-59053176D02*
X178313262Y-58957938D01*
X178313262Y-58957938D02*
X178456119Y-58910319D01*
X178456119Y-58910319D02*
X178551357Y-58910319D01*
X178551357Y-58910319D02*
X178694214Y-58957938D01*
X178694214Y-58957938D02*
X178741833Y-59005557D01*
X179598976Y-59243652D02*
X179598976Y-59910319D01*
X179360881Y-58862700D02*
X179122786Y-59576985D01*
X179122786Y-59576985D02*
X179741833Y-59576985D01*
X141890761Y-57156057D02*
X141795523Y-57108438D01*
X141795523Y-57108438D02*
X141700285Y-57013200D01*
X141700285Y-57013200D02*
X141557428Y-56870342D01*
X141557428Y-56870342D02*
X141462190Y-56822723D01*
X141462190Y-56822723D02*
X141366952Y-56822723D01*
X141414571Y-57060819D02*
X141319333Y-57013200D01*
X141319333Y-57013200D02*
X141224095Y-56917961D01*
X141224095Y-56917961D02*
X141176476Y-56727485D01*
X141176476Y-56727485D02*
X141176476Y-56394152D01*
X141176476Y-56394152D02*
X141224095Y-56203676D01*
X141224095Y-56203676D02*
X141319333Y-56108438D01*
X141319333Y-56108438D02*
X141414571Y-56060819D01*
X141414571Y-56060819D02*
X141605047Y-56060819D01*
X141605047Y-56060819D02*
X141700285Y-56108438D01*
X141700285Y-56108438D02*
X141795523Y-56203676D01*
X141795523Y-56203676D02*
X141843142Y-56394152D01*
X141843142Y-56394152D02*
X141843142Y-56727485D01*
X141843142Y-56727485D02*
X141795523Y-56917961D01*
X141795523Y-56917961D02*
X141700285Y-57013200D01*
X141700285Y-57013200D02*
X141605047Y-57060819D01*
X141605047Y-57060819D02*
X141414571Y-57060819D01*
X142795523Y-57060819D02*
X142224095Y-57060819D01*
X142509809Y-57060819D02*
X142509809Y-56060819D01*
X142509809Y-56060819D02*
X142414571Y-56203676D01*
X142414571Y-56203676D02*
X142319333Y-56298914D01*
X142319333Y-56298914D02*
X142224095Y-56346533D01*
X140208095Y-65904819D02*
X140208095Y-66714342D01*
X140208095Y-66714342D02*
X140255714Y-66809580D01*
X140255714Y-66809580D02*
X140303333Y-66857200D01*
X140303333Y-66857200D02*
X140398571Y-66904819D01*
X140398571Y-66904819D02*
X140589047Y-66904819D01*
X140589047Y-66904819D02*
X140684285Y-66857200D01*
X140684285Y-66857200D02*
X140731904Y-66809580D01*
X140731904Y-66809580D02*
X140779523Y-66714342D01*
X140779523Y-66714342D02*
X140779523Y-65904819D01*
X141160476Y-65904819D02*
X141779523Y-65904819D01*
X141779523Y-65904819D02*
X141446190Y-66285771D01*
X141446190Y-66285771D02*
X141589047Y-66285771D01*
X141589047Y-66285771D02*
X141684285Y-66333390D01*
X141684285Y-66333390D02*
X141731904Y-66381009D01*
X141731904Y-66381009D02*
X141779523Y-66476247D01*
X141779523Y-66476247D02*
X141779523Y-66714342D01*
X141779523Y-66714342D02*
X141731904Y-66809580D01*
X141731904Y-66809580D02*
X141684285Y-66857200D01*
X141684285Y-66857200D02*
X141589047Y-66904819D01*
X141589047Y-66904819D02*
X141303333Y-66904819D01*
X141303333Y-66904819D02*
X141208095Y-66857200D01*
X141208095Y-66857200D02*
X141160476Y-66809580D01*
X134857833Y-58748819D02*
X134524500Y-58272628D01*
X134286405Y-58748819D02*
X134286405Y-57748819D01*
X134286405Y-57748819D02*
X134667357Y-57748819D01*
X134667357Y-57748819D02*
X134762595Y-57796438D01*
X134762595Y-57796438D02*
X134810214Y-57844057D01*
X134810214Y-57844057D02*
X134857833Y-57939295D01*
X134857833Y-57939295D02*
X134857833Y-58082152D01*
X134857833Y-58082152D02*
X134810214Y-58177390D01*
X134810214Y-58177390D02*
X134762595Y-58225009D01*
X134762595Y-58225009D02*
X134667357Y-58272628D01*
X134667357Y-58272628D02*
X134286405Y-58272628D01*
X135714976Y-57748819D02*
X135524500Y-57748819D01*
X135524500Y-57748819D02*
X135429262Y-57796438D01*
X135429262Y-57796438D02*
X135381643Y-57844057D01*
X135381643Y-57844057D02*
X135286405Y-57986914D01*
X135286405Y-57986914D02*
X135238786Y-58177390D01*
X135238786Y-58177390D02*
X135238786Y-58558342D01*
X135238786Y-58558342D02*
X135286405Y-58653580D01*
X135286405Y-58653580D02*
X135334024Y-58701200D01*
X135334024Y-58701200D02*
X135429262Y-58748819D01*
X135429262Y-58748819D02*
X135619738Y-58748819D01*
X135619738Y-58748819D02*
X135714976Y-58701200D01*
X135714976Y-58701200D02*
X135762595Y-58653580D01*
X135762595Y-58653580D02*
X135810214Y-58558342D01*
X135810214Y-58558342D02*
X135810214Y-58320247D01*
X135810214Y-58320247D02*
X135762595Y-58225009D01*
X135762595Y-58225009D02*
X135714976Y-58177390D01*
X135714976Y-58177390D02*
X135619738Y-58129771D01*
X135619738Y-58129771D02*
X135429262Y-58129771D01*
X135429262Y-58129771D02*
X135334024Y-58177390D01*
X135334024Y-58177390D02*
X135286405Y-58225009D01*
X135286405Y-58225009D02*
X135238786Y-58320247D01*
X169832166Y-47559319D02*
X169832166Y-48273604D01*
X169832166Y-48273604D02*
X169784547Y-48416461D01*
X169784547Y-48416461D02*
X169689309Y-48511700D01*
X169689309Y-48511700D02*
X169546452Y-48559319D01*
X169546452Y-48559319D02*
X169451214Y-48559319D01*
X170832166Y-48559319D02*
X170260738Y-48559319D01*
X170546452Y-48559319D02*
X170546452Y-47559319D01*
X170546452Y-47559319D02*
X170451214Y-47702176D01*
X170451214Y-47702176D02*
X170355976Y-47797414D01*
X170355976Y-47797414D02*
X170260738Y-47845033D01*
X153082666Y-47428819D02*
X153082666Y-48143104D01*
X153082666Y-48143104D02*
X153035047Y-48285961D01*
X153035047Y-48285961D02*
X152939809Y-48381200D01*
X152939809Y-48381200D02*
X152796952Y-48428819D01*
X152796952Y-48428819D02*
X152701714Y-48428819D01*
X153511238Y-47524057D02*
X153558857Y-47476438D01*
X153558857Y-47476438D02*
X153654095Y-47428819D01*
X153654095Y-47428819D02*
X153892190Y-47428819D01*
X153892190Y-47428819D02*
X153987428Y-47476438D01*
X153987428Y-47476438D02*
X154035047Y-47524057D01*
X154035047Y-47524057D02*
X154082666Y-47619295D01*
X154082666Y-47619295D02*
X154082666Y-47714533D01*
X154082666Y-47714533D02*
X154035047Y-47857390D01*
X154035047Y-47857390D02*
X153463619Y-48428819D01*
X153463619Y-48428819D02*
X154082666Y-48428819D01*
X135215333Y-66622819D02*
X134882000Y-66146628D01*
X134643905Y-66622819D02*
X134643905Y-65622819D01*
X134643905Y-65622819D02*
X135024857Y-65622819D01*
X135024857Y-65622819D02*
X135120095Y-65670438D01*
X135120095Y-65670438D02*
X135167714Y-65718057D01*
X135167714Y-65718057D02*
X135215333Y-65813295D01*
X135215333Y-65813295D02*
X135215333Y-65956152D01*
X135215333Y-65956152D02*
X135167714Y-66051390D01*
X135167714Y-66051390D02*
X135120095Y-66099009D01*
X135120095Y-66099009D02*
X135024857Y-66146628D01*
X135024857Y-66146628D02*
X134643905Y-66146628D01*
X136120095Y-65622819D02*
X135643905Y-65622819D01*
X135643905Y-65622819D02*
X135596286Y-66099009D01*
X135596286Y-66099009D02*
X135643905Y-66051390D01*
X135643905Y-66051390D02*
X135739143Y-66003771D01*
X135739143Y-66003771D02*
X135977238Y-66003771D01*
X135977238Y-66003771D02*
X136072476Y-66051390D01*
X136072476Y-66051390D02*
X136120095Y-66099009D01*
X136120095Y-66099009D02*
X136167714Y-66194247D01*
X136167714Y-66194247D02*
X136167714Y-66432342D01*
X136167714Y-66432342D02*
X136120095Y-66527580D01*
X136120095Y-66527580D02*
X136072476Y-66575200D01*
X136072476Y-66575200D02*
X135977238Y-66622819D01*
X135977238Y-66622819D02*
X135739143Y-66622819D01*
X135739143Y-66622819D02*
X135643905Y-66575200D01*
X135643905Y-66575200D02*
X135596286Y-66527580D01*
X128717095Y-54032819D02*
X128717095Y-54842342D01*
X128717095Y-54842342D02*
X128764714Y-54937580D01*
X128764714Y-54937580D02*
X128812333Y-54985200D01*
X128812333Y-54985200D02*
X128907571Y-55032819D01*
X128907571Y-55032819D02*
X129098047Y-55032819D01*
X129098047Y-55032819D02*
X129193285Y-54985200D01*
X129193285Y-54985200D02*
X129240904Y-54937580D01*
X129240904Y-54937580D02*
X129288523Y-54842342D01*
X129288523Y-54842342D02*
X129288523Y-54032819D01*
X130193285Y-54366152D02*
X130193285Y-55032819D01*
X129955190Y-53985200D02*
X129717095Y-54699485D01*
X129717095Y-54699485D02*
X130336142Y-54699485D01*
%TO.C,D1*%
D11*
X148560000Y-58076000D02*
X158780000Y-58076000D01*
X148560000Y-62696000D02*
X148560000Y-58076000D01*
X151820000Y-62696000D02*
X151820000Y-61316000D01*
X155520000Y-62696000D02*
X155520000Y-61316000D01*
X158780000Y-58076000D02*
X158780000Y-62696000D01*
X158780000Y-61316000D02*
X148560000Y-61316000D01*
X158780000Y-62696000D02*
X148560000Y-62696000D01*
%TO.C,C4*%
X178647248Y-60400500D02*
X179169752Y-60400500D01*
X178647248Y-61870500D02*
X179169752Y-61870500D01*
%TO.C,Q1*%
X136876000Y-57446000D02*
X147096000Y-57446000D01*
X136876000Y-58826000D02*
X147096000Y-58826000D01*
X136876000Y-62066000D02*
X136876000Y-57446000D01*
X140136000Y-57446000D02*
X140136000Y-58826000D01*
X143836000Y-57446000D02*
X143836000Y-58826000D01*
X147096000Y-57446000D02*
X147096000Y-62066000D01*
X147096000Y-62066000D02*
X136876000Y-62066000D01*
%TO.C,U3*%
X138910000Y-67290000D02*
X143030000Y-67290000D01*
X138910000Y-67385000D02*
X138910000Y-67290000D01*
X138910000Y-72410000D02*
X138910000Y-72315000D01*
X143030000Y-67290000D02*
X143030000Y-67385000D01*
X143030000Y-72315000D02*
X143030000Y-72410000D01*
X143030000Y-72410000D02*
X138910000Y-72410000D01*
X138370000Y-67380000D02*
X138130000Y-67050000D01*
X138610000Y-67050000D01*
X138370000Y-67380000D01*
G36*
X138370000Y-67380000D02*
G01*
X138130000Y-67050000D01*
X138610000Y-67050000D01*
X138370000Y-67380000D01*
G37*
%TO.C,C2*%
X178581248Y-64464500D02*
X179103752Y-64464500D01*
X178581248Y-65934500D02*
X179103752Y-65934500D01*
%TO.C,R6*%
X134797436Y-59209000D02*
X135251564Y-59209000D01*
X134797436Y-60679000D02*
X135251564Y-60679000D01*
%TO.C,C3*%
X178581248Y-62432500D02*
X179103752Y-62432500D01*
X178581248Y-63902500D02*
X179103752Y-63902500D01*
%TO.C,J1*%
X162315500Y-51804500D02*
X162315500Y-54954500D01*
X162315500Y-54954500D02*
X165165500Y-57554500D01*
X165165500Y-49254500D02*
X162315500Y-51804500D01*
X165165500Y-57554500D02*
X178015500Y-57554500D01*
X178015500Y-49254500D02*
X165165500Y-49254500D01*
X178015500Y-57554500D02*
X178015500Y-49254500D01*
%TO.C,C1*%
X162333000Y-58666748D02*
X162333000Y-59189252D01*
X163803000Y-58666748D02*
X163803000Y-59189252D01*
%TO.C,J2*%
X145566000Y-51674000D02*
X145566000Y-54824000D01*
X145566000Y-54824000D02*
X148416000Y-57424000D01*
X148416000Y-49124000D02*
X145566000Y-51674000D01*
X148416000Y-57424000D02*
X161266000Y-57424000D01*
X161266000Y-49124000D02*
X148416000Y-49124000D01*
X161266000Y-57424000D02*
X161266000Y-49124000D01*
%TO.C,R1*%
X152680936Y-71147000D02*
X153135064Y-71147000D01*
X152680936Y-72617000D02*
X153135064Y-72617000D01*
%TO.C,R5*%
X135154936Y-67083000D02*
X135609064Y-67083000D01*
X135154936Y-68553000D02*
X135609064Y-68553000D01*
%TO.C,U2*%
X151102000Y-65512000D02*
X155222000Y-65512000D01*
X151102000Y-65607000D02*
X151102000Y-65512000D01*
X151102000Y-70632000D02*
X151102000Y-70537000D01*
X155222000Y-65512000D02*
X155222000Y-65607000D01*
X155222000Y-70537000D02*
X155222000Y-70632000D01*
X155222000Y-70632000D02*
X151102000Y-70632000D01*
X150562000Y-65602000D02*
X150322000Y-65272000D01*
X150802000Y-65272000D01*
X150562000Y-65602000D01*
G36*
X150562000Y-65602000D02*
G01*
X150322000Y-65272000D01*
X150802000Y-65272000D01*
X150562000Y-65602000D01*
G37*
%TO.C,R2*%
X146330936Y-70639000D02*
X146785064Y-70639000D01*
X146330936Y-72109000D02*
X146785064Y-72109000D01*
%TO.C,R3*%
X146330936Y-68607000D02*
X146785064Y-68607000D01*
X146330936Y-70077000D02*
X146785064Y-70077000D01*
%TO.C,U4*%
X127419000Y-55418000D02*
X131539000Y-55418000D01*
X127419000Y-55513000D02*
X127419000Y-55418000D01*
X127419000Y-60538000D02*
X127419000Y-60443000D01*
X131539000Y-55418000D02*
X131539000Y-55513000D01*
X131539000Y-60443000D02*
X131539000Y-60538000D01*
X131539000Y-60538000D02*
X127419000Y-60538000D01*
X126879000Y-55508000D02*
X126639000Y-55178000D01*
X127119000Y-55178000D01*
X126879000Y-55508000D01*
G36*
X126879000Y-55508000D02*
G01*
X126639000Y-55178000D01*
X127119000Y-55178000D01*
X126879000Y-55508000D01*
G37*
%TO.C,R4*%
X153135064Y-63527000D02*
X152680936Y-63527000D01*
X153135064Y-64997000D02*
X152680936Y-64997000D01*
%TO.C,U1*%
X164630500Y-66005500D02*
X164630500Y-67245500D01*
X164630500Y-67245500D02*
X165870500Y-67245500D01*
X164870500Y-58385500D02*
X176590500Y-58385500D01*
X164870500Y-67005500D02*
X164870500Y-58385500D01*
X176590500Y-58385500D02*
X176590500Y-67005500D01*
X176590500Y-67005500D02*
X164870500Y-67005500D01*
%TD*%
M02*
